<svg xmlns="http://www.w3.org/2000/svg" viewBox="0 -0.5 116 156" shape-rendering="crispEdges">
<metadata>Made with Pixels to Svg https://codepen.io/shshaw/pen/XbxvNj</metadata>
<path stroke="#303036" d="M2 0h112M114 1h1M115 2h1M115 3h1M115 4h1M90 5h1M115 5h1M90 6h1M115 6h1M89 7h1M115 7h1M3 8h87M115 8h1M115 9h1M115 10h1M115 11h1M115 12h1M115 13h1M115 14h1M115 15h1M115 16h1M115 17h1M115 18h1M115 19h1M115 20h1M115 21h1M115 22h1M115 23h1M115 24h1M115 25h1M115 26h1M3 27h5M109 27h4M115 27h1M3 28h1M115 28h1M3 29h1M115 29h1M3 30h1M115 30h1M3 31h1M115 31h1M3 32h1M115 32h1M3 33h1M115 33h1M3 34h1M115 34h1M3 35h1M115 35h1M3 36h1M115 36h1M3 37h1M115 37h1M3 38h1M115 38h1M3 39h1M115 39h1M3 40h1M115 40h1M3 41h1M115 41h1M3 42h1M115 42h1M3 43h1M115 43h1M3 44h1M115 44h1M3 45h1M115 45h1M3 46h1M115 46h1M3 47h1M115 47h1M3 48h1M115 48h1M3 49h1M115 49h1M3 50h1M115 50h1M3 51h1M115 51h1M3 52h1M115 52h1M3 53h1M115 53h1M3 54h1M115 54h1M3 55h1M115 55h1M3 56h1M115 56h1M3 57h1M115 57h1M3 58h1M115 58h1M3 59h1M115 59h1M3 60h1M115 60h1M3 61h1M115 61h1M3 62h1M115 62h1M3 63h1M115 63h1M3 64h1M115 64h1M3 65h1M115 65h1M3 66h1M115 66h1M3 67h1M115 67h1M3 68h1M115 68h1M3 69h1M115 69h1M3 70h1M115 70h1M3 71h1M115 71h1M3 72h1M115 72h1M3 73h1M115 73h1M3 74h1M115 74h1M3 75h1M115 75h1M3 76h1M115 76h1M3 77h1M115 77h1M3 78h1M115 78h1M3 79h1M115 79h1M3 80h1M115 80h1M3 81h1M115 81h1M3 82h1M115 82h1M3 83h1M115 83h1M3 84h1M115 84h1M3 85h1M115 85h1M3 86h1M115 86h1M3 87h1M115 87h1M3 88h1M115 88h1M3 89h1M115 89h1M3 90h1M115 90h1M3 91h1M115 91h1M3 92h1M115 92h1M3 93h1M115 93h1M3 94h1M115 94h1M3 95h1M115 95h1M3 96h1M115 96h1M3 97h1M115 97h1M3 98h1M115 98h1M3 99h1M115 99h1M6 100h107M115 100h1M115 101h1M115 102h1M115 103h1M115 104h1M115 105h1M115 106h1M115 107h1M115 108h1M115 109h1M6 110h107M115 110h1M112 111h1M115 111h1M112 112h1M115 112h1M23 113h74M112 113h1M115 113h1M10 114h1M14 114h1M16 114h1M20 114h1M112 114h1M115 114h1M8 115h1M10 115h1M12 115h1M14 115h1M16 115h1M18 115h1M20 115h1M112 115h1M115 115h1M8 116h1M10 116h1M12 116h1M14 116h1M16 116h1M18 116h1M20 116h1M112 116h1M115 116h1M10 117h1M12 117h1M14 117h1M16 117h1M18 117h1M20 117h1M111 117h1M115 117h1M8 118h1M14 118h1M17 118h1M19 118h1M110 118h1M115 118h1M109 119h1M114 119h1M108 120h1M113 120h1M23 121h74M107 121h1M112 121h1M10 122h1M14 122h1M16 122h1M20 122h1M106 122h1M111 122h1M8 123h1M10 123h1M12 123h1M14 123h1M16 123h1M18 123h1M20 123h1M105 123h1M110 123h1M8 124h1M10 124h1M12 124h1M14 124h1M16 124h1M18 124h1M20 124h1M104 124h1M109 124h1M10 125h1M12 125h1M14 125h1M16 125h1M18 125h1M20 125h1M103 125h1M108 125h1M8 126h1M14 126h1M17 126h1M19 126h1M102 126h1M107 126h1M101 127h1M106 127h1M100 128h1M105 128h1M23 129h74M100 129h1M104 129h1M10 130h1M14 130h1M16 130h1M20 130h1M100 130h1M103 130h1M8 131h1M10 131h1M12 131h1M14 131h1M16 131h1M18 131h1M20 131h1M100 131h1M103 131h1M8 132h1M10 132h1M12 132h1M14 132h1M16 132h1M18 132h1M20 132h1M100 132h1M103 132h1M10 133h1M12 133h1M14 133h1M16 133h1M18 133h1M20 133h1M100 133h1M8 134h1M14 134h1M17 134h1M19 134h1M100 134h1M100 135h1M100 136h1M23 137h74M100 137h1M10 138h1M14 138h1M16 138h1M20 138h1M100 138h1M8 139h1M10 139h1M12 139h1M14 139h1M16 139h1M18 139h1M20 139h1M100 139h1M8 140h1M10 140h1M12 140h1M14 140h1M16 140h1M18 140h1M20 140h1M100 140h1M10 141h1M12 141h1M14 141h1M16 141h1M18 141h1M20 141h1M100 141h1M8 142h1M14 142h1M17 142h1M19 142h1M100 142h1M100 143h1M100 144h1M100 145h1M100 146h1M100 147h1M100 148h1M7 149h91M100 149h1M100 150h1M100 151h1M3 152h1M100 152h1M4 153h96" />
<path stroke="#1b1b1f" d="M1 1h1M0 2h1M0 3h1M0 4h1M5 4h86M0 5h1M4 5h86M0 6h1M4 6h86M0 7h1M4 7h85M0 8h1M0 9h1M0 10h1M3 10h1M112 10h1M0 11h1M3 11h1M112 11h1M0 12h1M3 12h1M112 12h1M0 13h1M3 13h1M112 13h1M0 14h1M3 14h1M112 14h1M0 15h1M3 15h1M112 15h1M0 16h1M3 16h1M112 16h1M0 17h1M3 17h1M112 17h1M0 18h1M3 18h1M112 18h1M0 19h1M3 19h1M112 19h1M0 20h1M3 20h1M112 20h1M0 21h1M3 21h1M112 21h1M0 22h1M3 22h1M112 22h1M0 23h1M3 23h1M112 23h1M0 24h1M3 24h1M112 24h1M0 25h1M3 25h1M112 25h1M0 26h1M0 27h1M0 28h1M4 28h3M110 28h3M0 29h1M4 29h2M111 29h2M0 30h1M4 30h2M111 30h2M0 31h1M4 31h2M111 31h2M0 32h1M4 32h2M111 32h2M0 33h1M4 33h2M111 33h2M0 34h1M4 34h2M111 34h2M0 35h1M4 35h2M111 35h2M0 36h1M4 36h2M111 36h2M0 37h1M4 37h2M111 37h2M0 38h1M4 38h2M111 38h2M0 39h1M4 39h2M111 39h2M0 40h1M4 40h2M111 40h2M0 41h1M4 41h2M111 41h2M0 42h1M4 42h2M111 42h2M0 43h1M4 43h2M111 43h2M0 44h1M4 44h2M111 44h2M0 45h1M4 45h2M111 45h2M0 46h1M4 46h2M111 46h2M0 47h1M4 47h2M111 47h2M0 48h1M4 48h2M111 48h2M0 49h1M4 49h2M111 49h2M0 50h1M4 50h2M111 50h2M0 51h1M4 51h2M111 51h2M0 52h1M4 52h2M111 52h2M0 53h1M4 53h2M111 53h2M0 54h1M4 54h2M111 54h2M0 55h1M4 55h2M111 55h2M0 56h1M4 56h2M111 56h2M0 57h1M4 57h2M111 57h2M0 58h1M4 58h2M111 58h2M0 59h1M4 59h2M111 59h2M0 60h1M4 60h2M111 60h2M0 61h1M4 61h2M111 61h2M0 62h1M4 62h2M111 62h2M0 63h1M4 63h2M111 63h2M0 64h1M4 64h2M111 64h2M0 65h1M4 65h2M111 65h2M0 66h1M4 66h2M111 66h2M0 67h1M4 67h2M111 67h2M0 68h1M4 68h2M111 68h2M0 69h1M4 69h2M111 69h2M0 70h1M4 70h2M111 70h2M0 71h1M4 71h2M111 71h2M0 72h1M4 72h2M111 72h2M0 73h1M4 73h2M111 73h2M0 74h1M4 74h2M111 74h2M0 75h1M4 75h2M111 75h2M0 76h1M4 76h2M111 76h2M0 77h1M4 77h2M111 77h2M0 78h1M4 78h2M111 78h2M0 79h1M4 79h2M111 79h2M0 80h1M4 80h2M111 80h2M0 81h1M4 81h2M111 81h2M0 82h1M4 82h2M111 82h2M0 83h1M4 83h2M111 83h2M0 84h1M4 84h2M111 84h2M0 85h1M4 85h2M111 85h2M0 86h1M4 86h2M111 86h2M0 87h1M4 87h2M111 87h2M0 88h1M4 88h2M111 88h2M0 89h1M4 89h2M111 89h2M0 90h1M4 90h2M111 90h2M0 91h1M4 91h2M111 91h2M0 92h1M4 92h2M111 92h2M0 93h1M4 93h2M111 93h2M0 94h1M4 94h2M111 94h2M0 95h1M4 95h2M111 95h2M0 96h1M4 96h2M111 96h2M0 97h1M4 97h2M111 97h2M0 98h1M4 98h3M110 98h3M0 99h1M4 99h4M109 99h4M0 100h1M0 101h1M3 101h1M112 101h1M0 102h1M3 102h1M112 102h1M0 103h1M3 103h1M112 103h1M0 104h1M3 104h1M112 104h1M0 105h1M3 105h1M112 105h1M0 106h1M3 106h1M112 106h1M0 107h1M3 107h1M112 107h1M0 108h1M3 108h1M112 108h1M0 109h1M3 109h1M112 109h1M0 110h1M0 111h1M4 111h108M0 112h1M4 112h108M0 113h1M4 113h18M98 113h14M0 114h1M4 114h3M17 114h2M21 114h1M98 114h14M0 115h1M4 115h3M21 115h1M98 115h14M0 116h1M4 116h3M21 116h1M98 116h14M0 117h1M4 117h3M21 117h1M98 117h13M0 118h1M4 118h3M9 118h2M15 118h1M20 118h2M98 118h12M0 119h1M4 119h18M98 119h11M0 120h1M4 120h104M0 121h1M4 121h18M98 121h9M0 122h1M4 122h3M17 122h2M21 122h1M98 122h8M0 123h1M4 123h3M21 123h1M98 123h7M0 124h1M4 124h3M21 124h1M98 124h6M0 125h1M4 125h3M21 125h1M98 125h5M0 126h1M4 126h3M9 126h2M15 126h1M20 126h2M98 126h4M0 127h1M4 127h18M98 127h3M0 128h1M4 128h96M0 129h1M4 129h18M98 129h2M0 130h1M4 130h3M17 130h2M21 130h1M98 130h2M0 131h1M4 131h3M21 131h1M98 131h2M0 132h1M4 132h3M21 132h1M98 132h2M0 133h1M4 133h3M21 133h1M98 133h2M103 133h1M0 134h1M4 134h3M9 134h2M15 134h1M20 134h2M98 134h2M103 134h1M0 135h1M4 135h18M98 135h2M103 135h1M0 136h1M4 136h96M103 136h1M0 137h1M4 137h18M98 137h2M103 137h1M0 138h1M4 138h3M17 138h2M21 138h1M98 138h2M103 138h1M0 139h1M4 139h3M21 139h1M98 139h2M103 139h1M0 140h1M4 140h3M21 140h1M98 140h2M103 140h1M0 141h1M4 141h3M21 141h1M98 141h2M103 141h1M0 142h1M4 142h3M9 142h2M15 142h1M20 142h2M98 142h2M103 142h1M0 143h1M4 143h18M98 143h2M103 143h1M0 144h1M4 144h96M103 144h1M0 145h1M4 145h96M103 145h1M0 146h1M4 146h96M103 146h1M0 147h1M4 147h3M98 147h2M103 147h1M0 148h1M4 148h3M98 148h2M103 148h1M0 149h1M4 149h3M98 149h2M103 149h1M0 150h1M4 150h3M98 150h2M103 150h1M0 151h1M4 151h3M98 151h2M103 151h1M0 152h1M4 152h96M103 152h1M0 153h1M103 153h1M1 154h1M103 154h1M2 155h101" />
<path stroke="#4b4b54" d="M2 1h112M1 2h114M1 3h3M112 3h3M1 4h2M4 4h1M91 4h1M113 4h2M1 5h2M113 5h2M1 6h2M113 6h2M1 7h2M113 7h2M1 8h2M113 8h2M1 9h114M1 10h2M113 10h2M1 11h2M113 11h2M1 12h2M113 12h2M1 13h2M113 13h2M1 14h2M113 14h2M1 15h2M113 15h2M1 16h2M113 16h2M1 17h2M113 17h2M1 18h2M113 18h2M1 19h2M113 19h2M1 20h2M113 20h2M1 21h2M113 21h2M1 22h2M113 22h2M1 23h2M113 23h2M1 24h2M113 24h2M1 25h2M113 25h2M1 26h114M1 27h2M113 27h2M1 28h2M113 28h2M1 29h2M113 29h2M1 30h2M113 30h2M1 31h2M113 31h2M1 32h2M113 32h2M1 33h2M113 33h2M1 34h2M113 34h2M1 35h2M113 35h2M1 36h2M113 36h2M1 37h2M113 37h2M1 38h2M113 38h2M1 39h2M113 39h2M1 40h2M113 40h2M1 41h2M113 41h2M1 42h2M113 42h2M1 43h2M113 43h2M1 44h2M113 44h2M1 45h2M113 45h2M1 46h2M113 46h2M1 47h2M113 47h2M1 48h2M113 48h2M1 49h2M113 49h2M1 50h2M113 50h2M1 51h2M113 51h2M1 52h2M113 52h2M1 53h2M113 53h2M1 54h2M113 54h2M1 55h2M113 55h2M1 56h2M113 56h2M1 57h2M113 57h2M1 58h2M113 58h2M1 59h2M113 59h2M1 60h2M113 60h2M1 61h2M113 61h2M1 62h2M113 62h2M1 63h2M113 63h2M1 64h2M113 64h2M1 65h2M113 65h2M1 66h2M113 66h2M1 67h2M113 67h2M1 68h2M113 68h2M1 69h2M113 69h2M1 70h2M113 70h2M1 71h2M113 71h2M1 72h2M113 72h2M1 73h2M113 73h2M1 74h2M113 74h2M1 75h2M113 75h2M1 76h2M113 76h2M1 77h2M113 77h2M1 78h2M113 78h2M1 79h2M113 79h2M1 80h2M113 80h2M1 81h2M113 81h2M1 82h2M113 82h2M1 83h2M113 83h2M1 84h2M113 84h2M1 85h2M113 85h2M1 86h2M113 86h2M1 87h2M113 87h2M1 88h2M113 88h2M1 89h2M113 89h2M1 90h2M113 90h2M1 91h2M113 91h2M1 92h2M113 92h2M1 93h2M113 93h2M1 94h2M113 94h2M1 95h2M113 95h2M1 96h2M113 96h2M1 97h2M113 97h2M1 98h2M113 98h2M1 99h2M113 99h2M1 100h5M113 100h2M1 101h2M113 101h2M1 102h2M113 102h2M1 103h2M113 103h2M1 104h2M113 104h2M1 105h2M113 105h2M1 106h2M113 106h2M1 107h2M113 107h2M1 108h2M113 108h2M1 109h2M113 109h2M1 110h5M113 110h2M1 111h2M113 111h2M1 112h2M113 112h2M1 113h2M113 113h2M1 114h2M113 114h2M1 115h2M113 115h2M1 116h2M113 116h2M1 117h2M112 117h3M1 118h2M111 118h4M1 119h2M110 119h4M1 120h2M109 120h4M1 121h2M108 121h4M1 122h2M107 122h4M1 123h2M106 123h4M1 124h2M105 124h4M1 125h2M104 125h4M1 126h2M103 126h4M1 127h2M102 127h4M1 128h2M101 128h4M1 129h2M101 129h3M1 130h2M101 130h2M1 131h2M101 131h2M1 132h2M101 132h2M1 133h2M101 133h2M1 134h2M101 134h2M1 135h2M101 135h2M1 136h2M101 136h2M1 137h2M101 137h2M1 138h2M101 138h2M1 139h2M101 139h2M1 140h2M101 140h2M1 141h2M101 141h2M1 142h2M101 142h2M1 143h2M101 143h2M1 144h2M101 144h2M1 145h2M101 145h2M1 146h2M101 146h2M1 147h2M8 147h1M11 147h2M14 147h4M19 147h1M21 147h1M23 147h2M26 147h1M28 147h2M32 147h1M34 147h2M37 147h3M41 147h2M44 147h3M48 147h1M51 147h1M53 147h2M56 147h1M58 147h2M61 147h1M64 147h1M67 147h1M70 147h2M73 147h4M78 147h1M80 147h1M82 147h2M85 147h1M87 147h2M91 147h1M93 147h2M96 147h2M101 147h2M1 148h2M8 148h2M11 148h1M14 148h1M17 148h1M19 148h1M21 148h3M26 148h1M28 148h1M30 148h1M32 148h1M35 148h1M37 148h1M39 148h1M41 148h1M44 148h1M46 148h1M49 148h1M51 148h1M54 148h1M56 148h1M59 148h1M61 148h1M63 148h1M67 148h2M70 148h1M73 148h1M76 148h1M78 148h1M80 148h3M85 148h1M87 148h1M89 148h1M91 148h1M94 148h1M96 148h1M101 148h2M1 149h2M101 149h2M1 150h2M8 150h2M12 150h1M14 150h2M17 150h1M20 150h1M22 150h2M25 150h1M28 150h1M30 150h4M35 150h1M37 150h1M39 150h1M42 150h1M45 150h3M49 150h2M52 150h1M55 150h2M58 150h1M60 150h1M62 150h2M65 150h1M67 150h2M71 150h1M73 150h2M76 150h1M79 150h1M81 150h2M84 150h1M87 150h1M89 150h4M94 150h1M96 150h1M101 150h2M1 151h2M9 151h2M12 151h1M14 151h1M17 151h4M23 151h1M25 151h2M28 151h1M30 151h1M33 151h1M35 151h1M38 151h2M42 151h1M44 151h2M47 151h1M49 151h1M52 151h1M55 151h1M58 151h3M63 151h1M65 151h1M68 151h2M71 151h1M73 151h1M76 151h4M82 151h1M84 151h2M87 151h1M89 151h1M92 151h1M94 151h1M97 151h1M101 151h2M1 152h2M101 152h2M1 153h3M100 153h3M2 154h101" />
<path stroke="#7d7d8c" d="M4 3h88M3 4h1M3 5h1M3 6h1M3 7h1M3 111h1M3 112h1M3 113h1M3 114h1M3 115h1M3 116h1M3 117h1M3 118h1M3 119h1M3 120h1M3 121h1M3 122h1M3 123h1M3 124h1M3 125h1M3 126h1M3 127h1M3 128h1M3 129h1M3 130h1M3 131h1M3 132h1M3 133h1M3 134h1M3 135h1M3 136h1M3 137h1M3 138h1M3 139h1M3 140h1M3 141h1M3 142h1M3 143h1M3 144h1M3 145h1M3 146h1M3 147h1M3 148h1M3 149h1M3 150h1M3 151h1" />
<path stroke="#c4471d" d="M92 3h1M111 3h1M112 4h1M91 5h1M90 7h1M90 8h23" />
<path stroke="#f06020" d="M93 3h18M92 4h20M92 5h21M91 6h22M91 7h22M113 122h1M112 123h1M111 124h1M112 127h1M111 129h1M105 133h1M111 133h1M105 135h1M105 137h1M111 137h1M105 139h1M105 141h1M111 141h1M105 143h1M111 145h1M111 149h1M111 153h1" />
<path stroke="#000000" d="M4 10h108M4 11h108M4 12h108M4 13h108M4 14h108M4 15h108M4 16h108M4 17h108M4 18h108M4 19h108M4 20h108M4 21h108M4 22h108M4 23h108M4 24h108M4 25h108M8 27h101M7 28h1M109 28h1M6 29h1M110 29h1M6 30h1M110 30h1M6 31h1M110 31h1M6 32h1M110 32h1M6 33h1M110 33h1M6 34h1M110 34h1M6 35h1M110 35h1M6 36h1M110 36h1M6 37h1M110 37h1M6 38h1M110 38h1M6 39h1M110 39h1M6 40h1M110 40h1M6 41h1M110 41h1M6 42h1M110 42h1M6 43h1M110 43h1M6 44h1M110 44h1M6 45h1M110 45h1M6 46h1M110 46h1M6 47h1M110 47h1M6 48h1M110 48h1M6 49h1M110 49h1M6 50h1M110 50h1M6 51h1M110 51h1M6 52h1M110 52h1M6 53h1M110 53h1M6 54h1M110 54h1M6 55h1M110 55h1M6 56h1M110 56h1M6 57h1M110 57h1M6 58h1M110 58h1M6 59h1M110 59h1M6 60h1M110 60h1M6 61h1M110 61h1M6 62h1M110 62h1M6 63h1M110 63h1M6 64h1M110 64h1M6 65h1M110 65h1M6 66h1M110 66h1M6 67h1M110 67h1M6 68h1M110 68h1M6 69h1M110 69h1M6 70h1M110 70h1M6 71h1M110 71h1M6 72h1M110 72h1M6 73h1M110 73h1M6 74h1M110 74h1M6 75h1M110 75h1M6 76h1M110 76h1M6 77h1M110 77h1M6 78h1M110 78h1M6 79h1M110 79h1M6 80h1M110 80h1M6 81h1M110 81h1M6 82h1M110 82h1M6 83h1M110 83h1M6 84h1M110 84h1M6 85h1M110 85h1M6 86h1M110 86h1M6 87h1M110 87h1M6 88h1M110 88h1M6 89h1M110 89h1M6 90h1M110 90h1M6 91h1M110 91h1M6 92h1M110 92h1M6 93h1M110 93h1M6 94h1M110 94h1M6 95h1M110 95h1M6 96h1M110 96h1M6 97h1M110 97h1M7 98h1M109 98h1M8 99h101M4 101h108M4 102h108M4 103h108M4 104h108M4 105h108M4 106h108M4 107h108M4 108h108M4 109h108M22 113h1M97 113h1M22 114h1M97 114h1M22 115h1M97 115h1M22 116h1M97 116h1M22 117h1M97 117h1M22 118h1M97 118h1M22 119h76M22 121h1M97 121h1M22 122h1M97 122h1M22 123h1M97 123h1M22 124h1M97 124h1M22 125h1M97 125h1M22 126h1M97 126h1M22 127h76M22 129h1M97 129h1M22 130h1M97 130h1M22 131h1M97 131h1M22 132h1M97 132h1M22 133h1M97 133h1M22 134h1M97 134h1M22 135h76M22 137h1M97 137h1M22 138h1M97 138h1M22 139h1M97 139h1M22 140h1M97 140h1M22 141h1M97 141h1M22 142h1M97 142h1M22 143h76" />
<path stroke="#12a73f" d="M8 28h1M12 28h1M17 28h1M21 28h1M24 28h2M27 28h2M33 28h1M35 28h1M39 28h1M42 28h2M55 28h1M57 28h1M62 28h1M64 28h1M67 28h1M70 28h2M75 28h2M80 28h1M82 28h1M90 28h2M96 28h3M102 28h1M105 28h1M7 29h2M12 29h1M17 29h1M21 29h1M24 29h2M27 29h2M33 29h1M35 29h1M39 29h1M42 29h2M55 29h1M57 29h1M62 29h1M64 29h1M67 29h1M70 29h2M75 29h2M80 29h1M82 29h1M90 29h2M96 29h3M102 29h1M105 29h1" />
<path stroke="#24ff80" d="M9 28h1M16 28h1M23 28h1M58 28h1M65 28h1M72 28h1M79 28h1M9 29h1M16 29h1M23 29h1M58 29h1M65 29h1M72 29h1M79 29h1" />
<path stroke="#12a740" d="M10 28h2M13 28h2M19 28h1M26 28h1M29 28h1M34 28h1M40 28h1M45 28h6M52 28h2M59 28h3M63 28h1M66 28h1M74 28h1M77 28h1M83 28h3M87 28h2M92 28h1M99 28h1M101 28h1M103 28h1M10 29h2M13 29h2M19 29h1M26 29h1M29 29h1M34 29h1M40 29h1M45 29h6M52 29h2M59 29h3M63 29h1M66 29h1M74 29h1M77 29h1M83 29h3M87 29h2M92 29h1M99 29h1M101 29h1M103 29h1M109 29h1" />
<path stroke="#11a73f" d="M15 28h1M18 28h1M36 28h1M41 28h1M56 28h1M69 28h1M81 28h1M89 28h1M94 28h1M15 29h1M18 29h1M36 29h1M41 29h1M56 29h1M69 29h1M81 29h1M89 29h1M94 29h1" />
<path stroke="#12a63f" d="M20 28h1M32 28h1M54 28h1M73 28h1M20 29h1M32 29h1M54 29h1M73 29h1M8 30h1M12 30h4M17 30h2M20 30h3M25 30h2M31 30h1M33 30h1M35 30h2M39 30h1M41 30h3M45 30h1M48 30h1M50 30h1M52 30h1M54 30h1M60 30h1M64 30h1M66 30h1M68 30h3M73 30h1M75 30h1M77 30h2M80 30h2M83 30h2M87 30h1M95 30h1M97 30h1M102 30h4M109 30h1" />
<path stroke="#11a740" d="M22 28h1M68 28h1M95 28h1M104 28h1M106 28h1M22 29h1M68 29h1M95 29h1M104 29h1M106 29h1" />
<path stroke="#22ff80" d="M30 28h1M93 28h1M30 29h1M93 29h1" />
<path stroke="#12a640" d="M31 28h1M38 28h1M108 28h1M31 29h1M38 29h1M108 29h1" />
<path stroke="#24ff7e" d="M37 28h1M44 28h1M51 28h1M86 28h1M100 28h1M107 28h1M37 29h1M44 29h1M51 29h1M86 29h1M100 29h1M107 29h1M9 30h1M16 30h1M30 30h1M37 30h1M44 30h1M58 30h1M65 30h1M72 30h1M93 30h1M86 31h1" />
<path stroke="#11a640" d="M78 28h1M78 29h1" />
<path stroke="#12a53f" d="M7 30h1M11 30h1M27 30h2M38 30h1M47 30h1M53 30h1M56 30h2M61 30h2M76 30h1M82 30h1M85 30h1M88 30h1M94 30h1M96 30h1M29 31h1M40 31h1M54 31h1M78 31h1M88 31h1M99 31h1M102 31h1M104 31h1M106 31h1" />
<path stroke="#11a63f" d="M10 30h1M19 30h1M24 30h1M29 30h1M32 30h1M34 30h1M49 30h1M55 30h1M59 30h1M63 30h1M71 30h1M90 30h3M99 30h1M108 30h1" />
<path stroke="#22ff7e" d="M23 30h1M86 30h1M100 30h1M107 30h1M9 31h1M30 31h1M44 31h1M51 31h1M58 31h1M79 31h1" />
<path stroke="#12a63e" d="M40 30h1M98 30h1" />
<path stroke="#11a53f" d="M46 30h1M67 30h1M74 30h1M89 30h1M106 30h1M10 31h3M32 31h1M41 31h2M46 31h1M56 31h2M77 31h1M84 31h1M94 31h1M105 31h1M109 31h1" />
<path stroke="#22ff7c" d="M51 30h1M16 31h1M23 31h1M37 31h1M72 31h1M93 31h1M107 31h1M7 32h4M19 32h3M23 32h1M25 32h1M27 32h3M32 32h5M39 32h1M41 32h3M45 32h1M47 32h1M50 32h1M52 32h2M55 32h4M61 32h1M64 32h6M71 32h6M78 32h1M81 32h2M85 32h2M88 32h1M92 32h1M94 32h3M100 32h1M102 32h4M109 32h1M9 33h1M65 33h1M72 33h1M86 33h1M93 33h1" />
<path stroke="#24ff7c" d="M79 30h1M65 31h1M100 31h1M11 32h1M13 32h1M16 32h1M24 32h1M30 32h2M37 32h1M40 32h1M48 32h1M60 32h1M70 32h1M77 32h1M79 32h2M83 32h1M89 32h2M93 32h1M98 32h2M106 32h3M16 33h1M30 33h1" />
<path stroke="#11a63e" d="M101 30h1" />
<path stroke="#12a43f" d="M7 31h1M33 31h1M50 31h1M60 31h1M80 31h1M90 31h1M92 31h1M95 31h2" />
<path stroke="#12a43e" d="M8 31h1M17 31h1M26 31h3M35 31h2M47 31h1M49 31h1M53 31h1M61 31h1M63 31h2M101 31h1" />
<path stroke="#12a53e" d="M13 31h1M19 31h1M25 31h1M31 31h1M39 31h1M66 31h3M74 31h1M81 31h1M83 31h1M97 31h1" />
<path stroke="#11a43e" d="M14 31h2M22 31h1M34 31h1M48 31h1M70 31h1M75 31h1M85 31h1M87 31h1M98 31h1M103 31h1" />
<path stroke="#11a43f" d="M18 31h1M24 31h1M43 31h1M52 31h1M71 31h1M76 31h1M89 31h1" />
<path stroke="#11a53e" d="M20 31h2M38 31h1M45 31h1M55 31h1M59 31h1M62 31h1M69 31h1M73 31h1M82 31h1M91 31h1M108 31h1" />
<path stroke="#24ff7a" d="M12 32h1M38 32h1M59 32h1M62 32h1M101 32h1M23 33h1M37 33h1M44 33h1M51 33h1M107 33h1" />
<path stroke="#22ff7a" d="M14 32h2M17 32h2M22 32h1M26 32h1M44 32h1M46 32h1M49 32h1M51 32h1M54 32h1M63 32h1M84 32h1M87 32h1M91 32h1M97 32h1M58 33h1M79 33h1M100 33h1M9 34h1M16 34h1M23 34h1M30 34h1M44 34h1M51 34h1M58 34h1M65 34h1M72 34h1M79 34h1M86 34h1M93 34h1M100 34h1M107 34h1" />
<path stroke="#11a23e" d="M7 33h1M14 33h1M22 33h1M33 33h1M36 33h1M38 33h3M43 33h1M49 33h2M53 33h1M55 33h3M59 33h1M61 33h2M66 33h1M74 33h1M82 33h1M87 33h2M91 33h2M97 33h2M103 33h1M105 33h1M109 33h1" />
<path stroke="#11a33d" d="M8 33h1M12 33h1M17 33h1M42 33h1M52 33h1M75 33h2M90 33h1M94 33h1M101 33h2" />
<path stroke="#12a33e" d="M10 33h1M29 33h1" />
<path stroke="#12a23d" d="M11 33h1M20 33h1M31 33h1M64 33h1M67 33h2M71 33h1M73 33h1M77 33h1M81 33h1M85 33h1M106 33h1" />
<path stroke="#11a23d" d="M13 33h1M19 33h1M21 33h1M24 33h1M32 33h1M34 33h2M41 33h1M45 33h1M47 33h1M54 33h1M60 33h1M63 33h1M69 33h1M78 33h1M80 33h1M83 33h1M89 33h1M95 33h1M104 33h1M108 33h1" />
<path stroke="#11a33e" d="M15 33h1M18 33h1M26 33h3M46 33h1M84 33h1M99 33h1" />
<path stroke="#12a23e" d="M25 33h1M48 33h1M96 33h1" />
<path stroke="#12a33d" d="M70 33h1" />
<path stroke="#11a13d" d="M7 34h2M10 34h1M12 34h2M15 34h1M17 34h2M21 34h2M25 34h5M31 34h6M38 34h3M42 34h2M46 34h1M48 34h3M52 34h4M57 34h1M59 34h2M62 34h3M66 34h2M69 34h1M71 34h1M73 34h2M76 34h3M80 34h3M84 34h1M88 34h5M94 34h5M102 34h3M106 34h1M108 34h1" />
<path stroke="#11a13c" d="M11 34h1M14 34h1M20 34h1M45 34h1M47 34h1M56 34h1M68 34h1M70 34h1M75 34h1M83 34h1M85 34h1M99 34h1M101 34h1M105 34h1" />
<path stroke="#12a13c" d="M19 34h1M61 34h1" />
<path stroke="#11a03d" d="M24 34h1M87 34h1M109 34h1M27 35h1M73 35h1" />
<path stroke="#22ff78" d="M37 34h1M9 35h1M16 35h1M23 35h1M37 35h1M44 35h1M51 35h1M58 35h1M65 35h1M72 35h1M79 35h1M86 35h1M93 35h1M100 35h1M107 35h1M93 36h1" />
<path stroke="#12a13d" d="M41 34h1" />
<path stroke="#119f3d" d="M7 35h1M19 35h1M62 35h1" />
<path stroke="#11a03c" d="M8 35h1M13 35h1M17 35h1M20 35h2M28 35h2M32 35h1M36 35h1M40 35h1M42 35h2M47 35h2M53 35h1M56 35h2M60 35h1M63 35h1M66 35h4M71 35h1M75 35h2M83 35h1M87 35h4M92 35h1M94 35h1M97 35h2M102 35h2M108 35h1" />
<path stroke="#119f3c" d="M10 35h1M12 35h1M18 35h1M22 35h1M24 35h3M31 35h1M33 35h1M39 35h1M41 35h1M45 35h1M49 35h1M52 35h1M54 35h2M61 35h1M74 35h1M80 35h1M82 35h1M84 35h1M91 35h1M95 35h1M101 35h1M104 35h3M109 35h1" />
<path stroke="#109f3c" d="M11 35h1M14 35h1M35 35h1M38 35h1M46 35h1M50 35h1M59 35h1M64 35h1M70 35h1M77 35h1M96 35h1M99 35h1" />
<path stroke="#10a03c" d="M15 35h1M34 35h1M78 35h1M81 35h1M85 35h1" />
<path stroke="#20ff78" d="M30 35h1M9 36h1M44 36h1M72 36h1M100 36h1" />
<path stroke="#109e3b" d="M7 36h1M15 36h1M34 36h1M38 36h1M42 36h1M45 36h2M54 36h1M66 36h1M68 36h1M77 36h2M84 36h2M87 36h1M95 36h2M99 36h1M108 36h1" />
<path stroke="#119e3b" d="M8 36h1M10 36h4M17 36h5M24 36h1M26 36h1M32 36h2M35 36h2M39 36h1M41 36h1M48 36h3M55 36h1M59 36h1M61 36h4M70 36h1M74 36h1M76 36h1M80 36h3M88 36h1M94 36h1M98 36h1M103 36h1M106 36h1" />
<path stroke="#119e3c" d="M14 36h1M43 36h1M47 36h1M53 36h1M56 36h1M67 36h1M69 36h1M73 36h1M91 36h2M101 36h1M109 36h1" />
<path stroke="#22ff76" d="M16 36h1M23 36h1M30 36h1M37 36h1M51 36h1M58 36h1M65 36h1M79 36h1M86 36h1M107 36h1M23 37h1M30 37h1M65 37h1M72 37h1M86 37h1M100 37h1" />
<path stroke="#109e3c" d="M22 36h1M27 36h3M31 36h1M40 36h1M57 36h1M71 36h1M75 36h1M83 36h1M89 36h2M97 36h1M102 36h1M105 36h1" />
<path stroke="#109d3c" d="M25 36h1" />
<path stroke="#119d3b" d="M52 36h1M60 36h1M10 37h3M14 37h2M20 37h1M24 37h3M29 37h1M32 37h1M40 37h2M46 37h3M50 37h1M54 37h1M56 37h2M60 37h2M64 37h1M67 37h2M75 37h1M78 37h1M80 37h2M84 37h1M88 37h1M90 37h2M95 37h1M102 37h1M104 37h2M109 37h1" />
<path stroke="#119d3c" d="M104 36h1" />
<path stroke="#109d3b" d="M7 37h2M13 37h1M17 37h2M21 37h2M27 37h2M31 37h1M34 37h3M39 37h1M42 37h2M45 37h1M49 37h1M53 37h1M55 37h1M59 37h1M62 37h2M66 37h1M69 37h2M73 37h1M76 37h2M83 37h1M85 37h1M92 37h1M94 37h1M96 37h3M101 37h1M103 37h1M106 37h1M108 37h1" />
<path stroke="#20ff76" d="M9 37h1M16 37h1M37 37h1M44 37h1M51 37h1M58 37h1M79 37h1M93 37h1M107 37h1M44 38h1M65 38h1M86 38h1" />
<path stroke="#109c3b" d="M19 37h1M74 37h1M89 37h1M18 38h1" />
<path stroke="#119d3a" d="M33 37h1M38 37h1M82 37h1" />
<path stroke="#109d3a" d="M52 37h1M87 37h1" />
<path stroke="#119c3b" d="M71 37h1M47 38h1" />
<path stroke="#119c3a" d="M99 37h1M8 38h1M27 38h1M102 38h1" />
<path stroke="#109c3a" d="M7 38h1M45 38h1M50 38h1M55 38h1M66 38h1M73 38h1M98 38h1M105 38h1M109 38h1" />
<path stroke="#20ff74" d="M9 38h1M16 38h1M23 38h1M37 38h1M51 38h1M58 38h1M79 38h1M93 38h1M107 38h1M8 39h1M11 39h1M14 39h2M27 39h1M32 39h1M38 39h1M46 39h1M52 39h2M56 39h1M60 39h1M64 39h2M68 39h1M72 39h3M77 39h2M80 39h2M87 39h1M94 39h1M96 39h1M99 39h2M102 39h2M106 39h1M108 39h1" />
<path stroke="#109b3a" d="M10 38h3M14 38h1M17 38h1M19 38h2M24 38h2M28 38h2M31 38h2M38 38h2M41 38h3M49 38h1M53 38h1M56 38h1M61 38h2M64 38h1M68 38h2M71 38h1M74 38h2M78 38h1M82 38h2M85 38h1M88 38h2M91 38h2M94 38h1M96 38h1M104 38h1M106 38h1M108 38h1" />
<path stroke="#119b3a" d="M13 38h1M33 38h1M40 38h1M52 38h1M57 38h1M59 38h1M63 38h1M67 38h1M70 38h1M77 38h1M80 38h2M90 38h1M95 38h1" />
<path stroke="#109b3b" d="M15 38h1M21 38h2M34 38h3M46 38h1M48 38h1M54 38h1M76 38h1M87 38h1M97 38h1M101 38h1" />
<path stroke="#119b3b" d="M26 38h1M60 38h1M84 38h1M99 38h1M103 38h1" />
<path stroke="#22ff74" d="M30 38h1M72 38h1M100 38h1" />
<path stroke="#20ff72" d="M7 39h1M9 39h2M12 39h2M16 39h11M28 39h4M33 39h5M39 39h1M41 39h5M47 39h5M54 39h2M57 39h3M61 39h1M63 39h1M66 39h2M69 39h3M75 39h2M79 39h1M82 39h5M88 39h6M95 39h1M97 39h1M101 39h1M104 39h2M107 39h1M109 39h1M16 40h1M23 40h1M30 40h1M37 40h1M51 40h1M58 40h1M79 40h1M93 40h1M107 40h1" />
<path stroke="#1eff72" d="M40 39h1M62 39h1M65 40h1" />
<path stroke="#1eff74" d="M98 39h1" />
<path stroke="#0f9838" d="M7 40h1M35 40h1M46 40h1M66 40h1M69 40h2M73 40h1M85 40h1M87 40h1" />
<path stroke="#109739" d="M8 40h1M14 40h1M17 40h1M29 40h1M36 40h1M38 40h1M40 40h1M43 40h1M68 40h1M71 40h1M84 40h1M105 40h1M108 40h1" />
<path stroke="#1eff70" d="M9 40h1M72 40h1M100 40h1M23 41h1M51 41h1M58 41h1M86 41h1M93 41h1M100 41h1" />
<path stroke="#109738" d="M10 40h1M12 40h1M25 40h2M39 40h1M41 40h1M45 40h1M54 40h1M56 40h1M59 40h1M74 40h1M92 40h1M104 40h1" />
<path stroke="#109839" d="M11 40h1M13 40h1M18 40h1M21 40h2M24 40h1M27 40h1M31 40h1M48 40h2M53 40h1M60 40h1M64 40h1M67 40h1M77 40h1M81 40h1M83 40h1M94 40h1M96 40h1M99 40h1M101 40h2M106 40h1" />
<path stroke="#109838" d="M15 40h1M19 40h1M28 40h1M34 40h1M55 40h1M61 40h3M75 40h2M78 40h1M80 40h1M89 40h3M95 40h1M98 40h1M103 40h1M109 40h1" />
<path stroke="#0f9738" d="M20 40h1M52 40h1" />
<path stroke="#0f9839" d="M32 40h2M42 40h1M47 40h1M57 40h1M88 40h1" />
<path stroke="#20ff70" d="M44 40h1M86 40h1M16 41h1M44 41h1" />
<path stroke="#0f9739" d="M50 40h1M82 40h1M97 40h1" />
<path stroke="#109638" d="M7 41h1M17 41h1M19 41h1M45 41h1M49 41h2M53 41h1M60 41h1M64 41h1M68 41h2M75 41h1M80 41h1M85 41h1M91 41h1M96 41h1M98 41h1M106 41h1" />
<path stroke="#109637" d="M8 41h1M14 41h1M20 41h1M31 41h1M33 41h1M38 41h2M52 41h1M67 41h1M71 41h1M81 41h1M83 41h1M88 41h1M90 41h1M101 41h1" />
<path stroke="#20ff6e" d="M9 41h1M79 41h1M16 42h1M30 42h1M58 42h1M107 42h1" />
<path stroke="#0f9638" d="M10 41h1M12 41h1M15 41h1M18 41h1M21 41h2M27 41h2M34 41h1M46 41h2M57 41h1M61 41h1M66 41h1M73 41h2M76 41h1M78 41h1M82 41h1M89 41h1M92 41h1M94 41h2M104 41h2M108 41h1" />
<path stroke="#0f9637" d="M11 41h1M13 41h1M24 41h3M40 41h1M48 41h1M54 41h3M62 41h1M87 41h1M99 41h1M102 41h1M109 41h1" />
<path stroke="#109537" d="M29 41h1M35 41h1M42 41h1M63 41h1M77 41h1M19 42h1M21 42h1M27 42h1M46 42h1M54 42h1M57 42h1M61 42h1M92 42h1" />
<path stroke="#1eff6e" d="M30 41h1M37 41h1M65 41h1M72 41h1M107 41h1M9 42h1M23 42h1M37 42h1M44 42h1M51 42h1M65 42h1M72 42h1M79 42h1M86 42h1M93 42h1M100 42h1M23 43h1M86 43h1" />
<path stroke="#109538" d="M32 41h1M36 41h1M43 41h1M59 41h1M20 42h1" />
<path stroke="#0f9537" d="M41 41h1M70 41h1M97 41h1M103 41h1M7 42h1M11 42h1M15 42h1M25 42h1M28 42h2M36 42h1M42 42h2M52 42h1M55 42h1M60 42h1M64 42h1M67 42h1M73 42h1M78 42h1M83 42h1M87 42h1M89 42h1M94 42h1M104 42h2" />
<path stroke="#0f9538" d="M84 41h1" />
<path stroke="#0f9437" d="M8 42h1M10 42h1M14 42h1M18 42h1M22 42h1M24 42h1M26 42h1M31 42h2M34 42h2M38 42h2M41 42h1M45 42h1M49 42h1M53 42h1M56 42h1M59 42h1M63 42h1M66 42h1M69 42h1M71 42h1M74 42h2M80 42h3M84 42h1M88 42h1M90 42h1M95 42h3M102 42h2" />
<path stroke="#109437" d="M12 42h2M17 42h1M33 42h1M40 42h1M47 42h1M50 42h1M62 42h1M68 42h1M70 42h1M76 42h1M85 42h1M91 42h1M98 42h2M101 42h1M106 42h1M108 42h2" />
<path stroke="#109438" d="M48 42h1M77 42h1" />
<path stroke="#0f9336" d="M7 43h2M11 43h1M13 43h1M15 43h1M18 43h2M21 43h1M25 43h1M31 43h1M34 43h3M39 43h2M42 43h1M48 43h1M50 43h1M52 43h2M55 43h2M59 43h1M61 43h2M64 43h1M70 43h1M73 43h1M77 43h2M81 43h5M90 43h2M95 43h1M99 43h1M101 43h2M104 43h3M109 43h1" />
<path stroke="#1eff6c" d="M9 43h1M16 43h1M30 43h1M37 43h1M44 43h1M51 43h1M58 43h1M65 43h1M72 43h1M79 43h1M93 43h1M100 43h1M107 43h1M30 44h1M58 44h1M86 44h1" />
<path stroke="#0f9236" d="M10 43h1M17 43h1M26 43h3M32 43h2M38 43h1M41 43h1M46 43h2M49 43h1M66 43h4M71 43h1M74 43h1M76 43h1M80 43h1M88 43h2M92 43h1M94 43h1M96 43h2M108 43h1" />
<path stroke="#0f9237" d="M12 43h1M22 43h1M24 43h1M29 43h1M45 43h1M57 43h1M63 43h1M87 43h1M98 43h1" />
<path stroke="#0f9337" d="M14 43h1M20 43h1M43 43h1M54 43h1M60 43h1M75 43h1" />
<path stroke="#109237" d="M103 43h1" />
<path stroke="#0e9035" d="M7 44h1M17 44h1M21 44h2M45 44h1M56 44h1M61 44h1M63 44h1M68 44h1M70 44h1M80 44h1M89 44h1M91 44h1M103 44h1" />
<path stroke="#0f9035" d="M8 44h1M10 44h1M12 44h1M15 44h1M18 44h2M24 44h2M27 44h1M29 44h1M31 44h1M39 44h2M42 44h1M47 44h1M57 44h1M59 44h1M64 44h1M66 44h1M69 44h1M71 44h1M74 44h2M92 44h1M95 44h2M98 44h1M105 44h1M108 44h2" />
<path stroke="#1cff6a" d="M9 44h1M37 44h1M72 44h1M79 44h1M93 44h1" />
<path stroke="#0e9135" d="M11 44h1M13 44h1M20 44h1M28 44h1M34 44h1M46 44h1M52 44h1M73 44h1M78 44h1M85 44h1M87 44h1" />
<path stroke="#0f9135" d="M14 44h1M26 44h1M33 44h1M36 44h1M38 44h1M50 44h1M60 44h1M67 44h1M76 44h2M82 44h3M90 44h1M94 44h1M101 44h2M104 44h1M106 44h1" />
<path stroke="#1cff6c" d="M16 44h1" />
<path stroke="#1eff6a" d="M23 44h1M44 44h1M51 44h1M65 44h1M100 44h1M107 44h1M86 45h1" />
<path stroke="#0f9136" d="M32 44h1M35 44h1M55 44h1M99 44h1" />
<path stroke="#0f9036" d="M41 44h1M48 44h2M53 44h1M81 44h1M88 44h1M97 44h1" />
<path stroke="#0e9036" d="M43 44h1M54 44h1M62 44h1" />
<path stroke="#0f8f34" d="M7 45h1M15 45h1M19 45h2M22 45h1M24 45h1M31 45h1M34 45h1M41 45h1M45 45h1M50 45h1M61 45h1M73 45h1M75 45h1M84 45h1M98 45h1M104 45h1" />
<path stroke="#0e8f34" d="M8 45h1M11 45h1M25 45h1M33 45h1M36 45h1M49 45h1M53 45h3M59 45h1M62 45h2M67 45h1M71 45h1M81 45h1M85 45h1M87 45h1M89 45h2M92 45h1M94 45h1M96 45h2M101 45h1M103 45h1M106 45h1M108 45h1" />
<path stroke="#1eff68" d="M9 45h1M30 45h1M51 45h1M65 45h1M100 45h1M10 46h1M22 46h1M26 46h3M47 46h1M64 46h1M66 46h1M72 46h1M92 46h1M107 46h1" />
<path stroke="#0e8e34" d="M10 45h1M26 45h3M40 45h1M43 45h1M47 45h1M77 45h1M82 45h1M95 45h1M99 45h1M105 45h1" />
<path stroke="#0f8f35" d="M12 45h2M32 45h1M35 45h1M70 45h1M76 45h1" />
<path stroke="#0f8e34" d="M14 45h1M17 45h2M29 45h1M38 45h2M42 45h1M57 45h1M69 45h1M74 45h1M83 45h1" />
<path stroke="#1cff68" d="M16 45h1M23 45h1M37 45h1M44 45h1M58 45h1M72 45h1M79 45h1M93 45h1M107 45h1M7 46h3M13 46h1M15 46h1M17 46h4M24 46h2M29 46h2M32 46h2M35 46h1M37 46h6M44 46h3M48 46h4M53 46h1M55 46h1M58 46h3M62 46h2M65 46h1M67 46h1M70 46h2M73 46h3M77 46h5M83 46h9M93 46h2M97 46h1M99 46h3M103 46h4M108 46h2" />
<path stroke="#0e8f35" d="M21 45h1M46 45h1M52 45h1M60 45h1M66 45h1M68 45h1M80 45h1M88 45h1" />
<path stroke="#0f8e35" d="M48 45h1M78 45h1M102 45h1M109 45h1" />
<path stroke="#0e8e35" d="M56 45h1M64 45h1M91 45h1" />
<path stroke="#1eff66" d="M11 46h1M14 46h1M23 46h1M31 46h1M36 46h1M56 46h1M69 46h1M96 46h1" />
<path stroke="#1cff66" d="M12 46h1M16 46h1M21 46h1M34 46h1M43 46h1M52 46h1M54 46h1M57 46h1M61 46h1M68 46h1M76 46h1M82 46h1M95 46h1M98 46h1M102 46h1M23 47h1M30 47h1M37 47h1M44 47h1M51 47h1M58 47h1M65 47h1M72 47h1M86 47h1M93 47h1M100 47h1" />
<path stroke="#0e8b33" d="M7 47h1M10 47h2M13 47h3M17 47h2M20 47h3M24 47h3M31 47h5M38 47h1M40 47h2M46 47h1M48 47h1M52 47h2M55 47h1M57 47h1M59 47h6M66 47h3M70 47h2M73 47h5M80 47h1M83 47h3M88 47h2M91 47h1M94 47h3M98 47h2M101 47h1M104 47h3M108 47h2" />
<path stroke="#0e8c33" d="M8 47h1M12 47h1M42 47h1M87 47h1" />
<path stroke="#1cff64" d="M9 47h1M16 47h1M23 48h1M51 48h1M58 48h1M65 48h1M72 48h1M79 48h1M86 48h1M93 48h1M107 48h1" />
<path stroke="#0e8b32" d="M19 47h1M27 47h3M39 47h1M43 47h1M45 47h1M47 47h1M49 47h2M54 47h1M56 47h1M69 47h1M81 47h2M90 47h1M92 47h1M97 47h1" />
<path stroke="#0d8b33" d="M36 47h1M78 47h1M103 47h1" />
<path stroke="#1aff66" d="M79 47h1" />
<path stroke="#0e8c32" d="M102 47h1" />
<path stroke="#1aff64" d="M107 47h1M9 48h1M44 48h1M100 48h1" />
<path stroke="#0e8932" d="M7 48h2M13 48h1M18 48h1M20 48h1M24 48h1M27 48h1M29 48h1M33 48h4M38 48h3M45 48h1M48 48h1M52 48h1M59 48h2M64 48h1M67 48h1M73 48h3M78 48h1M80 48h3M85 48h1M87 48h1M92 48h1M94 48h1M96 48h1M98 48h2M102 48h2" />
<path stroke="#0d8832" d="M10 48h1M54 48h1M70 48h1" />
<path stroke="#0d8831" d="M11 48h1M15 48h1M90 48h1" />
<path stroke="#0e8931" d="M12 48h1M22 48h1M31 48h1M42 48h1M46 48h1M53 48h1M55 48h1M61 48h1M68 48h2M76 48h1M84 48h1M97 48h1" />
<path stroke="#0d8931" d="M14 48h1M28 48h1M47 48h1M50 48h1M57 48h1M62 48h1M108 48h2" />
<path stroke="#1aff62" d="M16 48h1M37 48h1M30 49h1M37 49h1M65 49h1M79 49h1M86 49h1M93 49h1M100 49h1M107 49h1M16 50h1" />
<path stroke="#0d8932" d="M17 48h1M21 48h1M41 48h1M49 48h1M56 48h1M63 48h1M77 48h1M83 48h1M91 48h1M101 48h1M104 48h3" />
<path stroke="#0e8832" d="M19 48h1M25 48h2M32 48h1M43 48h1M66 48h1M71 48h1M88 48h2" />
<path stroke="#1cff62" d="M30 48h1M9 49h1M23 49h1M51 49h1M72 49h1" />
<path stroke="#0e8831" d="M95 48h1" />
<path stroke="#0e8731" d="M7 49h1M12 49h1M22 49h1M26 49h1M28 49h1M36 49h1M38 49h1M48 49h1M52 49h2M60 49h2M68 49h1M75 49h1M85 49h1M91 49h1M99 49h1M102 49h1" />
<path stroke="#0d8731" d="M8 49h1M10 49h2M14 49h1M17 49h1M19 49h2M24 49h2M27 49h1M31 49h3M39 49h1M41 49h3M46 49h1M49 49h1M54 49h2M62 49h1M64 49h1M67 49h1M69 49h3M77 49h2M80 49h4M89 49h1M92 49h1M94 49h2M97 49h2M106 49h1M108 49h2" />
<path stroke="#0d8730" d="M13 49h1M15 49h1M21 49h1M34 49h1M50 49h1M57 49h1M59 49h1M63 49h1M74 49h1M76 49h1M84 49h1M87 49h2M90 49h1M96 49h1" />
<path stroke="#1aff60" d="M16 49h1M44 49h1M9 50h1M23 50h1M30 50h1M37 50h1M44 50h1M51 50h1M58 50h1M65 50h1M79 50h1M86 50h1M100 50h1" />
<path stroke="#0e8631" d="M18 49h1M56 49h1" />
<path stroke="#0d8631" d="M29 49h1M35 49h1M45 49h1M47 49h1M66 49h1M103 49h2M12 50h1" />
<path stroke="#0d8630" d="M40 49h1M73 49h1M101 49h1M57 50h1M66 50h1" />
<path stroke="#1cff60" d="M58 49h1M72 50h1M93 50h1M107 50h1" />
<path stroke="#0e8730" d="M105 49h1" />
<path stroke="#0d8530" d="M7 50h2M10 50h2M13 50h1M15 50h1M17 50h3M21 50h2M25 50h2M28 50h2M31 50h2M34 50h1M36 50h1M38 50h6M46 50h1M48 50h3M52 50h1M54 50h1M56 50h1M59 50h1M61 50h4M67 50h4M73 50h4M78 50h1M80 50h3M84 50h2M87 50h3M91 50h2M94 50h3M98 50h2M101 50h2M104 50h3M108 50h2" />
<path stroke="#0e8530" d="M14 50h1M20 50h1M27 50h1M35 50h1M53 50h1M55 50h1M71 50h1M77 50h1M83 50h1M97 50h1" />
<path stroke="#0e8630" d="M24 50h1" />
<path stroke="#0d8531" d="M33 50h1M45 50h1M47 50h1M60 50h1M90 50h1M103 50h1" />
<path stroke="#0d832f" d="M7 51h2M10 51h6M17 51h1M19 51h3M24 51h5M31 51h1M33 51h4M38 51h1M41 51h3M46 51h5M53 51h4M59 51h5M66 51h6M74 51h5M82 51h1M84 51h1M88 51h2M91 51h2M94 51h6M101 51h2M104 51h1M106 51h1M108 51h2" />
<path stroke="#1aff5e" d="M9 51h1M16 51h1M23 51h1M51 51h1M58 51h1M65 51h1M72 51h1M79 51h1M86 51h1M93 51h1M100 51h1M107 51h1" />
<path stroke="#0c8330" d="M18 51h1M103 51h1" />
<path stroke="#0c832f" d="M22 51h1M29 51h1M32 51h1M52 51h1M57 51h1M64 51h1M73 51h1M80 51h2M83 51h1M85 51h1M105 51h1" />
<path stroke="#18ff5e" d="M30 51h1M37 51h1M44 51h1" />
<path stroke="#0d822f" d="M39 51h1" />
<path stroke="#0d8330" d="M40 51h1M45 51h1M87 51h1M90 51h1" />
<path stroke="#0d812e" d="M7 52h1M10 52h1M17 52h1M22 52h1M25 52h1M29 52h1M33 52h1M41 52h1M48 52h1M52 52h1M57 52h1M63 52h1M76 52h1M82 52h1M87 52h1M89 52h1M91 52h1M94 52h1M99 52h1M101 52h2M104 52h1" />
<path stroke="#0c802e" d="M8 52h1M12 52h1M19 52h3M35 52h1M45 52h2M50 52h1M53 52h1M56 52h1M60 52h3M73 52h2M88 52h1M92 52h1M95 52h3M103 52h1" />
<path stroke="#18ff5c" d="M9 52h1M23 52h1M30 52h1M37 52h1M51 52h1M58 52h1M72 52h1M100 52h1" />
<path stroke="#0d802e" d="M11 52h1M15 52h1M24 52h1M27 52h1M31 52h2M34 52h1M38 52h2M43 52h1M49 52h1M55 52h1M67 52h1M75 52h1M83 52h1M90 52h1M105 52h2M109 52h1" />
<path stroke="#0c812e" d="M13 52h2M26 52h1M28 52h1M36 52h1M40 52h1M42 52h1M47 52h1M54 52h1M59 52h1M64 52h1M66 52h1M68 52h4M77 52h2M80 52h2M84 52h2M108 52h1" />
<path stroke="#1aff5c" d="M16 52h1M44 52h1M65 52h1M79 52h1M86 52h1M93 52h1M107 52h1" />
<path stroke="#0d802d" d="M18 52h1" />
<path stroke="#0c812d" d="M98 52h1" />
<path stroke="#18fe5a" d="M7 53h1M10 53h1M12 53h1M14 53h1M17 53h1M20 53h1M23 53h1M28 53h1M30 53h1M36 53h2M42 53h1M45 53h1M48 53h2M51 53h4M56 53h2M59 53h1M61 53h2M67 53h1M70 53h1M73 53h1M80 53h1M83 53h1M88 53h1M94 53h1M97 53h2M100 53h1M106 53h1" />
<path stroke="#1afe58" d="M8 53h1" />
<path stroke="#1afc5a" d="M9 53h1M15 53h1M19 53h1M22 53h1M27 53h1M33 53h1M39 53h1M60 53h1M63 53h1M69 53h1M78 53h1M90 53h1M102 53h1" />
<path stroke="#18fc58" d="M11 53h1" />
<path stroke="#18fc5a" d="M13 53h1M16 53h1M18 53h1M21 53h1M24 53h3M29 53h1M31 53h2M38 53h1M41 53h1M43 53h2M46 53h1M50 53h1M55 53h1M58 53h1M64 53h3M68 53h1M72 53h1M74 53h4M79 53h1M81 53h1M84 53h4M89 53h1M91 53h1M95 53h2M99 53h1M101 53h1M104 53h1M107 53h1" />
<path stroke="#1afe5a" d="M34 53h1M40 53h1M71 53h1M82 53h1M92 53h2M103 53h1M105 53h1M108 53h1" />
<path stroke="#18fe58" d="M35 53h1M47 53h1M109 53h1" />
<path stroke="#0c7d2d" d="M7 54h1M11 54h1M14 54h1M25 54h1M29 54h1M31 54h1M34 54h1M50 54h1M82 54h1M85 54h1M92 54h1M95 54h1M97 54h1M99 54h1" />
<path stroke="#0c7c2c" d="M8 54h1M15 54h1M28 54h1M32 54h2M35 54h1M40 54h4M53 54h1M60 54h1M64 54h1M68 54h1M75 54h1M81 54h1M83 54h1M88 54h1M90 54h2" />
<path stroke="#18fa58" d="M9 54h1M16 54h1M30 54h1M37 54h1M65 54h1M72 54h1M93 54h1M100 54h1M107 54h1" />
<path stroke="#0c7d2c" d="M10 54h1M12 54h2M17 54h6M24 54h1M26 54h2M36 54h1M38 54h2M45 54h5M54 54h4M59 54h1M61 54h2M66 54h1M69 54h3M73 54h1M76 54h3M80 54h1M84 54h1M87 54h1M94 54h1M96 54h1M98 54h1M101 54h1M103 54h4M108 54h2" />
<path stroke="#18f858" d="M23 54h1M44 54h1M86 54h1" />
<path stroke="#18f85a" d="M51 54h1M79 54h1" />
<path stroke="#0c7c2d" d="M52 54h1M63 54h1M67 54h1M74 54h1M89 54h1M102 54h1" />
<path stroke="#18fa5a" d="M58 54h1" />
<path stroke="#0c7b2b" d="M7 55h2M17 55h2M20 55h1M34 55h1M36 55h1M39 55h2M45 55h2M52 55h2M60 55h2M64 55h1M68 55h3M76 55h1M81 55h2M84 55h1M91 55h2M102 55h1M105 55h1" />
<path stroke="#18f658" d="M9 55h1" />
<path stroke="#0b7b2b" d="M10 55h1M21 55h1M43 55h1M50 55h1M54 55h1M67 55h1M89 55h1M97 55h1M99 55h1" />
<path stroke="#0b7a2b" d="M11 55h1M13 55h1M24 55h1M27 55h1M42 55h1M49 55h1M55 55h1M62 55h2M94 55h1M98 55h1M101 55h1M103 55h1M108 55h1" />
<path stroke="#0c7a2b" d="M12 55h1M14 55h1M22 55h1M26 55h1M28 55h1M31 55h1M41 55h1M47 55h2M56 55h2M66 55h1M73 55h3M77 55h1M83 55h1M85 55h1M87 55h2M95 55h2" />
<path stroke="#0c7b2c" d="M15 55h1M78 55h1" />
<path stroke="#18f456" d="M16 55h1M23 55h1M93 55h1M100 55h1" />
<path stroke="#0c7a2c" d="M19 55h1M29 55h1M35 55h1M90 55h1" />
<path stroke="#0b7a2c" d="M25 55h1M38 55h1M59 55h1M71 55h1M106 55h1M109 55h1" />
<path stroke="#18f656" d="M30 55h1M37 55h1M44 55h1M65 55h1M72 55h1" />
<path stroke="#0b7b2c" d="M32 55h2M80 55h1M104 55h1" />
<path stroke="#16f658" d="M51 55h1" />
<path stroke="#16f456" d="M58 55h1M79 55h1" />
<path stroke="#16f656" d="M86 55h1M107 55h1" />
<path stroke="#0b782a" d="M7 56h1M12 56h3M17 56h1M19 56h3M24 56h2M28 56h1M32 56h1M34 56h2M38 56h2M41 56h1M43 56h1M46 56h1M48 56h1M50 56h1M52 56h6M59 56h3M63 56h2M67 56h2M71 56h1M73 56h1M75 56h1M77 56h2M81 56h2M88 56h1M91 56h1M97 56h2M101 56h2M104 56h1M106 56h1M108 56h1" />
<path stroke="#0c782a" d="M8 56h1M10 56h2M15 56h1M18 56h1M22 56h1M26 56h2M29 56h1M31 56h1M33 56h1M40 56h1M42 56h1M45 56h1M49 56h1M62 56h1M66 56h1M69 56h2M74 56h1M80 56h1M83 56h3M87 56h1M89 56h2M94 56h3M99 56h1M103 56h1M105 56h1M109 56h1" />
<path stroke="#16f054" d="M9 56h1M16 56h1M23 56h1M30 56h1M37 56h1M44 56h1M58 56h1M65 56h1M72 56h1M79 56h1M86 56h1M100 56h1M107 56h1" />
<path stroke="#0b782b" d="M36 56h1M76 56h1" />
<path stroke="#0c782b" d="M47 56h1M92 56h1" />
<path stroke="#18f054" d="M51 56h1M93 56h1" />
<path stroke="#0b7529" d="M7 57h1M20 57h1M34 57h1M41 57h1M52 57h1M59 57h1M62 57h1M71 57h1M74 57h1M81 57h1M88 57h1M103 57h1M106 57h1M109 57h1" />
<path stroke="#0b7629" d="M8 57h1M10 57h4M15 57h1M19 57h1M22 57h1M24 57h2M27 57h2M31 57h3M35 57h2M38 57h3M43 57h1M45 57h6M54 57h4M60 57h2M63 57h2M66 57h5M75 57h2M78 57h1M80 57h1M83 57h3M89 57h4M94 57h6M101 57h2M104 57h2M108 57h1" />
<path stroke="#16ec52" d="M9 57h1M16 57h1M37 57h1M44 57h1M51 57h1M58 57h1M72 57h1M79 57h1M86 57h1M93 57h1M100 57h1M107 57h1" />
<path stroke="#0b7628" d="M14 57h1M17 57h1M29 57h1M53 57h1M73 57h1M77 57h1M82 57h1" />
<path stroke="#0a7629" d="M18 57h1M21 57h1M42 57h1M87 57h1" />
<path stroke="#16ec50" d="M23 57h1M30 57h1" />
<path stroke="#0b7528" d="M26 57h1" />
<path stroke="#16ea52" d="M65 57h1" />
<path stroke="#0b7428" d="M7 58h1M10 58h1M12 58h1M19 58h1M21 58h2M24 58h2M27 58h2M32 58h1M34 58h1M36 58h1M40 58h2M45 58h2M48 58h3M52 58h3M56 58h1M62 58h1M64 58h1M66 58h3M71 58h1M73 58h1M76 58h1M80 58h3M84 58h2M98 58h2M101 58h1M104 58h1M108 58h2" />
<path stroke="#0b7429" d="M8 58h1M13 58h3M17 58h1M26 58h1M29 58h1M39 58h1M42 58h2M55 58h1M57 58h1M69 58h1M75 58h1M77 58h1M87 58h2M95 58h3M102 58h1M105 58h2" />
<path stroke="#14e850" d="M9 58h1M51 58h1M93 58h1" />
<path stroke="#0a7429" d="M11 58h1M59 58h1M61 58h1M78 58h1M83 58h1M91 58h1M103 58h1" />
<path stroke="#16e850" d="M16 58h1M23 58h1M37 58h1M44 58h1M58 58h1M65 58h1M72 58h1M107 58h1" />
<path stroke="#0a7428" d="M18 58h1M20 58h1M31 58h1M35 58h1M38 58h1M47 58h1M60 58h1M63 58h1M70 58h1M74 58h1M89 58h2M92 58h1M94 58h1" />
<path stroke="#16e852" d="M30 58h1M79 58h1M86 58h1M100 58h1" />
<path stroke="#0b7329" d="M33 58h1" />
<path stroke="#0b7127" d="M7 59h1M74 59h2M88 59h1M98 59h1" />
<path stroke="#0b7227" d="M8 59h1M10 59h1M18 59h1M26 59h1M35 59h1M43 59h1M49 59h2M53 59h1M59 59h1M64 59h1M66 59h1M76 59h1M80 59h1M83 59h1M102 59h2M108 59h1" />
<path stroke="#16e44e" d="M9 59h1M100 59h1" />
<path stroke="#0a7227" d="M11 59h4M17 59h1M20 59h1M25 59h1M28 59h2M31 59h1M33 59h2M36 59h1M39 59h2M45 59h4M52 59h1M54 59h1M57 59h1M60 59h2M67 59h1M70 59h2M73 59h1M78 59h1M96 59h1M99 59h1M101 59h1M104 59h2M109 59h1" />
<path stroke="#0a7127" d="M15 59h1M21 59h1M32 59h1M41 59h1M55 59h2M62 59h1M68 59h2M77 59h1M82 59h1M85 59h1M87 59h1M90 59h2M97 59h1" />
<path stroke="#16e24e" d="M16 59h1M30 59h1M65 59h1" />
<path stroke="#0a7128" d="M19 59h1M38 59h1M63 59h1M81 59h1M106 59h1" />
<path stroke="#0b7228" d="M22 59h1M24 59h1M27 59h1M84 59h1M94 59h1" />
<path stroke="#14e24e" d="M23 59h1" />
<path stroke="#16e250" d="M37 59h1M51 59h1" />
<path stroke="#0a7228" d="M42 59h1M92 59h1M95 59h1" />
<path stroke="#14e44e" d="M44 59h1M58 59h1M72 59h1M79 59h1M86 59h1M93 59h1M107 59h1" />
<path stroke="#0b7128" d="M89 59h1" />
<path stroke="#14e04c" d="M7 60h1M9 60h1M12 60h1M18 60h1M28 60h1M31 60h1M34 60h1M36 60h1M49 60h1M57 60h1M64 60h1M70 60h1M84 60h1M92 60h3M103 60h1" />
<path stroke="#14de4c" d="M8 60h1M10 60h2M13 60h5M20 60h8M29 60h2M32 60h1M35 60h1M37 60h2M40 60h2M43 60h2M46 60h3M50 60h7M58 60h6M65 60h5M71 60h13M85 60h3M89 60h3M95 60h6M104 60h3M108 60h2" />
<path stroke="#16de4c" d="M19 60h1M39 60h1M42 60h1M45 60h1M101 60h1M107 60h1" />
<path stroke="#16e04c" d="M33 60h1M88 60h1M102 60h1" />
<path stroke="#0a6d25" d="M7 61h1M10 61h3M18 61h3M25 61h3M29 61h1M31 61h4M36 61h1M38 61h1M43 61h1M45 61h1M48 61h3M53 61h5M59 61h1M61 61h2M64 61h1M66 61h3M70 61h2M73 61h2M78 61h1M82 61h1M88 61h1M90 61h3M94 61h3M98 61h2M101 61h1M103 61h3M108 61h2" />
<path stroke="#096d25" d="M8 61h1M13 61h1M21 61h2M24 61h1M28 61h1M35 61h1M39 61h1M41 61h2M46 61h2M52 61h1M60 61h1M75 61h2M81 61h1M83 61h3M97 61h1M102 61h1M106 61h1" />
<path stroke="#14da4a" d="M9 61h1M23 61h1M30 61h1M37 61h1M44 61h1M51 61h1M72 61h1M100 61h1" />
<path stroke="#0a6c25" d="M14 61h1M63 61h1M80 61h1M89 61h1" />
<path stroke="#0a6c24" d="M15 61h1M90 62h1" />
<path stroke="#12da4a" d="M16 61h1M58 61h1M65 61h1M79 61h1M86 61h1" />
<path stroke="#0a6d24" d="M17 61h1M69 61h1M87 61h1" />
<path stroke="#096d24" d="M40 61h1M77 61h1" />
<path stroke="#12da48" d="M93 61h1M107 61h1" />
<path stroke="#096b24" d="M7 62h1M11 62h1M14 62h1M17 62h1M21 62h1M28 62h1M31 62h2M35 62h1M42 62h1M45 62h2M53 62h1M55 62h2M59 62h1M69 62h1M73 62h1M75 62h3M80 62h2M83 62h1M89 62h1M92 62h1M95 62h1M98 62h2M101 62h1M103 62h2M109 62h1" />
<path stroke="#0a6b24" d="M8 62h1M12 62h1M19 62h2M25 62h1M27 62h1M29 62h1M33 62h2M36 62h1M38 62h4M47 62h3M52 62h1M54 62h1M57 62h1M60 62h3M64 62h1M66 62h2M70 62h2M78 62h1M82 62h1M84 62h1M91 62h1M96 62h1M102 62h1M105 62h2" />
<path stroke="#14d64a" d="M9 62h1M51 62h1" />
<path stroke="#096b25" d="M10 62h1M15 62h1M18 62h1M22 62h1M24 62h1M26 62h1M63 62h1M87 62h2M94 62h1M97 62h1M108 62h1" />
<path stroke="#0a6b25" d="M13 62h1M43 62h1M50 62h1M68 62h1M74 62h1M85 62h1" />
<path stroke="#14d648" d="M16 62h1M58 62h1M72 62h1M79 62h1M93 62h1M100 62h1M107 62h1" />
<path stroke="#12d64a" d="M23 62h1M37 62h1" />
<path stroke="#12d648" d="M30 62h1M44 62h1M65 62h1M86 62h1" />
<path stroke="#0a6923" d="M7 63h1M11 63h1M25 63h1M27 63h1M45 63h1M54 63h1M69 63h1M95 63h1" />
<path stroke="#096823" d="M8 63h1M10 63h1M13 63h1M24 63h1M35 63h1M56 63h1M63 63h1M68 63h1M75 63h2M89 63h1M109 63h1" />
<path stroke="#14d246" d="M9 63h1M86 63h1" />
<path stroke="#096923" d="M12 63h1M15 63h1M17 63h1M19 63h1M21 63h2M26 63h1M28 63h2M31 63h4M38 63h2M41 63h3M46 63h4M53 63h1M55 63h1M57 63h1M59 63h4M66 63h2M70 63h2M73 63h2M78 63h1M80 63h1M83 63h3M87 63h2M90 63h3M94 63h1M97 63h3M102 63h5M108 63h1" />
<path stroke="#096824" d="M14 63h1M96 63h1" />
<path stroke="#12d246" d="M16 63h1M23 63h1M30 63h1M37 63h1M44 63h1M51 63h1M58 63h1M65 63h1M72 63h1M79 63h1M93 63h1M100 63h1M107 63h1" />
<path stroke="#0a6924" d="M18 63h1M36 63h1M64 63h1M77 63h1" />
<path stroke="#096924" d="M20 63h1M50 63h1M52 63h1M81 63h1M101 63h1" />
<path stroke="#0a6823" d="M40 63h1M82 63h1" />
<path stroke="#096621" d="M7 64h1M32 64h1M56 64h1M69 64h1M71 64h1M109 64h1" />
<path stroke="#096622" d="M8 64h1M10 64h1M12 64h1M17 64h6M24 64h4M31 64h1M36 64h1M39 64h3M43 64h1M45 64h1M47 64h1M49 64h1M53 64h2M57 64h1M60 64h1M62 64h3M67 64h1M70 64h1M73 64h2M78 64h1M80 64h1M83 64h3M88 64h2M94 64h1M96 64h2M99 64h1M101 64h1M104 64h3" />
<path stroke="#10cc44" d="M9 64h1M58 64h1M72 64h1" />
<path stroke="#086622" d="M11 64h1M13 64h1M33 64h1M42 64h1M46 64h1M48 64h1M50 64h1M52 64h1M55 64h1M66 64h1M68 64h1M76 64h2M82 64h1M87 64h1M92 64h1M102 64h1" />
<path stroke="#096722" d="M14 64h2M28 64h1M35 64h1M38 64h1M61 64h1M75 64h1M81 64h1M90 64h1M95 64h1M98 64h1M103 64h1M108 64h1" />
<path stroke="#12ce44" d="M16 64h1M51 64h1M107 64h1" />
<path stroke="#12cc44" d="M23 64h1M44 64h1M65 64h1M79 64h1M86 64h1M93 64h1" />
<path stroke="#086722" d="M29 64h1" />
<path stroke="#10ce44" d="M30 64h1" />
<path stroke="#086621" d="M34 64h1M59 64h1" />
<path stroke="#12cc42" d="M37 64h1M100 64h1" />
<path stroke="#096721" d="M91 64h1" />
<path stroke="#096320" d="M7 65h1M92 65h1M97 65h1M106 65h1" />
<path stroke="#096420" d="M8 65h1M11 65h1M15 65h1M24 65h1M35 65h1M71 65h1" />
<path stroke="#10c840" d="M9 65h1" />
<path stroke="#086420" d="M10 65h1M12 65h1M25 65h1M31 65h2M50 65h1M57 65h1M59 65h1M95 65h1" />
<path stroke="#096421" d="M13 65h1M17 65h1M27 65h3M38 65h2M45 65h1M48 65h1M53 65h1M60 65h1M67 65h1M75 65h2M81 65h2M84 65h2M90 65h1" />
<path stroke="#086321" d="M14 65h1M20 65h1M22 65h1M33 65h2M41 65h1M55 65h1M61 65h3M66 65h1M68 65h1M77 65h1M88 65h1M96 65h1M99 65h1M105 65h1" />
<path stroke="#10c842" d="M16 65h1M23 65h1M86 65h1" />
<path stroke="#086421" d="M18 65h2M21 65h1M26 65h1M42 65h2M46 65h1M49 65h1M52 65h1M54 65h1M56 65h1M69 65h2M87 65h1M89 65h1M91 65h1M94 65h1M101 65h1M109 65h1" />
<path stroke="#12c842" d="M30 65h1M65 65h1M72 65h1M79 65h1M100 65h1" />
<path stroke="#086320" d="M36 65h1M74 65h1M83 65h1M108 65h1" />
<path stroke="#12c640" d="M37 65h1" />
<path stroke="#096321" d="M40 65h1M47 65h1M64 65h1M73 65h1M78 65h1M80 65h1M98 65h1M102 65h3" />
<path stroke="#12c840" d="M44 65h1" />
<path stroke="#10c640" d="M51 65h1M58 65h1" />
<path stroke="#10c642" d="M93 65h1M107 65h1" />
<path stroke="#08611f" d="M7 66h1M22 66h1M27 66h1M36 66h1M38 66h2M52 66h1M54 66h2M62 66h2M73 66h1M75 66h1M81 66h2M96 66h2M101 66h1" />
<path stroke="#08621f" d="M8 66h1M12 66h1M15 66h1M17 66h3M25 66h1M28 66h1M32 66h1M35 66h1M40 66h1M49 66h2M64 66h1M67 66h3M92 66h1" />
<path stroke="#10c240" d="M9 66h1M16 66h1M58 66h1M72 66h1M100 66h1M107 66h1" />
<path stroke="#086120" d="M10 66h1M13 66h2M20 66h2M24 66h1M29 66h1M41 66h1M43 66h1M46 66h1M48 66h1M57 66h1M60 66h2M71 66h1M74 66h1M78 66h1M85 66h1M89 66h1M98 66h2M103 66h3M109 66h1" />
<path stroke="#086220" d="M11 66h1M26 66h1M31 66h1M33 66h2M45 66h1M47 66h1M53 66h1M56 66h1M66 66h1M76 66h2M80 66h1M83 66h2M87 66h2M90 66h2M94 66h2M102 66h1M106 66h1M108 66h1" />
<path stroke="#10c440" d="M23 66h1M30 66h1M44 66h1" />
<path stroke="#12c23e" d="M37 66h1" />
<path stroke="#096220" d="M42 66h1" />
<path stroke="#10c23e" d="M51 66h1M65 66h1M86 66h1" />
<path stroke="#096120" d="M59 66h1M70 66h1" />
<path stroke="#10c43e" d="M79 66h1M93 66h1" />
<path stroke="#10be3e" d="M7 67h2M10 67h2M14 67h5M21 67h5M28 67h1M32 67h3M40 67h1M46 67h2M52 67h4M57 67h1M59 67h1M61 67h4M67 67h2M70 67h1M74 67h3M78 67h2M81 67h1M83 67h6M90 67h1M92 67h3M96 67h3M100 67h2M103 67h1M107 67h2" />
<path stroke="#10c03e" d="M9 67h1M12 67h2M19 67h2M26 67h2M29 67h1M31 67h1M36 67h4M41 67h1M43 67h3M48 67h3M56 67h1M58 67h1M60 67h1M65 67h1M69 67h1M71 67h1M73 67h1M77 67h1M80 67h1M82 67h1M89 67h1M91 67h1M95 67h1M105 67h2" />
<path stroke="#0ebe3e" d="M30 67h1M35 67h1M42 67h1M72 67h1M99 67h1M109 67h1" />
<path stroke="#0ec03e" d="M51 67h1M66 67h1M102 67h1M104 67h1" />
<path stroke="#085d1e" d="M7 68h1M14 68h1M18 68h2M31 68h2M35 68h2M38 68h2M41 68h1M43 68h1M45 68h2M53 68h3M57 68h1M59 68h1M63 68h2M66 68h1M68 68h1M70 68h2M83 68h1M90 68h1M92 68h1M97 68h1M99 68h1M105 68h1M108 68h2" />
<path stroke="#075d1e" d="M8 68h1M10 68h3M20 68h1M22 68h1M40 68h1M42 68h1M50 68h1M56 68h1M61 68h1M67 68h1M73 68h1M76 68h1M81 68h2M85 68h1M88 68h2M91 68h1M96 68h1M98 68h1M104 68h1M106 68h1" />
<path stroke="#0eba3c" d="M9 68h1M86 68h1" />
<path stroke="#075d1d" d="M13 68h1M17 68h1M28 68h1M52 68h1M74 68h1M77 68h2M80 68h1" />
<path stroke="#085e1d" d="M15 68h1M26 68h1M95 68h1" />
<path stroke="#10ba3c" d="M16 68h1M37 68h1M58 68h1M100 68h1M107 68h1" />
<path stroke="#075e1e" d="M21 68h1M29 68h1M84 68h1M101 68h1M103 68h1" />
<path stroke="#0eba3a" d="M23 68h1" />
<path stroke="#085d1d" d="M24 68h1M47 68h1M49 68h1M102 68h1" />
<path stroke="#085e1e" d="M25 68h1M27 68h1M33 68h2M48 68h1M60 68h1M62 68h1M69 68h1M94 68h1" />
<path stroke="#10bc3c" d="M30 68h1M65 68h1" />
<path stroke="#0ebc3c" d="M44 68h1M72 68h1M79 68h1M93 68h1" />
<path stroke="#10ba3a" d="M51 68h1" />
<path stroke="#075e1d" d="M75 68h1M87 68h1" />
<path stroke="#075b1d" d="M7 69h1M10 69h4M17 69h2M20 69h2M25 69h1M28 69h2M31 69h1M34 69h3M39 69h1M46 69h2M53 69h2M56 69h1M59 69h1M62 69h1M66 69h1M69 69h2M73 69h1M75 69h1M77 69h1M82 69h1M87 69h1M92 69h1M97 69h1M101 69h1M103 69h1M105 69h2M108 69h2" />
<path stroke="#085b1c" d="M8 69h1M41 69h1M60 69h1M63 69h1M85 69h1M91 69h1" />
<path stroke="#0eb63a" d="M9 69h1M23 69h1M30 69h1M72 69h1M86 69h1M93 69h1" />
<path stroke="#075a1d" d="M14 69h2M24 69h1M48 69h1M55 69h1M57 69h1M61 69h1M71 69h1M76 69h1M84 69h1M88 69h1M98 69h2" />
<path stroke="#10b438" d="M16 69h1" />
<path stroke="#085a1c" d="M19 69h1M26 69h1M64 69h1" />
<path stroke="#075a1c" d="M22 69h1M43 69h1M52 69h1M81 69h1M95 69h1" />
<path stroke="#075b1c" d="M27 69h1M32 69h1M50 69h1M67 69h1M78 69h1M80 69h1M83 69h1M90 69h1M94 69h1M102 69h1M104 69h1" />
<path stroke="#085b1d" d="M33 69h1M38 69h1M40 69h1M42 69h1M68 69h1M89 69h1M96 69h1" />
<path stroke="#0eb43a" d="M37 69h1M58 69h1M100 69h1M107 69h1" />
<path stroke="#0eb438" d="M44 69h1" />
<path stroke="#085a1d" d="M45 69h1M49 69h1M74 69h1" />
<path stroke="#10b63a" d="M51 69h1" />
<path stroke="#0eb638" d="M65 69h1" />
<path stroke="#10b638" d="M79 69h1" />
<path stroke="#07591b" d="M7 70h1M12 70h2M25 70h1M27 70h1M32 70h2M41 70h1M43 70h1M49 70h1M52 70h5M63 70h1M67 70h1M81 70h2M84 70h2M90 70h1M95 70h1M97 70h1M105 70h1" />
<path stroke="#06581c" d="M8 70h1M18 70h1M76 70h1" />
<path stroke="#0cb238" d="M9 70h1" />
<path stroke="#07591c" d="M10 70h2M19 70h1M24 70h1M28 70h1M31 70h1M34 70h1M36 70h1M46 70h1M48 70h1M50 70h1M59 70h1M61 70h1M66 70h1M68 70h1M70 70h2M75 70h1M80 70h1M88 70h2M91 70h1M96 70h1M99 70h1M108 70h1" />
<path stroke="#06591c" d="M14 70h1M17 70h1M62 70h1M77 70h1M101 70h1M106 70h1" />
<path stroke="#07581b" d="M15 70h1M21 70h2M38 70h3M42 70h1M64 70h1M87 70h1M92 70h1M98 70h1M109 70h1" />
<path stroke="#0eb236" d="M16 70h1M23 70h1M37 70h1M51 70h1M58 70h1M65 70h1M72 70h1" />
<path stroke="#07581c" d="M20 70h1M26 70h1M29 70h1M35 70h1M45 70h1M57 70h1M60 70h1M73 70h2M83 70h1M102 70h2" />
<path stroke="#0cb236" d="M30 70h1M79 70h1" />
<path stroke="#0eb036" d="M44 70h1" />
<path stroke="#06581b" d="M47 70h1" />
<path stroke="#06591b" d="M69 70h1M78 70h1M94 70h1M104 70h1" />
<path stroke="#0eb238" d="M86 70h1M93 70h1M100 70h1M107 70h1" />
<path stroke="#07571b" d="M7 71h1M13 71h3M17 71h1M24 71h5M33 71h1M35 71h1M38 71h1M40 71h3M46 71h2M50 71h1M53 71h1M57 71h1M66 71h3M74 71h1M76 71h1M78 71h1M80 71h3M87 71h3M96 71h4M102 71h2M106 71h1M108 71h2" />
<path stroke="#06571a" d="M8 71h1" />
<path stroke="#0eae36" d="M9 71h1M16 71h1M23 71h1M37 71h1M44 71h1M51 71h1M58 71h1M65 71h1M100 71h1M107 71h1" />
<path stroke="#07561b" d="M10 71h1M12 71h1M19 71h1M21 71h2M36 71h1M39 71h1M48 71h1M52 71h1M60 71h3M64 71h1M71 71h1M75 71h1M84 71h1M90 71h3M94 71h1M101 71h1M104 71h1" />
<path stroke="#06571b" d="M11 71h1M20 71h1M29 71h1M34 71h1M45 71h1M49 71h1M54 71h2M59 71h1M63 71h1M69 71h2M73 71h1M83 71h1M85 71h1M105 71h1" />
<path stroke="#07571a" d="M18 71h1M31 71h1" />
<path stroke="#0cac34" d="M30 71h1" />
<path stroke="#06561b" d="M32 71h1M43 71h1M77 71h1M95 71h1" />
<path stroke="#06561a" d="M56 71h1" />
<path stroke="#0eae34" d="M72 71h1" />
<path stroke="#0cac36" d="M79 71h1" />
<path stroke="#0cae36" d="M86 71h1" />
<path stroke="#0eac36" d="M93 71h1" />
<path stroke="#06541a" d="M7 72h1M24 72h1M31 72h1M34 72h1M38 72h2M43 72h1M47 72h2M52 72h1M62 72h1M73 72h2M76 72h1M78 72h1M81 72h2M85 72h1M90 72h1M94 72h2M104 72h2" />
<path stroke="#07551a" d="M8 72h1M11 72h1M13 72h1M26 72h1M41 72h1M53 72h1M55 72h1M59 72h1M67 72h1M71 72h1M83 72h2M91 72h1" />
<path stroke="#0ca834" d="M9 72h1M65 72h1M79 72h1M86 72h1" />
<path stroke="#065519" d="M10 72h1M17 72h1M54 72h1M98 72h1M109 72h1" />
<path stroke="#06551a" d="M12 72h1M14 72h2M18 72h4M28 72h2M33 72h1M42 72h1M46 72h1M49 72h2M57 72h1M60 72h1M64 72h1M69 72h2M77 72h1M80 72h1M87 72h2M92 72h1M96 72h1M101 72h3M108 72h1" />
<path stroke="#0caa34" d="M16 72h1M23 72h1M30 72h1M51 72h1M58 72h1M72 72h1M93 72h1" />
<path stroke="#075519" d="M22 72h1M27 72h1M89 72h1M97 72h1M99 72h1" />
<path stroke="#075419" d="M25 72h1M75 72h1" />
<path stroke="#07541a" d="M32 72h1M36 72h1M40 72h1M45 72h1M56 72h1M66 72h1M68 72h1" />
<path stroke="#065419" d="M35 72h1M61 72h1M63 72h1M106 72h1" />
<path stroke="#0ea832" d="M37 72h1" />
<path stroke="#0eaa34" d="M44 72h1M100 72h1M107 72h1" />
<path stroke="#065218" d="M7 73h1M10 73h1M15 73h1M18 73h1M35 73h2M41 73h1M45 73h2M54 73h1M78 73h1M80 73h3M89 73h1M101 73h2M105 73h1M109 73h1" />
<path stroke="#065219" d="M8 73h1M11 73h4M17 73h1M19 73h4M24 73h2M27 73h3M31 73h4M38 73h3M42 73h2M48 73h3M52 73h2M55 73h3M59 73h6M66 73h1M68 73h2M71 73h1M73 73h1M75 73h3M83 73h1M85 73h1M87 73h2M90 73h3M95 73h4M103 73h2M106 73h1M108 73h1" />
<path stroke="#0ca432" d="M9 73h1M16 73h1M23 73h1M30 73h1M44 73h1M51 73h1M65 73h1M72 73h1M86 73h1M93 73h1M107 73h1" />
<path stroke="#065319" d="M26 73h1M47 73h1M70 73h1M74 73h1M84 73h1M94 73h1" />
<path stroke="#0ca632" d="M37 73h1" />
<path stroke="#0ca430" d="M58 73h1M79 73h1M100 73h1" />
<path stroke="#075219" d="M67 73h1" />
<path stroke="#065318" d="M99 73h1" />
<path stroke="#0aa02e" d="M7 74h1M9 74h1M28 74h1M30 74h1M32 74h1M38 74h1M40 74h1M56 74h1M66 74h1M74 74h1M77 74h1M88 74h1M101 74h1" />
<path stroke="#0aa030" d="M8 74h1M11 74h1M19 74h2M22 74h1M24 74h2M29 74h1M33 74h1M36 74h1M41 74h1M45 74h1M49 74h1M51 74h1M55 74h1M64 74h1M85 74h1M91 74h1M95 74h2" />
<path stroke="#0ca030" d="M10 74h1M12 74h1M14 74h3M23 74h1M26 74h2M31 74h1M39 74h1M42 74h1M44 74h1M46 74h3M57 74h1M59 74h3M63 74h1M65 74h1M67 74h3M71 74h1M73 74h1M75 74h2M80 74h1M82 74h1M84 74h1M86 74h2M89 74h2M97 74h4M103 74h2M106 74h2" />
<path stroke="#0ca02e" d="M13 74h1M17 74h2M21 74h1M34 74h2M37 74h1M43 74h1M50 74h1M53 74h2M58 74h1M62 74h1M72 74h1M78 74h2M81 74h1M83 74h1M92 74h1M94 74h1M102 74h1M105 74h1M108 74h2" />
<path stroke="#0c9e30" d="M52 74h1" />
<path stroke="#0a9e2e" d="M70 74h1" />
<path stroke="#0c9e2e" d="M93 74h1M30 75h1" />
<path stroke="#064e17" d="M7 75h1M11 75h4M19 75h1M25 75h2M29 75h1M33 75h2M36 75h1M40 75h1M42 75h2M45 75h3M49 75h1M52 75h5M59 75h2M62 75h1M66 75h1M68 75h1M71 75h1M73 75h1M76 75h2M80 75h2M87 75h1M89 75h1M97 75h2M101 75h1M106 75h1M109 75h1" />
<path stroke="#054e17" d="M8 75h1M10 75h1M15 75h1M17 75h2M20 75h3M24 75h1M27 75h1M31 75h2M38 75h2M41 75h1M48 75h1M57 75h1M61 75h1M64 75h1M67 75h1M69 75h2M74 75h1M78 75h1M82 75h1M84 75h2M88 75h1M90 75h1M92 75h1M94 75h3M99 75h1M102 75h4M108 75h1" />
<path stroke="#0c9c2e" d="M9 75h1M23 75h1M44 75h1M65 75h1M72 75h1M79 75h1" />
<path stroke="#0a9c2e" d="M16 75h1M37 75h1M51 75h1M58 75h1M86 75h1M93 75h1M100 75h1M107 75h1" />
<path stroke="#054f17" d="M28 75h1M63 75h1M75 75h1M83 75h1" />
<path stroke="#054e18" d="M35 75h1" />
<path stroke="#064f17" d="M50 75h1M91 75h1" />
<path stroke="#054c16" d="M7 76h2M10 76h4M15 76h1M17 76h6M25 76h1M27 76h3M31 76h6M38 76h4M43 76h1M45 76h3M49 76h2M52 76h1M55 76h3M59 76h3M63 76h2M68 76h1M71 76h1M75 76h1M77 76h2M81 76h3M88 76h2M91 76h2M94 76h3M98 76h2M102 76h1M105 76h1M108 76h2" />
<path stroke="#0a982c" d="M9 76h1M16 76h1M30 76h1M37 76h1M44 76h1M51 76h1M58 76h1M72 76h1M79 76h1M86 76h1M93 76h1M100 76h1" />
<path stroke="#064c16" d="M14 76h1M48 76h1M53 76h1M67 76h1M70 76h1M74 76h1M84 76h1M90 76h1M97 76h1M101 76h1M103 76h1M106 76h1" />
<path stroke="#0c982c" d="M23 76h1M65 76h1M107 76h1" />
<path stroke="#054c15" d="M24 76h1M26 76h1M42 76h1M54 76h1M66 76h1M76 76h1M87 76h1M104 76h1" />
<path stroke="#064c15" d="M62 76h1M73 76h1" />
<path stroke="#054d16" d="M69 76h1" />
<path stroke="#054d15" d="M80 76h1" />
<path stroke="#064d16" d="M85 76h1" />
<path stroke="#054a15" d="M7 77h2M11 77h5M17 77h2M21 77h2M25 77h2M28 77h2M32 77h1M35 77h1M38 77h1M40 77h4M45 77h1M49 77h1M55 77h1M57 77h1M61 77h1M64 77h1M68 77h1M70 77h2M73 77h3M77 77h2M80 77h4M85 77h1M87 77h2M90 77h1M92 77h1M95 77h1M97 77h3M101 77h1M103 77h1M105 77h1M109 77h1" />
<path stroke="#0a922a" d="M9 77h1M51 77h1" />
<path stroke="#054914" d="M10 77h1" />
<path stroke="#0a942a" d="M16 77h1M37 77h1M44 77h1M58 77h1M65 77h1M72 77h1M93 77h1M100 77h1" />
<path stroke="#054915" d="M19 77h1M31 77h1M36 77h1M39 77h1M52 77h2M56 77h1M59 77h2M69 77h1M76 77h1M89 77h1M102 77h1M108 77h1" />
<path stroke="#044915" d="M20 77h1M47 77h1M94 77h1M104 77h1M106 77h1" />
<path stroke="#089228" d="M23 77h1" />
<path stroke="#044a14" d="M24 77h1" />
<path stroke="#044a15" d="M27 77h1M33 77h2M48 77h1M54 77h1M62 77h2M66 77h2M91 77h1M96 77h1" />
<path stroke="#08922a" d="M30 77h1" />
<path stroke="#054a14" d="M46 77h1M50 77h1M84 77h1" />
<path stroke="#08942a" d="M79 77h1M86 77h1" />
<path stroke="#0a9428" d="M107 77h1" />
<path stroke="#054714" d="M7 78h1M11 78h1M14 78h2M28 78h1M69 78h1M85 78h1M101 78h1" />
<path stroke="#054814" d="M8 78h1M10 78h1M21 78h1M27 78h1M29 78h1M33 78h4M39 78h4M48 78h1M50 78h1M54 78h1M59 78h2M62 78h2M70 78h1M74 78h2M78 78h1M80 78h1M82 78h2M91 78h1M95 78h2M98 78h1M102 78h2" />
<path stroke="#0a8e26" d="M9 78h1" />
<path stroke="#044814" d="M12 78h2M18 78h1M20 78h1M22 78h1M24 78h1M26 78h1M31 78h2M38 78h1M43 78h1M46 78h1M52 78h2M55 78h1M61 78h1M67 78h2M76 78h1M81 78h1M84 78h1M87 78h1M90 78h1M92 78h1M94 78h1M104 78h1M106 78h1M108 78h2" />
<path stroke="#0a9028" d="M16 78h1M44 78h1M72 78h1M100 78h1M107 78h1" />
<path stroke="#054813" d="M17 78h1M56 78h1M71 78h1M77 78h1M89 78h1M97 78h1" />
<path stroke="#044813" d="M19 78h1M45 78h1M88 78h1" />
<path stroke="#0a8e28" d="M23 78h1M37 78h1M51 78h1M65 78h1M86 78h1M93 78h1" />
<path stroke="#044714" d="M25 78h1M49 78h1M57 78h1M66 78h1M73 78h1M99 78h1M105 78h1" />
<path stroke="#089028" d="M30 78h1M58 78h1M79 78h1" />
<path stroke="#044713" d="M47 78h1M64 78h1" />
<path stroke="#044613" d="M7 79h2M13 79h3M17 79h4M24 79h1M26 79h1M28 79h1M32 79h1M34 79h1M36 79h1M38 79h3M42 79h1M45 79h3M53 79h1M56 79h1M59 79h2M62 79h2M68 79h1M71 79h1M76 79h1M78 79h1M80 79h5M88 79h3M94 79h2M99 79h1M101 79h1M103 79h4" />
<path stroke="#088c28" d="M9 79h1M93 79h1" />
<path stroke="#054614" d="M10 79h1M27 79h1M43 79h1M52 79h1M70 79h1M77 79h1" />
<path stroke="#054613" d="M11 79h2M22 79h1M31 79h1M33 79h1M35 79h1M41 79h1M49 79h2M57 79h1M61 79h1M64 79h1M66 79h2M74 79h1M85 79h1M91 79h2M96 79h2M102 79h1M108 79h2" />
<path stroke="#088c26" d="M16 79h1M30 79h1M37 79h1M44 79h1M58 79h1M72 79h1M79 79h1M86 79h1" />
<path stroke="#044614" d="M21 79h1M25 79h1M29 79h1M48 79h1M54 79h2M69 79h1M73 79h1M75 79h1M87 79h1M98 79h1" />
<path stroke="#0a8c26" d="M23 79h1M65 79h1M100 79h1M107 79h1" />
<path stroke="#0a8c28" d="M51 79h1" />
<path stroke="#044312" d="M7 80h1M29 80h1M61 80h1M85 80h1" />
<path stroke="#044413" d="M8 80h1M11 80h2M15 80h1M18 80h2M26 80h1M31 80h1M34 80h1M36 80h1M56 80h2M64 80h1M73 80h1M75 80h1M83 80h1M88 80h1M95 80h1M98 80h1" />
<path stroke="#088824" d="M9 80h1M16 80h1M23 80h1M30 80h1M44 80h1M58 80h1M65 80h1M79 80h1M86 80h1M93 80h1M107 80h1" />
<path stroke="#044412" d="M10 80h1M13 80h2M17 80h1M20 80h3M24 80h2M27 80h2M32 80h2M35 80h1M39 80h5M45 80h6M52 80h4M59 80h2M62 80h2M66 80h2M69 80h3M74 80h1M76 80h1M78 80h1M80 80h3M84 80h1M87 80h1M89 80h4M94 80h1M96 80h2M99 80h1M101 80h3M105 80h2M108 80h2" />
<path stroke="#0a8826" d="M37 80h1" />
<path stroke="#044313" d="M38 80h1M68 80h1" />
<path stroke="#088626" d="M51 80h1" />
<path stroke="#088826" d="M72 80h1M100 80h1" />
<path stroke="#054412" d="M77 80h1M104 80h1" />
<path stroke="#088422" d="M7 81h2M10 81h1M12 81h1M15 81h4M21 81h1M23 81h2M26 81h1M29 81h4M36 81h5M44 81h1M47 81h1M53 81h1M59 81h3M67 81h1M71 81h1M75 81h2M78 81h5M86 81h1M89 81h1M92 81h1M94 81h1M98 81h1M103 81h1M105 81h2M108 81h1" />
<path stroke="#088424" d="M9 81h1M13 81h1M35 81h1M45 81h1M50 81h1M56 81h1M58 81h1M68 81h2M83 81h2M88 81h1M96 81h1" />
<path stroke="#068222" d="M11 81h1M27 81h1M62 81h2M66 81h1M74 81h1" />
<path stroke="#088222" d="M14 81h1M19 81h1M34 81h1M41 81h2M54 81h1M65 81h1M72 81h1M77 81h1M87 81h1M99 81h2M104 81h1M109 81h1" />
<path stroke="#068424" d="M20 81h1M46 81h1" />
<path stroke="#068422" d="M22 81h1M25 81h1M28 81h1M48 81h1M51 81h2M57 81h1M64 81h1M70 81h1M73 81h1M85 81h1M90 81h2M93 81h1M95 81h1M107 81h1" />
<path stroke="#068224" d="M33 81h1M43 81h1M101 81h2" />
<path stroke="#088224" d="M49 81h1M55 81h1M97 81h1" />
<path stroke="#033f10" d="M7 82h1M11 82h1M43 82h1M11 83h1M17 83h1M20 83h1M27 83h1M39 83h1M43 83h1M70 83h1M74 83h1M82 83h1M87 83h1M101 83h1" />
<path stroke="#034011" d="M8 82h1M26 82h1M38 82h1M49 82h1M60 82h1M67 82h1M76 82h1M82 82h2" />
<path stroke="#068020" d="M9 82h1M30 82h1M37 82h1M44 82h1M93 82h1M107 82h1" />
<path stroke="#034010" d="M10 82h1M14 82h1M17 82h1M25 82h1M27 82h1M33 82h3M40 82h1M45 82h2M48 82h1M50 82h1M52 82h5M59 82h1M63 82h2M68 82h3M74 82h1M77 82h1M81 82h1M84 82h2M88 82h1M91 82h2M96 82h4M101 82h1M103 82h1M106 82h1M108 82h2" />
<path stroke="#044010" d="M12 82h1M15 82h1M19 82h1M21 82h1M24 82h1M28 82h1M31 82h2M36 82h1M39 82h1M41 82h2M47 82h1M57 82h1M62 82h1M66 82h1M71 82h1M73 82h1M78 82h1M80 82h1M87 82h1M95 82h1M102 82h1M104 82h2" />
<path stroke="#033f11" d="M13 82h1" />
<path stroke="#088022" d="M16 82h1" />
<path stroke="#044011" d="M18 82h1M20 82h1M29 82h1M61 82h1M89 82h2" />
<path stroke="#043f10" d="M22 82h1M75 82h1M80 83h1" />
<path stroke="#068022" d="M23 82h1M65 82h1" />
<path stroke="#067e20" d="M51 82h1M16 83h1M30 83h1M44 83h1M86 83h1M100 83h1" />
<path stroke="#088020" d="M58 82h1M72 82h1M86 82h1M100 82h1" />
<path stroke="#087e22" d="M79 82h1" />
<path stroke="#043f11" d="M94 82h1" />
<path stroke="#033e10" d="M7 83h1M10 83h1M12 83h3M21 83h1M26 83h1M31 83h1M35 83h2M38 83h1M40 83h2M45 83h3M49 83h2M55 83h1M62 83h1M64 83h1M66 83h4M75 83h1M77 83h1M83 83h3M88 83h3M95 83h2" />
<path stroke="#033e0f" d="M8 83h1M15 83h1M22 83h1M29 83h1M48 83h1M57 83h1M59 83h1M63 83h1M71 83h1M98 83h1M104 83h1M108 83h2" />
<path stroke="#067c20" d="M9 83h1M23 83h1M51 83h1M58 83h1M65 83h1M79 83h1" />
<path stroke="#043e10" d="M18 83h2M24 83h2M28 83h1M33 83h1M42 83h1M52 83h2M56 83h1M60 83h2M103 83h1M105 83h2" />
<path stroke="#043e0f" d="M32 83h1M73 83h1M76 83h1M94 83h1M97 83h1M99 83h1M102 83h1" />
<path stroke="#033f0f" d="M34 83h1M54 83h1M81 83h1" />
<path stroke="#087c20" d="M37 83h1M107 83h1" />
<path stroke="#087e20" d="M72 83h1M93 83h1" />
<path stroke="#043f0f" d="M78 83h1M91 83h2" />
<path stroke="#033c0f" d="M7 84h2M10 84h3M14 84h2M17 84h1M19 84h1M22 84h1M27 84h3M31 84h1M33 84h1M35 84h2M39 84h2M45 84h1M48 84h2M52 84h2M55 84h1M59 84h1M62 84h2M68 84h3M75 84h4M81 84h2M85 84h1M89 84h2M92 84h1M94 84h2M97 84h1M105 84h2M108 84h1" />
<path stroke="#06781e" d="M9 84h1M16 84h1M44 84h1M58 84h1M65 84h1M72 84h1M79 84h1M86 84h1M93 84h1M107 84h1" />
<path stroke="#033d0f" d="M13 84h1M20 84h1M24 84h3M32 84h1M38 84h1M41 84h3M50 84h1M54 84h1M56 84h2M60 84h1M67 84h1M73 84h2M83 84h1M88 84h1M91 84h1M98 84h1M103 84h2M109 84h1" />
<path stroke="#033c0e" d="M18 84h1M46 84h2M66 84h1M80 84h1M87 84h1M101 84h2" />
<path stroke="#033d0e" d="M21 84h1M34 84h1M61 84h1M64 84h1M84 84h1M96 84h1M99 84h1" />
<path stroke="#06781c" d="M23 84h1" />
<path stroke="#067a1e" d="M30 84h1M37 84h1M51 84h1M100 84h1" />
<path stroke="#023c0e" d="M71 84h1" />
<path stroke="#033a0e" d="M7 85h1M11 85h1M18 85h2M21 85h1M24 85h2M28 85h1M34 85h1M36 85h1M39 85h3M45 85h5M55 85h1M59 85h2M64 85h1M68 85h2M71 85h1M75 85h1M77 85h2M89 85h1M94 85h2M97 85h1M99 85h1M101 85h2M104 85h3M109 85h1" />
<path stroke="#033b0e" d="M8 85h1M15 85h1M17 85h1M20 85h1M22 85h1M31 85h2M38 85h1M43 85h1M52 85h1M56 85h1M73 85h1M81 85h1M84 85h1M90 85h2M96 85h1M103 85h1" />
<path stroke="#06761c" d="M9 85h1M16 85h1M58 85h1M72 85h1" />
<path stroke="#033a0d" d="M10 85h1M26 85h1M42 85h1M87 85h1" />
<path stroke="#023b0e" d="M12 85h1M29 85h1M63 85h1M66 85h1M70 85h1M74 85h1M76 85h1M83 85h1" />
<path stroke="#023a0d" d="M13 85h1M27 85h1M98 85h1" />
<path stroke="#023a0e" d="M14 85h1M33 85h1M35 85h1M50 85h1M53 85h2M57 85h1M61 85h2M67 85h1M80 85h1M82 85h1M85 85h1M88 85h1M92 85h1M108 85h1" />
<path stroke="#04741c" d="M23 85h1M37 85h1" />
<path stroke="#06741c" d="M30 85h1M51 85h1M65 85h1M86 85h1M93 85h1M100 85h1M107 85h1" />
<path stroke="#06761a" d="M44 85h1" />
<path stroke="#04761c" d="M79 85h1" />
<path stroke="#03390d" d="M7 86h1M11 86h1M19 86h1M22 86h1M26 86h1M32 86h2M35 86h1M41 86h2M46 86h1M56 86h1M60 86h1M68 86h1M70 86h1M73 86h1M80 86h1M88 86h1M90 86h3M97 86h2M101 86h1M105 86h1M108 86h1" />
<path stroke="#03380d" d="M8 86h1M18 86h1M29 86h1M39 86h1M50 86h1M55 86h1M61 86h1M95 86h2M99 86h1M103 86h1M109 86h1M22 87h1M56 87h1M73 87h1M88 87h1M99 87h1" />
<path stroke="#04721a" d="M9 86h1M44 86h1M72 86h1M86 86h1" />
<path stroke="#02390d" d="M10 86h1M12 86h4M17 86h1M21 86h1M24 86h2M27 86h2M36 86h1M38 86h1M43 86h1M45 86h1M48 86h1M53 86h2M57 86h1M59 86h1M62 86h1M64 86h1M67 86h1M69 86h1M71 86h1M74 86h1M76 86h3M83 86h3M87 86h1M94 86h1M102 86h1" />
<path stroke="#06721a" d="M16 86h1M23 86h1M37 86h1M65 86h1M100 86h1" />
<path stroke="#02380d" d="M20 86h1M31 86h1M34 86h1M40 86h1M47 86h1M49 86h1M52 86h1M63 86h1M66 86h1M75 86h1M81 86h2M89 86h1M104 86h1M106 86h1M36 87h1M45 87h1M60 87h1M63 87h1M69 87h1M95 87h1M105 87h1" />
<path stroke="#04701a" d="M30 86h1M58 86h1M93 86h1M9 87h1M79 87h1M100 87h1M107 87h1" />
<path stroke="#06701a" d="M51 86h1M79 86h1M107 86h1" />
<path stroke="#03370c" d="M7 87h1M10 87h1M24 87h1M26 87h1M42 87h2M47 87h1M52 87h1M61 87h1M84 87h1M96 87h1" />
<path stroke="#02370d" d="M8 87h1M11 87h1M13 87h3M18 87h1M21 87h1M25 87h1M28 87h1M31 87h1M38 87h1M41 87h1M46 87h1M49 87h2M55 87h1M57 87h1M66 87h2M80 87h2M83 87h1M89 87h2M97 87h2M102 87h2" />
<path stroke="#03370d" d="M12 87h1M17 87h1M32 87h1M35 87h1M74 87h1M91 87h1M109 87h1" />
<path stroke="#046e18" d="M16 87h1M37 87h1M72 87h1M86 87h1" />
<path stroke="#02370c" d="M19 87h1M27 87h1M29 87h1M33 87h1M39 87h2M48 87h1M53 87h2M62 87h1M64 87h1M68 87h1M70 87h2M75 87h1M77 87h2M82 87h1M85 87h1M87 87h1M92 87h1M94 87h1M104 87h1M106 87h1M108 87h1" />
<path stroke="#02380c" d="M20 87h1M59 87h1M76 87h1M101 87h1" />
<path stroke="#046e1a" d="M23 87h1M30 87h1M44 87h1M93 87h1" />
<path stroke="#03380c" d="M34 87h1" />
<path stroke="#066e18" d="M51 87h1M65 87h1" />
<path stroke="#066e1a" d="M58 87h1" />
<path stroke="#046c18" d="M7 88h1M13 88h1M18 88h1M22 88h1M24 88h1M38 88h1M43 88h2M47 88h1M54 88h2M63 88h1M69 88h1M72 88h3M80 88h2M88 88h1M95 88h1M98 88h1" />
<path stroke="#046a16" d="M8 88h1M12 88h1M17 88h1M19 88h1M21 88h1M23 88h1M25 88h1M30 88h2M34 88h2M42 88h1M57 88h1M70 88h1M75 88h1M86 88h1M93 88h2M103 88h1M105 88h1" />
<path stroke="#046a18" d="M9 88h3M16 88h1M20 88h1M28 88h2M32 88h2M37 88h1M39 88h3M46 88h1M49 88h2M52 88h2M56 88h1M58 88h1M61 88h2M64 88h2M67 88h1M71 88h1M78 88h2M83 88h1M85 88h1M89 88h1M91 88h1M96 88h2M100 88h1M102 88h1M104 88h1M106 88h1M108 88h1" />
<path stroke="#046c16" d="M14 88h2M27 88h1M36 88h1M45 88h1M48 88h1M51 88h1M59 88h2M66 88h1M68 88h1M76 88h2M82 88h1M84 88h1M87 88h1M99 88h1M101 88h1M107 88h1M109 88h1" />
<path stroke="#066a18" d="M26 88h1" />
<path stroke="#066c18" d="M90 88h1" />
<path stroke="#066a16" d="M92 88h1" />
<path stroke="#02340b" d="M7 89h2M10 89h1M13 89h1M18 89h4M24 89h2M28 89h1M31 89h3M38 89h1M40 89h3M45 89h1M47 89h1M49 89h2M52 89h1M57 89h1M60 89h5M66 89h1M68 89h1M70 89h2M73 89h3M78 89h1M80 89h2M84 89h1M88 89h2M91 89h1M94 89h3M98 89h2M101 89h1M104 89h3M108 89h1" />
<path stroke="#026816" d="M9 89h1" />
<path stroke="#01340b" d="M11 89h1M15 89h1M17 89h1M26 89h2M29 89h1M34 89h1M46 89h1M54 89h1M90 89h1M103 89h1" />
<path stroke="#02340a" d="M12 89h1M14 89h1M36 89h1M76 89h1M82 89h1" />
<path stroke="#046814" d="M16 89h1" />
<path stroke="#02330b" d="M22 89h1M35 89h1M48 89h1M55 89h2M59 89h1M67 89h1M77 89h1M83 89h1M85 89h1M97 89h1M102 89h1M109 89h1" />
<path stroke="#046616" d="M23 89h1M86 89h1M107 89h1" />
<path stroke="#046816" d="M30 89h1M37 89h1M44 89h1M58 89h1M72 89h1M79 89h1M93 89h1" />
<path stroke="#01330b" d="M39 89h1M53 89h1M92 89h1" />
<path stroke="#01340a" d="M43 89h1M69 89h1M87 89h1" />
<path stroke="#026616" d="M51 89h1M65 89h1" />
<path stroke="#046614" d="M100 89h1M9 90h1" />
<path stroke="#01320a" d="M7 90h1M10 90h1M17 90h2M24 90h1M29 90h1M31 90h1M33 90h1M36 90h1M38 90h1M40 90h4M50 90h1M52 90h2M56 90h2M60 90h4M70 90h1M73 90h1M82 90h1M85 90h1M87 90h2M94 90h3M104 90h1M106 90h1M109 90h1" />
<path stroke="#02320a" d="M8 90h1M12 90h1M15 90h1M21 90h2M27 90h2M34 90h2M45 90h1M47 90h2M54 90h2M59 90h1M64 90h1M66 90h4M71 90h1M75 90h4M80 90h2M83 90h2M89 90h4M98 90h2M102 90h2M108 90h1" />
<path stroke="#02320b" d="M11 90h1M46 90h1" />
<path stroke="#01330a" d="M13 90h1M39 90h1M74 90h1" />
<path stroke="#01320b" d="M14 90h1M20 90h1M25 90h1M101 90h1M105 90h1" />
<path stroke="#046414" d="M16 90h1M23 90h1M44 90h1M51 90h1M58 90h1M65 90h1M86 90h1M100 90h1" />
<path stroke="#02330a" d="M19 90h1M26 90h1M32 90h1M49 90h1M97 90h1" />
<path stroke="#026414" d="M30 90h1M37 90h1M72 90h1M79 90h1M93 90h1M107 90h1" />
<path stroke="#01300a" d="M7 91h1M24 91h1M32 91h1M41 91h1M61 91h1M68 91h2M73 91h1" />
<path stroke="#023109" d="M8 91h1M12 91h1M19 91h1M42 91h2M59 91h1M62 91h1M70 91h1M78 91h1M80 91h1M84 91h1M87 91h1M99 91h1M106 91h1" />
<path stroke="#046012" d="M9 91h1M51 92h1M86 92h1" />
<path stroke="#013009" d="M10 91h1M20 91h1M26 91h1M31 91h1M33 91h1M35 91h1M38 91h2M46 91h1M48 91h1M55 91h2M66 91h1M77 91h1M83 91h1M85 91h1M95 91h1M97 91h1M101 91h2M8 92h1M10 92h3M17 92h2M22 92h1M27 92h3M31 92h1M34 92h2M39 92h4M48 92h2M52 92h1M55 92h3M60 92h2M64 92h1M66 92h1M70 92h2M73 92h1M75 92h2M87 92h1M89 92h1M92 92h1M95 92h4M101 92h4M108 92h1" />
<path stroke="#013109" d="M11 91h1M14 91h2M17 91h2M22 91h1M25 91h1M29 91h1M34 91h1M40 91h1M45 91h1M54 91h1M67 91h1M71 91h1M74 91h3M82 91h1M89 91h1M91 91h2M94 91h1M96 91h1M98 91h1M109 91h1" />
<path stroke="#02300a" d="M13 91h1M36 91h1M63 91h1M88 91h1" />
<path stroke="#026012" d="M16 91h1M44 91h1M51 91h1M65 91h1M72 91h1M100 91h1M9 92h1M16 92h1M30 92h1" />
<path stroke="#023009" d="M21 91h1M27 91h2M49 91h1M52 91h1M57 91h1M60 91h1M108 91h1M15 92h1M24 92h1M36 92h1M45 92h1M50 92h1M78 92h1M81 92h1M84 92h1M90 92h2M94 92h1" />
<path stroke="#026212" d="M23 91h1M30 91h1M86 91h1M107 91h1" />
<path stroke="#026014" d="M37 91h1" />
<path stroke="#01310a" d="M47 91h1M53 91h1M64 91h1M81 91h1M90 91h1M103 91h1M105 91h1" />
<path stroke="#02310a" d="M50 91h1M104 91h1" />
<path stroke="#046212" d="M58 91h1M93 91h1" />
<path stroke="#026214" d="M79 91h1" />
<path stroke="#012f09" d="M7 92h1M13 92h2M19 92h2M26 92h1M32 92h1M38 92h1M43 92h1M53 92h2M62 92h2M67 92h1M69 92h1M74 92h1M77 92h1M80 92h1M82 92h1M85 92h1M88 92h1M105 92h2M109 92h1" />
<path stroke="#022f09" d="M21 92h1M25 92h1M33 92h1M46 92h2M59 92h1M83 92h1M99 92h1" />
<path stroke="#025e12" d="M23 92h1M37 92h1M44 92h1M58 92h1M72 92h1M79 92h1M93 92h1M100 92h1M107 92h1" />
<path stroke="#045e12" d="M65 92h1" />
<path stroke="#012f08" d="M68 92h1M22 93h1M42 93h1" />
<path stroke="#012e08" d="M7 93h2M11 93h1M13 93h3M17 93h2M20 93h2M24 93h5M31 93h6M38 93h4M43 93h1M45 93h5M52 93h2M55 93h1M57 93h1M59 93h6M66 93h2M69 93h3M73 93h5M80 93h4M85 93h1M88 93h5M94 93h3M98 93h2M101 93h4M109 93h1" />
<path stroke="#025c12" d="M9 93h1M44 93h1M93 93h1" />
<path stroke="#012e09" d="M10 93h1M19 93h1M29 93h1M50 93h1M56 93h1M68 93h1M78 93h1M84 93h1M87 93h1M97 93h1M105 93h2M108 93h1" />
<path stroke="#002e08" d="M12 93h1M54 93h1" />
<path stroke="#025c10" d="M16 93h1M23 93h1M30 93h1M51 93h1M58 93h1M65 93h1M72 93h1M79 93h1M86 93h1M100 93h1M107 93h1" />
<path stroke="#025e10" d="M37 93h1" />
<path stroke="#012c08" d="M7 94h1M19 94h1M21 94h1M32 94h1M41 94h2M50 94h1M60 94h2M70 94h1M76 94h2M80 94h1M82 94h1M92 94h1" />
<path stroke="#012c07" d="M8 94h1M11 94h1M15 94h1M20 94h1M25 94h1M27 94h1M29 94h1M56 94h1M59 94h1M67 94h1M69 94h1M73 94h1M78 94h1M96 94h1M98 94h2M103 94h1M108 94h2" />
<path stroke="#00580e" d="M9 94h1M30 94h1M31 95h1M51 95h1M62 95h1M66 95h1" />
<path stroke="#012d07" d="M10 94h1M12 94h1M17 94h2M26 94h1M43 94h1M46 94h1M53 94h1M64 94h1M74 94h2M87 94h1M94 94h2M97 94h1" />
<path stroke="#012d08" d="M13 94h1M22 94h1M24 94h1M28 94h1M34 94h1M39 94h1M45 94h1M47 94h2M52 94h1M54 94h1M57 94h1M63 94h1M66 94h1M68 94h1M84 94h1M88 94h1M90 94h2M102 94h1M104 94h1M106 94h1" />
<path stroke="#002d08" d="M14 94h1M31 94h1M36 94h1M55 94h1M83 94h1" />
<path stroke="#02580e" d="M16 94h1M79 94h1M86 94h1M9 95h1M17 95h1M19 95h1M23 95h1M33 95h1M92 95h1M94 95h1M96 95h2M102 95h1M108 95h1" />
<path stroke="#025a0e" d="M23 94h1M51 94h1M65 94h1" />
<path stroke="#002c07" d="M33 94h1M38 94h1M62 94h1M81 94h1M89 94h1" />
<path stroke="#002d07" d="M35 94h1M40 94h1M49 94h1M101 94h1M105 94h1" />
<path stroke="#025810" d="M37 94h1M44 94h1M93 94h1" />
<path stroke="#005a10" d="M58 94h1" />
<path stroke="#002c08" d="M71 94h1M85 94h1" />
<path stroke="#005a0e" d="M72 94h1" />
<path stroke="#025a10" d="M100 94h1M107 94h1" />
<path stroke="#00560e" d="M7 95h1M12 95h1M18 95h1M20 95h3M25 95h1M27 95h3M34 95h1M36 95h1M40 95h1M44 95h1M47 95h1M49 95h1M52 95h1M54 95h5M68 95h2M71 95h1M73 95h4M79 95h1M82 95h1M84 95h1M87 95h2M90 95h1M93 95h1M95 95h1M98 95h2M103 95h2M106 95h2M109 95h1M9 96h1M37 96h1" />
<path stroke="#02560e" d="M8 95h1M13 95h4M24 95h1M26 95h1M30 95h1M32 95h1M35 95h1M37 95h3M41 95h1M43 95h1M45 95h2M53 95h1M59 95h3M63 95h3M67 95h1M70 95h1M72 95h1M77 95h2M80 95h2M83 95h1M85 95h2M89 95h1M91 95h1M100 95h1M105 95h1M44 96h1M107 96h1" />
<path stroke="#00580c" d="M10 95h1" />
<path stroke="#00560c" d="M11 95h1M42 95h1M48 95h1M50 95h1M65 96h1M72 96h1M100 96h1" />
<path stroke="#02560c" d="M101 95h1" />
<path stroke="#012b07" d="M7 96h1M34 96h1M39 96h1M53 96h1M83 96h1M91 96h1" />
<path stroke="#012a06" d="M8 96h1M19 96h1M26 96h1M43 96h1M52 96h1M61 96h1M69 96h1M73 96h1M90 96h1M105 96h1M18 97h1M40 97h2M60 97h1M66 97h1M76 97h1M109 97h1" />
<path stroke="#012b06" d="M10 96h1M14 96h1M38 96h1M42 96h1M67 96h1M102 96h1M104 96h1" />
<path stroke="#012a07" d="M11 96h1M17 96h1M20 96h1M25 96h1M45 96h1M47 96h1M55 96h1M60 96h1M71 96h1M78 96h1M85 96h1M92 96h1M101 96h1M106 96h1" />
<path stroke="#002b06" d="M12 96h1M28 96h1M31 96h1M36 96h1M40 96h1M48 96h1M50 96h1M56 96h1M59 96h1M63 96h1M66 96h1M76 96h1" />
<path stroke="#002a06" d="M13 96h1M18 96h1M22 96h1M32 96h1M46 96h1M54 96h1M62 96h1M64 96h1M84 96h1M88 96h2M94 96h1M96 96h2M108 96h1M7 97h1M14 97h1M21 97h1M38 97h1M43 97h1M47 97h1M55 97h1M77 97h1M80 97h1M91 97h1M105 97h1" />
<path stroke="#002a07" d="M15 96h1M27 96h1M33 96h1M49 96h1M57 96h1M74 96h2M80 96h2M87 96h1M98 96h2M109 96h1M34 97h1M99 97h1" />
<path stroke="#00540e" d="M16 96h1M23 96h1M51 96h1" />
<path stroke="#002b07" d="M21 96h1M24 96h1M29 96h1M35 96h1M41 96h1M68 96h1M70 96h1M77 96h1M82 96h1M95 96h1M103 96h1" />
<path stroke="#02540c" d="M30 96h1M51 97h1" />
<path stroke="#00540c" d="M58 96h1M37 97h1" />
<path stroke="#02540e" d="M79 96h1M86 96h1M93 96h1" />
<path stroke="#002906" d="M8 97h1M11 97h3M15 97h1M17 97h1M19 97h2M22 97h1M24 97h1M26 97h1M28 97h1M31 97h3M35 97h2M39 97h1M45 97h2M48 97h2M53 97h2M56 97h1M61 97h1M63 97h2M67 97h3M71 97h1M74 97h1M78 97h1M82 97h2M85 97h1M89 97h1M94 97h4M101 97h1M103 97h2M106 97h1M108 97h1M31 98h1M36 98h1M47 98h1" />
<path stroke="#00520c" d="M9 97h1M23 97h1M30 97h1M44 97h1M58 97h1M65 97h1M72 97h1M79 97h1M86 97h1M100 97h1M107 97h1" />
<path stroke="#012906" d="M10 97h1M25 97h1M27 97h1M29 97h1M42 97h1M50 97h1M52 97h1M57 97h1M59 97h1M62 97h1M70 97h1M73 97h1M75 97h1M81 97h1M84 97h1M87 97h2M90 97h1M92 97h1M98 97h1M102 97h1M12 98h1" />
<path stroke="#02520c" d="M16 97h1M93 97h1" />
<path stroke="#002805" d="M8 98h1M10 98h1M13 98h1M15 98h1M27 98h1M32 98h1M34 98h2M39 98h1M43 98h1M45 98h2M49 98h2M52 98h2M55 98h1M60 98h1M64 98h1M70 98h1M75 98h1M82 98h3M87 98h2M96 98h1M98 98h2M102 98h1M105 98h1" />
<path stroke="#00500c" d="M9 98h1M23 98h1M51 98h1M58 98h1M65 98h1M72 98h1M93 98h1M107 98h1" />
<path stroke="#002905" d="M11 98h1M61 98h1M94 98h1" />
<path stroke="#002806" d="M14 98h1M17 98h4M22 98h1M25 98h2M28 98h2M41 98h1M48 98h1M54 98h1M56 98h1M59 98h1M62 98h2M66 98h2M69 98h1M71 98h1M74 98h1M76 98h2M80 98h2M85 98h1M89 98h4M95 98h1M97 98h1M101 98h1M103 98h2M106 98h1M108 98h1" />
<path stroke="#00500a" d="M16 98h1M30 98h1M37 98h1M44 98h1M86 98h1M100 98h1" />
<path stroke="#012805" d="M21 98h1M33 98h1M38 98h1M42 98h1M57 98h1M73 98h1" />
<path stroke="#012806" d="M24 98h1M40 98h1M68 98h1M78 98h1" />
<path stroke="#02500c" d="M79 98h1" />
<path stroke="#f8f8f8" d="M7 114h3M11 114h3M15 114h1M19 114h1M7 115h1M9 115h1M11 115h1M13 115h1M15 115h1M17 115h1M19 115h1M7 116h1M9 116h1M11 116h1M13 116h1M15 116h1M17 116h1M19 116h1M7 117h3M11 117h1M13 117h1M15 117h1M17 117h1M19 117h1M7 118h1M11 118h3M16 118h1M18 118h1M7 122h3M11 122h3M15 122h1M19 122h1M7 123h1M9 123h1M11 123h1M13 123h1M15 123h1M17 123h1M19 123h1M7 124h1M9 124h1M11 124h1M13 124h1M15 124h1M17 124h1M19 124h1M7 125h3M11 125h1M13 125h1M15 125h1M17 125h1M19 125h1M7 126h1M11 126h3M16 126h1M18 126h1M7 130h3M11 130h3M15 130h1M19 130h1M7 131h1M9 131h1M11 131h1M13 131h1M15 131h1M17 131h1M19 131h1M7 132h1M9 132h1M11 132h1M13 132h1M15 132h1M17 132h1M19 132h1M7 133h3M11 133h1M13 133h1M15 133h1M17 133h1M19 133h1M7 134h1M11 134h3M16 134h1M18 134h1M7 138h3M11 138h3M15 138h1M19 138h1M7 139h1M9 139h1M11 139h1M13 139h1M15 139h1M17 139h1M19 139h1M7 140h1M9 140h1M11 140h1M13 140h1M15 140h1M17 140h1M19 140h1M7 141h3M11 141h1M13 141h1M15 141h1M17 141h1M19 141h1M7 142h1M11 142h3M16 142h1M18 142h1M7 147h1M9 147h2M13 147h1M18 147h1M20 147h1M22 147h1M25 147h1M27 147h1M30 147h2M33 147h1M36 147h1M40 147h1M43 147h1M47 147h1M49 147h2M52 147h1M55 147h1M57 147h1M60 147h1M62 147h2M65 147h2M68 147h2M72 147h1M77 147h1M79 147h1M81 147h1M84 147h1M86 147h1M89 147h2M92 147h1M95 147h1M7 148h1M10 148h1M12 148h2M15 148h2M18 148h1M20 148h1M24 148h2M27 148h1M29 148h1M31 148h1M33 148h2M36 148h1M38 148h1M40 148h1M42 148h2M45 148h1M47 148h2M50 148h1M52 148h2M55 148h1M57 148h2M60 148h1M62 148h1M64 148h3M69 148h1M71 148h2M74 148h2M77 148h1M79 148h1M83 148h2M86 148h1M88 148h1M90 148h1M92 148h2M95 148h1M97 148h1M7 150h1M10 150h2M13 150h1M16 150h1M18 150h2M21 150h1M24 150h1M26 150h2M29 150h1M34 150h1M36 150h1M38 150h1M40 150h2M43 150h2M48 150h1M51 150h1M53 150h2M57 150h1M59 150h1M61 150h1M64 150h1M66 150h1M69 150h2M72 150h1M75 150h1M77 150h2M80 150h1M83 150h1M85 150h2M88 150h1M93 150h1M95 150h1M97 150h1M7 151h2M11 151h1M13 151h1M15 151h2M21 151h2M24 151h1M27 151h1M29 151h1M31 151h2M34 151h1M36 151h2M40 151h2M43 151h1M46 151h1M48 151h1M50 151h2M53 151h2M56 151h2M61 151h2M64 151h1M66 151h2M70 151h1M72 151h1M74 151h2M80 151h2M83 151h1M86 151h1M88 151h1M90 151h2M93 151h1M95 151h2" />
<path stroke="#111111" d="M23 114h74M23 115h74M23 116h74M23 117h74M23 118h74M23 122h74M23 123h74M23 124h74M23 125h74M23 126h74M23 130h74M23 131h74M23 132h74M23 133h74M23 134h74M23 138h74M23 139h74M23 140h74M23 141h74M23 142h74" />
<path stroke="#104838" d="M115 119h1M114 120h2M115 121h1M115 122h1M115 123h1M110 124h1M115 124h1M109 125h1M115 125h1M115 126h1M115 127h1M106 128h1M104 130h1M115 130h1M104 131h1M115 131h1M104 132h1M104 134h1M115 134h1M104 135h1M115 135h1M104 136h1M104 138h1M115 138h1M115 139h1M104 140h1M104 141h1M104 142h1M115 142h1M115 143h1M104 144h1M104 145h1M104 146h1M115 146h1M115 147h1M104 149h1M104 150h1M115 150h1M104 151h1M115 151h1M104 152h1M104 154h1M114 154h1M103 155h11" />
<path stroke="#486078" d="M113 121h1M112 122h1M111 123h1M110 125h1M114 125h1M109 126h1M112 126h2M107 127h1M113 127h1M115 128h1M105 129h3M109 129h1M112 129h4M107 132h1M109 132h1M115 132h1M104 133h1M106 133h1M112 133h4M115 136h1M104 137h1M106 137h2M109 137h1M112 137h4M104 139h1M106 139h1M107 140h1M115 140h1M109 141h1M112 141h4M104 143h1M106 143h1M107 144h1M109 144h1M115 144h1M112 145h4M109 148h1M115 148h1M108 149h1M112 149h4M107 150h1M106 151h1M105 152h1M115 152h1M104 153h1M112 153h4" />
<path stroke="#006838" d="M114 121h1M114 122h1M113 123h1M112 124h1M114 124h1M111 125h1M113 125h1M110 126h2M114 126h1M109 127h3M114 127h1M107 128h1M109 128h1M105 130h3M109 130h3M113 130h2M105 131h3M109 131h3M113 131h2M105 132h2M107 133h1M109 133h1M105 134h3M109 134h3M113 134h2M106 135h2M109 135h3M113 135h2M105 136h3M109 136h1M105 138h3M109 138h3M113 138h2M107 139h1M109 139h3M113 139h2M105 140h2M109 140h1M106 141h2M105 142h3M109 142h3M113 142h2M107 143h1M109 143h3M113 143h2M105 144h2M105 145h2M108 145h2M105 146h1M107 146h5M113 146h2M104 147h1M106 147h6M113 147h2M105 148h4M105 149h3M109 149h1M105 150h2M108 150h3M112 150h3M105 151h1M107 151h3M111 151h4M106 152h3M105 153h3M109 153h1M105 154h2M108 154h6" />
<path stroke="#282828" d="M114 123h1M113 124h1M112 125h1M108 126h1M108 127h1M108 128h1M108 129h1M108 130h1M112 130h1M108 131h1M112 131h1M108 132h1M108 133h1M108 134h1M112 134h1M108 135h1M112 135h1M108 136h1M108 137h1M108 138h1M112 138h1M108 139h1M112 139h1M108 140h1M108 141h1M108 142h1M112 142h1M108 143h1M112 143h1M108 144h1M107 145h1M106 146h1M112 146h1M105 147h1M112 147h1M104 148h1M111 150h1M110 151h1M109 152h1M108 153h1M107 154h1" />
<path stroke="#9898b8" d="M110 128h5M110 129h1M110 132h5M110 133h1M110 136h5M110 137h1M110 140h5M110 141h1M110 144h5M110 145h1M110 148h5M110 149h1M110 152h5M110 153h1" />
</svg>