<?xml version="1.0" ?><svg data-name="Слой 1" id="Слой_1" viewBox="0 0 96 96" xmlns="http://www.w3.org/2000/svg"><defs><style>
      .cls-1 {
        fill: #d43219;
      }

      .cls-2 {
        fill: #fa4e28;
      }

      .cls-3 {
        fill: none;
        stroke: #fff;
        stroke-linecap: round;
        stroke-linejoin: round;
        stroke-width: 3px;
      }

      .cls-4 {
        fill: #fff;
      }
    </style></defs><title/><path class="cls-1" d="M92,48v.13A44,44,0,1,1,47.87,4H48c1.06,0,2.11,0,3.16.12a42.89,42.89,0,0,1,5.12.67,43.39,43.39,0,0,1,8.1,2.37A44.13,44.13,0,0,1,88.79,31.47a43.22,43.22,0,0,1,2.43,8.24h0a44,44,0,0,1,.67,5.17C92,45.92,92,47,92,48Z"/><path class="cls-2" d="M91,44.5v.12A39.53,39.53,0,1,1,51.38,5h.12c1,0,1.89,0,2.84.11a38.38,38.38,0,0,1,4.59.6,39.33,39.33,0,0,1,5.45,1.45A44.13,44.13,0,0,1,88.79,31.47a38.33,38.33,0,0,1,1.51,5.59h0a39.22,39.22,0,0,1,.6,4.64C91,42.63,91,43.57,91,44.5Z"/><path class="cls-3" d="M74.66,21.93a36.47,36.47,0,0,1,3,3.52"/><path class="cls-3" d="M58,12a38.11,38.11,0,0,1,11.78,5.76"/><path class="cls-4" d="M69.2,48.46a4.83,4.83,0,0,0-4.83-4.83,4.77,4.77,0,0,0-3.06,1.12,23.51,23.51,0,0,0-12-3.72l1.89-9.86,6.9,1.4a3.29,3.29,0,1,0,.51-1.94l-8-1.62a1,1,0,0,0-.76.15,1,1,0,0,0-.42.64L47.32,41a24,24,0,0,0-12.69,3.7,4.77,4.77,0,0,0-3-1.07,4.82,4.82,0,0,0-2.58,8.89A9.12,9.12,0,0,0,28.92,54c0,7.19,8.51,13,19,13s19-5.83,19-13a8.18,8.18,0,0,0-.12-1.4A4.81,4.81,0,0,0,69.2,48.46ZM37.67,51.68a3.42,3.42,0,1,1,3.42,3.42A3.42,3.42,0,0,1,37.67,51.68ZM56.9,60.12a12.62,12.62,0,0,1-16.91,0,1,1,0,1,1,1.33-1.49,10.63,10.63,0,0,0,14.24,0,1,1,0,0,1,1.34,1.49Zm-1.27-5a3.42,3.42,0,1,1,3.42-3.42A3.42,3.42,0,0,1,55.63,55.1Z"/></svg>