<svg xmlns="http://www.w3.org/2000/svg" viewBox="0 -0.5 32 32" shape-rendering="crispEdges">
<metadata>Made with Pixels to Svg https://codepen.io/shshaw/pen/XbxvNj</metadata>
<path stroke="#d49454" d="M0 0h14M0 1h14M0 2h2M0 3h2M0 4h2M0 5h2M0 6h2M4 6h2M0 7h2M4 7h2M6 8h2M10 8h2M6 9h2M10 9h2M0 10h2M0 11h2M16 16h14M16 17h14M16 18h2M16 19h2M16 20h2M16 21h2M16 22h2M20 22h2M16 23h2M20 23h2M22 24h2M26 24h2M22 25h2M26 25h2M16 26h2M16 27h2" />
<path stroke="#c47434" d="M14 0h2M14 1h2M4 4h2M8 4h2M12 4h2M4 5h2M8 5h2M12 5h2M2 6h2M6 6h2M10 6h2M2 7h2M6 7h2M10 7h2M0 8h2M4 8h2M8 8h2M0 9h2M4 9h2M8 9h2M2 10h2M6 10h6M2 11h2M6 11h6M0 12h2M4 12h2M8 12h2M12 12h2M0 13h2M4 13h2M8 13h2M12 13h2M30 16h2M30 17h2M20 20h2M24 20h2M28 20h2M20 21h2M24 21h2M28 21h2M18 22h2M22 22h2M26 22h2M18 23h2M22 23h2M26 23h2M16 24h2M20 24h2M24 24h2M16 25h2M20 25h2M24 25h2M18 26h2M22 26h4M18 27h2M22 27h4M16 28h2M16 29h2" />
<path stroke="#f4bc54" d="M16 0h14M16 1h14M16 2h2M16 3h2M16 4h2M16 5h2M16 6h2M20 6h2M16 7h2M20 7h2M22 8h2M26 8h2M22 9h2M26 9h2M16 10h2M16 11h2M0 16h14M0 17h14M0 18h2M0 19h2M0 20h2M0 21h2M0 22h2M4 22h2M0 23h2M4 23h2M6 24h2M10 24h2M6 25h2M10 25h2M0 26h2M0 27h2" />
<path stroke="#e4a434" d="M30 0h2M30 1h2M20 4h2M24 4h2M28 4h2M20 5h2M24 5h2M28 5h2M18 6h2M22 6h2M26 6h2M18 7h2M22 7h2M26 7h2M16 8h2M20 8h2M24 8h2M16 9h2M20 9h2M24 9h2M18 10h2M22 10h6M18 11h2M22 11h6M16 12h2M20 12h2M24 12h2M28 12h2M16 13h2M20 13h2M24 13h2M28 13h2M14 16h2M14 17h2M4 20h2M8 20h2M12 20h2M4 21h2M8 21h2M12 21h2M2 22h2M6 22h2M10 22h2M2 23h2M6 23h2M10 23h2M0 24h2M4 24h2M8 24h2M0 25h2M4 25h2M8 25h2M2 26h2M6 26h6M2 27h2M6 27h6M0 28h2M4 28h2M8 28h2M12 28h2M0 29h2M4 29h2M8 29h2M12 29h2" />
<path stroke="#84340c" d="M2 2h2M6 2h2M10 2h2M14 2h2M2 3h2M6 3h2M10 3h2M14 3h2M14 4h2M14 5h2M14 6h2M14 7h2M14 8h2M14 9h2M14 10h2M14 11h2M14 12h2M14 13h2M2 14h14M2 15h14M18 18h2M22 18h2M26 18h2M30 18h2M18 19h2M22 19h2M26 19h2M30 19h2M30 20h2M30 21h2M30 22h2M30 23h2M30 24h2M30 25h2M30 26h2M30 27h2" />
<path stroke="#a4541c" d="M4 2h2M8 2h2M12 2h2M4 3h2M8 3h2M12 3h2M2 4h2M6 4h2M10 4h2M2 5h2M6 5h2M10 5h2M8 6h2M12 6h2M8 7h2M12 7h2M2 8h2M12 8h2M2 9h2M12 9h2M4 10h2M12 10h2M4 11h2M12 11h2M2 12h2M6 12h2M10 12h2M2 13h2M6 13h2M10 13h2M0 14h2M0 15h2M20 18h2M24 18h2M28 18h2M20 19h2M24 19h2M28 19h2M18 20h2M22 20h2M26 20h2M18 21h2M22 21h2M26 21h2M24 22h2M28 22h2M24 23h2M28 23h2M18 24h2M28 24h2M18 25h2M28 25h2M20 26h2M28 26h2M20 27h2M28 27h2M18 28h2M18 29h2" />
<path stroke="#bc5c04" d="M18 2h2M22 2h2M26 2h2M30 2h2M18 3h2M22 3h2M26 3h2M30 3h2M30 4h2M30 5h2M30 6h2M30 7h2M30 8h2M30 9h2M30 10h2M30 11h2M30 12h2M30 13h2M18 14h14M18 15h14M2 18h2M6 18h2M10 18h2M14 18h2M2 19h2M6 19h2M10 19h2M14 19h2M14 20h2M14 21h2M14 22h2M14 23h2M14 24h2M14 25h2M14 26h2M14 27h2M14 28h2M14 29h2M2 30h12M2 31h12" />
<path stroke="#dc842c" d="M20 2h2M24 2h2M28 2h2M20 3h2M24 3h2M28 3h2M18 4h2M22 4h2M26 4h2M18 5h2M22 5h2M26 5h2M24 6h2M28 6h2M24 7h2M28 7h2M18 8h2M28 8h2M18 9h2M28 9h2M20 10h2M28 10h2M20 11h2M28 11h2M18 12h2M22 12h2M26 12h2M18 13h2M22 13h2M26 13h2M16 14h2M16 15h2M4 18h2M8 18h2M12 18h2M4 19h2M8 19h2M12 19h2M2 20h2M6 20h2M10 20h2M2 21h2M6 21h2M10 21h2M8 22h2M12 22h2M8 23h2M12 23h2M2 24h2M12 24h2M2 25h2M12 25h2M4 26h2M12 26h2M4 27h2M12 27h2M2 28h2M6 28h2M10 28h2M2 29h2M6 29h2M10 29h2M0 30h2M0 31h2" />
<path stroke="#ba6c2c" d="M26 26h2M26 27h2M20 28h2M24 28h2M28 28h2M20 29h2M24 29h2M28 29h2" />
<path stroke="#974c14" d="M22 28h2M26 28h2M22 29h2M26 29h2M16 30h2M16 31h2" />
<path stroke="#782c08" d="M30 28h2M30 29h2M18 30h4M18 31h4" />
<path stroke="#b45404" d="M14 30h2M14 31h2" />
<path stroke="#6c2c04" d="M22 30h10M22 31h10" />
</svg>