<svg xmlns="http://www.w3.org/2000/svg" viewBox="0 -0.5 117 188" shape-rendering="crispEdges">
<metadata>Made with Pixels to Svg https://codepen.io/shshaw/pen/XbxvNj</metadata>
<path stroke="#303036" d="M2 0h113M115 1h1M116 2h1M116 3h1M116 4h1M90 5h1M116 5h1M90 6h1M116 6h1M89 7h1M116 7h1M3 8h87M116 8h1M116 9h1M116 10h1M116 11h1M116 12h1M116 13h1M116 14h1M116 15h1M116 16h1M116 17h1M116 18h1M116 19h1M116 20h1M116 21h1M116 22h1M116 23h1M116 24h1M116 25h1M3 26h1M113 26h1M116 26h1M3 27h1M113 27h1M116 27h1M3 28h1M113 28h1M116 28h1M3 29h1M113 29h1M116 29h1M3 30h1M113 30h1M116 30h1M3 31h1M113 31h1M116 31h1M3 32h1M113 32h1M116 32h1M3 33h1M113 33h1M116 33h1M3 34h1M113 34h1M116 34h1M3 35h1M113 35h1M116 35h1M3 36h1M113 36h1M116 36h1M3 37h1M113 37h1M116 37h1M3 38h1M113 38h1M116 38h1M3 39h1M113 39h1M116 39h1M3 40h1M113 40h1M116 40h1M3 41h1M113 41h1M116 41h1M3 42h1M113 42h1M116 42h1M3 43h1M113 43h1M116 43h1M3 44h1M113 44h1M116 44h1M3 45h1M113 45h1M116 45h1M3 46h1M113 46h1M116 46h1M3 47h1M113 47h1M116 47h1M3 48h1M113 48h1M116 48h1M3 49h1M113 49h1M116 49h1M3 50h1M113 50h1M116 50h1M3 51h1M113 51h1M116 51h1M3 52h1M113 52h1M116 52h1M3 53h1M113 53h1M116 53h1M3 54h1M113 54h1M116 54h1M3 55h1M113 55h1M116 55h1M3 56h1M113 56h1M116 56h1M3 57h1M113 57h1M116 57h1M3 58h1M113 58h1M116 58h1M3 59h1M113 59h1M116 59h1M3 60h1M113 60h1M116 60h1M3 61h1M113 61h1M116 61h1M3 62h1M113 62h1M116 62h1M3 63h1M113 63h1M116 63h1M3 64h1M113 64h1M116 64h1M3 65h1M113 65h1M116 65h1M3 66h1M113 66h1M116 66h1M3 67h1M113 67h1M116 67h1M3 68h1M113 68h1M116 68h1M3 69h1M113 69h1M116 69h1M3 70h1M113 70h1M116 70h1M3 71h1M113 71h1M116 71h1M3 72h1M113 72h1M116 72h1M3 73h1M113 73h1M116 73h1M3 74h1M113 74h1M116 74h1M3 75h1M113 75h1M116 75h1M3 76h1M113 76h1M116 76h1M3 77h1M113 77h1M116 77h1M3 78h1M113 78h1M116 78h1M3 79h1M113 79h1M116 79h1M3 80h1M113 80h1M116 80h1M3 81h1M113 81h1M116 81h1M3 82h1M113 82h1M116 82h1M3 83h1M113 83h1M116 83h1M3 84h1M113 84h1M116 84h1M3 85h1M113 85h1M116 85h1M3 86h1M113 86h1M116 86h1M3 87h1M113 87h1M116 87h1M3 88h1M113 88h1M116 88h1M3 89h1M113 89h1M116 89h1M3 90h1M113 90h1M116 90h1M3 91h1M113 91h1M116 91h1M3 92h1M113 92h1M116 92h1M3 93h1M113 93h1M116 93h1M3 94h1M113 94h1M116 94h1M3 95h1M113 95h1M116 95h1M3 96h1M113 96h1M116 96h1M3 97h1M113 97h1M116 97h1M3 98h1M113 98h1M116 98h1M3 99h111M116 99h1M116 100h1M116 101h1M3 102h6M11 102h1M105 102h1M108 102h6M116 102h1M11 103h1M105 103h1M108 103h1M116 103h1M11 104h1M105 104h1M108 104h1M116 104h1M11 105h1M105 105h1M108 105h1M116 105h1M11 106h1M105 106h1M108 106h1M116 106h1M11 107h1M105 107h1M108 107h1M116 107h1M11 108h1M105 108h1M108 108h1M116 108h1M11 109h1M105 109h1M108 109h1M116 109h1M11 110h1M105 110h1M108 110h1M116 110h1M11 111h1M105 111h1M108 111h1M116 111h1M11 112h1M105 112h1M108 112h1M116 112h1M11 113h1M105 113h1M108 113h1M116 113h1M11 114h1M105 114h1M108 114h1M116 114h1M11 115h1M105 115h1M108 115h1M116 115h1M11 116h1M105 116h1M108 116h1M116 116h1M11 117h1M105 117h1M108 117h1M116 117h1M11 118h1M105 118h1M108 118h1M116 118h1M11 119h1M105 119h1M108 119h1M116 119h1M11 120h95M108 120h1M116 120h1M108 121h1M116 121h1M108 122h1M116 122h1M9 123h100M116 123h1M116 124h1M116 125h1M116 126h1M116 127h1M22 128h1M110 128h1M116 128h1M22 129h1M110 129h1M116 129h1M22 130h1M110 130h1M116 130h1M22 131h1M110 131h1M116 131h1M22 132h1M110 132h1M116 132h1M22 133h1M110 133h1M116 133h1M22 134h1M110 134h1M116 134h1M116 135h1M116 136h1M22 137h1M110 137h1M116 137h1M22 138h1M110 138h1M116 138h1M22 139h1M110 139h1M116 139h1M22 140h1M110 140h1M116 140h1M22 141h1M110 141h1M116 141h1M22 142h1M110 142h1M116 142h1M22 143h1M110 143h1M116 143h1M116 144h1M116 145h1M22 146h1M110 146h1M116 146h1M22 147h1M110 147h1M116 147h1M22 148h1M110 148h1M116 148h1M22 149h1M110 149h1M116 149h1M22 150h1M110 150h1M116 150h1M22 151h1M110 151h1M116 151h1M22 152h1M110 152h1M116 152h1M116 153h1M116 154h1M22 155h1M110 155h1M116 155h1M22 156h1M110 156h1M116 156h1M22 157h1M110 157h1M116 157h1M22 158h1M110 158h1M116 158h1M22 159h1M110 159h1M116 159h1M22 160h1M110 160h1M116 160h1M22 161h1M110 161h1M116 161h1M116 162h1M116 163h1M116 164h1M116 165h1M116 166h1M116 167h1M116 168h1M116 169h1M116 170h1M116 171h1M4 172h109M116 172h1M116 173h1M116 174h1" />
<path stroke="#1b1b1f" d="M1 1h1M0 2h1M0 3h1M0 4h1M5 4h86M0 5h1M4 5h86M0 6h1M4 6h86M0 7h1M4 7h85M0 8h1M0 9h1M0 10h1M3 10h1M113 10h1M0 11h1M3 11h1M113 11h1M0 12h1M3 12h1M113 12h1M0 13h1M3 13h1M113 13h1M0 14h1M3 14h1M113 14h1M0 15h1M3 15h1M113 15h1M0 16h1M3 16h1M113 16h1M0 17h1M3 17h1M113 17h1M0 18h1M3 18h1M113 18h1M0 19h1M3 19h1M113 19h1M0 20h1M3 20h1M113 20h1M0 21h1M3 21h1M113 21h1M0 22h1M3 22h1M113 22h1M0 23h1M3 23h1M113 23h1M0 24h1M3 24h1M113 24h1M0 25h1M0 26h1M4 26h2M111 26h2M0 27h1M4 27h2M111 27h2M0 28h1M4 28h2M111 28h2M0 29h1M4 29h2M111 29h2M0 30h1M4 30h2M111 30h2M0 31h1M4 31h2M111 31h2M0 32h1M4 32h2M111 32h2M0 33h1M4 33h2M111 33h2M0 34h1M4 34h2M111 34h2M0 35h1M4 35h2M111 35h2M0 36h1M4 36h2M111 36h2M0 37h1M4 37h2M111 37h2M0 38h1M4 38h2M111 38h2M0 39h1M4 39h2M111 39h2M0 40h1M4 40h2M111 40h2M0 41h1M4 41h2M111 41h2M0 42h1M4 42h2M111 42h2M0 43h1M4 43h2M111 43h2M0 44h1M4 44h2M111 44h2M0 45h1M4 45h2M111 45h2M0 46h1M4 46h2M111 46h2M0 47h1M4 47h2M111 47h2M0 48h1M4 48h2M111 48h2M0 49h1M4 49h2M111 49h2M0 50h1M4 50h2M111 50h2M0 51h1M4 51h2M111 51h2M0 52h1M4 52h2M111 52h2M0 53h1M4 53h2M111 53h2M0 54h1M4 54h2M111 54h2M0 55h1M4 55h2M111 55h2M0 56h1M4 56h2M111 56h2M0 57h1M4 57h2M111 57h2M0 58h1M4 58h2M111 58h2M0 59h1M4 59h2M111 59h2M0 60h1M4 60h2M111 60h2M0 61h1M4 61h2M111 61h2M0 62h1M4 62h2M111 62h2M0 63h1M4 63h2M111 63h2M0 64h1M4 64h2M111 64h2M0 65h1M4 65h2M111 65h2M0 66h1M4 66h2M111 66h2M0 67h1M4 67h2M111 67h2M0 68h1M4 68h2M111 68h2M0 69h1M4 69h2M111 69h2M0 70h1M4 70h2M111 70h2M0 71h1M4 71h2M111 71h2M0 72h1M4 72h2M111 72h2M0 73h1M4 73h2M111 73h2M0 74h1M4 74h2M111 74h2M0 75h1M4 75h2M111 75h2M0 76h1M4 76h2M111 76h2M0 77h1M4 77h2M111 77h2M0 78h1M4 78h2M111 78h2M0 79h1M4 79h2M111 79h2M0 80h1M4 80h2M111 80h2M0 81h1M4 81h2M111 81h2M0 82h1M4 82h2M111 82h2M0 83h1M4 83h2M111 83h2M0 84h1M4 84h2M111 84h2M0 85h1M4 85h2M111 85h2M0 86h1M4 86h2M111 86h2M0 87h1M4 87h2M111 87h2M0 88h1M4 88h2M111 88h2M0 89h1M4 89h2M111 89h2M0 90h1M4 90h2M111 90h2M0 91h1M4 91h2M111 91h2M0 92h1M4 92h2M111 92h2M0 93h1M4 93h2M111 93h2M0 94h1M4 94h2M111 94h2M0 95h1M4 95h2M111 95h2M0 96h1M4 96h2M111 96h2M0 97h1M4 97h2M111 97h2M0 98h1M4 98h2M111 98h2M0 99h1M0 100h1M0 101h1M0 102h1M0 103h1M8 103h1M113 103h1M0 104h1M8 104h1M113 104h1M0 105h1M4 105h3M8 105h1M109 105h3M113 105h1M0 106h1M4 106h3M8 106h1M109 106h3M113 106h1M0 107h1M4 107h3M8 107h1M109 107h3M113 107h1M0 108h1M4 108h3M8 108h1M109 108h3M113 108h1M0 109h1M4 109h3M8 109h1M109 109h3M113 109h1M0 110h1M4 110h3M8 110h1M109 110h3M113 110h1M0 111h1M4 111h3M8 111h1M109 111h3M113 111h1M0 112h1M4 112h3M8 112h1M109 112h3M113 112h1M0 113h1M4 113h3M8 113h1M109 113h3M113 113h1M0 114h1M4 114h3M8 114h1M109 114h3M113 114h1M0 115h1M4 115h3M8 115h1M109 115h3M113 115h1M0 116h1M4 116h3M8 116h1M109 116h3M113 116h1M0 117h1M4 117h3M8 117h1M109 117h3M113 117h1M0 118h1M4 118h3M8 118h1M109 118h3M113 118h1M0 119h1M4 119h3M8 119h1M109 119h3M113 119h1M0 120h1M4 120h3M8 120h1M109 120h3M113 120h1M0 121h1M4 121h3M8 121h1M109 121h3M113 121h1M0 122h1M4 122h3M8 122h1M109 122h3M113 122h1M0 123h1M4 123h3M8 123h1M109 123h3M113 123h1M0 124h1M4 124h3M109 124h3M113 124h1M0 125h1M4 125h108M113 125h1M0 126h1M4 126h108M113 126h1M0 127h1M4 127h108M113 127h1M0 128h1M4 128h18M111 128h1M113 128h1M0 129h1M4 129h4M15 129h1M21 129h1M111 129h1M113 129h1M0 130h1M4 130h3M9 130h2M13 130h2M17 130h5M111 130h1M113 130h1M0 131h1M4 131h4M10 131h1M17 131h5M111 131h1M113 131h1M0 132h1M4 132h5M13 132h2M17 132h5M111 132h1M113 132h1M0 133h1M4 133h3M10 133h1M15 133h1M21 133h1M111 133h1M113 133h1M0 134h1M4 134h18M111 134h1M113 134h1M0 135h1M4 135h18M111 135h1M113 135h1M0 136h1M4 136h108M113 136h1M0 137h1M4 137h18M111 137h1M113 137h1M0 138h1M4 138h4M18 138h1M21 138h1M111 138h1M113 138h1M0 139h1M4 139h3M9 139h2M19 139h3M111 139h1M113 139h1M0 140h1M4 140h4M10 140h1M18 140h4M111 140h1M113 140h1M0 141h1M4 141h5M19 141h3M111 141h1M113 141h1M0 142h1M4 142h3M10 142h1M18 142h1M21 142h1M111 142h1M113 142h1M0 143h1M4 143h18M111 143h1M113 143h1M0 144h1M4 144h18M111 144h1M113 144h1M0 145h1M4 145h108M113 145h1M0 146h1M4 146h18M111 146h1M113 146h1M0 147h1M4 147h1M15 147h1M21 147h1M111 147h1M113 147h1M0 148h1M4 148h1M17 148h5M111 148h1M113 148h1M0 149h1M4 149h1M15 149h1M18 149h4M111 149h1M113 149h1M0 150h1M4 150h1M15 150h2M19 150h3M111 150h1M113 150h1M0 151h1M4 151h2M8 151h2M14 151h1M18 151h1M21 151h1M111 151h1M113 151h1M0 152h1M4 152h18M111 152h1M113 152h1M0 153h1M4 153h18M111 153h1M113 153h1M0 154h1M4 154h108M113 154h1M0 155h1M4 155h18M111 155h1M113 155h1M0 156h1M4 156h4M21 156h1M111 156h1M113 156h1M0 157h1M4 157h3M9 157h4M17 157h5M111 157h1M113 157h1M0 158h1M4 158h4M10 158h2M14 158h1M19 158h3M111 158h1M113 158h1M0 159h1M4 159h5M13 159h2M17 159h5M111 159h1M113 159h1M0 160h1M4 160h3M10 160h1M21 160h1M111 160h1M113 160h1M0 161h1M4 161h18M111 161h1M113 161h1M0 162h1M4 162h18M111 162h1M113 162h1M0 163h1M4 163h108M113 163h1M0 164h1M4 164h108M113 164h1M0 165h1M4 165h18M93 165h19M113 165h1M0 166h1M4 166h18M93 166h19M113 166h1M0 167h1M4 167h108M113 167h1M0 168h1M4 168h18M93 168h19M113 168h1M0 169h1M4 169h18M93 169h19M113 169h1M0 170h1M4 170h108M113 170h1M0 171h1M113 171h1M0 172h1M113 172h1M0 173h1M0 174h1M1 175h115" />
<path stroke="#4b4b54" d="M2 1h113M1 2h115M1 3h3M113 3h3M1 4h2M4 4h1M91 4h1M114 4h2M1 5h2M114 5h2M1 6h2M114 6h2M1 7h2M114 7h2M1 8h2M114 8h2M1 9h115M1 10h2M114 10h2M1 11h2M114 11h2M1 12h2M114 12h2M1 13h2M114 13h2M1 14h2M114 14h2M1 15h2M114 15h2M1 16h2M114 16h2M1 17h2M114 17h2M1 18h2M114 18h2M1 19h2M114 19h2M1 20h2M114 20h2M1 21h2M114 21h2M1 22h2M114 22h2M1 23h2M114 23h2M1 24h2M114 24h2M1 25h115M1 26h2M114 26h2M1 27h2M114 27h2M1 28h2M114 28h2M1 29h2M114 29h2M1 30h2M114 30h2M1 31h2M114 31h2M1 32h2M114 32h2M1 33h2M114 33h2M1 34h2M114 34h2M1 35h2M114 35h2M1 36h2M114 36h2M1 37h2M114 37h2M1 38h2M114 38h2M1 39h2M114 39h2M1 40h2M114 40h2M1 41h2M114 41h2M1 42h2M114 42h2M1 43h2M114 43h2M1 44h2M114 44h2M1 45h2M114 45h2M1 46h2M114 46h2M1 47h2M114 47h2M1 48h2M114 48h2M1 49h2M114 49h2M1 50h2M114 50h2M1 51h2M114 51h2M1 52h2M114 52h2M1 53h2M114 53h2M1 54h2M114 54h2M1 55h2M114 55h2M1 56h2M114 56h2M1 57h2M114 57h2M1 58h2M114 58h2M1 59h2M114 59h2M1 60h2M114 60h2M1 61h2M114 61h2M1 62h2M114 62h2M1 63h2M114 63h2M1 64h2M114 64h2M1 65h2M114 65h2M1 66h2M114 66h2M1 67h2M114 67h2M1 68h2M114 68h2M1 69h2M114 69h2M1 70h2M114 70h2M1 71h2M114 71h2M1 72h2M114 72h2M1 73h2M114 73h2M1 74h2M114 74h2M1 75h2M114 75h2M1 76h2M114 76h2M1 77h2M114 77h2M1 78h2M114 78h2M1 79h2M114 79h2M1 80h2M114 80h2M1 81h2M114 81h2M1 82h2M114 82h2M1 83h2M114 83h2M1 84h2M114 84h2M1 85h2M114 85h2M1 86h2M114 86h2M1 87h2M114 87h2M1 88h2M114 88h2M1 89h2M114 89h2M1 90h2M114 90h2M1 91h2M114 91h2M1 92h2M114 92h2M1 93h2M114 93h2M1 94h2M114 94h2M1 95h2M114 95h2M1 96h2M114 96h2M1 97h2M114 97h2M1 98h2M114 98h2M1 99h2M114 99h2M1 100h115M1 101h115M1 102h2M9 102h2M106 102h2M114 102h2M1 103h2M9 103h2M106 103h2M114 103h2M1 104h2M9 104h2M106 104h2M114 104h2M1 105h2M9 105h2M106 105h2M114 105h2M1 106h2M9 106h2M106 106h2M114 106h2M1 107h2M9 107h2M106 107h2M114 107h2M1 108h2M9 108h2M106 108h2M114 108h2M1 109h2M9 109h2M106 109h2M114 109h2M1 110h2M9 110h2M106 110h2M114 110h2M1 111h2M9 111h2M106 111h2M114 111h2M1 112h2M9 112h2M106 112h2M114 112h2M1 113h2M9 113h2M106 113h2M114 113h2M1 114h2M9 114h2M106 114h2M114 114h2M1 115h2M9 115h2M106 115h2M114 115h2M1 116h2M9 116h2M106 116h2M114 116h2M1 117h2M9 117h2M106 117h2M114 117h2M1 118h2M9 118h2M106 118h2M114 118h2M1 119h2M9 119h2M106 119h2M114 119h2M1 120h2M9 120h2M106 120h2M114 120h2M1 121h2M9 121h99M114 121h2M1 122h2M9 122h99M114 122h2M1 123h2M114 123h2M1 124h2M114 124h2M1 125h2M114 125h2M1 126h2M114 126h2M1 127h2M114 127h2M1 128h2M23 128h87M114 128h2M1 129h2M10 129h1M14 129h1M18 129h1M20 129h1M114 129h2M1 130h2M8 130h1M12 130h1M16 130h1M114 130h2M1 131h2M9 131h1M14 131h1M16 131h1M114 131h2M1 132h2M10 132h1M12 132h1M16 132h1M114 132h2M1 133h2M9 133h1M14 133h1M18 133h1M20 133h1M114 133h2M1 134h2M23 134h87M114 134h2M1 135h2M114 135h2M1 136h2M114 136h2M1 137h2M23 137h87M114 137h2M1 138h2M10 138h1M12 138h1M14 138h1M17 138h1M20 138h1M114 138h2M1 139h2M8 139h1M12 139h1M14 139h1M16 139h1M18 139h1M114 139h2M1 140h2M9 140h1M12 140h1M14 140h1M17 140h1M114 140h2M1 141h2M10 141h1M12 141h1M14 141h1M16 141h1M18 141h1M114 141h2M1 142h2M9 142h1M14 142h1M17 142h1M20 142h1M114 142h2M1 143h2M23 143h87M114 143h2M1 144h2M114 144h2M1 145h2M114 145h2M1 146h2M23 146h87M114 146h2M1 147h2M6 147h1M8 147h1M10 147h1M12 147h1M14 147h1M18 147h1M20 147h1M114 147h2M1 148h2M6 148h1M8 148h1M10 148h1M12 148h1M14 148h1M16 148h1M114 148h2M1 149h2M6 149h1M8 149h1M10 149h1M12 149h1M14 149h1M17 149h1M114 149h2M1 150h2M6 150h1M8 150h1M10 150h1M12 150h1M14 150h1M18 150h1M114 150h2M1 151h2M7 151h1M11 151h1M13 151h1M17 151h1M20 151h1M114 151h2M1 152h2M23 152h87M114 152h2M1 153h2M114 153h2M1 154h2M114 154h2M1 155h2M23 155h87M114 155h2M1 156h2M10 156h1M14 156h1M18 156h1M20 156h1M114 156h2M1 157h2M8 157h1M14 157h1M16 157h1M114 157h2M1 158h2M9 158h1M13 158h1M18 158h1M114 158h2M1 159h2M10 159h1M12 159h1M16 159h1M114 159h2M1 160h2M9 160h1M14 160h1M18 160h1M20 160h1M114 160h2M1 161h2M23 161h87M114 161h2M1 162h2M114 162h2M1 163h2M114 163h2M1 164h2M114 164h2M1 165h2M22 165h1M24 165h1M27 165h2M30 165h4M35 165h1M37 165h1M39 165h2M42 165h1M44 165h2M48 165h1M50 165h2M53 165h3M57 165h2M60 165h3M64 165h1M67 165h1M69 165h2M72 165h1M74 165h2M77 165h1M80 165h1M82 165h3M86 165h4M91 165h1M114 165h2M1 166h2M22 166h1M24 166h2M27 166h1M30 166h1M33 166h1M35 166h1M37 166h3M42 166h1M44 166h1M46 166h1M48 166h1M51 166h1M53 166h1M55 166h1M57 166h1M60 166h1M62 166h1M65 166h1M67 166h1M70 166h1M72 166h1M75 166h1M77 166h1M79 166h1M82 166h1M84 166h1M86 166h1M88 166h1M91 166h1M114 166h2M1 167h2M114 167h2M1 168h2M22 168h1M24 168h2M28 168h1M30 168h2M33 168h1M36 168h1M38 168h2M41 168h1M44 168h1M46 168h4M51 168h1M53 168h1M55 168h1M58 168h1M61 168h3M65 168h2M68 168h1M71 168h2M74 168h1M76 168h1M78 168h2M81 168h3M86 168h1M89 168h1M91 168h1M114 168h2M1 169h2M22 169h1M25 169h2M28 169h1M30 169h1M33 169h4M39 169h1M41 169h2M44 169h1M46 169h1M49 169h1M51 169h1M54 169h2M58 169h1M60 169h2M63 169h1M65 169h1M68 169h1M71 169h1M74 169h3M79 169h1M81 169h1M83 169h2M86 169h1M89 169h1M91 169h2M114 169h2M1 170h2M114 170h2M1 171h2M114 171h2M1 172h2M114 172h2M1 173h115M1 174h115" />
<path stroke="#7d7d8c" d="M4 3h88M3 4h1M3 5h1M3 6h1M3 7h1M3 103h1M3 104h1M3 105h1M3 106h1M3 107h1M3 108h1M3 109h1M3 110h1M3 111h1M3 112h1M3 113h1M3 114h1M3 115h1M3 116h1M3 117h1M3 118h1M3 119h1M3 120h1M3 121h1M3 122h1M3 123h1M3 124h1M3 125h1M3 126h1M3 127h1M3 128h1M3 129h1M3 130h1M3 131h1M3 132h1M3 133h1M3 134h1M3 135h1M3 136h1M3 137h1M3 138h1M3 139h1M3 140h1M3 141h1M3 142h1M3 143h1M3 144h1M3 145h1M3 146h1M3 147h1M3 148h1M3 149h1M3 150h1M3 151h1M3 152h1M3 153h1M3 154h1M3 155h1M3 156h1M3 157h1M3 158h1M3 159h1M3 160h1M3 161h1M3 162h1M3 163h1M3 164h1M3 165h1M3 166h1M3 167h1M3 168h1M3 169h1M3 170h1M3 171h1M3 172h1" />
<path stroke="#00500c" d="M92 3h1M112 3h1M113 4h1M91 5h1M90 7h1M90 8h24M16 97h1M44 97h1M51 97h1M58 97h1M65 97h1M86 97h1M100 97h1M107 97h1" />
<path stroke="#0f9437" d="M93 3h19M92 4h21M92 5h22M91 6h23M91 7h23M7 41h1M11 41h1M15 41h1M17 41h1M19 41h1M24 41h2M27 41h2M31 41h2M34 41h1M38 41h1M42 41h1M46 41h1M49 41h1M52 41h1M56 41h1M59 41h1M62 41h1M64 41h1M67 41h2M73 41h3M77 41h1M81 41h1M83 41h1M88 41h3M95 41h2M103 41h1M109 41h1" />
<path stroke="#000000" d="M4 10h109M4 11h109M4 12h109M4 13h109M4 14h109M4 15h109M4 16h109M4 17h109M4 18h109M4 19h109M4 20h109M4 21h109M4 22h109M4 23h109M4 24h109M6 26h105M6 27h1M110 27h1M6 28h1M110 28h1M6 29h1M110 29h1M6 30h1M110 30h1M6 31h1M110 31h1M6 32h1M110 32h1M6 33h1M110 33h1M6 34h1M110 34h1M6 35h1M110 35h1M6 36h1M110 36h1M6 37h1M110 37h1M6 38h1M110 38h1M6 39h1M110 39h1M6 40h1M110 40h1M6 41h1M110 41h1M6 42h1M110 42h1M6 43h1M110 43h1M6 44h1M110 44h1M6 45h1M110 45h1M6 46h1M110 46h1M6 47h1M110 47h1M6 48h1M110 48h1M6 49h1M110 49h1M6 50h1M110 50h1M6 51h1M110 51h1M6 52h1M110 52h1M6 53h1M110 53h1M6 54h1M110 54h1M6 55h1M110 55h1M6 56h1M110 56h1M6 57h1M110 57h1M6 58h1M110 58h1M6 59h1M110 59h1M6 60h1M110 60h1M6 61h1M110 61h1M6 62h1M110 62h1M6 63h1M110 63h1M6 64h1M110 64h1M6 65h1M110 65h1M6 66h1M110 66h1M6 67h1M110 67h1M6 68h1M110 68h1M6 69h1M110 69h1M6 70h1M110 70h1M6 71h1M110 71h1M6 72h1M110 72h1M6 73h1M110 73h1M6 74h1M110 74h1M6 75h1M110 75h1M6 76h1M110 76h1M6 77h1M110 77h1M6 78h1M110 78h1M6 79h1M110 79h1M6 80h1M110 80h1M6 81h1M110 81h1M6 82h1M110 82h1M6 83h1M110 83h1M6 84h1M110 84h1M6 85h1M110 85h1M6 86h1M110 86h1M6 87h1M110 87h1M6 88h1M110 88h1M6 89h1M110 89h1M6 90h1M110 90h1M6 91h1M110 91h1M6 92h1M110 92h1M6 93h1M110 93h1M6 94h1M110 94h1M6 95h1M110 95h1M6 96h1M110 96h1M6 97h1M110 97h1M6 98h105M12 102h93M4 103h4M12 103h93M109 103h4M4 104h4M12 104h93M109 104h4M7 105h1M12 105h93M112 105h1M7 106h1M12 106h93M112 106h1M7 107h1M12 107h93M112 107h1M7 108h1M12 108h93M112 108h1M7 109h1M12 109h93M112 109h1M7 110h1M12 110h93M112 110h1M7 111h1M12 111h93M112 111h1M7 112h1M12 112h93M112 112h1M7 113h1M12 113h93M112 113h1M7 114h1M12 114h93M112 114h1M7 115h1M12 115h93M112 115h1M7 116h1M12 116h93M112 116h1M7 117h1M12 117h93M112 117h1M7 118h1M12 118h93M112 118h1M7 119h1M12 119h93M112 119h1M7 120h1M112 120h1M7 121h1M112 121h1M7 122h1M112 122h1M7 123h1M112 123h1M7 124h102M112 124h1M112 125h1M112 126h1M112 127h1M112 128h1M23 129h87M112 129h1M23 130h87M112 130h1M23 131h87M112 131h1M23 132h87M112 132h1M23 133h87M112 133h1M112 134h1M22 135h89M112 135h1M112 136h1M112 137h1M23 138h87M112 138h1M23 139h87M112 139h1M23 140h87M112 140h1M23 141h87M112 141h1M23 142h87M112 142h1M112 143h1M22 144h89M112 144h1M112 145h1M112 146h1M23 147h87M112 147h1M23 148h87M112 148h1M23 149h87M112 149h1M23 150h87M112 150h1M23 151h87M112 151h1M112 152h1M22 153h89M112 153h1M112 154h1M112 155h1M23 156h87M112 156h1M23 157h87M112 157h1M23 158h87M112 158h1M23 159h87M112 159h1M23 160h87M112 160h1M112 161h1M22 162h89M112 162h1M112 163h1M112 164h1M112 165h1M112 166h1M112 167h1M112 168h1M112 169h1M112 170h1M4 171h109" />
<path stroke="#12a740" d="M7 27h1M12 27h1M19 27h1M22 27h1M27 27h1M33 27h1M38 27h6M45 27h2M52 27h3M56 27h1M59 27h1M67 27h1M70 27h1M76 27h3M80 27h2M85 27h1M92 27h1M94 27h1M96 27h1M102 27h2M105 27h1M7 28h1M12 28h1M19 28h1M22 28h1M27 28h1M33 28h1M38 28h6M45 28h2M52 28h3M56 28h1M59 28h1M67 28h1M70 28h1M76 28h3M80 28h2M85 28h1M92 28h1M94 28h1M96 28h1M102 28h2M105 28h1" />
<path stroke="#11a73f" d="M8 27h1M11 27h1M29 27h1M34 27h1M49 27h1M62 27h1M74 27h1M82 27h1M87 27h1M8 28h1M11 28h1M29 28h1M34 28h1M49 28h1M62 28h1M74 28h1M82 28h1M87 28h1" />
<path stroke="#24ff80" d="M9 27h1M16 27h1M51 27h1M58 27h1M65 27h1M72 27h1M9 28h1M16 28h1M51 28h1M58 28h1M65 28h1M72 28h1" />
<path stroke="#12a73f" d="M10 27h1M14 27h1M17 27h2M20 27h2M26 27h1M28 27h1M32 27h1M35 27h2M48 27h1M50 27h1M55 27h1M57 27h1M60 27h1M63 27h2M68 27h2M73 27h1M75 27h1M83 27h2M89 27h3M95 27h1M98 27h1M104 27h1M108 27h2M10 28h1M14 28h1M17 28h2M20 28h2M26 28h1M28 28h1M32 28h1M35 28h2M48 28h1M50 28h1M55 28h1M57 28h1M60 28h1M63 28h2M68 28h2M73 28h1M75 28h1M83 28h2M89 28h3M95 28h1M98 28h1M104 28h1M108 28h2" />
<path stroke="#12a63f" d="M13 27h1M25 27h1M47 27h1M66 27h1M13 28h1M25 28h1M47 28h1M66 28h1M7 29h2M10 29h2M13 29h3M18 29h2M24 29h1M26 29h1M28 29h2M32 29h1M34 29h3M38 29h1M41 29h1M43 29h1M45 29h1M47 29h1M53 29h1M57 29h1M59 29h1M61 29h3M66 29h1M68 29h1M70 29h2M73 29h2M76 29h2M80 29h1M88 29h1M90 29h1M95 29h4M102 29h2M108 29h1" />
<path stroke="#11a740" d="M15 27h1M61 27h1M88 27h1M97 27h1M99 27h1M15 28h1M61 28h1M88 28h1M97 28h1M99 28h1" />
<path stroke="#22ff80" d="M23 27h1M86 27h1M23 28h1M86 28h1" />
<path stroke="#12a640" d="M24 27h1M31 27h1M101 27h1M24 28h1M31 28h1M101 28h1" />
<path stroke="#24ff7e" d="M30 27h1M37 27h1M44 27h1M79 27h1M93 27h1M100 27h1M107 27h1M30 28h1M37 28h1M44 28h1M79 28h1M93 28h1M100 28h1M107 28h1M9 29h1M23 29h1M30 29h1M37 29h1M51 29h1M58 29h1M65 29h1M86 29h1M107 29h1M79 30h1" />
<path stroke="#11a640" d="M71 27h1M106 27h1M71 28h1M106 28h1" />
<path stroke="#11a63f" d="M12 29h1M17 29h1M22 29h1M25 29h1M27 29h1M42 29h1M48 29h1M52 29h1M56 29h1M64 29h1M83 29h3M92 29h1M101 29h1M104 29h1M109 29h1" />
<path stroke="#22ff7e" d="M16 29h1M79 29h1M93 29h1M100 29h1M23 30h1M37 30h1M44 30h1M51 30h1M72 30h1" />
<path stroke="#12a53f" d="M20 29h2M31 29h1M40 29h1M46 29h1M49 29h2M54 29h2M69 29h1M75 29h1M78 29h1M81 29h1M87 29h1M89 29h1M106 29h1M22 30h1M33 30h1M47 30h1M71 30h1M81 30h1M92 30h1M95 30h1M97 30h1M99 30h1" />
<path stroke="#12a63e" d="M33 29h1M91 29h1" />
<path stroke="#11a53f" d="M39 29h1M60 29h1M67 29h1M82 29h1M99 29h1M105 29h1M25 30h1M34 30h2M39 30h1M49 30h2M70 30h1M77 30h1M87 30h1M98 30h1M102 30h1" />
<path stroke="#22ff7c" d="M44 29h1M9 30h1M16 30h1M30 30h1M65 30h1M86 30h1M100 30h1M107 30h1M12 31h3M16 31h1M18 31h1M20 31h3M25 31h5M32 31h1M34 31h3M38 31h1M40 31h1M43 31h1M45 31h2M48 31h4M54 31h1M57 31h6M64 31h6M71 31h1M74 31h2M78 31h2M81 31h1M85 31h1M87 31h3M93 31h1M95 31h4M102 31h1M105 31h1M107 31h1M58 32h1M65 32h1M79 32h1M86 32h1" />
<path stroke="#24ff7c" d="M72 29h1M58 30h1M93 30h1M9 31h1M17 31h1M23 31h2M30 31h1M33 31h1M41 31h1M53 31h1M63 31h1M70 31h1M72 31h2M76 31h1M82 31h2M86 31h1M91 31h2M99 31h3M103 31h2M106 31h1M108 31h2M9 32h1M23 32h1" />
<path stroke="#11a63e" d="M94 29h1" />
<path stroke="#11a43e" d="M7 30h2M15 30h1M27 30h1M41 30h1M63 30h1M68 30h1M78 30h1M80 30h1M91 30h1M96 30h1M104 30h1" />
<path stroke="#12a43e" d="M10 30h1M19 30h3M28 30h2M40 30h1M42 30h1M46 30h1M54 30h1M56 30h2M94 30h1M105 30h2M109 30h1" />
<path stroke="#11a43f" d="M11 30h1M17 30h1M36 30h1M45 30h1M64 30h1M69 30h1M82 30h1" />
<path stroke="#12a53e" d="M12 30h1M18 30h1M24 30h1M32 30h1M59 30h3M67 30h1M74 30h1M76 30h1M90 30h1M103 30h1M108 30h1" />
<path stroke="#11a53e" d="M13 30h2M31 30h1M38 30h1M48 30h1M52 30h1M55 30h1M62 30h1M66 30h1M75 30h1M84 30h1M101 30h1" />
<path stroke="#12a43f" d="M26 30h1M43 30h1M53 30h1M73 30h1M83 30h1M85 30h1M88 30h2" />
<path stroke="#22ff7a" d="M7 31h2M10 31h2M15 31h1M19 31h1M37 31h1M39 31h1M42 31h1M44 31h1M47 31h1M56 31h1M77 31h1M80 31h1M84 31h1M90 31h1M51 32h1M72 32h1M93 32h1M107 32h1M9 33h1M16 33h1M23 33h1M37 33h1M44 33h1M51 33h1M58 33h1M65 33h1M72 33h1M79 33h1M86 33h1M93 33h1M100 33h1M107 33h1" />
<path stroke="#24ff7a" d="M31 31h1M52 31h1M55 31h1M94 31h1M16 32h1M30 32h1M37 32h1M44 32h1M100 32h1" />
<path stroke="#11a23e" d="M7 32h1M15 32h1M26 32h1M29 32h1M31 32h3M36 32h1M42 32h2M46 32h1M48 32h3M52 32h1M54 32h2M59 32h1M67 32h1M75 32h1M80 32h2M84 32h2M90 32h2M96 32h1M98 32h1M102 32h1M106 32h1M108 32h2" />
<path stroke="#11a33e" d="M8 32h1M11 32h1M19 32h3M39 32h1M77 32h1M92 32h1M104 32h1" />
<path stroke="#11a33d" d="M10 32h1M35 32h1M45 32h1M68 32h2M83 32h1M87 32h1M94 32h2" />
<path stroke="#11a23d" d="M12 32h1M14 32h1M17 32h1M25 32h1M27 32h2M34 32h1M38 32h1M40 32h1M47 32h1M53 32h1M56 32h1M62 32h1M71 32h1M73 32h1M76 32h1M82 32h1M88 32h1M97 32h1M101 32h1M105 32h1" />
<path stroke="#12a23d" d="M13 32h1M24 32h1M57 32h1M60 32h2M64 32h1M66 32h1M70 32h1M74 32h1M78 32h1M99 32h1" />
<path stroke="#12a23e" d="M18 32h1M41 32h1M89 32h1" />
<path stroke="#12a33e" d="M22 32h1M103 32h1" />
<path stroke="#12a33d" d="M63 32h1" />
<path stroke="#11a13c" d="M7 33h1M13 33h1M38 33h1M40 33h1M49 33h1M61 33h1M63 33h1M68 33h1M76 33h1M78 33h1M92 33h1M94 33h1M98 33h1M105 33h1M109 33h1" />
<path stroke="#11a13d" d="M8 33h1M10 33h2M14 33h2M18 33h5M24 33h6M31 33h3M35 33h2M39 33h1M41 33h3M45 33h4M50 33h1M52 33h2M55 33h3M59 33h2M62 33h1M64 33h1M66 33h2M69 33h3M73 33h3M77 33h1M81 33h5M87 33h5M95 33h3M99 33h1M101 33h1M103 33h2M106 33h1M108 33h1" />
<path stroke="#12a13c" d="M12 33h1M54 33h1" />
<path stroke="#11a03d" d="M17 33h1M80 33h1M102 33h1M20 34h1M66 34h1" />
<path stroke="#22ff78" d="M30 33h1M9 34h1M16 34h1M30 34h1M37 34h1M44 34h1M51 34h1M58 34h1M65 34h1M72 34h1M79 34h1M86 34h1M93 34h1M100 34h1M86 35h1M107 35h1" />
<path stroke="#12a13d" d="M34 33h1" />
<path stroke="#109f3c" d="M7 34h1M28 34h1M31 34h1M39 34h1M43 34h1M52 34h1M57 34h1M63 34h1M70 34h1M89 34h1M92 34h1" />
<path stroke="#10a03c" d="M8 34h1M27 34h1M71 34h1M74 34h1M78 34h1M103 34h1" />
<path stroke="#11a03c" d="M10 34h1M13 34h2M21 34h2M25 34h1M29 34h1M33 34h1M35 34h2M40 34h2M46 34h1M49 34h2M53 34h1M56 34h1M59 34h4M64 34h1M68 34h2M76 34h1M80 34h4M85 34h1M87 34h1M90 34h2M95 34h2M101 34h1M104 34h2M108 34h2" />
<path stroke="#119f3c" d="M11 34h1M15 34h1M17 34h3M24 34h1M26 34h1M32 34h1M34 34h1M38 34h1M42 34h1M45 34h1M47 34h2M54 34h1M67 34h1M73 34h1M75 34h1M77 34h1M84 34h1M88 34h1M94 34h1M97 34h3M102 34h1M106 34h1" />
<path stroke="#119f3d" d="M12 34h1M55 34h1" />
<path stroke="#20ff78" d="M23 34h1M107 34h1M37 35h1M65 35h1M93 35h1" />
<path stroke="#119e3c" d="M7 35h1M36 35h1M40 35h1M46 35h1M49 35h1M60 35h1M62 35h1M66 35h1M84 35h2M94 35h1M102 35h3" />
<path stroke="#109e3b" d="M8 35h1M27 35h1M31 35h1M35 35h1M38 35h2M47 35h1M59 35h1M61 35h1M70 35h2M77 35h2M80 35h1M88 35h2M92 35h1M101 35h1" />
<path stroke="#22ff76" d="M9 35h1M16 35h1M23 35h1M30 35h1M44 35h1M51 35h1M58 35h1M72 35h1M79 35h1M100 35h1M16 36h1M23 36h1M58 36h1M65 36h1M79 36h1M93 36h1M107 36h1" />
<path stroke="#119e3b" d="M10 35h5M17 35h1M19 35h1M25 35h2M28 35h2M32 35h1M34 35h1M41 35h3M48 35h1M52 35h1M54 35h4M63 35h1M67 35h1M69 35h1M73 35h3M81 35h1M87 35h1M91 35h1M96 35h1M99 35h1M105 35h2M108 35h1" />
<path stroke="#109e3c" d="M15 35h1M20 35h3M24 35h1M33 35h1M50 35h1M64 35h1M68 35h1M76 35h1M82 35h2M90 35h1M95 35h1M98 35h1M109 35h1" />
<path stroke="#109d3c" d="M18 35h1" />
<path stroke="#119d3b" d="M45 35h1M53 35h1M7 36h2M13 36h1M17 36h3M22 36h1M25 36h1M33 36h2M39 36h3M43 36h1M47 36h1M49 36h2M53 36h2M57 36h1M60 36h2M68 36h1M71 36h1M73 36h2M77 36h1M81 36h1M83 36h2M88 36h1M95 36h1M97 36h2M102 36h2" />
<path stroke="#119d3c" d="M97 35h1" />
<path stroke="#20ff76" d="M9 36h1M30 36h1M37 36h1M44 36h1M51 36h1M72 36h1M86 36h1M100 36h1M37 37h1M58 37h1M79 37h1" />
<path stroke="#109d3b" d="M10 36h2M14 36h2M20 36h2M24 36h1M27 36h3M32 36h1M35 36h2M38 36h1M42 36h1M46 36h1M48 36h1M52 36h1M55 36h2M59 36h1M62 36h2M66 36h1M69 36h2M76 36h1M78 36h1M85 36h1M87 36h1M89 36h3M94 36h1M96 36h1M99 36h1M101 36h1M104 36h3M108 36h2" />
<path stroke="#109c3b" d="M12 36h1M67 36h1M82 36h1M11 37h1" />
<path stroke="#119d3a" d="M26 36h1M31 36h1M75 36h1" />
<path stroke="#109d3a" d="M45 36h1M80 36h1" />
<path stroke="#119c3b" d="M64 36h1M40 37h1" />
<path stroke="#119c3a" d="M92 36h1M20 37h1M95 37h1M108 37h1" />
<path stroke="#109b3a" d="M7 37h1M10 37h1M12 37h2M17 37h2M21 37h2M24 37h2M31 37h2M34 37h3M42 37h1M46 37h1M49 37h1M54 37h2M57 37h1M61 37h2M64 37h1M67 37h2M71 37h1M75 37h2M78 37h1M81 37h2M84 37h2M87 37h1M89 37h1M97 37h1M99 37h1M101 37h1M103 37h1M105 37h1" />
<path stroke="#109b3b" d="M8 37h1M14 37h2M27 37h3M39 37h1M41 37h1M47 37h1M69 37h1M80 37h1M90 37h1M94 37h1M106 37h1M109 37h1" />
<path stroke="#20ff74" d="M9 37h1M16 37h1M30 37h1M44 37h1M51 37h1M72 37h1M86 37h1M100 37h1M107 37h1M7 38h2M20 38h1M25 38h1M31 38h1M39 38h1M45 38h2M49 38h1M53 38h1M57 38h2M61 38h1M65 38h3M70 38h2M73 38h2M80 38h1M87 38h1M89 38h1M92 38h2M95 38h2M99 38h1M101 38h1M103 38h1" />
<path stroke="#119b3b" d="M19 37h1M53 37h1M77 37h1M92 37h1M96 37h1M104 37h1" />
<path stroke="#22ff74" d="M23 37h1M65 37h1M93 37h1" />
<path stroke="#119b3a" d="M26 37h1M33 37h1M45 37h1M50 37h1M52 37h1M56 37h1M60 37h1M63 37h1M70 37h1M73 37h2M83 37h1M88 37h1" />
<path stroke="#109c3a" d="M38 37h1M43 37h1M48 37h1M59 37h1M66 37h1M91 37h1M98 37h1M102 37h1" />
<path stroke="#20ff72" d="M9 38h11M21 38h4M26 38h5M32 38h1M34 38h5M40 38h5M47 38h2M50 38h3M54 38h1M56 38h1M59 38h2M62 38h3M68 38h2M72 38h1M75 38h5M81 38h6M88 38h1M90 38h1M94 38h1M97 38h2M100 38h1M102 38h1M104 38h6M9 39h1M16 39h1M23 39h1M30 39h1M44 39h1M51 39h1M72 39h1M86 39h1M100 39h1" />
<path stroke="#1eff72" d="M33 38h1M55 38h1M58 39h1" />
<path stroke="#1eff74" d="M91 38h1" />
<path stroke="#109739" d="M7 39h1M10 39h1M22 39h1M29 39h1M31 39h1M33 39h1M36 39h1M61 39h1M64 39h1M77 39h1M98 39h1M101 39h1M104 39h1" />
<path stroke="#109838" d="M8 39h1M12 39h1M21 39h1M27 39h1M48 39h1M54 39h3M68 39h2M71 39h1M73 39h1M82 39h3M88 39h1M91 39h1M96 39h1M102 39h1M105 39h1" />
<path stroke="#109839" d="M11 39h1M14 39h2M17 39h1M20 39h1M24 39h1M41 39h2M46 39h1M53 39h1M57 39h1M60 39h1M70 39h1M74 39h1M76 39h1M87 39h1M89 39h1M92 39h1M94 39h2M99 39h1M108 39h1" />
<path stroke="#0f9738" d="M13 39h1M45 39h1M103 39h1" />
<path stroke="#109738" d="M18 39h2M32 39h1M34 39h1M38 39h1M47 39h1M49 39h1M52 39h1M67 39h1M85 39h1M97 39h1M106 39h1M109 39h1" />
<path stroke="#0f9839" d="M25 39h2M35 39h1M40 39h1M50 39h1M81 39h1" />
<path stroke="#0f9838" d="M28 39h1M39 39h1M59 39h1M62 39h2M66 39h1M78 39h1M80 39h1" />
<path stroke="#20ff70" d="M37 39h1M79 39h1M107 39h1M9 40h1M37 40h1" />
<path stroke="#0f9739" d="M43 39h1M75 39h1M90 39h1" />
<path stroke="#1eff70" d="M65 39h1M93 39h1M16 40h1M44 40h1M51 40h1M79 40h1M86 40h1M93 40h1" />
<path stroke="#109637" d="M7 40h1M13 40h1M24 40h1M26 40h1M31 40h2M45 40h1M60 40h1M64 40h1M74 40h1M76 40h1M81 40h1M83 40h1M94 40h1" />
<path stroke="#0f9638" d="M8 40h1M11 40h1M14 40h2M20 40h2M27 40h1M39 40h2M50 40h1M54 40h1M59 40h1M66 40h2M69 40h1M71 40h1M75 40h1M82 40h1M85 40h1M87 40h2M97 40h2M101 40h1" />
<path stroke="#109638" d="M10 40h1M12 40h1M38 40h1M42 40h2M46 40h1M53 40h1M57 40h1M61 40h2M68 40h1M73 40h1M78 40h1M84 40h1M89 40h1M91 40h1M99 40h1M103 40h1M105 40h1" />
<path stroke="#0f9637" d="M17 40h3M33 40h1M41 40h1M47 40h3M55 40h1M80 40h1M92 40h1M95 40h1M102 40h1M104 40h1M106 40h1" />
<path stroke="#109537" d="M22 40h1M28 40h1M35 40h1M56 40h1M70 40h1M12 41h1M14 41h1M20 41h1M39 41h1M47 41h1M50 41h1M54 41h1M85 41h1M105 41h1" />
<path stroke="#1eff6e" d="M23 40h1M30 40h1M58 40h1M65 40h1M100 40h1M107 40h1M16 41h1M30 41h1M37 41h1M44 41h1M58 41h1M65 41h1M72 41h1M79 41h1M86 41h1M93 41h1M107 41h1M16 42h1M79 42h1M107 42h1" />
<path stroke="#109538" d="M25 40h1M29 40h1M36 40h1M52 40h1M109 40h1M13 41h1" />
<path stroke="#0f9537" d="M34 40h1M63 40h1M90 40h1M96 40h1M8 41h1M18 41h1M21 41h2M29 41h1M35 41h2M45 41h1M48 41h1M53 41h1M57 41h1M60 41h1M66 41h1M71 41h1M76 41h1M80 41h1M82 41h1M87 41h1M97 41h2M106 41h1M108 41h1" />
<path stroke="#20ff6e" d="M72 40h1M9 41h1M23 41h1M51 41h1M100 41h1" />
<path stroke="#0f9538" d="M77 40h1M108 40h1" />
<path stroke="#109437" d="M10 41h1M26 41h1M33 41h1M40 41h1M43 41h1M55 41h1M61 41h1M63 41h1M69 41h1M78 41h1M84 41h1M91 41h2M94 41h1M99 41h1M101 41h2M104 41h1" />
<path stroke="#109438" d="M41 41h1M70 41h1" />
<path stroke="#0f9337" d="M7 42h1M13 42h1M36 42h1M47 42h1M53 42h1M68 42h1M104 42h1" />
<path stroke="#0f9336" d="M8 42h1M11 42h2M14 42h1M18 42h1M24 42h1M27 42h3M32 42h2M35 42h1M41 42h1M43 42h1M45 42h2M48 42h2M52 42h1M54 42h2M57 42h1M63 42h1M66 42h1M70 42h2M74 42h5M83 42h2M88 42h1M92 42h1M94 42h2M97 42h3M102 42h2M106 42h1M108 42h2" />
<path stroke="#1eff6c" d="M9 42h1M23 42h1M30 42h1M37 42h1M44 42h1M51 42h1M58 42h1M65 42h1M72 42h1M86 42h1M93 42h1M100 42h1M23 43h1M51 43h1M79 43h1M107 43h1" />
<path stroke="#0f9236" d="M10 42h1M19 42h3M25 42h2M31 42h1M34 42h1M39 42h2M42 42h1M59 42h4M64 42h1M67 42h1M69 42h1M73 42h1M81 42h2M85 42h1M87 42h1M89 42h2M101 42h1M105 42h1" />
<path stroke="#0f9237" d="M15 42h1M17 42h1M22 42h1M38 42h1M50 42h1M56 42h1M80 42h1M91 42h1" />
<path stroke="#109237" d="M96 42h1" />
<path stroke="#0f9135" d="M7 43h1M19 43h1M26 43h1M29 43h1M31 43h1M43 43h1M53 43h1M60 43h1M69 43h2M75 43h3M83 43h1M87 43h1M94 43h2M97 43h1M99 43h1M103 43h1M105 43h2" />
<path stroke="#0f9035" d="M8 43h1M11 43h2M17 43h2M20 43h1M22 43h1M24 43h1M32 43h2M35 43h1M40 43h1M50 43h1M52 43h1M57 43h1M59 43h1M62 43h1M64 43h1M67 43h2M85 43h1M88 43h2M91 43h1M98 43h1M101 43h2M104 43h1M109 43h1" />
<path stroke="#1cff6c" d="M9 43h1" />
<path stroke="#0e9035" d="M10 43h1M14 43h2M38 43h1M49 43h1M54 43h1M56 43h1M61 43h1M63 43h1M73 43h1M82 43h1M84 43h1M96 43h1M108 43h1" />
<path stroke="#0e9135" d="M13 43h1M21 43h1M27 43h1M39 43h1M45 43h1M66 43h1M71 43h1M78 43h1M80 43h1" />
<path stroke="#1eff6a" d="M16 43h1M37 43h1M44 43h1M58 43h1M93 43h1M100 43h1M79 44h1" />
<path stroke="#0f9136" d="M25 43h1M28 43h1M48 43h1M92 43h1" />
<path stroke="#1cff6a" d="M30 43h1M65 43h1M72 43h1M86 43h1" />
<path stroke="#0f9036" d="M34 43h1M41 43h2M46 43h1M74 43h1M81 43h1M90 43h1" />
<path stroke="#0e9036" d="M36 43h1M47 43h1M55 43h1" />
<path stroke="#0f8e34" d="M7 44h1M10 44h2M22 44h1M31 44h2M35 44h1M50 44h1M62 44h1M67 44h1M76 44h1M103 44h1M109 44h1" />
<path stroke="#0f8f34" d="M8 44h1M12 44h2M15 44h1M17 44h1M24 44h1M27 44h1M34 44h1M38 44h1M43 44h1M54 44h1M66 44h1M68 44h1M77 44h1M91 44h1M97 44h1" />
<path stroke="#1cff68" d="M9 44h1M16 44h1M30 44h1M37 44h1M51 44h1M65 44h1M72 44h1M86 44h1M100 44h1M8 45h1M10 45h4M17 45h2M22 45h2M25 45h2M28 45h1M30 45h6M37 45h3M41 45h4M46 45h1M48 45h1M51 45h3M55 45h2M58 45h1M60 45h1M63 45h2M66 45h3M70 45h5M76 45h9M86 45h2M90 45h1M92 45h3M96 45h4M101 45h5M107 45h3" />
<path stroke="#0e8f35" d="M14 44h1M39 44h1M45 44h1M53 44h1M59 44h1M61 44h1M73 44h1M81 44h1M106 44h1" />
<path stroke="#0e8f34" d="M18 44h1M26 44h1M29 44h1M42 44h1M46 44h3M52 44h1M55 44h2M60 44h1M64 44h1M74 44h1M78 44h1M80 44h1M82 44h2M85 44h1M87 44h1M89 44h2M94 44h1M96 44h1M99 44h1M101 44h1M105 44h1M108 44h1" />
<path stroke="#0e8e34" d="M19 44h3M33 44h1M36 44h1M40 44h1M70 44h1M75 44h1M88 44h1M92 44h1M98 44h1" />
<path stroke="#1eff68" d="M23 44h1M44 44h1M58 44h1M93 44h1M107 44h1M15 45h1M19 45h3M40 45h1M57 45h1M59 45h1M65 45h1M85 45h1M100 45h1M106 45h1" />
<path stroke="#0f8f35" d="M25 44h1M28 44h1M63 44h1M69 44h1" />
<path stroke="#0f8e35" d="M41 44h1M71 44h1M95 44h1M102 44h1" />
<path stroke="#0e8e35" d="M49 44h1M57 44h1M84 44h1M104 44h1" />
<path stroke="#1eff66" d="M7 45h1M16 45h1M24 45h1M29 45h1M49 45h1M62 45h1M89 45h1" />
<path stroke="#1cff66" d="M9 45h1M14 45h1M27 45h1M36 45h1M45 45h1M47 45h1M50 45h1M54 45h1M61 45h1M69 45h1M75 45h1M88 45h1M91 45h1M95 45h1M16 46h1M23 46h1M30 46h1M37 46h1M44 46h1M51 46h1M58 46h1M65 46h1M79 46h1M86 46h1M93 46h1M107 46h1" />
<path stroke="#0e8b33" d="M7 46h2M10 46h2M13 46h3M17 46h3M24 46h5M31 46h1M33 46h2M39 46h1M41 46h1M45 46h2M48 46h1M50 46h1M52 46h6M59 46h3M63 46h2M66 46h5M73 46h1M76 46h3M81 46h2M84 46h1M87 46h3M91 46h2M94 46h1M97 46h3M101 46h4M108 46h2" />
<path stroke="#1cff64" d="M9 46h1M16 47h1M44 47h1M51 47h1M58 47h1M65 47h1M72 47h1M79 47h1M86 47h1M100 47h1" />
<path stroke="#0e8b32" d="M12 46h1M20 46h3M32 46h1M36 46h1M38 46h1M40 46h1M42 46h2M47 46h1M49 46h1M62 46h1M74 46h2M83 46h1M85 46h1M90 46h1M105 46h1" />
<path stroke="#0d8b33" d="M29 46h1M71 46h1M96 46h1M106 46h1" />
<path stroke="#0e8c33" d="M35 46h1M80 46h1" />
<path stroke="#1aff66" d="M72 46h1" />
<path stroke="#0e8c32" d="M95 46h1" />
<path stroke="#1aff64" d="M100 46h1M37 47h1M93 47h1" />
<path stroke="#0d8931" d="M7 47h1M21 47h1M40 47h1M43 47h1M50 47h1M55 47h1M101 47h2" />
<path stroke="#0d8831" d="M8 47h1M83 47h1" />
<path stroke="#1aff62" d="M9 47h1M30 47h1M23 48h1M30 48h1M58 48h1M72 48h1M79 48h1M86 48h1M93 48h1M100 48h1M9 49h1" />
<path stroke="#0d8932" d="M10 47h1M14 47h1M34 47h1M42 47h1M49 47h1M56 47h1M70 47h1M76 47h1M84 47h1M94 47h1M97 47h3M105 47h1" />
<path stroke="#0e8932" d="M11 47h1M13 47h1M17 47h1M20 47h1M22 47h1M26 47h4M31 47h3M38 47h1M41 47h1M45 47h1M52 47h2M57 47h1M60 47h1M66 47h3M71 47h1M73 47h3M78 47h1M80 47h1M85 47h1M87 47h1M89 47h1M91 47h2M95 47h2M106 47h1M108 47h2" />
<path stroke="#0e8832" d="M12 47h1M18 47h2M25 47h1M36 47h1M59 47h1M64 47h1M81 47h2M103 47h1" />
<path stroke="#0e8931" d="M15 47h1M24 47h1M35 47h1M39 47h1M46 47h1M48 47h1M54 47h1M61 47h2M69 47h1M77 47h1M90 47h1" />
<path stroke="#1cff62" d="M23 47h1M107 47h1M16 48h1M44 48h1M65 48h1" />
<path stroke="#0d8832" d="M47 47h1M63 47h1M104 47h1" />
<path stroke="#0e8831" d="M88 47h1" />
<path stroke="#0d8731" d="M7 48h1M10 48h1M12 48h2M17 48h2M20 48h1M24 48h3M32 48h1M34 48h3M39 48h1M42 48h1M47 48h2M55 48h1M57 48h1M60 48h1M62 48h3M70 48h2M73 48h4M82 48h1M85 48h1M87 48h2M90 48h2M99 48h1M101 48h3M108 48h2" />
<path stroke="#0d8730" d="M8 48h1M14 48h1M27 48h1M43 48h1M50 48h1M52 48h1M56 48h1M67 48h1M69 48h1M77 48h1M80 48h2M83 48h1M89 48h1M105 48h2" />
<path stroke="#1aff60" d="M9 48h1M37 48h1M107 48h1M16 49h1M23 49h1M30 49h1M37 49h1M44 49h1M51 49h1M58 49h1M72 49h1M79 49h1M93 49h1M107 49h1" />
<path stroke="#0e8631" d="M11 48h1M49 48h1" />
<path stroke="#0e8731" d="M15 48h1M19 48h1M21 48h1M29 48h1M31 48h1M41 48h1M45 48h2M53 48h2M61 48h1M68 48h1M78 48h1M84 48h1M92 48h1M95 48h1" />
<path stroke="#0d8631" d="M22 48h1M28 48h1M38 48h1M40 48h1M59 48h1M96 48h2M104 48h1" />
<path stroke="#0d8630" d="M33 48h1M66 48h1M94 48h1M50 49h1M59 49h1M103 49h1" />
<path stroke="#1cff60" d="M51 48h1M65 49h1M86 49h1M100 49h1" />
<path stroke="#0e8730" d="M98 48h1" />
<path stroke="#0e8530" d="M7 49h1M13 49h1M20 49h1M28 49h1M46 49h1M48 49h1M64 49h1M70 49h1M76 49h1M90 49h1" />
<path stroke="#0d8530" d="M8 49h1M10 49h3M14 49h2M18 49h2M21 49h2M24 49h2M27 49h1M29 49h1M31 49h6M39 49h1M41 49h3M45 49h1M47 49h1M49 49h1M52 49h1M54 49h4M60 49h4M66 49h4M71 49h1M73 49h3M77 49h2M80 49h3M84 49h2M87 49h3M91 49h2M94 49h2M97 49h3M101 49h2M104 49h1M106 49h1M109 49h1" />
<path stroke="#0e8630" d="M17 49h1" />
<path stroke="#0d8531" d="M26 49h1M38 49h1M40 49h1M53 49h1M83 49h1M96 49h1M105 49h1M108 49h1" />
<path stroke="#0d832f" d="M7 50h2M10 50h1M12 50h3M17 50h5M24 50h1M26 50h4M31 50h1M34 50h3M39 50h5M46 50h4M52 50h5M59 50h6M67 50h5M75 50h1M77 50h1M81 50h2M84 50h2M87 50h6M94 50h2M97 50h1M99 50h1M101 50h4M106 50h1M108 50h2" />
<path stroke="#1aff5e" d="M9 50h1M16 50h1M44 50h1M51 50h1M58 50h1M65 50h1M72 50h1M79 50h1M86 50h1M93 50h1M100 50h1M107 50h1" />
<path stroke="#0c8330" d="M11 50h1M96 50h1" />
<path stroke="#0c832f" d="M15 50h1M22 50h1M25 50h1M45 50h1M50 50h1M57 50h1M66 50h1M73 50h2M76 50h1M78 50h1M98 50h1M105 50h1" />
<path stroke="#18ff5e" d="M23 50h1M30 50h1M37 50h1" />
<path stroke="#0d822f" d="M32 50h1" />
<path stroke="#0d8330" d="M33 50h1M38 50h1M80 50h1M83 50h1" />
<path stroke="#0c812e" d="M7 51h1M19 51h1M21 51h1M29 51h1M33 51h1M35 51h1M40 51h1M47 51h1M52 51h1M57 51h1M59 51h1M61 51h4M70 51h2M73 51h2M77 51h2M101 51h1M105 51h1M109 51h1" />
<path stroke="#0d802e" d="M8 51h1M17 51h1M20 51h1M24 51h2M27 51h1M31 51h2M36 51h1M42 51h1M48 51h1M60 51h1M68 51h1M76 51h1M83 51h1M98 51h2M102 51h1M104 51h1M108 51h1" />
<path stroke="#1aff5c" d="M9 51h1M37 51h1M58 51h1M72 51h1M79 51h1M86 51h1M100 51h1" />
<path stroke="#0d812e" d="M10 51h1M15 51h1M18 51h1M22 51h1M26 51h1M34 51h1M41 51h1M45 51h1M50 51h1M56 51h1M69 51h1M75 51h1M80 51h1M82 51h1M84 51h1M87 51h1M92 51h1M94 51h2M97 51h1" />
<path stroke="#0d802d" d="M11 51h1" />
<path stroke="#0c802e" d="M12 51h3M28 51h1M38 51h2M43 51h1M46 51h1M49 51h1M53 51h3M66 51h2M81 51h1M85 51h1M88 51h3M96 51h1M103 51h1M106 51h1" />
<path stroke="#18ff5c" d="M16 51h1M23 51h1M30 51h1M44 51h1M51 51h1M65 51h1M93 51h1M107 51h1" />
<path stroke="#0c812d" d="M91 51h1" />
<path stroke="#18fe5a" d="M7 52h1M10 52h1M13 52h1M16 52h1M21 52h1M23 52h1M29 52h2M35 52h1M38 52h1M41 52h2M44 52h4M49 52h2M52 52h1M54 52h2M60 52h1M63 52h1M66 52h1M73 52h1M76 52h1M81 52h1M87 52h1M90 52h2M93 52h1M99 52h1M109 52h1" />
<path stroke="#1afc5a" d="M8 52h1M12 52h1M15 52h1M20 52h1M26 52h1M32 52h1M53 52h1M56 52h1M62 52h1M71 52h1M83 52h1M95 52h1" />
<path stroke="#18fc5a" d="M9 52h1M11 52h1M14 52h1M17 52h3M22 52h1M24 52h2M31 52h1M34 52h1M36 52h2M39 52h1M43 52h1M48 52h1M51 52h1M57 52h3M61 52h1M65 52h1M67 52h4M72 52h1M74 52h1M77 52h4M82 52h1M84 52h1M88 52h2M92 52h1M94 52h1M97 52h1M100 52h1M104 52h5" />
<path stroke="#1afe5a" d="M27 52h1M33 52h1M64 52h1M75 52h1M85 52h2M96 52h1M98 52h1M101 52h1" />
<path stroke="#18fe58" d="M28 52h1M40 52h1M102 52h1" />
<path stroke="#18fc58" d="M103 52h1" />
<path stroke="#0c7d2d" d="M7 53h1M18 53h1M22 53h1M24 53h1M27 53h1M43 53h1M75 53h1M78 53h1M85 53h1M88 53h1M90 53h1M92 53h1M108 53h2" />
<path stroke="#0c7c2c" d="M8 53h1M21 53h1M25 53h2M28 53h1M33 53h4M46 53h1M53 53h1M57 53h1M61 53h1M68 53h1M74 53h1M76 53h1M81 53h1M83 53h2" />
<path stroke="#18fa58" d="M9 53h1M23 53h1M30 53h1M58 53h1M65 53h1M86 53h1M93 53h1M100 53h1M107 53h1" />
<path stroke="#0c7d2c" d="M10 53h6M17 53h1M19 53h2M29 53h1M31 53h2M38 53h5M47 53h4M52 53h1M54 53h2M59 53h1M62 53h3M66 53h1M69 53h3M73 53h1M77 53h1M80 53h1M87 53h1M89 53h1M91 53h1M94 53h1M96 53h4M101 53h3M105 53h2" />
<path stroke="#18f858" d="M16 53h1M37 53h1M79 53h1" />
<path stroke="#18f85a" d="M44 53h1M72 53h1" />
<path stroke="#0c7c2d" d="M45 53h1M56 53h1M60 53h1M67 53h1M82 53h1M95 53h1M104 53h1" />
<path stroke="#18fa5a" d="M51 53h1" />
<path stroke="#0c7a2b" d="M7 54h1M15 54h1M19 54h1M21 54h1M24 54h1M34 54h1M40 54h2M49 54h2M59 54h1M66 54h3M70 54h1M76 54h1M78 54h1M80 54h2M88 54h2M103 54h1M105 54h1M108 54h2" />
<path stroke="#0c7b2c" d="M8 54h1M71 54h1M104 54h1" />
<path stroke="#18f456" d="M9 54h1M16 54h1M86 54h1M93 54h1M107 54h1" />
<path stroke="#0c7b2b" d="M10 54h2M13 54h1M27 54h1M29 54h1M32 54h2M38 54h2M45 54h2M53 54h2M57 54h1M61 54h3M69 54h1M74 54h2M77 54h1M84 54h2M95 54h1M98 54h1" />
<path stroke="#0c7a2c" d="M12 54h1M22 54h1M28 54h1M83 54h1" />
<path stroke="#0b7b2b" d="M14 54h1M36 54h1M43 54h1M47 54h1M60 54h1M82 54h1M90 54h1M92 54h1M106 54h1" />
<path stroke="#0b7a2b" d="M17 54h1M20 54h1M35 54h1M42 54h1M48 54h1M55 54h2M87 54h1M91 54h1M94 54h1M96 54h1M101 54h1" />
<path stroke="#0b7a2c" d="M18 54h1M31 54h1M52 54h1M64 54h1M99 54h1M102 54h1" />
<path stroke="#18f656" d="M23 54h1M30 54h1M37 54h1M58 54h1M65 54h1" />
<path stroke="#0b7b2c" d="M25 54h2M73 54h1M97 54h1" />
<path stroke="#17f658" d="M44 54h1" />
<path stroke="#17f456" d="M51 54h1M72 54h1" />
<path stroke="#17f656" d="M79 54h1M100 54h1" />
<path stroke="#0b782a" d="M7 55h1M10 55h1M12 55h3M17 55h2M21 55h1M25 55h1M27 55h2M31 55h2M34 55h1M36 55h1M39 55h1M41 55h1M43 55h1M45 55h6M52 55h3M56 55h2M60 55h2M64 55h1M66 55h1M68 55h1M70 55h2M74 55h2M81 55h1M84 55h1M90 55h2M94 55h2M97 55h1M99 55h1M101 55h1M103 55h4M108 55h2" />
<path stroke="#0c782a" d="M8 55h1M11 55h1M15 55h1M19 55h2M22 55h1M24 55h1M26 55h1M33 55h1M35 55h1M38 55h1M42 55h1M55 55h1M59 55h1M62 55h2M67 55h1M73 55h1M76 55h3M80 55h1M82 55h2M87 55h3M92 55h1M96 55h1M98 55h1M102 55h1" />
<path stroke="#17f054" d="M9 55h1M16 55h1M23 55h1M30 55h1M37 55h1M51 55h1M58 55h1M65 55h1M72 55h1M79 55h1M93 55h1M100 55h1" />
<path stroke="#0b782b" d="M29 55h1M69 55h1" />
<path stroke="#0c782b" d="M40 55h1M85 55h1" />
<path stroke="#18f054" d="M44 55h1M86 55h1M107 55h1" />
<path stroke="#0b7628" d="M7 56h1M10 56h1M22 56h1M46 56h1M66 56h1M70 56h1M75 56h1M109 56h1" />
<path stroke="#0b7629" d="M8 56h1M12 56h1M15 56h1M17 56h2M20 56h2M24 56h3M28 56h2M31 56h3M36 56h1M38 56h6M47 56h4M53 56h2M56 56h2M59 56h5M68 56h2M71 56h1M73 56h1M76 56h3M82 56h4M87 56h6M94 56h2M97 56h2M101 56h1M103 56h4M108 56h1" />
<path stroke="#16ec52" d="M9 56h1M30 56h1M37 56h1M44 56h1M51 56h1M65 56h1M72 56h1M79 56h1M86 56h1M93 56h1M100 56h1M107 56h1" />
<path stroke="#0a7629" d="M11 56h1M14 56h1M35 56h1M80 56h1" />
<path stroke="#0b7529" d="M13 56h1M27 56h1M34 56h1M45 56h1M52 56h1M55 56h1M64 56h1M67 56h1M74 56h1M81 56h1M96 56h1M99 56h1M102 56h1" />
<path stroke="#16ec50" d="M16 56h1M23 56h1" />
<path stroke="#0b7528" d="M19 56h1" />
<path stroke="#16ea52" d="M58 56h1" />
<path stroke="#0b7429" d="M7 57h2M10 57h1M19 57h1M22 57h1M32 57h1M35 57h2M48 57h1M50 57h1M62 57h1M68 57h1M70 57h1M80 57h2M88 57h3M95 57h1M98 57h2M105 57h1" />
<path stroke="#16e850" d="M9 57h1M16 57h1M30 57h1M37 57h1M51 57h1M58 57h1M65 57h1M100 57h1M107 57h1" />
<path stroke="#0a7428" d="M11 57h1M13 57h1M24 57h1M28 57h1M31 57h1M40 57h1M53 57h1M56 57h1M63 57h1M67 57h1M82 57h2M85 57h1M87 57h1M109 57h1" />
<path stroke="#0b7428" d="M12 57h1M14 57h2M17 57h2M20 57h2M25 57h1M27 57h1M29 57h1M33 57h2M38 57h2M41 57h3M45 57h3M49 57h1M55 57h1M57 57h1M59 57h3M64 57h1M66 57h1M69 57h1M73 57h3M77 57h2M91 57h2M94 57h1M97 57h1M101 57h4M106 57h1M108 57h1" />
<path stroke="#16e852" d="M23 57h1M72 57h1M79 57h1M93 57h1" />
<path stroke="#0b7329" d="M26 57h1" />
<path stroke="#14e850" d="M44 57h1M86 57h1" />
<path stroke="#0a7429" d="M52 57h1M54 57h1M71 57h1M76 57h1M84 57h1M96 57h1" />
<path stroke="#0a7227" d="M7 58h1M10 58h1M13 58h1M18 58h1M21 58h2M24 58h1M26 58h2M29 58h1M32 58h2M38 58h4M45 58h1M47 58h1M50 58h1M53 58h2M60 58h1M63 58h2M66 58h1M71 58h1M89 58h1M92 58h1M94 58h1M97 58h2M102 58h3M109 58h1" />
<path stroke="#0a7127" d="M8 58h1M14 58h1M25 58h1M34 58h1M48 58h2M55 58h1M61 58h2M70 58h1M75 58h1M78 58h1M80 58h1M83 58h2M90 58h1M106 58h1" />
<path stroke="#16e24e" d="M9 58h1M23 58h1M58 58h1" />
<path stroke="#0b7227" d="M11 58h1M19 58h1M28 58h1M36 58h1M42 58h2M46 58h1M52 58h1M57 58h1M59 58h1M69 58h1M73 58h1M76 58h1M95 58h2M101 58h1" />
<path stroke="#0a7128" d="M12 58h1M31 58h1M56 58h1M74 58h1M99 58h1" />
<path stroke="#0b7228" d="M15 58h1M17 58h1M20 58h1M77 58h1M87 58h1M105 58h1" />
<path stroke="#14e24e" d="M16 58h1" />
<path stroke="#16e250" d="M30 58h1M44 58h1" />
<path stroke="#0a7228" d="M35 58h1M85 58h1M88 58h1" />
<path stroke="#14e44e" d="M37 58h1M51 58h1M65 58h1M72 58h1M79 58h1M86 58h1M100 58h1" />
<path stroke="#0b7127" d="M67 58h2M81 58h1M91 58h1" />
<path stroke="#0b7128" d="M82 58h1M108 58h1" />
<path stroke="#16e44e" d="M93 58h1" />
<path stroke="#14e450" d="M107 58h1" />
<path stroke="#14de4c" d="M7 59h4M13 59h8M22 59h2M25 59h1M28 59h1M30 59h2M33 59h2M36 59h2M39 59h3M43 59h7M51 59h6M58 59h5M64 59h13M78 59h3M82 59h3M88 59h6M97 59h3M101 59h9" />
<path stroke="#14e04c" d="M11 59h1M21 59h1M24 59h1M27 59h1M29 59h1M42 59h1M50 59h1M57 59h1M63 59h1M77 59h1M85 59h3M96 59h1" />
<path stroke="#16de4c" d="M12 59h1M32 59h1M35 59h1M38 59h1M94 59h1M100 59h1" />
<path stroke="#16e04c" d="M26 59h1M81 59h1M95 59h1" />
<path stroke="#0a6c25" d="M7 60h1M56 60h1M73 60h1M82 60h1" />
<path stroke="#0a6c24" d="M8 60h1M83 61h1" />
<path stroke="#12da4a" d="M9 60h1M51 60h1M58 60h1M72 60h1M79 60h1M107 60h1" />
<path stroke="#0a6d24" d="M10 60h1M62 60h1M80 60h1M106 60h1" />
<path stroke="#0a6d25" d="M11 60h3M18 60h3M22 60h1M24 60h4M29 60h1M31 60h1M36 60h1M38 60h1M41 60h3M46 60h5M52 60h1M54 60h2M57 60h1M59 60h3M63 60h2M66 60h2M71 60h1M75 60h1M81 60h1M83 60h3M87 60h3M91 60h2M94 60h1M96 60h3M101 60h2M104 60h1M109 60h1" />
<path stroke="#096d25" d="M14 60h2M17 60h1M21 60h1M28 60h1M32 60h1M34 60h2M39 60h2M45 60h1M53 60h1M68 60h2M74 60h1M76 60h3M90 60h1M95 60h1M99 60h1M103 60h1M105 60h1M108 60h1" />
<path stroke="#14da4a" d="M16 60h1M23 60h1M30 60h1M37 60h1M44 60h1M65 60h1M93 60h1" />
<path stroke="#096d24" d="M33 60h1M70 60h1" />
<path stroke="#12da48" d="M86 60h1M100 60h1" />
<path stroke="#096b24" d="M7 61h1M10 61h1M14 61h1M21 61h1M24 61h2M28 61h1M35 61h1M38 61h2M46 61h1M48 61h2M52 61h1M62 61h1M66 61h1M68 61h3M73 61h2M76 61h1M82 61h1M85 61h1M88 61h1M91 61h2M94 61h1M96 61h2M102 61h1M106 61h1M108 61h2" />
<path stroke="#096b25" d="M8 61h1M11 61h1M15 61h1M17 61h1M19 61h1M56 61h1M80 61h2M87 61h1M90 61h1M101 61h1" />
<path stroke="#14d648" d="M9 61h1M51 61h1M65 61h1M72 61h1M86 61h1M93 61h1M100 61h1" />
<path stroke="#0a6b24" d="M12 61h2M18 61h1M20 61h1M22 61h1M26 61h2M29 61h1M31 61h4M40 61h3M45 61h1M47 61h1M50 61h1M53 61h3M57 61h1M59 61h2M63 61h2M71 61h1M75 61h1M77 61h1M84 61h1M89 61h1M95 61h1M98 61h2M104 61h2" />
<path stroke="#12d64a" d="M16 61h1M30 61h1" />
<path stroke="#12d648" d="M23 61h1M37 61h1M58 61h1M79 61h1" />
<path stroke="#0a6b25" d="M36 61h1M43 61h1M61 61h1M67 61h1M78 61h1M103 61h1" />
<path stroke="#14d64a" d="M44 61h1M107 61h1" />
<path stroke="#096824" d="M7 62h1M89 62h1" />
<path stroke="#096923" d="M8 62h1M10 62h1M12 62h1M14 62h2M19 62h1M21 62h2M24 62h4M31 62h2M34 62h3M39 62h4M46 62h1M48 62h1M50 62h1M52 62h4M59 62h2M63 62h2M66 62h2M71 62h1M73 62h1M76 62h3M80 62h2M83 62h3M87 62h1M90 62h3M95 62h5M101 62h1M105 62h2M108 62h1" />
<path stroke="#12d246" d="M9 62h1M16 62h1M23 62h1M30 62h1M37 62h1M44 62h1M51 62h1M58 62h1M65 62h1M72 62h1M86 62h1M93 62h1M100 62h1M107 62h1" />
<path stroke="#0a6924" d="M11 62h1M29 62h1M57 62h1M70 62h1M104 62h1" />
<path stroke="#096924" d="M13 62h1M43 62h1M45 62h1M74 62h1M94 62h1M109 62h1" />
<path stroke="#096823" d="M17 62h1M28 62h1M49 62h1M56 62h1M61 62h1M68 62h2M82 62h1M102 62h2" />
<path stroke="#0a6923" d="M18 62h1M20 62h1M38 62h1M47 62h1M62 62h1M88 62h1" />
<path stroke="#0a6823" d="M33 62h1M75 62h1" />
<path stroke="#14d246" d="M79 62h1" />
<path stroke="#096722" d="M7 63h2M21 63h1M28 63h1M31 63h1M54 63h1M68 63h1M74 63h1M83 63h1M88 63h1M91 63h1M96 63h1M101 63h1M105 63h1M108 63h1" />
<path stroke="#12ce44" d="M9 63h1M44 63h1M100 63h1" />
<path stroke="#096622" d="M10 63h6M17 63h4M24 63h1M29 63h1M32 63h3M36 63h1M38 63h1M40 63h1M42 63h1M46 63h2M50 63h1M53 63h1M55 63h3M60 63h1M63 63h1M66 63h2M71 63h1M73 63h1M76 63h3M81 63h2M87 63h1M89 63h2M92 63h1M94 63h1M97 63h3M103 63h1M109 63h1" />
<path stroke="#12cc44" d="M16 63h1M37 63h1M58 63h1M72 63h1M79 63h1M86 63h1" />
<path stroke="#086722" d="M22 63h1" />
<path stroke="#10ce44" d="M23 63h1M107 63h1" />
<path stroke="#096621" d="M25 63h1M49 63h1M62 63h1M64 63h1M102 63h1" />
<path stroke="#086622" d="M26 63h1M35 63h1M39 63h1M41 63h1M43 63h1M45 63h1M48 63h1M59 63h1M61 63h1M69 63h2M75 63h1M80 63h1M85 63h1M95 63h1M104 63h1M106 63h1" />
<path stroke="#086621" d="M27 63h1M52 63h1" />
<path stroke="#12cc42" d="M30 63h1M93 63h1" />
<path stroke="#10cc44" d="M51 63h1M65 63h1" />
<path stroke="#096721" d="M84 63h1" />
<path stroke="#086321" d="M7 64h1M13 64h1M15 64h1M26 64h2M34 64h1M48 64h1M54 64h3M59 64h1M61 64h1M70 64h1M81 64h1M89 64h1M92 64h1M98 64h1M103 64h1" />
<path stroke="#096420" d="M8 64h1M17 64h1M28 64h1M64 64h1" />
<path stroke="#10c842" d="M9 64h1M16 64h1M79 64h1" />
<path stroke="#096421" d="M10 64h1M20 64h3M31 64h2M38 64h1M41 64h1M46 64h1M53 64h1M60 64h1M68 64h2M74 64h2M77 64h2M83 64h1M104 64h1" />
<path stroke="#086421" d="M11 64h2M14 64h1M19 64h1M35 64h2M39 64h1M42 64h1M45 64h1M47 64h1M49 64h1M62 64h2M80 64h1M82 64h1M84 64h1M87 64h1M94 64h1M102 64h1M106 64h1M108 64h2" />
<path stroke="#086420" d="M18 64h1M24 64h2M43 64h1M50 64h1M52 64h1M88 64h1" />
<path stroke="#12c842" d="M23 64h1M58 64h1M65 64h1M72 64h1M93 64h1" />
<path stroke="#086320" d="M29 64h1M67 64h1M76 64h1M101 64h1M105 64h1" />
<path stroke="#12c640" d="M30 64h1" />
<path stroke="#096321" d="M33 64h1M40 64h1M57 64h1M66 64h1M71 64h1M73 64h1M91 64h1M95 64h3" />
<path stroke="#12c840" d="M37 64h1" />
<path stroke="#10c640" d="M44 64h1M51 64h1" />
<path stroke="#096320" d="M85 64h1M90 64h1M99 64h1" />
<path stroke="#10c642" d="M86 64h1M100 64h1" />
<path stroke="#12c642" d="M107 64h1" />
<path stroke="#086120" d="M7 65h1M13 65h2M17 65h1M22 65h1M34 65h1M36 65h1M39 65h1M41 65h1M50 65h1M53 65h2M64 65h1M67 65h1M71 65h1M78 65h1M82 65h1M91 65h2M96 65h3M102 65h1" />
<path stroke="#08621f" d="M8 65h1M10 65h3M18 65h1M21 65h1M25 65h1M28 65h1M33 65h1M42 65h2M57 65h1M60 65h3M85 65h1" />
<path stroke="#10c240" d="M9 65h1M51 65h1M65 65h1M93 65h1M100 65h1" />
<path stroke="#08611f" d="M15 65h1M20 65h1M29 65h1M31 65h2M45 65h1M47 65h2M55 65h2M66 65h1M68 65h1M74 65h2M89 65h2M94 65h1M103 65h1M106 65h1M108 65h1" />
<path stroke="#10c440" d="M16 65h1M23 65h1M37 65h1" />
<path stroke="#086220" d="M19 65h1M24 65h1M26 65h2M38 65h1M40 65h1M46 65h1M49 65h1M59 65h1M69 65h2M73 65h1M76 65h2M80 65h2M83 65h2M87 65h2M95 65h1M99 65h1M101 65h1M105 65h1M109 65h1" />
<path stroke="#12c23e" d="M30 65h1" />
<path stroke="#096220" d="M35 65h1" />
<path stroke="#10c23e" d="M44 65h1M58 65h1M79 65h1M107 65h1" />
<path stroke="#096120" d="M52 65h1M63 65h1M104 65h1" />
<path stroke="#10c43e" d="M72 65h1M86 65h1" />
<path stroke="#10be3e" d="M7 66h5M14 66h5M21 66h1M25 66h3M33 66h1M39 66h2M45 66h4M50 66h1M52 66h1M54 66h4M60 66h2M63 66h1M67 66h3M71 66h2M74 66h1M76 66h6M83 66h1M85 66h3M89 66h3M93 66h2M96 66h1M100 66h2M104 66h1M108 66h2" />
<path stroke="#10c03e" d="M12 66h2M19 66h2M22 66h1M24 66h1M29 66h4M34 66h1M36 66h3M41 66h3M49 66h1M51 66h1M53 66h1M58 66h1M62 66h1M64 66h1M66 66h1M70 66h1M73 66h1M75 66h1M82 66h1M84 66h1M88 66h1M98 66h2M103 66h1M106 66h1" />
<path stroke="#0ebe3e" d="M23 66h1M28 66h1M35 66h1M65 66h1M92 66h1M102 66h1M107 66h1" />
<path stroke="#0ec03e" d="M44 66h1M59 66h1M95 66h1M97 66h1" />
<path stroke="#10be3c" d="M105 66h1" />
<path stroke="#085d1e" d="M7 67h1M11 67h2M24 67h2M28 67h2M31 67h2M34 67h1M36 67h1M38 67h2M46 67h3M50 67h1M52 67h1M56 67h2M59 67h1M61 67h1M63 67h2M76 67h1M83 67h1M85 67h1M90 67h1M92 67h1M98 67h1M101 67h4M106 67h1M108 67h1" />
<path stroke="#085e1d" d="M8 67h1M19 67h1M88 67h1M105 67h1M109 67h1" />
<path stroke="#10ba3c" d="M9 67h1M30 67h1M51 67h1M93 67h1M100 67h1" />
<path stroke="#075d1d" d="M10 67h1M21 67h1M45 67h1M67 67h1M70 67h2M73 67h1" />
<path stroke="#075d1e" d="M13 67h1M15 67h1M33 67h1M35 67h1M43 67h1M49 67h1M54 67h1M60 67h1M66 67h1M69 67h1M74 67h2M78 67h1M81 67h2M84 67h1M89 67h1M91 67h1M97 67h1M99 67h1" />
<path stroke="#075e1e" d="M14 67h1M22 67h1M77 67h1M94 67h1M96 67h1" />
<path stroke="#0eba3a" d="M16 67h1" />
<path stroke="#085d1d" d="M17 67h1M40 67h1M42 67h1M95 67h1" />
<path stroke="#085e1e" d="M18 67h1M20 67h1M26 67h2M41 67h1M53 67h1M55 67h1M62 67h1M87 67h1" />
<path stroke="#10bc3c" d="M23 67h1M58 67h1" />
<path stroke="#0ebc3c" d="M37 67h1M65 67h1M72 67h1M86 67h1" />
<path stroke="#10ba3a" d="M44 67h1M107 67h1" />
<path stroke="#075e1d" d="M68 67h1M80 67h1" />
<path stroke="#0eba3c" d="M79 67h1" />
<path stroke="#075a1d" d="M7 68h2M17 68h1M41 68h1M48 68h1M50 68h1M54 68h1M64 68h1M69 68h1M77 68h1M81 68h1M91 68h2" />
<path stroke="#10b438" d="M9 68h1" />
<path stroke="#075b1d" d="M10 68h2M13 68h2M18 68h1M21 68h2M24 68h1M27 68h3M32 68h1M39 68h2M46 68h2M49 68h1M52 68h1M55 68h1M59 68h1M62 68h2M66 68h1M68 68h1M70 68h1M75 68h1M80 68h1M85 68h1M90 68h1M94 68h1M96 68h1M98 68h2M101 68h2M108 68h2" />
<path stroke="#085a1c" d="M12 68h1M19 68h1M57 68h1" />
<path stroke="#075a1c" d="M15 68h1M36 68h1M45 68h1M74 68h1M88 68h1" />
<path stroke="#0eb63a" d="M16 68h1M23 68h1M65 68h1M79 68h1M86 68h1" />
<path stroke="#075b1c" d="M20 68h1M25 68h1M43 68h1M60 68h1M71 68h1M73 68h1M76 68h1M83 68h1M87 68h1M95 68h1M97 68h1" />
<path stroke="#085b1d" d="M26 68h1M31 68h1M33 68h1M35 68h1M61 68h1M82 68h1M89 68h1M103 68h1M105 68h2" />
<path stroke="#0eb43a" d="M30 68h1M51 68h1M93 68h1M100 68h1" />
<path stroke="#085b1c" d="M34 68h1M53 68h1M56 68h1M78 68h1M84 68h1M104 68h1" />
<path stroke="#0eb438" d="M37 68h1" />
<path stroke="#085a1d" d="M38 68h1M42 68h1M67 68h1" />
<path stroke="#10b63a" d="M44 68h1" />
<path stroke="#0eb638" d="M58 68h1M107 68h1" />
<path stroke="#10b638" d="M72 68h1" />
<path stroke="#06591c" d="M7 69h1M10 69h1M55 69h1M70 69h1M94 69h1M99 69h1" />
<path stroke="#07581b" d="M8 69h1M14 69h2M31 69h3M35 69h1M57 69h1M80 69h1M85 69h1M91 69h1M102 69h1" />
<path stroke="#0eb236" d="M9 69h1M16 69h1M30 69h1M44 69h1M51 69h1M58 69h1M65 69h1M107 69h1" />
<path stroke="#06581c" d="M11 69h1M69 69h1" />
<path stroke="#07591c" d="M12 69h1M17 69h1M21 69h1M24 69h1M27 69h1M29 69h1M39 69h1M41 69h1M43 69h1M52 69h1M54 69h1M59 69h1M61 69h1M63 69h2M68 69h1M73 69h1M81 69h2M84 69h1M89 69h1M92 69h1M101 69h1M105 69h1M108 69h1" />
<path stroke="#07581c" d="M13 69h1M19 69h1M22 69h1M28 69h1M38 69h1M50 69h1M53 69h1M66 69h2M76 69h1M95 69h2M104 69h1M109 69h1" />
<path stroke="#07591b" d="M18 69h1M20 69h1M25 69h2M34 69h1M36 69h1M42 69h1M45 69h5M56 69h1M60 69h1M74 69h2M77 69h2M83 69h1M88 69h1M90 69h1M98 69h1M103 69h1" />
<path stroke="#0cb236" d="M23 69h1M72 69h1" />
<path stroke="#0eb036" d="M37 69h1" />
<path stroke="#06581b" d="M40 69h1" />
<path stroke="#06591b" d="M62 69h1M71 69h1M87 69h1M97 69h1M106 69h1" />
<path stroke="#0eb238" d="M79 69h1M86 69h1M93 69h1M100 69h1" />
<path stroke="#07571b" d="M7 70h2M10 70h1M17 70h5M26 70h1M28 70h1M31 70h1M33 70h3M39 70h2M43 70h1M46 70h1M50 70h1M59 70h3M67 70h1M69 70h1M71 70h1M73 70h3M80 70h3M89 70h4M95 70h2M99 70h1M101 70h2M104 70h2M108 70h2" />
<path stroke="#0eae36" d="M9 70h1M16 70h1M30 70h1M37 70h1M44 70h1M51 70h1M58 70h1M93 70h1M100 70h1M107 70h1" />
<path stroke="#07571a" d="M11 70h1M24 70h1M106 70h1" />
<path stroke="#07561b" d="M12 70h1M14 70h2M29 70h1M32 70h1M41 70h1M45 70h1M53 70h3M57 70h1M64 70h1M68 70h1M77 70h1M83 70h3M87 70h1M94 70h1M97 70h1" />
<path stroke="#06571b" d="M13 70h1M22 70h1M27 70h1M38 70h1M42 70h1M47 70h2M52 70h1M56 70h1M62 70h2M66 70h1M76 70h1M78 70h1M98 70h1M103 70h1" />
<path stroke="#0cac34" d="M23 70h1" />
<path stroke="#06561b" d="M25 70h1M36 70h1M70 70h1M88 70h1" />
<path stroke="#06561a" d="M49 70h1" />
<path stroke="#0eae34" d="M65 70h1" />
<path stroke="#0cac36" d="M72 70h1" />
<path stroke="#0cae36" d="M79 70h1" />
<path stroke="#0eac36" d="M86 70h1" />
<path stroke="#06551a" d="M7 71h2M11 71h4M21 71h2M26 71h1M35 71h1M39 71h1M42 71h2M50 71h1M53 71h1M57 71h1M62 71h2M70 71h1M73 71h1M80 71h2M85 71h1M89 71h1M94 71h3M101 71h1M109 71h1" />
<path stroke="#0caa34" d="M9 71h1M16 71h1M23 71h1M44 71h1M51 71h1M65 71h1M86 71h1M107 71h1" />
<path stroke="#065519" d="M10 71h1M47 71h1M91 71h1M102 71h1M104 71h2" />
<path stroke="#075519" d="M15 71h1M20 71h1M82 71h1M90 71h1M92 71h1" />
<path stroke="#06541a" d="M17 71h1M24 71h1M27 71h1M31 71h2M36 71h1M40 71h2M45 71h1M55 71h1M66 71h2M69 71h1M71 71h1M74 71h2M78 71h1M83 71h1M87 71h2M97 71h2M103 71h1M106 71h1" />
<path stroke="#075419" d="M18 71h1M68 71h1" />
<path stroke="#07551a" d="M19 71h1M34 71h1M46 71h1M48 71h1M52 71h1M60 71h1M64 71h1M76 71h2M84 71h1" />
<path stroke="#07541a" d="M25 71h1M29 71h1M33 71h1M38 71h1M49 71h1M59 71h1M61 71h1M108 71h1" />
<path stroke="#065419" d="M28 71h1M54 71h1M56 71h1M99 71h1" />
<path stroke="#0ea832" d="M30 71h1" />
<path stroke="#0eaa34" d="M37 71h1M93 71h1M100 71h1" />
<path stroke="#0ca834" d="M58 71h1M72 71h1M79 71h1" />
<path stroke="#065219" d="M7 72h1M10 72h1M12 72h4M17 72h2M20 72h3M24 72h4M31 72h3M35 72h2M41 72h3M45 72h2M48 72h3M52 72h6M59 72h1M61 72h2M64 72h1M66 72h1M68 72h3M76 72h1M78 72h1M80 72h2M83 72h3M88 72h4M96 72h2M99 72h1M101 72h1M103 72h4M108 72h1" />
<path stroke="#065218" d="M8 72h1M11 72h1M28 72h2M34 72h1M38 72h2M47 72h1M71 72h1M73 72h3M82 72h1M94 72h2M98 72h1M102 72h1M109 72h1" />
<path stroke="#0ca432" d="M9 72h1M16 72h1M23 72h1M37 72h1M44 72h1M58 72h1M65 72h1M79 72h1M86 72h1M100 72h1M107 72h1" />
<path stroke="#065319" d="M19 72h1M40 72h1M63 72h1M67 72h1M77 72h1M87 72h1" />
<path stroke="#0ca632" d="M30 72h1" />
<path stroke="#0ca430" d="M51 72h1M72 72h1M93 72h1" />
<path stroke="#075219" d="M60 72h1" />
<path stroke="#065318" d="M92 72h1" />
<path stroke="#0ca030" d="M7 73h3M16 73h1M19 73h2M24 73h1M32 73h1M35 73h1M37 73h1M39 73h3M50 73h1M52 73h3M56 73h1M58 73h1M60 73h3M64 73h1M66 73h1M68 73h2M73 73h1M75 73h1M77 73h1M79 73h2M82 73h2M90 73h4M96 73h2M99 73h2M104 73h1M107 73h2" />
<path stroke="#0ca02e" d="M10 73h2M14 73h1M27 73h2M30 73h1M36 73h1M43 73h1M46 73h2M51 73h1M55 73h1M65 73h1M71 73h2M74 73h1M76 73h1M85 73h1M87 73h1M95 73h1M98 73h1M101 73h2M109 73h1" />
<path stroke="#0aa030" d="M12 73h2M15 73h1M17 73h2M22 73h1M26 73h1M29 73h1M34 73h1M38 73h1M42 73h1M44 73h1M48 73h1M57 73h1M78 73h1M84 73h1M88 73h2M105 73h1" />
<path stroke="#0aa02e" d="M21 73h1M23 73h1M25 73h1M31 73h1M33 73h1M49 73h1M59 73h1M67 73h1M70 73h1M81 73h1M94 73h1M103 73h1M106 73h1" />
<path stroke="#0c9e30" d="M45 73h1" />
<path stroke="#0a9e2e" d="M63 73h1" />
<path stroke="#0c9e2e" d="M86 73h1M23 74h1" />
<path stroke="#064e17" d="M7 74h1M12 74h1M18 74h2M22 74h1M26 74h2M29 74h1M33 74h1M35 74h2M38 74h3M42 74h1M45 74h5M52 74h2M55 74h1M59 74h1M61 74h1M64 74h1M66 74h1M69 74h2M73 74h2M80 74h1M82 74h1M90 74h2M94 74h1M99 74h1M102 74h2M105 74h1M109 74h1" />
<path stroke="#054e17" d="M8 74h1M10 74h2M13 74h3M17 74h1M20 74h1M24 74h2M31 74h2M34 74h1M41 74h1M50 74h1M54 74h1M57 74h1M60 74h1M62 74h2M67 74h1M71 74h1M75 74h1M77 74h2M81 74h1M83 74h1M85 74h1M87 74h3M92 74h1M95 74h4M101 74h1M104 74h1M108 74h1" />
<path stroke="#0a9c2e" d="M9 74h1M30 74h1M44 74h1M51 74h1M79 74h1M86 74h1M93 74h1M100 74h1M107 74h1" />
<path stroke="#0c9c2e" d="M16 74h1M37 74h1M58 74h1M65 74h1M72 74h1" />
<path stroke="#054f17" d="M21 74h1M56 74h1M68 74h1M76 74h1" />
<path stroke="#054e18" d="M28 74h1" />
<path stroke="#064f17" d="M43 74h1M84 74h1" />
<path stroke="#064e18" d="M106 74h1" />
<path stroke="#064c16" d="M7 75h1M41 75h1M46 75h1M60 75h1M63 75h1M67 75h1M77 75h1M83 75h1M90 75h1M94 75h1M96 75h1M99 75h1" />
<path stroke="#054c16" d="M8 75h1M10 75h6M18 75h1M20 75h3M24 75h6M31 75h4M36 75h1M38 75h3M42 75h2M45 75h1M48 75h3M52 75h3M56 75h2M61 75h1M64 75h1M68 75h1M70 75h2M74 75h3M81 75h2M84 75h2M87 75h3M91 75h2M95 75h1M98 75h1M101 75h6M108 75h2" />
<path stroke="#0a982c" d="M9 75h1M23 75h1M30 75h1M37 75h1M44 75h1M51 75h1M65 75h1M72 75h1M79 75h1M86 75h1M93 75h1M107 75h1" />
<path stroke="#0c982c" d="M16 75h1M58 75h1M100 75h1" />
<path stroke="#054c15" d="M17 75h1M19 75h1M35 75h1M47 75h1M59 75h1M69 75h1M80 75h1M97 75h1" />
<path stroke="#064c15" d="M55 75h1M66 75h1" />
<path stroke="#054d16" d="M62 75h1" />
<path stroke="#054d15" d="M73 75h1" />
<path stroke="#064d16" d="M78 75h1" />
<path stroke="#054a15" d="M7 76h2M10 76h2M14 76h2M18 76h2M21 76h2M25 76h1M28 76h1M31 76h1M33 76h4M38 76h1M42 76h1M48 76h1M50 76h1M54 76h1M57 76h1M61 76h1M63 76h2M66 76h3M70 76h2M73 76h4M78 76h1M80 76h2M83 76h1M85 76h1M88 76h1M90 76h3M94 76h1M96 76h1M98 76h1M102 76h2M105 76h1M108 76h1" />
<path stroke="#0a942a" d="M9 76h1M30 76h1M37 76h1M51 76h1M58 76h1M65 76h1M86 76h1M93 76h1" />
<path stroke="#054915" d="M12 76h1M24 76h1M29 76h1M32 76h1M45 76h2M49 76h1M52 76h2M62 76h1M69 76h1M82 76h1M95 76h1M101 76h1M104 76h1M109 76h1" />
<path stroke="#044915" d="M13 76h1M40 76h1M87 76h1M97 76h1M99 76h1" />
<path stroke="#089228" d="M16 76h1" />
<path stroke="#044a14" d="M17 76h1" />
<path stroke="#044a15" d="M20 76h1M26 76h2M41 76h1M47 76h1M55 76h2M59 76h2M84 76h1M89 76h1" />
<path stroke="#08922a" d="M23 76h1" />
<path stroke="#054a14" d="M39 76h1M43 76h1M77 76h1M106 76h1" />
<path stroke="#0a922a" d="M44 76h1M107 76h1" />
<path stroke="#08942a" d="M72 76h1M79 76h1" />
<path stroke="#0a9428" d="M100 76h1" />
<path stroke="#054714" d="M7 77h2M21 77h1M62 77h1M78 77h1M94 77h1" />
<path stroke="#0a9028" d="M9 77h1M37 77h1M65 77h1M93 77h1M100 77h1" />
<path stroke="#054813" d="M10 77h1M49 77h1M64 77h1M70 77h1M82 77h1M90 77h1" />
<path stroke="#044814" d="M11 77h1M13 77h1M15 77h1M17 77h1M19 77h1M24 77h2M31 77h1M36 77h1M39 77h1M45 77h2M48 77h1M54 77h1M60 77h2M69 77h1M74 77h1M77 77h1M80 77h1M83 77h1M85 77h1M87 77h1M97 77h1M99 77h1M101 77h3" />
<path stroke="#044813" d="M12 77h1M38 77h1M81 77h1" />
<path stroke="#054814" d="M14 77h1M20 77h1M22 77h1M26 77h4M32 77h4M41 77h1M43 77h1M47 77h1M52 77h2M55 77h2M63 77h1M67 77h2M71 77h1M73 77h1M75 77h2M84 77h1M88 77h2M91 77h1M95 77h2M105 77h2M109 77h1" />
<path stroke="#0a8e28" d="M16 77h1M30 77h1M44 77h1M58 77h1M79 77h1M86 77h1" />
<path stroke="#044714" d="M18 77h1M42 77h1M50 77h1M59 77h1M66 77h1M92 77h1M98 77h1M108 77h1" />
<path stroke="#089028" d="M23 77h1M51 77h1M72 77h1M107 77h1" />
<path stroke="#044713" d="M40 77h1M57 77h1M104 77h1" />
<path stroke="#044613" d="M7 78h2M10 78h4M17 78h1M19 78h1M21 78h1M25 78h1M27 78h1M29 78h1M31 78h3M35 78h1M38 78h3M46 78h1M49 78h1M52 78h2M55 78h2M61 78h1M64 78h1M69 78h1M71 78h1M73 78h5M81 78h3M87 78h2M92 78h1M94 78h1M96 78h4M105 78h2M109 78h1" />
<path stroke="#088c26" d="M9 78h1M23 78h1M30 78h1M37 78h1M51 78h1M65 78h1M72 78h1M79 78h1" />
<path stroke="#044614" d="M14 78h1M18 78h1M22 78h1M41 78h1M47 78h2M62 78h1M66 78h1M68 78h1M80 78h1M91 78h1" />
<path stroke="#054613" d="M15 78h1M24 78h1M26 78h1M28 78h1M34 78h1M42 78h2M50 78h1M54 78h1M57 78h1M59 78h2M67 78h1M78 78h1M84 78h2M89 78h2M95 78h1M101 78h4M108 78h1" />
<path stroke="#0a8c26" d="M16 78h1M58 78h1M93 78h1M100 78h1" />
<path stroke="#054614" d="M20 78h1M36 78h1M45 78h1M63 78h1M70 78h1" />
<path stroke="#0a8c28" d="M44 78h1M107 78h1" />
<path stroke="#088c28" d="M86 78h1" />
<path stroke="#044412" d="M7 79h1M10 79h1M13 79h3M17 79h2M20 79h2M25 79h2M28 79h1M32 79h5M38 79h6M45 79h4M52 79h2M55 79h2M59 79h2M62 79h3M67 79h1M69 79h1M71 79h1M73 79h3M77 79h1M80 79h1M82 79h4M87 79h1M89 79h2M92 79h1M94 79h3M98 79h2M101 79h6M109 79h1" />
<path stroke="#044413" d="M8 79h1M11 79h2M19 79h1M24 79h1M27 79h1M29 79h1M49 79h2M57 79h1M66 79h1M68 79h1M76 79h1M81 79h1M88 79h1M91 79h1" />
<path stroke="#088824" d="M9 79h1M16 79h1M23 79h1M37 79h1M51 79h1M58 79h1M72 79h1M79 79h1M86 79h1M100 79h1M107 79h1" />
<path stroke="#044312" d="M22 79h1M54 79h1M78 79h1" />
<path stroke="#0a8826" d="M30 79h1" />
<path stroke="#044313" d="M31 79h1M61 79h1" />
<path stroke="#088626" d="M44 79h1" />
<path stroke="#088826" d="M65 79h1M93 79h1" />
<path stroke="#054412" d="M70 79h1M97 79h1" />
<path stroke="#054413" d="M108 79h1" />
<path stroke="#088222" d="M7 80h1M12 80h1M27 80h1M34 80h2M47 80h1M58 80h1M65 80h1M70 80h1M80 80h1M92 80h2M97 80h1M102 80h1M108 80h2" />
<path stroke="#088422" d="M8 80h4M14 80h1M16 80h2M19 80h1M22 80h4M29 80h5M37 80h1M40 80h1M46 80h1M52 80h3M60 80h1M64 80h1M68 80h2M71 80h5M79 80h1M82 80h1M85 80h1M87 80h1M91 80h1M96 80h1M98 80h2M101 80h1" />
<path stroke="#068424" d="M13 80h1M39 80h1M104 80h2" />
<path stroke="#068422" d="M15 80h1M18 80h1M21 80h1M41 80h1M44 80h2M50 80h1M57 80h1M63 80h1M66 80h1M78 80h1M83 80h2M86 80h1M88 80h1M100 80h1M103 80h1M106 80h1" />
<path stroke="#068222" d="M20 80h1M55 80h2M59 80h1M67 80h1" />
<path stroke="#068224" d="M26 80h1M36 80h1M94 80h2" />
<path stroke="#088424" d="M28 80h1M38 80h1M43 80h1M49 80h1M51 80h1M61 80h2M76 80h2M81 80h1M89 80h1M107 80h1" />
<path stroke="#088224" d="M42 80h1M48 80h1M90 80h1" />
<path stroke="#034010" d="M7 81h1M10 81h1M18 81h1M20 81h1M26 81h3M33 81h1M38 81h2M41 81h1M43 81h1M45 81h5M52 81h1M56 81h2M61 81h3M67 81h1M70 81h1M74 81h1M77 81h2M81 81h1M84 81h2M89 81h4M94 81h1M96 81h1M99 81h1M101 81h2M108 81h2" />
<path stroke="#044010" d="M8 81h1M12 81h1M14 81h1M17 81h1M21 81h1M24 81h2M29 81h1M32 81h1M34 81h2M40 81h1M50 81h1M55 81h1M59 81h1M64 81h1M66 81h1M71 81h1M73 81h1M80 81h1M88 81h1M95 81h1M97 81h2M103 81h1M106 81h1" />
<path stroke="#088022" d="M9 81h1" />
<path stroke="#044011" d="M11 81h1M13 81h1M22 81h1M54 81h1M82 81h2M104 81h2" />
<path stroke="#043f10" d="M15 81h1M68 81h1M73 82h1" />
<path stroke="#068022" d="M16 81h1M58 81h1" />
<path stroke="#034011" d="M19 81h1M31 81h1M42 81h1M53 81h1M60 81h1M69 81h1M75 81h2" />
<path stroke="#068020" d="M23 81h1M30 81h1M37 81h1M86 81h1M100 81h1M107 81h1" />
<path stroke="#033f10" d="M36 81h1M10 82h1M13 82h1M20 82h1M32 82h1M36 82h1M63 82h1M67 82h1M75 82h1M80 82h1M94 82h1" />
<path stroke="#067e20" d="M44 81h1M9 82h1M23 82h1M37 82h1M79 82h1M93 82h1" />
<path stroke="#088020" d="M51 81h1M65 81h1M79 81h1M93 81h1" />
<path stroke="#087e22" d="M72 81h1" />
<path stroke="#043f11" d="M87 81h1" />
<path stroke="#033e10" d="M7 82h1M14 82h1M19 82h1M24 82h1M28 82h2M31 82h1M33 82h2M38 82h3M42 82h2M48 82h1M55 82h1M57 82h1M59 82h4M68 82h1M70 82h1M76 82h3M81 82h3M88 82h2M103 82h2M106 82h1M109 82h1" />
<path stroke="#033e0f" d="M8 82h1M15 82h1M22 82h1M41 82h1M50 82h1M52 82h1M56 82h1M64 82h1M91 82h1M97 82h1M101 82h2M105 82h1M108 82h1" />
<path stroke="#043e10" d="M11 82h2M17 82h2M21 82h1M26 82h1M35 82h1M45 82h2M49 82h1M53 82h2M96 82h1M98 82h2" />
<path stroke="#067c20" d="M16 82h1M44 82h1M51 82h1M58 82h1M72 82h1" />
<path stroke="#043e0f" d="M25 82h1M66 82h1M69 82h1M87 82h1M90 82h1M92 82h1M95 82h1" />
<path stroke="#033f0f" d="M27 82h1M47 82h1M74 82h1" />
<path stroke="#087c20" d="M30 82h1M100 82h1" />
<path stroke="#087e20" d="M65 82h1M86 82h1M107 82h1" />
<path stroke="#043f0f" d="M71 82h1M84 82h2" />
<path stroke="#033c0f" d="M7 83h2M10 83h1M12 83h1M15 83h1M20 83h3M24 83h1M26 83h1M28 83h2M32 83h2M38 83h1M41 83h2M45 83h2M48 83h1M52 83h1M55 83h2M61 83h3M68 83h4M74 83h2M78 83h1M82 83h2M85 83h1M87 83h2M90 83h1M98 83h2M101 83h1M106 83h1M109 83h1" />
<path stroke="#06781e" d="M9 83h1M37 83h1M51 83h1M58 83h1M65 83h1M72 83h1M79 83h1M86 83h1M100 83h1" />
<path stroke="#033c0e" d="M11 83h1M39 83h2M59 83h1M73 83h1M80 83h1M94 83h2" />
<path stroke="#033d0f" d="M13 83h1M17 83h3M25 83h1M31 83h1M34 83h3M43 83h1M47 83h1M49 83h2M53 83h1M60 83h1M66 83h2M76 83h1M81 83h1M84 83h1M91 83h1M96 83h2M102 83h4M108 83h1" />
<path stroke="#033d0e" d="M14 83h1M27 83h1M54 83h1M57 83h1M77 83h1M89 83h1M92 83h1" />
<path stroke="#06781c" d="M16 83h1M107 83h1" />
<path stroke="#067a1e" d="M23 83h1M30 83h1M44 83h1M93 83h1" />
<path stroke="#023c0e" d="M64 83h1" />
<path stroke="#023a0e" d="M7 84h1M26 84h1M28 84h1M43 84h1M46 84h2M50 84h1M54 84h2M60 84h1M73 84h1M75 84h1M78 84h1M81 84h1M85 84h1M101 84h1M103 84h1" />
<path stroke="#033b0e" d="M8 84h1M10 84h1M13 84h1M15 84h1M24 84h2M31 84h1M36 84h1M45 84h1M49 84h1M66 84h1M74 84h1M77 84h1M83 84h2M89 84h1M96 84h1M106 84h1M109 84h1" />
<path stroke="#06761c" d="M9 84h1M51 84h1M65 84h1" />
<path stroke="#033a0e" d="M11 84h2M14 84h1M17 84h2M21 84h1M27 84h1M29 84h1M32 84h3M38 84h5M48 84h1M52 84h2M57 84h1M61 84h2M64 84h1M68 84h1M70 84h2M82 84h1M87 84h2M90 84h1M92 84h1M94 84h2M97 84h3M102 84h1M105 84h1M108 84h1" />
<path stroke="#04741c" d="M16 84h1M30 84h1" />
<path stroke="#033a0d" d="M19 84h1M35 84h1M80 84h1" />
<path stroke="#023a0d" d="M20 84h1M91 84h1" />
<path stroke="#023b0e" d="M22 84h1M56 84h1M59 84h1M63 84h1M67 84h1M69 84h1M76 84h1M104 84h1" />
<path stroke="#06741c" d="M23 84h1M44 84h1M58 84h1M79 84h1M86 84h1M93 84h1M100 84h1" />
<path stroke="#06761a" d="M37 84h1" />
<path stroke="#04761c" d="M72 84h1M107 84h1" />
<path stroke="#02390d" d="M7 85h2M10 85h1M14 85h1M17 85h2M20 85h2M29 85h1M31 85h1M36 85h1M38 85h1M41 85h1M46 85h2M50 85h1M52 85h1M55 85h1M57 85h1M60 85h1M62 85h1M64 85h1M67 85h1M69 85h3M76 85h3M80 85h1M87 85h1M95 85h1M103 85h1M106 85h1M109 85h1" />
<path stroke="#06721a" d="M9 85h1M16 85h1M30 85h1M58 85h1M93 85h1" />
<path stroke="#03380d" d="M11 85h1M22 85h1M32 85h1M43 85h1M48 85h1M54 85h1M88 85h2M92 85h1M96 85h1M102 85h1M15 86h1M49 86h1M66 86h1M81 86h1M92 86h1" />
<path stroke="#03390d" d="M12 85h1M15 85h1M19 85h1M25 85h2M28 85h1M34 85h2M39 85h1M49 85h1M53 85h1M61 85h1M63 85h1M66 85h1M73 85h1M81 85h1M83 85h3M90 85h2M94 85h1M98 85h1M101 85h1M104 85h2M108 85h1" />
<path stroke="#02380d" d="M13 85h1M24 85h1M27 85h1M33 85h1M40 85h1M42 85h1M45 85h1M56 85h1M59 85h1M68 85h1M74 85h2M82 85h1M97 85h1M99 85h1M29 86h1M38 86h1M53 86h1M56 86h1M62 86h1M88 86h1M98 86h1M108 86h1" />
<path stroke="#04701a" d="M23 85h1M51 85h1M86 85h1M72 86h1M93 86h1M100 86h1" />
<path stroke="#04721a" d="M37 85h1M65 85h1M79 85h1" />
<path stroke="#06701a" d="M44 85h1M72 85h1M100 85h1M107 85h1" />
<path stroke="#02370d" d="M7 86h2M11 86h1M14 86h1M18 86h1M21 86h1M24 86h1M31 86h1M34 86h1M39 86h1M42 86h2M48 86h1M50 86h1M59 86h2M73 86h2M76 86h1M82 86h2M90 86h2M95 86h2" />
<path stroke="#046e18" d="M9 86h1M30 86h1M65 86h1M79 86h1M107 86h1" />
<path stroke="#03370d" d="M10 86h1M25 86h1M28 86h1M67 86h1M84 86h1M102 86h1" />
<path stroke="#02370c" d="M12 86h1M20 86h1M22 86h1M26 86h1M32 86h2M41 86h1M46 86h2M55 86h1M57 86h1M61 86h1M63 86h2M68 86h1M70 86h2M75 86h1M78 86h1M80 86h1M85 86h1M87 86h1M97 86h1M99 86h1M101 86h1M105 86h1" />
<path stroke="#02380c" d="M13 86h1M52 86h1M69 86h1M94 86h1M104 86h1" />
<path stroke="#046e1a" d="M16 86h1M23 86h1M37 86h1M86 86h1" />
<path stroke="#03370c" d="M17 86h1M19 86h1M35 86h2M40 86h1M45 86h1M54 86h1M77 86h1M89 86h1M109 86h1" />
<path stroke="#03380c" d="M27 86h1M103 86h1M106 86h1" />
<path stroke="#066e18" d="M44 86h1M58 86h1" />
<path stroke="#066e1a" d="M51 86h1" />
<path stroke="#046c16" d="M7 87h2M20 87h1M29 87h1M38 87h1M41 87h1M44 87h1M52 87h2M59 87h1M61 87h1M69 87h2M75 87h1M77 87h1M80 87h1M92 87h1M94 87h1M100 87h1M102 87h1" />
<path stroke="#046a18" d="M9 87h1M13 87h1M21 87h2M25 87h2M30 87h1M32 87h3M39 87h1M42 87h2M45 87h2M49 87h1M51 87h1M54 87h2M57 87h2M60 87h1M64 87h1M71 87h2M76 87h1M78 87h1M82 87h1M84 87h1M89 87h2M93 87h1M95 87h1M97 87h1M99 87h1M101 87h1M104 87h1M106 87h2M109 87h1" />
<path stroke="#046a16" d="M10 87h1M12 87h1M14 87h1M16 87h1M18 87h1M23 87h2M27 87h2M35 87h1M50 87h1M63 87h1M68 87h1M79 87h1M86 87h2M96 87h1M98 87h1" />
<path stroke="#046c18" d="M11 87h1M15 87h1M17 87h1M31 87h1M36 87h2M40 87h1M47 87h2M56 87h1M62 87h1M65 87h3M73 87h2M81 87h1M88 87h1M91 87h1M103 87h1M105 87h1M108 87h1" />
<path stroke="#066a18" d="M19 87h1" />
<path stroke="#066c18" d="M83 87h1" />
<path stroke="#066a16" d="M85 87h1" />
<path stroke="#02340a" d="M7 88h1M29 88h1M69 88h1M75 88h1M103 88h1" />
<path stroke="#01340b" d="M8 88h1M10 88h1M19 88h2M22 88h1M27 88h1M39 88h1M47 88h1M83 88h1M96 88h1M108 88h2" />
<path stroke="#046814" d="M9 88h1" />
<path stroke="#02340b" d="M11 88h4M17 88h2M21 88h1M24 88h3M31 88h1M33 88h3M38 88h1M40 88h1M42 88h2M45 88h1M50 88h1M53 88h5M59 88h1M61 88h1M63 88h2M66 88h3M71 88h1M73 88h2M77 88h1M81 88h2M84 88h1M87 88h3M91 88h2M94 88h1M97 88h3M101 88h1" />
<path stroke="#02330b" d="M15 88h1M28 88h1M41 88h1M48 88h2M52 88h1M60 88h1M70 88h1M76 88h1M78 88h1M90 88h1M95 88h1M102 88h1M105 88h2" />
<path stroke="#046616" d="M16 88h1M79 88h1M100 88h1" />
<path stroke="#046816" d="M23 88h1M30 88h1M37 88h1M51 88h1M65 88h1M72 88h1M86 88h1M107 88h1" />
<path stroke="#01330b" d="M32 88h1M46 88h1M85 88h1" />
<path stroke="#01340a" d="M36 88h1M62 88h1M80 88h1" />
<path stroke="#026616" d="M44 88h1M58 88h1" />
<path stroke="#046614" d="M93 88h1" />
<path stroke="#02330a" d="M104 88h1M12 89h1M19 89h1M25 89h1M42 89h1M90 89h1" />
<path stroke="#01320b" d="M7 89h1M13 89h1M18 89h1M94 89h1M98 89h1" />
<path stroke="#02320a" d="M8 89h1M14 89h2M20 89h2M27 89h2M38 89h1M40 89h2M47 89h2M52 89h1M57 89h1M59 89h4M64 89h1M68 89h4M73 89h2M76 89h2M82 89h4M91 89h2M95 89h2M101 89h1M105 89h1M108 89h2" />
<path stroke="#046414" d="M9 89h1M16 89h1M37 89h1M44 89h1M51 89h1M58 89h1M79 89h1M93 89h1M107 89h1" />
<path stroke="#01320a" d="M10 89h2M17 89h1M22 89h1M24 89h1M26 89h1M29 89h1M31 89h1M33 89h4M43 89h1M45 89h2M49 89h2M53 89h4M63 89h1M66 89h1M75 89h1M78 89h1M80 89h2M87 89h3M97 89h1M99 89h1M102 89h3M106 89h1" />
<path stroke="#026414" d="M23 89h1M30 89h1M65 89h1M72 89h1M86 89h1M100 89h1" />
<path stroke="#01330a" d="M32 89h1M67 89h1" />
<path stroke="#02320b" d="M39 89h1" />
<path stroke="#013109" d="M7 90h2M10 90h2M15 90h1M18 90h1M22 90h1M27 90h1M33 90h1M38 90h1M47 90h1M60 90h1M64 90h1M67 90h3M75 90h1M82 90h1M84 90h2M87 90h1M89 90h1M91 90h1M102 90h1" />
<path stroke="#026012" d="M9 90h1M37 90h1M44 90h1M58 90h1M65 90h1M93 90h1M9 91h1M23 91h1M107 91h1" />
<path stroke="#023109" d="M12 90h1M35 90h2M52 90h1M55 90h1M63 90h1M71 90h1M73 90h1M77 90h1M80 90h1M92 90h1M99 90h1M103 90h3" />
<path stroke="#013009" d="M13 90h1M19 90h1M24 90h1M26 90h1M28 90h1M31 90h2M39 90h1M41 90h1M48 90h2M59 90h1M70 90h1M76 90h1M78 90h1M88 90h1M90 90h1M94 90h2M109 90h1M10 91h2M15 91h1M20 91h3M24 91h1M27 91h2M32 91h4M41 91h2M45 91h1M48 91h3M53 91h2M57 91h1M59 91h1M63 91h2M66 91h1M68 91h2M80 91h1M82 91h1M85 91h1M88 91h4M94 91h4M101 91h1" />
<path stroke="#023009" d="M14 90h1M20 90h2M42 90h1M45 90h1M50 90h1M53 90h1M101 90h1M8 91h1M17 91h1M29 91h1M38 91h1M43 91h1M71 91h1M74 91h1M77 91h1M83 91h2M87 91h1M106 91h1" />
<path stroke="#026212" d="M16 90h1M23 90h1M79 90h1M100 90h1" />
<path stroke="#01300a" d="M17 90h1M25 90h1M34 90h1M54 90h1M61 90h2M66 90h1M106 90h1" />
<path stroke="#02300a" d="M29 90h1M56 90h1M81 90h1" />
<path stroke="#026014" d="M30 90h1M107 90h1" />
<path stroke="#01310a" d="M40 90h1M46 90h1M57 90h1M74 90h1M83 90h1M96 90h1M98 90h1" />
<path stroke="#02310a" d="M43 90h1M97 90h1M108 90h1" />
<path stroke="#046212" d="M51 90h1M86 90h1" />
<path stroke="#026214" d="M72 90h1" />
<path stroke="#012f09" d="M7 91h1M12 91h2M19 91h1M25 91h1M31 91h1M36 91h1M46 91h2M55 91h2M60 91h1M62 91h1M67 91h1M70 91h1M73 91h1M75 91h1M78 91h1M81 91h1M98 91h2M102 91h1M105 91h1M108 91h2" />
<path stroke="#022f09" d="M14 91h1M18 91h1M26 91h1M39 91h2M52 91h1M76 91h1M92 91h1" />
<path stroke="#025e12" d="M16 91h1M30 91h1M37 91h1M51 91h1M65 91h1M72 91h1M86 91h1M93 91h1M100 91h1" />
<path stroke="#046012" d="M44 91h1M79 91h1" />
<path stroke="#045e12" d="M58 91h1" />
<path stroke="#012f08" d="M61 91h1M103 91h2M15 92h1M35 92h1" />
<path stroke="#012e08" d="M7 92h2M10 92h2M13 92h2M17 92h5M24 92h6M31 92h4M36 92h1M38 92h5M45 92h2M48 92h1M50 92h1M52 92h6M59 92h2M62 92h3M66 92h5M73 92h4M78 92h1M81 92h5M87 92h3M91 92h2M94 92h4M102 92h1M106 92h1M108 92h1" />
<path stroke="#025c10" d="M9 92h1M16 92h1M23 92h1M44 92h1M51 92h1M58 92h1M65 92h1M72 92h1M79 92h1M93 92h1M100 92h1M107 92h1" />
<path stroke="#012e09" d="M12 92h1M22 92h1M43 92h1M49 92h1M61 92h1M71 92h1M77 92h1M80 92h1M90 92h1M98 92h2M101 92h1M103 92h3M109 92h1" />
<path stroke="#025e10" d="M30 92h1" />
<path stroke="#025c12" d="M37 92h1M86 92h1" />
<path stroke="#002e08" d="M47 92h1" />
<path stroke="#002d08" d="M7 93h1M24 93h1M29 93h1M48 93h1M76 93h1" />
<path stroke="#012c07" d="M8 93h1M13 93h1M18 93h1M20 93h1M22 93h1M49 93h1M52 93h1M60 93h1M62 93h1M66 93h1M71 93h1M89 93h1M91 93h2M96 93h1M101 93h2M106 93h1M109 93h1" />
<path stroke="#02580e" d="M9 93h1M72 93h1M79 93h1M10 94h1M12 94h1M16 94h1M26 94h1M85 94h1M87 94h1M89 94h2M95 94h1M101 94h1M106 94h1M109 94h1" />
<path stroke="#012d07" d="M10 93h2M19 93h1M36 93h1M39 93h1M46 93h1M57 93h1M67 93h2M80 93h1M87 93h2M90 93h1M103 93h2M108 93h1" />
<path stroke="#012c08" d="M12 93h1M14 93h1M25 93h1M34 93h2M43 93h1M53 93h2M63 93h1M69 93h2M73 93h1M75 93h1M85 93h1" />
<path stroke="#012d08" d="M15 93h1M17 93h1M21 93h1M27 93h1M32 93h1M38 93h1M40 93h2M45 93h1M47 93h1M50 93h1M56 93h1M59 93h1M61 93h1M77 93h1M81 93h1M83 93h2M95 93h1M97 93h1M99 93h1" />
<path stroke="#025a0e" d="M16 93h1M44 93h1M58 93h1" />
<path stroke="#00580e" d="M23 93h1M107 93h1M24 94h1M44 94h1M55 94h1M59 94h1" />
<path stroke="#002c07" d="M26 93h1M31 93h1M55 93h1M74 93h1M82 93h1" />
<path stroke="#002d07" d="M28 93h1M33 93h1M42 93h1M94 93h1M98 93h1M105 93h1" />
<path stroke="#025810" d="M30 93h1M37 93h1M86 93h1" />
<path stroke="#005a10" d="M51 93h1" />
<path stroke="#002c08" d="M64 93h1M78 93h1" />
<path stroke="#005a0e" d="M65 93h1" />
<path stroke="#025a10" d="M93 93h1M100 93h1" />
<path stroke="#02560e" d="M7 94h3M17 94h1M19 94h1M23 94h1M25 94h1M28 94h1M30 94h3M34 94h1M36 94h1M38 94h2M46 94h1M52 94h3M56 94h3M60 94h1M63 94h1M65 94h1M70 94h2M73 94h2M76 94h1M78 94h2M82 94h1M84 94h1M93 94h1M98 94h1M103 94h1M107 94h2M37 95h1M100 95h1" />
<path stroke="#00560e" d="M11 94h1M13 94h3M18 94h1M20 94h3M27 94h1M29 94h1M33 94h1M37 94h1M40 94h1M42 94h1M45 94h1M47 94h5M61 94h2M64 94h1M66 94h4M72 94h1M75 94h1M77 94h1M80 94h2M83 94h1M86 94h1M88 94h1M91 94h2M96 94h2M99 94h2M102 94h1M105 94h1M30 95h1" />
<path stroke="#00560c" d="M35 94h1M41 94h1M43 94h1M104 94h1M58 95h1M65 95h1M93 95h1M107 95h1" />
<path stroke="#02560c" d="M94 94h1" />
<path stroke="#012b06" d="M7 95h1M31 95h1M35 95h1M60 95h1M95 95h1M97 95h1M105 95h1" />
<path stroke="#002a07" d="M8 95h1M20 95h1M26 95h1M42 95h1M50 95h1M67 95h2M73 95h2M80 95h1M91 95h2M102 95h2M109 95h1M27 96h1M92 96h1" />
<path stroke="#00540e" d="M9 95h1M16 95h1M44 95h1" />
<path stroke="#012a07" d="M10 95h1M13 95h1M18 95h1M38 95h1M40 95h1M48 95h1M53 95h1M64 95h1M71 95h1M78 95h1M85 95h1M94 95h1M99 95h1" />
<path stroke="#002a06" d="M11 95h1M15 95h1M25 95h1M39 95h1M47 95h1M55 95h1M57 95h1M77 95h1M81 95h2M87 95h1M89 95h2M101 95h1M7 96h1M14 96h1M31 96h1M36 96h1M40 96h1M48 96h1M70 96h1M73 96h1M84 96h1M98 96h1" />
<path stroke="#012a06" d="M12 95h1M19 95h1M36 95h1M45 95h1M54 95h1M62 95h1M66 95h1M83 95h1M98 95h1M104 95h1M108 95h1M11 96h1M33 96h2M53 96h1M59 96h1M69 96h1M102 96h1M106 96h1" />
<path stroke="#002b07" d="M14 95h1M17 95h1M22 95h1M28 95h1M34 95h1M61 95h1M63 95h1M70 95h1M75 95h1M88 95h1M96 95h1" />
<path stroke="#002b06" d="M21 95h1M24 95h1M29 95h1M33 95h1M41 95h1M43 95h1M49 95h1M52 95h1M56 95h1M59 95h1M69 95h1M106 95h1" />
<path stroke="#02540c" d="M23 95h1M44 96h1" />
<path stroke="#012b07" d="M27 95h1M32 95h1M46 95h1M76 95h1M84 95h1" />
<path stroke="#00540c" d="M51 95h1M30 96h1M107 96h1" />
<path stroke="#02540e" d="M72 95h1M79 95h1M86 95h1" />
<path stroke="#002906" d="M8 96h1M10 96h1M12 96h2M15 96h1M17 96h1M19 96h1M21 96h1M24 96h3M28 96h2M32 96h1M38 96h2M41 96h2M46 96h2M49 96h1M54 96h1M56 96h2M60 96h3M64 96h1M67 96h1M71 96h1M75 96h2M78 96h1M82 96h1M87 96h4M94 96h1M96 96h2M99 96h1M101 96h1M103 96h1M105 96h1M109 96h1M24 97h1M29 97h1M40 97h1" />
<path stroke="#02520c" d="M9 96h1M86 96h1" />
<path stroke="#00520c" d="M16 96h1M23 96h1M37 96h1M51 96h1M58 96h1M65 96h1M72 96h1M79 96h1M93 96h1M100 96h1" />
<path stroke="#012906" d="M18 96h1M20 96h1M22 96h1M35 96h1M43 96h1M45 96h1M50 96h1M52 96h1M55 96h1M63 96h1M66 96h1M68 96h1M74 96h1M77 96h1M80 96h2M83 96h1M85 96h1M91 96h1M95 96h1M104 96h1M108 96h1" />
<path stroke="#002806" d="M7 97h1M10 97h4M15 97h1M18 97h2M21 97h2M34 97h1M41 97h1M47 97h1M49 97h1M52 97h1M55 97h2M59 97h2M62 97h1M64 97h1M67 97h1M69 97h2M73 97h2M78 97h1M82 97h4M88 97h1M90 97h1M94 97h1M96 97h2M99 97h1M101 97h1M103 97h1" />
<path stroke="#002805" d="M8 97h1M20 97h1M25 97h1M27 97h2M32 97h1M36 97h1M38 97h2M42 97h2M45 97h2M48 97h1M53 97h1M57 97h1M63 97h1M68 97h1M75 97h3M80 97h2M89 97h1M91 97h2M95 97h1M98 97h1M102 97h1M104 97h2M108 97h2" />
<path stroke="#00500a" d="M9 97h1M23 97h1M30 97h1M37 97h1M79 97h1M93 97h1" />
<path stroke="#012805" d="M14 97h1M26 97h1M31 97h1M35 97h1M50 97h1M66 97h1M106 97h1" />
<path stroke="#012806" d="M17 97h1M33 97h1M61 97h1M71 97h1" />
<path stroke="#002905" d="M54 97h1M87 97h1" />
<path stroke="#02500c" d="M72 97h1" />
<path stroke="#f8f8f8" d="M8 129h2M11 129h3M16 129h2M19 129h1M7 130h1M11 130h1M15 130h1M8 131h1M11 131h3M15 131h1M9 132h1M11 132h1M15 132h1M7 133h2M11 133h3M16 133h2M19 133h1M8 138h2M11 138h1M13 138h1M15 138h2M19 138h1M7 139h1M11 139h1M13 139h1M15 139h1M17 139h1M8 140h1M11 140h1M13 140h1M15 140h2M9 141h1M11 141h1M13 141h1M15 141h1M17 141h1M7 142h2M11 142h3M15 142h2M19 142h1M5 147h1M7 147h1M9 147h1M11 147h1M13 147h1M16 147h2M19 147h1M5 148h1M7 148h1M9 148h1M11 148h1M13 148h1M15 148h1M5 149h1M7 149h1M9 149h1M11 149h1M13 149h1M16 149h1M5 150h1M7 150h1M9 150h1M11 150h1M13 150h1M17 150h1M6 151h1M10 151h1M12 151h1M15 151h2M19 151h1M8 156h2M11 156h3M15 156h3M19 156h1M7 157h1M13 157h1M15 157h1M8 158h1M12 158h1M15 158h3M9 159h1M11 159h1M15 159h1M7 160h2M11 160h3M15 160h3M19 160h1M23 165h1M25 165h2M29 165h1M34 165h1M36 165h1M38 165h1M41 165h1M43 165h1M46 165h2M49 165h1M52 165h1M56 165h1M59 165h1M63 165h1M65 165h2M68 165h1M71 165h1M73 165h1M76 165h1M78 165h2M81 165h1M85 165h1M90 165h1M92 165h1M23 166h1M26 166h1M28 166h2M31 166h2M34 166h1M36 166h1M40 166h2M43 166h1M45 166h1M47 166h1M49 166h2M52 166h1M54 166h1M56 166h1M58 166h2M61 166h1M63 166h2M66 166h1M68 166h2M71 166h1M73 166h2M76 166h1M78 166h1M80 166h2M83 166h1M85 166h1M87 166h1M89 166h2M92 166h1M23 168h1M26 168h2M29 168h1M32 168h1M34 168h2M37 168h1M40 168h1M42 168h2M45 168h1M50 168h1M52 168h1M54 168h1M56 168h2M59 168h2M64 168h1M67 168h1M69 168h2M73 168h1M75 168h1M77 168h1M80 168h1M84 168h2M87 168h2M90 168h1M92 168h1M23 169h2M27 169h1M29 169h1M31 169h2M37 169h2M40 169h1M43 169h1M45 169h1M47 169h2M50 169h1M52 169h2M56 169h2M59 169h1M62 169h1M64 169h1M66 169h2M69 169h2M72 169h2M77 169h2M80 169h1M82 169h1M85 169h1M87 169h2M90 169h1" />
<path stroke="#0c8af2" d="M0 175h1M116 175h1M0 176h2M3 176h4M9 176h3M13 176h3M17 176h1M19 176h4M24 176h3M28 176h2M31 176h4M36 176h2M40 176h3M44 176h3M48 176h5M54 176h4M59 176h5M65 176h7M73 176h3M77 176h2M80 176h4M85 176h4M90 176h5M96 176h2M99 176h1M101 176h3M105 176h3M110 176h4M115 176h2M0 177h1M116 177h1M0 178h1M116 178h1M0 179h1M116 179h1M0 180h1M116 180h1M0 181h1M116 181h1M0 182h1M116 182h1M0 183h1M116 183h1M0 184h1M116 184h1M0 185h1M116 185h1M1 186h1M115 186h1M4 187h2M8 187h2M12 187h2M16 187h2M20 187h2M24 187h3M28 187h3M33 187h2M36 187h2M40 187h2M44 187h1M46 187h3M51 187h2M55 187h3M59 187h3M64 187h2M68 187h8M78 187h2M82 187h2M85 187h4M91 187h3M95 187h2M99 187h2M103 187h2M107 187h2M111 187h2" />
<path stroke="#3e33b7" d="M2 176h1M12 176h1M16 176h1M18 176h1M23 176h1M27 176h1M30 176h1M35 176h1M38 176h2M43 176h1M47 176h1M53 176h1M58 176h1M64 176h1M72 176h1M76 176h1M79 176h1M84 176h1M89 176h1M95 176h1M98 176h1M100 176h1M104 176h1M114 176h1M3 177h1M22 177h1M27 177h1M30 177h1M35 177h1M43 177h1M74 177h1M76 177h2M89 177h1M95 177h1M113 177h1M4 178h1M12 178h1M16 178h1M18 178h1M22 178h1M26 178h1M34 178h1M39 178h1M44 178h1M74 178h1M77 178h1M79 178h1M85 178h1M88 178h1M94 178h1M98 178h1M100 178h1M104 178h1M112 178h1M5 179h1M11 179h1M15 179h1M18 179h1M22 179h1M27 179h1M31 179h1M34 179h1M38 179h1M44 179h1M74 179h1M77 179h3M84 179h2M88 179h3M94 179h1M98 179h1M101 179h1M105 179h1M111 179h1M6 180h1M110 180h1M7 181h1M11 181h1M14 181h1M18 181h1M22 181h1M27 181h1M31 181h1M34 181h1M36 181h1M38 181h1M42 181h1M71 181h1M75 181h1M77 181h1M79 181h1M81 181h1M84 181h1M90 181h1M94 181h1M98 181h1M102 181h1M105 181h1M109 181h1M26 182h1M34 182h1M37 182h1M71 182h1M74 182h1M85 182h1M95 182h1M26 183h1M33 183h2M45 183h1M74 183h1M85 183h1M95 183h1M3 184h1M7 184h1M11 184h1M15 184h1M19 184h1M23 184h1M32 184h1M39 184h1M43 184h1M50 184h1M54 184h1M63 184h1M67 184h1M77 184h1M81 184h1M90 184h1M98 184h1M102 184h1M106 184h1M110 184h1M114 184h1M3 185h1M7 185h1M11 185h2M15 185h1M19 185h1M21 185h1M23 185h1M28 185h1M32 185h2M39 185h1M41 185h1M43 185h1M50 185h1M54 185h1M63 185h1M67 185h1M72 185h1M75 185h1M77 185h1M81 185h1M85 185h1M90 185h1M94 185h2M98 185h1M102 185h1M106 185h1M110 185h1M114 185h1M3 186h1M7 186h1M11 186h1M15 186h1M19 186h2M23 186h1M28 186h1M32 186h1M34 186h1M39 186h1M43 186h2M47 186h1M50 186h1M52 186h1M54 186h1M58 186h1M63 186h2M67 186h1M71 186h1M77 186h1M81 186h1M85 186h1M90 186h1M94 186h1M98 186h1M102 186h1M106 186h1M110 186h1M114 186h1M2 187h2M6 187h2M10 187h2M14 187h2M18 187h2M22 187h2M27 187h1M31 187h2M35 187h1M38 187h2M42 187h2M45 187h1M49 187h2M53 187h2M58 187h1M62 187h2M66 187h2M76 187h2M80 187h2M84 187h1M89 187h2M94 187h1M97 187h2M101 187h2M105 187h2M109 187h2M113 187h2" />
<path stroke="#eff5ff" d="M7 176h1M109 176h1M8 177h1M108 177h1M9 178h1M107 178h1M1 179h1M10 179h1M106 179h1M115 179h1M2 180h1M11 180h35M71 180h35M114 180h1M3 181h1M113 181h1M112 182h1M111 183h1M4 184h2M8 184h2M12 184h2M16 184h2M20 184h2M24 184h7M33 184h5M40 184h2M44 184h2M71 184h5M78 184h2M82 184h7M91 184h6M99 184h2M103 184h2M107 184h2" />
<path stroke="#0058f2" d="M8 176h1M108 176h1M1 177h2M4 177h4M9 177h3M13 177h1M15 177h1M17 177h1M19 177h3M23 177h3M28 177h2M31 177h3M36 177h3M40 177h3M45 177h1M71 177h2M75 177h1M78 177h1M80 177h4M85 177h4M90 177h2M93 177h2M96 177h2M99 177h1M101 177h1M103 177h1M105 177h3M109 177h4M114 177h2M1 178h3M5 178h4M10 178h2M13 178h3M17 178h1M19 178h3M23 178h3M27 178h7M35 178h4M40 178h4M45 178h1M71 178h3M75 178h2M78 178h1M80 178h5M86 178h2M89 178h5M95 178h3M99 178h1M101 178h3M105 178h2M108 178h4M113 178h3M2 179h3M6 179h4M12 179h3M16 179h2M19 179h3M23 179h4M28 179h3M32 179h2M35 179h3M39 179h5M45 179h1M71 179h3M75 179h2M80 179h4M86 179h2M91 179h3M95 179h3M99 179h2M102 179h3M107 179h4M112 179h3M1 180h1M3 180h3M7 180h4M106 180h4M111 180h3M115 180h1M1 181h2M4 181h3M8 181h3M12 181h2M15 181h3M19 181h3M23 181h4M28 181h3M32 181h2M35 181h1M37 181h1M39 181h3M43 181h3M72 181h3M76 181h1M78 181h1M80 181h1M82 181h2M85 181h5M91 181h3M95 181h3M99 181h3M103 181h2M106 181h3M110 181h3M114 181h2M1 182h1M4 182h2M8 182h2M12 182h2M16 182h2M20 182h2M24 182h2M27 182h4M33 182h1M35 182h2M40 182h2M44 182h2M72 182h2M75 182h1M78 182h2M82 182h3M86 182h3M91 182h4M96 182h1M99 182h2M103 182h2M107 182h2M111 182h1M115 182h1M1 183h1M4 183h2M8 183h2M12 183h2M16 183h2M20 183h2M24 183h2M27 183h4M35 183h3M40 183h2M44 183h1M71 183h3M75 183h1M78 183h2M82 183h3M86 183h3M91 183h4M96 183h1M99 183h2M103 183h2M107 183h2M112 183h1M115 183h1M1 184h1M111 184h2M115 184h1M1 185h1M4 185h2M8 185h2M13 185h1M16 185h2M20 185h1M24 185h4M29 185h2M34 185h4M40 185h1M44 185h2M68 185h4M73 185h2M78 185h2M82 185h3M86 185h3M91 185h3M96 185h1M99 185h2M103 185h2M107 185h2M111 185h2M115 185h1M4 186h2M8 186h2M12 186h2M16 186h2M21 186h1M24 186h4M29 186h2M33 186h1M35 186h3M40 186h2M45 186h2M48 186h1M51 186h1M55 186h3M59 186h3M65 186h1M68 186h3M72 186h4M78 186h2M82 186h3M86 186h3M91 186h3M95 186h2M99 186h2M103 186h2M107 186h2M111 186h2" />
<path stroke="#12961a" d="M12 177h1M14 177h1M16 177h1M18 177h1M26 177h1M34 177h1M39 177h1M44 177h1M73 177h1M79 177h1M84 177h1M92 177h1M98 177h1M100 177h1M102 177h1M104 177h1M3 183h1M7 183h1M11 183h1M15 183h1M19 183h1M23 183h1M32 183h1M39 183h1M43 183h1M50 183h1M54 183h1M63 183h1M67 183h1M77 183h1M81 183h1M90 183h1M98 183h1M102 183h1M106 183h1M110 183h1M114 183h1" />
<path stroke="#282828" d="M46 177h25M46 178h1M52 178h1M58 178h1M61 178h1M64 178h1M70 178h1M46 179h1M52 179h1M58 179h1M61 179h1M64 179h1M70 179h1M46 180h1M50 180h3M55 180h4M64 180h1M67 180h1M70 180h1M46 181h1M52 181h1M55 181h1M58 181h2M63 181h2M67 181h1M70 181h1M46 182h3M52 182h1M55 182h1M58 182h1M64 182h1M70 182h1M46 183h1M52 183h1M58 183h1M61 183h1M64 183h1M70 183h1M46 184h1M52 184h1M58 184h1M61 184h1M64 184h1M68 184h3M46 185h3M51 185h2M55 185h7M64 185h2" />
<path stroke="#fcfcfc" d="M47 178h5M53 178h5M59 178h2M62 178h2M65 178h5M47 179h5M53 179h5M59 179h2M62 179h2M65 179h5M47 180h3M53 180h2M59 180h5M65 180h2M68 180h2M47 181h5M53 181h2M56 181h2M60 181h3M65 181h2M68 181h2M51 182h1M56 182h2M59 182h3M65 182h1M68 182h2M47 183h2M51 183h1M55 183h3M59 183h2M65 183h1M68 183h2M47 184h2M51 184h1M55 184h3M59 184h2M65 184h1" />
<path stroke="#626277" d="M2 182h2M6 182h2M10 182h2M14 182h2M18 182h2M22 182h2M31 182h2M38 182h2M42 182h2M49 182h2M53 182h2M62 182h2M66 182h2M76 182h2M80 182h2M89 182h2M97 182h2M101 182h2M105 182h2M109 182h2M113 182h2M2 183h1M6 183h1M10 183h1M14 183h1M18 183h1M22 183h1M31 183h1M38 183h1M42 183h1M49 183h1M53 183h1M62 183h1M66 183h1M76 183h1M80 183h1M89 183h1M97 183h1M101 183h1M105 183h1M109 183h1M113 183h1M2 184h1M6 184h1M10 184h1M14 184h1M18 184h1M22 184h1M31 184h1M38 184h1M42 184h1M49 184h1M53 184h1M62 184h1M66 184h1M76 184h1M80 184h1M89 184h1M97 184h1M101 184h1M105 184h1M109 184h1M113 184h1M2 185h1M6 185h1M10 185h1M14 185h1M18 185h1M22 185h1M31 185h1M38 185h1M42 185h1M49 185h1M53 185h1M62 185h1M66 185h1M76 185h1M80 185h1M89 185h1M97 185h1M101 185h1M105 185h1M109 185h1M113 185h1M2 186h1M6 186h1M10 186h1M14 186h1M18 186h1M22 186h1M31 186h1M38 186h1M42 186h1M49 186h1M53 186h1M62 186h1M66 186h1M76 186h1M80 186h1M89 186h1M97 186h1M101 186h1M105 186h1M109 186h1M113 186h1" />
</svg>