<svg xmlns="http://www.w3.org/2000/svg" viewBox="0 -0.5 116 160" shape-rendering="crispEdges">
<metadata>Made with Pixels to Svg https://codepen.io/shshaw/pen/XbxvNj</metadata>
<path stroke="#303036" d="M2 0h112M114 1h1M115 2h1M115 3h1M115 4h1M90 5h1M115 5h1M90 6h1M115 6h1M89 7h1M115 7h1M3 8h87M115 8h1M115 9h1M115 10h1M115 11h1M115 12h1M115 13h1M115 14h1M115 15h1M115 16h1M115 17h1M115 18h1M115 19h1M115 20h1M115 21h1M115 22h1M115 23h1M115 24h1M115 25h1M115 26h1M3 27h1M115 27h1M3 28h1M115 28h1M3 29h1M115 29h1M3 30h1M115 30h1M3 31h1M115 31h1M3 32h1M115 32h1M3 33h1M115 33h1M3 34h1M115 34h1M3 35h1M115 35h1M3 36h1M115 36h1M3 37h1M115 37h1M3 38h1M115 38h1M3 39h1M115 39h1M3 40h1M115 40h1M3 41h1M115 41h1M3 42h1M115 42h1M3 43h1M115 43h1M3 44h1M115 44h1M3 45h1M115 45h1M3 46h1M115 46h1M3 47h1M115 47h1M3 48h1M115 48h1M3 49h1M115 49h1M3 50h1M115 50h1M3 51h1M115 51h1M3 52h1M115 52h1M3 53h1M115 53h1M3 54h1M115 54h1M3 55h1M115 55h1M3 56h1M115 56h1M3 57h1M115 57h1M3 58h1M115 58h1M3 59h1M115 59h1M3 60h1M115 60h1M3 61h1M115 61h1M3 62h1M115 62h1M3 63h1M115 63h1M3 64h1M115 64h1M3 65h1M115 65h1M3 66h1M115 66h1M3 67h1M115 67h1M3 68h1M115 68h1M3 69h1M115 69h1M3 70h1M115 70h1M3 71h1M115 71h1M3 72h1M115 72h1M3 73h1M115 73h1M3 74h1M115 74h1M3 75h1M115 75h1M3 76h1M115 76h1M3 77h1M115 77h1M3 78h1M115 78h1M3 79h1M115 79h1M3 80h1M115 80h1M3 81h1M115 81h1M3 82h1M115 82h1M3 83h1M115 83h1M3 84h1M115 84h1M3 85h1M115 85h1M3 86h1M115 86h1M3 87h1M115 87h1M3 88h1M115 88h1M3 89h1M115 89h1M3 90h1M115 90h1M3 91h1M115 91h1M3 92h1M115 92h1M3 93h1M115 93h1M3 94h1M115 94h1M3 95h1M115 95h1M3 96h1M115 96h1M3 97h1M115 97h1M3 98h1M115 98h1M3 99h1M115 99h1M6 100h107M115 100h1M115 101h1M115 102h1M115 103h1M115 104h1M115 105h1M115 106h1M115 107h1M115 108h1M115 109h1M6 110h107M115 110h1M112 111h1M115 111h1M112 112h1M115 112h1M23 113h74M112 113h1M115 113h1M112 114h1M115 114h1M112 115h1M115 115h1M112 116h1M115 116h1M112 117h1M115 117h1M112 118h1M115 118h1M112 119h1M115 119h1M112 120h1M115 120h1M111 121h1M115 121h1M23 122h74M110 122h1M115 122h1M109 123h1M114 123h1M108 124h1M113 124h1M107 125h1M112 125h1M106 126h1M111 126h1M105 127h1M110 127h1M104 128h1M109 128h1M103 129h1M108 129h1M102 130h1M107 130h1M23 131h74M101 131h1M106 131h1M100 132h1M105 132h1M100 133h1M104 133h1M100 134h1M103 134h1M100 135h1M103 135h1M100 136h1M103 136h1M100 137h1M100 138h1M100 139h1M23 140h74M100 140h1M100 141h1M100 142h1M100 143h1M100 144h1M100 145h1M100 146h1M100 147h1M100 148h1M100 149h1M100 150h1M100 151h1M100 152h1M7 153h91M100 153h1M100 154h1M100 155h1M3 156h1M100 156h1M4 157h96" />
<path stroke="#1b1b1f" d="M1 1h1M0 2h1M0 3h1M0 4h1M5 4h86M0 5h1M4 5h86M0 6h1M4 6h86M0 7h1M4 7h85M0 8h1M0 9h1M0 10h1M3 10h1M112 10h1M0 11h1M3 11h1M112 11h1M0 12h1M3 12h1M112 12h1M0 13h1M3 13h1M112 13h1M0 14h1M3 14h1M112 14h1M0 15h1M3 15h1M112 15h1M0 16h1M3 16h1M112 16h1M0 17h1M3 17h1M112 17h1M0 18h1M3 18h1M112 18h1M0 19h1M3 19h1M112 19h1M0 20h1M3 20h1M112 20h1M0 21h1M3 21h1M112 21h1M0 22h1M3 22h1M112 22h1M0 23h1M3 23h1M112 23h1M0 24h1M3 24h1M112 24h1M0 25h1M3 25h1M112 25h1M0 26h1M0 27h1M4 27h2M111 27h2M0 28h1M4 28h2M111 28h2M0 29h1M4 29h2M111 29h2M0 30h1M4 30h2M111 30h2M0 31h1M4 31h2M111 31h2M0 32h1M4 32h2M111 32h2M0 33h1M4 33h2M111 33h2M0 34h1M4 34h2M111 34h2M0 35h1M4 35h2M111 35h2M0 36h1M4 36h2M111 36h2M0 37h1M4 37h2M111 37h2M0 38h1M4 38h2M111 38h2M0 39h1M4 39h2M111 39h2M0 40h1M4 40h2M111 40h2M0 41h1M4 41h2M111 41h2M0 42h1M4 42h2M111 42h2M0 43h1M4 43h2M111 43h2M0 44h1M4 44h2M111 44h2M0 45h1M4 45h2M111 45h2M0 46h1M4 46h2M111 46h2M0 47h1M4 47h2M111 47h2M0 48h1M4 48h2M111 48h2M0 49h1M4 49h2M111 49h2M0 50h1M4 50h2M111 50h2M0 51h1M4 51h2M111 51h2M0 52h1M4 52h2M111 52h2M0 53h1M4 53h2M111 53h2M0 54h1M4 54h2M111 54h2M0 55h1M4 55h2M111 55h2M0 56h1M4 56h2M111 56h2M0 57h1M4 57h2M111 57h2M0 58h1M4 58h2M111 58h2M0 59h1M4 59h2M111 59h2M0 60h1M4 60h2M111 60h2M0 61h1M4 61h2M111 61h2M0 62h1M4 62h2M111 62h2M0 63h1M4 63h2M111 63h2M0 64h1M4 64h2M111 64h2M0 65h1M4 65h2M111 65h2M0 66h1M4 66h2M111 66h2M0 67h1M4 67h2M111 67h2M0 68h1M4 68h2M111 68h2M0 69h1M4 69h2M111 69h2M0 70h1M4 70h2M111 70h2M0 71h1M4 71h2M111 71h2M0 72h1M4 72h2M111 72h2M0 73h1M4 73h2M111 73h2M0 74h1M4 74h2M111 74h2M0 75h1M4 75h2M111 75h2M0 76h1M4 76h2M111 76h2M0 77h1M4 77h2M111 77h2M0 78h1M4 78h2M111 78h2M0 79h1M4 79h2M111 79h2M0 80h1M4 80h2M111 80h2M0 81h1M4 81h2M111 81h2M0 82h1M4 82h2M111 82h2M0 83h1M4 83h2M111 83h2M0 84h1M4 84h2M111 84h2M0 85h1M4 85h2M111 85h2M0 86h1M4 86h2M111 86h2M0 87h1M4 87h2M111 87h2M0 88h1M4 88h2M111 88h2M0 89h1M4 89h2M111 89h2M0 90h1M4 90h2M111 90h2M0 91h1M4 91h2M111 91h2M0 92h1M4 92h2M111 92h2M0 93h1M4 93h2M111 93h2M0 94h1M4 94h2M111 94h2M0 95h1M4 95h2M111 95h2M0 96h1M4 96h2M111 96h2M0 97h1M4 97h2M111 97h2M0 98h1M4 98h2M111 98h2M0 99h1M4 99h2M111 99h2M0 100h1M0 101h1M3 101h1M112 101h1M0 102h1M3 102h1M112 102h1M0 103h1M3 103h1M112 103h1M0 104h1M3 104h1M112 104h1M0 105h1M3 105h1M112 105h1M0 106h1M3 106h1M112 106h1M0 107h1M3 107h1M112 107h1M0 108h1M3 108h1M112 108h1M0 109h1M3 109h1M112 109h1M0 110h1M0 111h1M4 111h108M0 112h1M4 112h108M0 113h1M4 113h18M98 113h14M0 114h1M4 114h18M98 114h14M0 115h1M4 115h4M15 115h1M19 115h3M98 115h14M0 116h1M4 116h3M9 116h2M13 116h2M17 116h5M98 116h14M0 117h1M4 117h4M10 117h1M17 117h5M98 117h14M0 118h1M4 118h5M13 118h2M17 118h5M98 118h14M0 119h1M4 119h3M10 119h1M15 119h1M19 119h3M98 119h14M0 120h1M4 120h18M98 120h14M0 121h1M4 121h107M0 122h1M4 122h18M98 122h12M0 123h1M4 123h18M98 123h11M0 124h1M4 124h4M19 124h3M98 124h10M0 125h1M4 125h3M9 125h4M17 125h5M98 125h9M0 126h1M4 126h4M10 126h2M14 126h1M19 126h3M98 126h8M0 127h1M4 127h5M13 127h2M17 127h5M98 127h7M0 128h1M4 128h3M10 128h1M19 128h3M98 128h6M0 129h1M4 129h18M98 129h5M0 130h1M4 130h98M0 131h1M4 131h18M98 131h3M0 132h1M4 132h18M98 132h2M0 133h1M4 133h3M17 133h1M21 133h1M98 133h2M0 134h1M4 134h3M19 134h3M98 134h2M0 135h1M4 135h3M17 135h1M20 135h2M98 135h2M0 136h1M4 136h3M17 136h2M21 136h1M98 136h2M0 137h1M4 137h4M10 137h2M16 137h1M20 137h2M98 137h2M103 137h1M0 138h1M4 138h18M98 138h2M103 138h1M0 139h1M4 139h96M103 139h1M0 140h1M4 140h18M98 140h2M103 140h1M0 141h1M4 141h18M98 141h2M103 141h1M0 142h1M4 142h4M18 142h4M98 142h2M103 142h1M0 143h1M4 143h3M9 143h2M19 143h3M98 143h2M103 143h1M0 144h1M4 144h4M10 144h1M18 144h4M98 144h2M103 144h1M0 145h1M4 145h5M19 145h3M98 145h2M103 145h1M0 146h1M4 146h3M10 146h1M18 146h4M98 146h2M103 146h1M0 147h1M4 147h18M98 147h2M103 147h1M0 148h1M4 148h96M103 148h1M0 149h1M4 149h96M103 149h1M0 150h1M4 150h96M103 150h1M0 151h1M4 151h3M98 151h2M103 151h1M0 152h1M4 152h3M98 152h2M103 152h1M0 153h1M4 153h3M98 153h2M103 153h1M0 154h1M4 154h3M98 154h2M103 154h1M0 155h1M4 155h3M98 155h2M103 155h1M0 156h1M4 156h96M103 156h1M0 157h1M103 157h1M1 158h1M103 158h1M2 159h101" />
<path stroke="#4b4b54" d="M2 1h112M1 2h114M1 3h3M112 3h3M1 4h2M4 4h1M91 4h1M113 4h2M1 5h2M113 5h2M1 6h2M113 6h2M1 7h2M113 7h2M1 8h2M113 8h2M1 9h114M1 10h2M113 10h2M1 11h2M113 11h2M1 12h2M113 12h2M1 13h2M113 13h2M1 14h2M113 14h2M1 15h2M113 15h2M1 16h2M113 16h2M1 17h2M113 17h2M1 18h2M113 18h2M1 19h2M113 19h2M1 20h2M113 20h2M1 21h2M113 21h2M1 22h2M113 22h2M1 23h2M113 23h2M1 24h2M113 24h2M1 25h2M113 25h2M1 26h114M1 27h2M113 27h2M1 28h2M113 28h2M1 29h2M113 29h2M1 30h2M113 30h2M1 31h2M113 31h2M1 32h2M113 32h2M1 33h2M113 33h2M1 34h2M113 34h2M1 35h2M113 35h2M1 36h2M113 36h2M1 37h2M113 37h2M1 38h2M113 38h2M1 39h2M113 39h2M1 40h2M113 40h2M1 41h2M113 41h2M1 42h2M113 42h2M1 43h2M113 43h2M1 44h2M113 44h2M1 45h2M113 45h2M1 46h2M113 46h2M1 47h2M113 47h2M1 48h2M113 48h2M1 49h2M113 49h2M1 50h2M113 50h2M1 51h2M113 51h2M1 52h2M113 52h2M1 53h2M113 53h2M1 54h2M113 54h2M1 55h2M113 55h2M1 56h2M113 56h2M1 57h2M113 57h2M1 58h2M113 58h2M1 59h2M113 59h2M1 60h2M113 60h2M1 61h2M113 61h2M1 62h2M113 62h2M1 63h2M113 63h2M1 64h2M113 64h2M1 65h2M113 65h2M1 66h2M113 66h2M1 67h2M113 67h2M1 68h2M113 68h2M1 69h2M113 69h2M1 70h2M113 70h2M1 71h2M113 71h2M1 72h2M113 72h2M1 73h2M113 73h2M1 74h2M113 74h2M1 75h2M113 75h2M1 76h2M113 76h2M1 77h2M113 77h2M1 78h2M113 78h2M1 79h2M113 79h2M1 80h2M113 80h2M1 81h2M113 81h2M1 82h2M113 82h2M1 83h2M113 83h2M1 84h2M113 84h2M1 85h2M113 85h2M1 86h2M113 86h2M1 87h2M113 87h2M1 88h2M113 88h2M1 89h2M113 89h2M1 90h2M113 90h2M1 91h2M113 91h2M1 92h2M113 92h2M1 93h2M113 93h2M1 94h2M113 94h2M1 95h2M113 95h2M1 96h2M113 96h2M1 97h2M113 97h2M1 98h2M113 98h2M1 99h2M113 99h2M1 100h5M113 100h2M1 101h2M113 101h2M1 102h2M113 102h2M1 103h2M113 103h2M1 104h2M113 104h2M1 105h2M113 105h2M1 106h2M113 106h2M1 107h2M113 107h2M1 108h2M113 108h2M1 109h2M113 109h2M1 110h5M113 110h2M1 111h2M113 111h2M1 112h2M113 112h2M1 113h2M113 113h2M1 114h2M113 114h2M1 115h2M10 115h1M14 115h1M18 115h1M113 115h2M1 116h2M8 116h1M12 116h1M16 116h1M113 116h2M1 117h2M9 117h1M14 117h1M16 117h1M113 117h2M1 118h2M10 118h1M12 118h1M16 118h1M113 118h2M1 119h2M9 119h1M14 119h1M18 119h1M113 119h2M1 120h2M113 120h2M1 121h2M112 121h3M1 122h2M111 122h4M1 123h2M110 123h4M1 124h2M10 124h1M14 124h1M18 124h1M109 124h4M1 125h2M8 125h1M14 125h1M16 125h1M108 125h4M1 126h2M9 126h1M13 126h1M18 126h1M107 126h4M1 127h2M10 127h1M12 127h1M16 127h1M106 127h4M1 128h2M9 128h1M14 128h1M18 128h1M105 128h4M1 129h2M104 129h4M1 130h2M103 130h4M1 131h2M102 131h4M1 132h2M101 132h4M1 133h2M8 133h1M10 133h1M12 133h1M14 133h1M16 133h1M20 133h1M101 133h3M1 134h2M8 134h1M10 134h1M12 134h1M14 134h1M16 134h1M18 134h1M101 134h2M1 135h2M8 135h1M10 135h1M12 135h1M14 135h1M16 135h1M19 135h1M101 135h2M1 136h2M8 136h1M10 136h1M12 136h1M14 136h1M16 136h1M20 136h1M101 136h2M1 137h2M9 137h1M13 137h1M15 137h1M19 137h1M101 137h2M1 138h2M101 138h2M1 139h2M101 139h2M1 140h2M101 140h2M1 141h2M101 141h2M1 142h2M10 142h1M12 142h1M14 142h1M17 142h1M101 142h2M1 143h2M8 143h1M12 143h1M14 143h1M16 143h1M18 143h1M101 143h2M1 144h2M9 144h1M12 144h1M14 144h1M17 144h1M101 144h2M1 145h2M10 145h1M12 145h1M14 145h1M16 145h1M18 145h1M101 145h2M1 146h2M9 146h1M14 146h1M17 146h1M101 146h2M1 147h2M101 147h2M1 148h2M101 148h2M1 149h2M101 149h2M1 150h2M101 150h2M1 151h2M8 151h1M11 151h2M14 151h4M19 151h1M21 151h1M23 151h2M26 151h1M28 151h2M32 151h1M34 151h2M37 151h3M41 151h2M44 151h3M48 151h1M51 151h1M53 151h2M56 151h1M58 151h2M61 151h1M64 151h1M67 151h1M70 151h2M73 151h4M78 151h1M80 151h1M82 151h2M85 151h1M87 151h2M91 151h1M93 151h2M96 151h2M101 151h2M1 152h2M8 152h2M11 152h1M14 152h1M17 152h1M19 152h1M21 152h3M26 152h1M28 152h1M30 152h1M32 152h1M35 152h1M37 152h1M39 152h1M41 152h1M44 152h1M46 152h1M49 152h1M51 152h1M54 152h1M56 152h1M59 152h1M61 152h1M63 152h1M67 152h2M70 152h1M73 152h1M76 152h1M78 152h1M80 152h3M85 152h1M87 152h1M89 152h1M91 152h1M94 152h1M96 152h1M101 152h2M1 153h2M101 153h2M1 154h2M8 154h2M12 154h1M14 154h2M17 154h1M20 154h1M22 154h2M25 154h1M28 154h1M30 154h4M35 154h1M37 154h1M39 154h1M42 154h1M45 154h3M49 154h2M52 154h1M55 154h2M58 154h1M60 154h1M62 154h2M65 154h1M67 154h2M71 154h1M73 154h2M76 154h1M79 154h1M81 154h2M84 154h1M87 154h1M89 154h4M94 154h1M96 154h1M101 154h2M1 155h2M9 155h2M12 155h1M14 155h1M17 155h4M23 155h1M25 155h2M28 155h1M30 155h1M33 155h1M35 155h1M38 155h2M42 155h1M44 155h2M47 155h1M49 155h1M52 155h1M55 155h1M58 155h3M63 155h1M65 155h1M68 155h2M71 155h1M73 155h1M76 155h4M82 155h1M84 155h2M87 155h1M89 155h1M92 155h1M94 155h1M97 155h1M101 155h2M1 156h2M101 156h2M1 157h3M100 157h3M2 158h101" />
<path stroke="#7d7d8c" d="M4 3h88M3 4h1M3 5h1M3 6h1M3 7h1M3 111h1M3 112h1M3 113h1M3 114h1M3 115h1M3 116h1M3 117h1M3 118h1M3 119h1M3 120h1M3 121h1M3 122h1M3 123h1M3 124h1M3 125h1M3 126h1M3 127h1M3 128h1M3 129h1M3 130h1M3 131h1M3 132h1M3 133h1M3 134h1M3 135h1M3 136h1M3 137h1M3 138h1M3 139h1M3 140h1M3 141h1M3 142h1M3 143h1M3 144h1M3 145h1M3 146h1M3 147h1M3 148h1M3 149h1M3 150h1M3 151h1M3 152h1M3 153h1M3 154h1M3 155h1" />
<path stroke="#c4471d" d="M92 3h1M111 3h1M112 4h1M91 5h1M90 7h1M90 8h23" />
<path stroke="#f06020" d="M93 3h18M92 4h20M92 5h21M91 6h22M91 7h22M113 126h1M112 127h1M111 128h1M112 131h1M111 133h1M105 137h1M111 137h1M105 139h1M105 141h1M111 141h1M105 143h1M105 145h1M111 145h1M105 147h1M111 149h1M111 153h1M111 157h1" />
<path stroke="#000000" d="M4 10h108M4 11h108M4 12h108M4 13h108M4 14h108M4 15h108M4 16h108M4 17h108M4 18h108M4 19h108M4 20h108M4 21h108M4 22h108M4 23h108M4 24h108M4 25h108M6 27h105M6 28h1M110 28h1M6 29h1M110 29h1M6 30h1M110 30h1M6 31h1M110 31h1M6 32h1M110 32h1M6 33h1M110 33h1M6 34h1M110 34h1M6 35h1M110 35h1M6 36h1M110 36h1M6 37h1M110 37h1M6 38h1M110 38h1M6 39h1M110 39h1M6 40h1M110 40h1M6 41h1M110 41h1M6 42h1M110 42h1M6 43h1M110 43h1M6 44h1M110 44h1M6 45h1M110 45h1M6 46h1M110 46h1M6 47h1M110 47h1M6 48h1M110 48h1M6 49h1M110 49h1M6 50h1M110 50h1M6 51h1M110 51h1M6 52h1M110 52h1M6 53h1M110 53h1M6 54h1M110 54h1M6 55h1M110 55h1M6 56h1M110 56h1M6 57h1M110 57h1M6 58h1M110 58h1M6 59h1M110 59h1M6 60h1M110 60h1M6 61h1M110 61h1M6 62h1M110 62h1M6 63h1M110 63h1M6 64h1M110 64h1M6 65h1M110 65h1M6 66h1M110 66h1M6 67h1M110 67h1M6 68h1M110 68h1M6 69h1M110 69h1M6 70h1M110 70h1M6 71h1M110 71h1M6 72h1M110 72h1M6 73h1M110 73h1M6 74h1M110 74h1M6 75h1M110 75h1M6 76h1M110 76h1M6 77h1M110 77h1M6 78h1M110 78h1M6 79h1M110 79h1M6 80h1M110 80h1M6 81h1M110 81h1M6 82h1M110 82h1M6 83h1M110 83h1M6 84h1M110 84h1M6 85h1M110 85h1M6 86h1M110 86h1M6 87h1M110 87h1M6 88h1M110 88h1M6 89h1M110 89h1M6 90h1M110 90h1M6 91h1M110 91h1M6 92h1M110 92h1M6 93h1M110 93h1M6 94h1M110 94h1M6 95h1M110 95h1M6 96h1M110 96h1M6 97h1M110 97h1M6 98h1M110 98h1M6 99h105M4 101h108M4 102h108M4 103h108M4 104h108M4 105h108M4 106h108M4 107h108M4 108h108M4 109h108M22 113h1M97 113h1M22 114h1M97 114h1M22 115h1M97 115h1M22 116h1M97 116h1M22 117h1M97 117h1M22 118h1M97 118h1M22 119h1M97 119h1M22 120h76M22 122h1M97 122h1M22 123h1M97 123h1M22 124h1M97 124h1M22 125h1M97 125h1M22 126h1M97 126h1M22 127h1M97 127h1M22 128h1M97 128h1M22 129h76M22 131h1M97 131h1M22 132h1M97 132h1M22 133h1M97 133h1M22 134h1M97 134h1M22 135h1M97 135h1M22 136h1M97 136h1M22 137h1M97 137h1M22 138h76M22 140h1M97 140h1M22 141h1M97 141h1M22 142h1M97 142h1M22 143h1M97 143h1M22 144h1M97 144h1M22 145h1M97 145h1M22 146h1M97 146h1M22 147h76" />
<path stroke="#12a740" d="M7 28h1M12 28h1M19 28h1M22 28h1M27 28h1M33 28h1M38 28h6M45 28h2M52 28h3M56 28h1M59 28h1M67 28h1M70 28h1M76 28h3M80 28h2M85 28h1M92 28h1M94 28h1M96 28h1M102 28h2M105 28h1M7 29h1M12 29h1M19 29h1M22 29h1M27 29h1M33 29h1M38 29h6M45 29h2M52 29h3M56 29h1M59 29h1M67 29h1M70 29h1M76 29h3M80 29h2M85 29h1M92 29h1M94 29h1M96 29h1M102 29h2M105 29h1" />
<path stroke="#11a73f" d="M8 28h1M11 28h1M29 28h1M34 28h1M49 28h1M62 28h1M74 28h1M82 28h1M87 28h1M8 29h1M11 29h1M29 29h1M34 29h1M49 29h1M62 29h1M74 29h1M82 29h1M87 29h1" />
<path stroke="#24ff80" d="M9 28h1M16 28h1M51 28h1M58 28h1M65 28h1M72 28h1M9 29h1M16 29h1M51 29h1M58 29h1M65 29h1M72 29h1" />
<path stroke="#12a73f" d="M10 28h1M14 28h1M17 28h2M20 28h2M26 28h1M28 28h1M32 28h1M35 28h2M48 28h1M50 28h1M55 28h1M57 28h1M60 28h1M63 28h2M68 28h2M73 28h1M75 28h1M83 28h2M89 28h3M95 28h1M98 28h1M104 28h1M108 28h2M10 29h1M14 29h1M17 29h2M20 29h2M26 29h1M28 29h1M32 29h1M35 29h2M48 29h1M50 29h1M55 29h1M57 29h1M60 29h1M63 29h2M68 29h2M73 29h1M75 29h1M83 29h2M89 29h3M95 29h1M98 29h1M104 29h1M108 29h2" />
<path stroke="#12a63f" d="M13 28h1M25 28h1M47 28h1M66 28h1M13 29h1M25 29h1M47 29h1M66 29h1M7 30h2M10 30h2M13 30h3M18 30h2M24 30h1M26 30h1M28 30h2M32 30h1M34 30h3M38 30h1M41 30h1M43 30h1M45 30h1M47 30h1M53 30h1M57 30h1M59 30h1M61 30h3M66 30h1M68 30h1M70 30h2M73 30h2M76 30h2M80 30h1M88 30h1M90 30h1M95 30h4M102 30h2M108 30h1" />
<path stroke="#11a740" d="M15 28h1M61 28h1M88 28h1M97 28h1M99 28h1M15 29h1M61 29h1M88 29h1M97 29h1M99 29h1" />
<path stroke="#22ff80" d="M23 28h1M86 28h1M23 29h1M86 29h1" />
<path stroke="#12a640" d="M24 28h1M31 28h1M101 28h1M24 29h1M31 29h1M101 29h1" />
<path stroke="#24ff7e" d="M30 28h1M37 28h1M44 28h1M79 28h1M93 28h1M100 28h1M107 28h1M30 29h1M37 29h1M44 29h1M79 29h1M93 29h1M100 29h1M107 29h1M9 30h1M23 30h1M30 30h1M37 30h1M51 30h1M58 30h1M65 30h1M86 30h1M107 30h1M79 31h1" />
<path stroke="#11a640" d="M71 28h1M106 28h1M71 29h1M106 29h1" />
<path stroke="#11a63f" d="M12 30h1M17 30h1M22 30h1M25 30h1M27 30h1M42 30h1M48 30h1M52 30h1M56 30h1M64 30h1M83 30h3M92 30h1M101 30h1M104 30h1M109 30h1" />
<path stroke="#22ff7e" d="M16 30h1M79 30h1M93 30h1M100 30h1M23 31h1M37 31h1M44 31h1M51 31h1M72 31h1" />
<path stroke="#12a53f" d="M20 30h2M31 30h1M40 30h1M46 30h1M49 30h2M54 30h2M69 30h1M75 30h1M78 30h1M81 30h1M87 30h1M89 30h1M106 30h1M22 31h1M33 31h1M47 31h1M71 31h1M81 31h1M92 31h1M95 31h1M97 31h1M99 31h1" />
<path stroke="#12a63e" d="M33 30h1M91 30h1" />
<path stroke="#11a53f" d="M39 30h1M60 30h1M67 30h1M82 30h1M99 30h1M105 30h1M25 31h1M34 31h2M39 31h1M49 31h2M70 31h1M77 31h1M87 31h1M98 31h1M102 31h1" />
<path stroke="#22ff7c" d="M44 30h1M9 31h1M16 31h1M30 31h1M65 31h1M86 31h1M100 31h1M107 31h1M12 32h3M16 32h1M18 32h1M20 32h3M25 32h5M32 32h1M34 32h3M38 32h1M40 32h1M43 32h1M45 32h2M48 32h4M54 32h1M57 32h6M64 32h6M71 32h1M74 32h2M78 32h2M81 32h1M85 32h1M87 32h3M93 32h1M95 32h4M102 32h1M105 32h1M107 32h1M58 33h1M65 33h1M79 33h1M86 33h1" />
<path stroke="#24ff7c" d="M72 30h1M58 31h1M93 31h1M9 32h1M17 32h1M23 32h2M30 32h1M33 32h1M41 32h1M53 32h1M63 32h1M70 32h1M72 32h2M76 32h1M82 32h2M86 32h1M91 32h2M99 32h3M103 32h2M106 32h1M108 32h2M9 33h1M23 33h1" />
<path stroke="#11a63e" d="M94 30h1" />
<path stroke="#11a43e" d="M7 31h2M15 31h1M27 31h1M41 31h1M63 31h1M68 31h1M78 31h1M80 31h1M91 31h1M96 31h1M104 31h1" />
<path stroke="#12a43e" d="M10 31h1M19 31h3M28 31h2M40 31h1M42 31h1M46 31h1M54 31h1M56 31h2M94 31h1M105 31h2M109 31h1" />
<path stroke="#11a43f" d="M11 31h1M17 31h1M36 31h1M45 31h1M64 31h1M69 31h1M82 31h1" />
<path stroke="#12a53e" d="M12 31h1M18 31h1M24 31h1M32 31h1M59 31h3M67 31h1M74 31h1M76 31h1M90 31h1M103 31h1M108 31h1" />
<path stroke="#11a53e" d="M13 31h2M31 31h1M38 31h1M48 31h1M52 31h1M55 31h1M62 31h1M66 31h1M75 31h1M84 31h1M101 31h1" />
<path stroke="#12a43f" d="M26 31h1M43 31h1M53 31h1M73 31h1M83 31h1M85 31h1M88 31h2" />
<path stroke="#22ff7a" d="M7 32h2M10 32h2M15 32h1M19 32h1M37 32h1M39 32h1M42 32h1M44 32h1M47 32h1M56 32h1M77 32h1M80 32h1M84 32h1M90 32h1M51 33h1M72 33h1M93 33h1M107 33h1M9 34h1M16 34h1M23 34h1M37 34h1M44 34h1M51 34h1M58 34h1M65 34h1M72 34h1M79 34h1M86 34h1M93 34h1M100 34h1M107 34h1" />
<path stroke="#24ff7a" d="M31 32h1M52 32h1M55 32h1M94 32h1M16 33h1M30 33h1M37 33h1M44 33h1M100 33h1" />
<path stroke="#11a23e" d="M7 33h1M15 33h1M26 33h1M29 33h1M31 33h3M36 33h1M42 33h2M46 33h1M48 33h3M52 33h1M54 33h2M59 33h1M67 33h1M75 33h1M80 33h2M84 33h2M90 33h2M96 33h1M98 33h1M102 33h1M106 33h1M108 33h2" />
<path stroke="#11a33e" d="M8 33h1M11 33h1M19 33h3M39 33h1M77 33h1M92 33h1M104 33h1" />
<path stroke="#11a33d" d="M10 33h1M35 33h1M45 33h1M68 33h2M83 33h1M87 33h1M94 33h2" />
<path stroke="#11a23d" d="M12 33h1M14 33h1M17 33h1M25 33h1M27 33h2M34 33h1M38 33h1M40 33h1M47 33h1M53 33h1M56 33h1M62 33h1M71 33h1M73 33h1M76 33h1M82 33h1M88 33h1M97 33h1M101 33h1M105 33h1" />
<path stroke="#12a23d" d="M13 33h1M24 33h1M57 33h1M60 33h2M64 33h1M66 33h1M70 33h1M74 33h1M78 33h1M99 33h1" />
<path stroke="#12a23e" d="M18 33h1M41 33h1M89 33h1" />
<path stroke="#12a33e" d="M22 33h1M103 33h1" />
<path stroke="#12a33d" d="M63 33h1" />
<path stroke="#11a13c" d="M7 34h1M13 34h1M38 34h1M40 34h1M49 34h1M61 34h1M63 34h1M68 34h1M76 34h1M78 34h1M92 34h1M94 34h1M98 34h1M105 34h1M109 34h1" />
<path stroke="#11a13d" d="M8 34h1M10 34h2M14 34h2M18 34h5M24 34h6M31 34h3M35 34h2M39 34h1M41 34h3M45 34h4M50 34h1M52 34h2M55 34h3M59 34h2M62 34h1M64 34h1M66 34h2M69 34h3M73 34h3M77 34h1M81 34h5M87 34h5M95 34h3M99 34h1M101 34h1M103 34h2M106 34h1M108 34h1" />
<path stroke="#12a13c" d="M12 34h1M54 34h1" />
<path stroke="#11a03d" d="M17 34h1M80 34h1M102 34h1M20 35h1M66 35h1" />
<path stroke="#22ff78" d="M30 34h1M9 35h1M16 35h1M30 35h1M37 35h1M44 35h1M51 35h1M58 35h1M65 35h1M72 35h1M79 35h1M86 35h1M93 35h1M100 35h1M86 36h1M107 36h1" />
<path stroke="#12a13d" d="M34 34h1" />
<path stroke="#109f3c" d="M7 35h1M28 35h1M31 35h1M39 35h1M43 35h1M52 35h1M57 35h1M63 35h1M70 35h1M89 35h1M92 35h1" />
<path stroke="#10a03c" d="M8 35h1M27 35h1M71 35h1M74 35h1M78 35h1M103 35h1" />
<path stroke="#11a03c" d="M10 35h1M13 35h2M21 35h2M25 35h1M29 35h1M33 35h1M35 35h2M40 35h2M46 35h1M49 35h2M53 35h1M56 35h1M59 35h4M64 35h1M68 35h2M76 35h1M80 35h4M85 35h1M87 35h1M90 35h2M95 35h2M101 35h1M104 35h2M108 35h2" />
<path stroke="#119f3c" d="M11 35h1M15 35h1M17 35h3M24 35h1M26 35h1M32 35h1M34 35h1M38 35h1M42 35h1M45 35h1M47 35h2M54 35h1M67 35h1M73 35h1M75 35h1M77 35h1M84 35h1M88 35h1M94 35h1M97 35h3M102 35h1M106 35h1" />
<path stroke="#119f3d" d="M12 35h1M55 35h1" />
<path stroke="#20ff78" d="M23 35h1M107 35h1M37 36h1M65 36h1M93 36h1" />
<path stroke="#119e3c" d="M7 36h1M36 36h1M40 36h1M46 36h1M49 36h1M60 36h1M62 36h1M66 36h1M84 36h2M94 36h1M102 36h3" />
<path stroke="#109e3b" d="M8 36h1M27 36h1M31 36h1M35 36h1M38 36h2M47 36h1M59 36h1M61 36h1M70 36h2M77 36h2M80 36h1M88 36h2M92 36h1M101 36h1" />
<path stroke="#22ff76" d="M9 36h1M16 36h1M23 36h1M30 36h1M44 36h1M51 36h1M58 36h1M72 36h1M79 36h1M100 36h1M16 37h1M23 37h1M58 37h1M65 37h1M79 37h1M93 37h1M107 37h1" />
<path stroke="#119e3b" d="M10 36h5M17 36h1M19 36h1M25 36h2M28 36h2M32 36h1M34 36h1M41 36h3M48 36h1M52 36h1M54 36h4M63 36h1M67 36h1M69 36h1M73 36h3M81 36h1M87 36h1M91 36h1M96 36h1M99 36h1M105 36h2M108 36h1" />
<path stroke="#109e3c" d="M15 36h1M20 36h3M24 36h1M33 36h1M50 36h1M64 36h1M68 36h1M76 36h1M82 36h2M90 36h1M95 36h1M98 36h1M109 36h1" />
<path stroke="#109d3c" d="M18 36h1" />
<path stroke="#119d3b" d="M45 36h1M53 36h1M7 37h2M13 37h1M17 37h3M22 37h1M25 37h1M33 37h2M39 37h3M43 37h1M47 37h1M49 37h2M53 37h2M57 37h1M60 37h2M68 37h1M71 37h1M73 37h2M77 37h1M81 37h1M83 37h2M88 37h1M95 37h1M97 37h2M102 37h2" />
<path stroke="#119d3c" d="M97 36h1" />
<path stroke="#20ff76" d="M9 37h1M30 37h1M37 37h1M44 37h1M51 37h1M72 37h1M86 37h1M100 37h1M37 38h1M58 38h1M79 38h1" />
<path stroke="#109d3b" d="M10 37h2M14 37h2M20 37h2M24 37h1M27 37h3M32 37h1M35 37h2M38 37h1M42 37h1M46 37h1M48 37h1M52 37h1M55 37h2M59 37h1M62 37h2M66 37h1M69 37h2M76 37h1M78 37h1M85 37h1M87 37h1M89 37h3M94 37h1M96 37h1M99 37h1M101 37h1M104 37h3M108 37h2" />
<path stroke="#109c3b" d="M12 37h1M67 37h1M82 37h1M11 38h1" />
<path stroke="#119d3a" d="M26 37h1M31 37h1M75 37h1" />
<path stroke="#109d3a" d="M45 37h1M80 37h1" />
<path stroke="#119c3b" d="M64 37h1M40 38h1" />
<path stroke="#119c3a" d="M92 37h1M20 38h1M95 38h1M108 38h1" />
<path stroke="#109b3a" d="M7 38h1M10 38h1M12 38h2M17 38h2M21 38h2M24 38h2M31 38h2M34 38h3M42 38h1M46 38h1M49 38h1M54 38h2M57 38h1M61 38h2M64 38h1M67 38h2M71 38h1M75 38h2M78 38h1M81 38h2M84 38h2M87 38h1M89 38h1M97 38h1M99 38h1M101 38h1M103 38h1M105 38h1" />
<path stroke="#109b3b" d="M8 38h1M14 38h2M27 38h3M39 38h1M41 38h1M47 38h1M69 38h1M80 38h1M90 38h1M94 38h1M106 38h1M109 38h1" />
<path stroke="#20ff74" d="M9 38h1M16 38h1M30 38h1M44 38h1M51 38h1M72 38h1M86 38h1M100 38h1M107 38h1M7 39h2M20 39h1M25 39h1M31 39h1M39 39h1M45 39h2M49 39h1M53 39h1M57 39h2M61 39h1M65 39h3M70 39h2M73 39h2M80 39h1M87 39h1M89 39h1M92 39h2M95 39h2M99 39h1M101 39h1M103 39h1" />
<path stroke="#119b3b" d="M19 38h1M53 38h1M77 38h1M92 38h1M96 38h1M104 38h1" />
<path stroke="#22ff74" d="M23 38h1M65 38h1M93 38h1" />
<path stroke="#119b3a" d="M26 38h1M33 38h1M45 38h1M50 38h1M52 38h1M56 38h1M60 38h1M63 38h1M70 38h1M73 38h2M83 38h1M88 38h1" />
<path stroke="#109c3a" d="M38 38h1M43 38h1M48 38h1M59 38h1M66 38h1M91 38h1M98 38h1M102 38h1" />
<path stroke="#20ff72" d="M9 39h11M21 39h4M26 39h5M32 39h1M34 39h5M40 39h5M47 39h2M50 39h3M54 39h1M56 39h1M59 39h2M62 39h3M68 39h2M72 39h1M75 39h5M81 39h6M88 39h1M90 39h1M94 39h1M97 39h2M100 39h1M102 39h1M104 39h6M9 40h1M16 40h1M23 40h1M30 40h1M44 40h1M51 40h1M72 40h1M86 40h1M100 40h1" />
<path stroke="#1eff72" d="M33 39h1M55 39h1M58 40h1" />
<path stroke="#1eff74" d="M91 39h1" />
<path stroke="#109739" d="M7 40h1M10 40h1M22 40h1M29 40h1M31 40h1M33 40h1M36 40h1M61 40h1M64 40h1M77 40h1M98 40h1M101 40h1M104 40h1" />
<path stroke="#109838" d="M8 40h1M12 40h1M21 40h1M27 40h1M48 40h1M54 40h3M68 40h2M71 40h1M73 40h1M82 40h3M88 40h1M91 40h1M96 40h1M102 40h1M105 40h1" />
<path stroke="#109839" d="M11 40h1M14 40h2M17 40h1M20 40h1M24 40h1M41 40h2M46 40h1M53 40h1M57 40h1M60 40h1M70 40h1M74 40h1M76 40h1M87 40h1M89 40h1M92 40h1M94 40h2M99 40h1M108 40h1" />
<path stroke="#0f9738" d="M13 40h1M45 40h1M103 40h1" />
<path stroke="#109738" d="M18 40h2M32 40h1M34 40h1M38 40h1M47 40h1M49 40h1M52 40h1M67 40h1M85 40h1M97 40h1M106 40h1M109 40h1" />
<path stroke="#0f9839" d="M25 40h2M35 40h1M40 40h1M50 40h1M81 40h1" />
<path stroke="#0f9838" d="M28 40h1M39 40h1M59 40h1M62 40h2M66 40h1M78 40h1M80 40h1" />
<path stroke="#20ff70" d="M37 40h1M79 40h1M107 40h1M9 41h1M37 41h1" />
<path stroke="#0f9739" d="M43 40h1M75 40h1M90 40h1" />
<path stroke="#1eff70" d="M65 40h1M93 40h1M16 41h1M44 41h1M51 41h1M79 41h1M86 41h1M93 41h1" />
<path stroke="#109637" d="M7 41h1M13 41h1M24 41h1M26 41h1M31 41h2M45 41h1M60 41h1M64 41h1M74 41h1M76 41h1M81 41h1M83 41h1M94 41h1" />
<path stroke="#0f9638" d="M8 41h1M11 41h1M14 41h2M20 41h2M27 41h1M39 41h2M50 41h1M54 41h1M59 41h1M66 41h2M69 41h1M71 41h1M75 41h1M82 41h1M85 41h1M87 41h2M97 41h2M101 41h1" />
<path stroke="#109638" d="M10 41h1M12 41h1M38 41h1M42 41h2M46 41h1M53 41h1M57 41h1M61 41h2M68 41h1M73 41h1M78 41h1M84 41h1M89 41h1M91 41h1M99 41h1M103 41h1M105 41h1" />
<path stroke="#0f9637" d="M17 41h3M33 41h1M41 41h1M47 41h3M55 41h1M80 41h1M92 41h1M95 41h1M102 41h1M104 41h1M106 41h1" />
<path stroke="#109537" d="M22 41h1M28 41h1M35 41h1M56 41h1M70 41h1M12 42h1M14 42h1M20 42h1M39 42h1M47 42h1M50 42h1M54 42h1M85 42h1M105 42h1" />
<path stroke="#1eff6e" d="M23 41h1M30 41h1M58 41h1M65 41h1M100 41h1M107 41h1M16 42h1M30 42h1M37 42h1M44 42h1M58 42h1M65 42h1M72 42h1M79 42h1M86 42h1M93 42h1M107 42h1M16 43h1M79 43h1M107 43h1" />
<path stroke="#109538" d="M25 41h1M29 41h1M36 41h1M52 41h1M109 41h1M13 42h1" />
<path stroke="#0f9537" d="M34 41h1M63 41h1M90 41h1M96 41h1M8 42h1M18 42h1M21 42h2M29 42h1M35 42h2M45 42h1M48 42h1M53 42h1M57 42h1M60 42h1M66 42h1M71 42h1M76 42h1M80 42h1M82 42h1M87 42h1M97 42h2M106 42h1M108 42h1" />
<path stroke="#20ff6e" d="M72 41h1M9 42h1M23 42h1M51 42h1M100 42h1" />
<path stroke="#0f9538" d="M77 41h1M108 41h1" />
<path stroke="#0f9437" d="M7 42h1M11 42h1M15 42h1M17 42h1M19 42h1M24 42h2M27 42h2M31 42h2M34 42h1M38 42h1M42 42h1M46 42h1M49 42h1M52 42h1M56 42h1M59 42h1M62 42h1M64 42h1M67 42h2M73 42h3M77 42h1M81 42h1M83 42h1M88 42h3M95 42h2M103 42h1M109 42h1" />
<path stroke="#109437" d="M10 42h1M26 42h1M33 42h1M40 42h1M43 42h1M55 42h1M61 42h1M63 42h1M69 42h1M78 42h1M84 42h1M91 42h2M94 42h1M99 42h1M101 42h2M104 42h1" />
<path stroke="#109438" d="M41 42h1M70 42h1" />
<path stroke="#0f9337" d="M7 43h1M13 43h1M36 43h1M47 43h1M53 43h1M68 43h1M104 43h1" />
<path stroke="#0f9336" d="M8 43h1M11 43h2M14 43h1M18 43h1M24 43h1M27 43h3M32 43h2M35 43h1M41 43h1M43 43h1M45 43h2M48 43h2M52 43h1M54 43h2M57 43h1M63 43h1M66 43h1M70 43h2M74 43h5M83 43h2M88 43h1M92 43h1M94 43h2M97 43h3M102 43h2M106 43h1M108 43h2" />
<path stroke="#1eff6c" d="M9 43h1M23 43h1M30 43h1M37 43h1M44 43h1M51 43h1M58 43h1M65 43h1M72 43h1M86 43h1M93 43h1M100 43h1M23 44h1M51 44h1M79 44h1M107 44h1" />
<path stroke="#0f9236" d="M10 43h1M19 43h3M25 43h2M31 43h1M34 43h1M39 43h2M42 43h1M59 43h4M64 43h1M67 43h1M69 43h1M73 43h1M81 43h2M85 43h1M87 43h1M89 43h2M101 43h1M105 43h1" />
<path stroke="#0f9237" d="M15 43h1M17 43h1M22 43h1M38 43h1M50 43h1M56 43h1M80 43h1M91 43h1" />
<path stroke="#109237" d="M96 43h1" />
<path stroke="#0f9135" d="M7 44h1M19 44h1M26 44h1M29 44h1M31 44h1M43 44h1M53 44h1M60 44h1M69 44h2M75 44h3M83 44h1M87 44h1M94 44h2M97 44h1M99 44h1M103 44h1M105 44h2" />
<path stroke="#0f9035" d="M8 44h1M11 44h2M17 44h2M20 44h1M22 44h1M24 44h1M32 44h2M35 44h1M40 44h1M50 44h1M52 44h1M57 44h1M59 44h1M62 44h1M64 44h1M67 44h2M85 44h1M88 44h2M91 44h1M98 44h1M101 44h2M104 44h1M109 44h1" />
<path stroke="#1cff6c" d="M9 44h1" />
<path stroke="#0e9035" d="M10 44h1M14 44h2M38 44h1M49 44h1M54 44h1M56 44h1M61 44h1M63 44h1M73 44h1M82 44h1M84 44h1M96 44h1M108 44h1" />
<path stroke="#0e9135" d="M13 44h1M21 44h1M27 44h1M39 44h1M45 44h1M66 44h1M71 44h1M78 44h1M80 44h1" />
<path stroke="#1eff6a" d="M16 44h1M37 44h1M44 44h1M58 44h1M93 44h1M100 44h1M79 45h1" />
<path stroke="#0f9136" d="M25 44h1M28 44h1M48 44h1M92 44h1" />
<path stroke="#1cff6a" d="M30 44h1M65 44h1M72 44h1M86 44h1" />
<path stroke="#0f9036" d="M34 44h1M41 44h2M46 44h1M74 44h1M81 44h1M90 44h1" />
<path stroke="#0e9036" d="M36 44h1M47 44h1M55 44h1" />
<path stroke="#0f8e34" d="M7 45h1M10 45h2M22 45h1M31 45h2M35 45h1M50 45h1M62 45h1M67 45h1M76 45h1M103 45h1M109 45h1" />
<path stroke="#0f8f34" d="M8 45h1M12 45h2M15 45h1M17 45h1M24 45h1M27 45h1M34 45h1M38 45h1M43 45h1M54 45h1M66 45h1M68 45h1M77 45h1M91 45h1M97 45h1" />
<path stroke="#1cff68" d="M9 45h1M16 45h1M30 45h1M37 45h1M51 45h1M65 45h1M72 45h1M86 45h1M100 45h1M8 46h1M10 46h4M17 46h2M22 46h2M25 46h2M28 46h1M30 46h6M37 46h3M41 46h4M46 46h1M48 46h1M51 46h3M55 46h2M58 46h1M60 46h1M63 46h2M66 46h3M70 46h5M76 46h9M86 46h2M90 46h1M92 46h3M96 46h4M101 46h5M107 46h3" />
<path stroke="#0e8f35" d="M14 45h1M39 45h1M45 45h1M53 45h1M59 45h1M61 45h1M73 45h1M81 45h1M106 45h1" />
<path stroke="#0e8f34" d="M18 45h1M26 45h1M29 45h1M42 45h1M46 45h3M52 45h1M55 45h2M60 45h1M64 45h1M74 45h1M78 45h1M80 45h1M82 45h2M85 45h1M87 45h1M89 45h2M94 45h1M96 45h1M99 45h1M101 45h1M105 45h1M108 45h1" />
<path stroke="#0e8e34" d="M19 45h3M33 45h1M36 45h1M40 45h1M70 45h1M75 45h1M88 45h1M92 45h1M98 45h1" />
<path stroke="#1eff68" d="M23 45h1M44 45h1M58 45h1M93 45h1M107 45h1M15 46h1M19 46h3M40 46h1M57 46h1M59 46h1M65 46h1M85 46h1M100 46h1M106 46h1" />
<path stroke="#0f8f35" d="M25 45h1M28 45h1M63 45h1M69 45h1" />
<path stroke="#0f8e35" d="M41 45h1M71 45h1M95 45h1M102 45h1" />
<path stroke="#0e8e35" d="M49 45h1M57 45h1M84 45h1M104 45h1" />
<path stroke="#1eff66" d="M7 46h1M16 46h1M24 46h1M29 46h1M49 46h1M62 46h1M89 46h1" />
<path stroke="#1cff66" d="M9 46h1M14 46h1M27 46h1M36 46h1M45 46h1M47 46h1M50 46h1M54 46h1M61 46h1M69 46h1M75 46h1M88 46h1M91 46h1M95 46h1M16 47h1M23 47h1M30 47h1M37 47h1M44 47h1M51 47h1M58 47h1M65 47h1M79 47h1M86 47h1M93 47h1M107 47h1" />
<path stroke="#0e8b33" d="M7 47h2M10 47h2M13 47h3M17 47h3M24 47h5M31 47h1M33 47h2M39 47h1M41 47h1M45 47h2M48 47h1M50 47h1M52 47h6M59 47h3M63 47h2M66 47h5M73 47h1M76 47h3M81 47h2M84 47h1M87 47h3M91 47h2M94 47h1M97 47h3M101 47h4M108 47h2" />
<path stroke="#1cff64" d="M9 47h1M16 48h1M44 48h1M51 48h1M58 48h1M65 48h1M72 48h1M79 48h1M86 48h1M100 48h1" />
<path stroke="#0e8b32" d="M12 47h1M20 47h3M32 47h1M36 47h1M38 47h1M40 47h1M42 47h2M47 47h1M49 47h1M62 47h1M74 47h2M83 47h1M85 47h1M90 47h1M105 47h1" />
<path stroke="#0d8b33" d="M29 47h1M71 47h1M96 47h1M106 47h1" />
<path stroke="#0e8c33" d="M35 47h1M80 47h1" />
<path stroke="#1aff66" d="M72 47h1" />
<path stroke="#0e8c32" d="M95 47h1" />
<path stroke="#1aff64" d="M100 47h1M37 48h1M93 48h1" />
<path stroke="#0d8931" d="M7 48h1M21 48h1M40 48h1M43 48h1M50 48h1M55 48h1M101 48h2" />
<path stroke="#0d8831" d="M8 48h1M83 48h1" />
<path stroke="#1aff62" d="M9 48h1M30 48h1M23 49h1M30 49h1M58 49h1M72 49h1M79 49h1M86 49h1M93 49h1M100 49h1M9 50h1" />
<path stroke="#0d8932" d="M10 48h1M14 48h1M34 48h1M42 48h1M49 48h1M56 48h1M70 48h1M76 48h1M84 48h1M94 48h1M97 48h3M105 48h1" />
<path stroke="#0e8932" d="M11 48h1M13 48h1M17 48h1M20 48h1M22 48h1M26 48h4M31 48h3M38 48h1M41 48h1M45 48h1M52 48h2M57 48h1M60 48h1M66 48h3M71 48h1M73 48h3M78 48h1M80 48h1M85 48h1M87 48h1M89 48h1M91 48h2M95 48h2M106 48h1M108 48h2" />
<path stroke="#0e8832" d="M12 48h1M18 48h2M25 48h1M36 48h1M59 48h1M64 48h1M81 48h2M103 48h1" />
<path stroke="#0e8931" d="M15 48h1M24 48h1M35 48h1M39 48h1M46 48h1M48 48h1M54 48h1M61 48h2M69 48h1M77 48h1M90 48h1" />
<path stroke="#1cff62" d="M23 48h1M107 48h1M16 49h1M44 49h1M65 49h1" />
<path stroke="#0d8832" d="M47 48h1M63 48h1M104 48h1" />
<path stroke="#0e8831" d="M88 48h1" />
<path stroke="#0d8731" d="M7 49h1M10 49h1M12 49h2M17 49h2M20 49h1M24 49h3M32 49h1M34 49h3M39 49h1M42 49h1M47 49h2M55 49h1M57 49h1M60 49h1M62 49h3M70 49h2M73 49h4M82 49h1M85 49h1M87 49h2M90 49h2M99 49h1M101 49h3M108 49h2" />
<path stroke="#0d8730" d="M8 49h1M14 49h1M27 49h1M43 49h1M50 49h1M52 49h1M56 49h1M67 49h1M69 49h1M77 49h1M80 49h2M83 49h1M89 49h1M105 49h2" />
<path stroke="#1aff60" d="M9 49h1M37 49h1M107 49h1M16 50h1M23 50h1M30 50h1M37 50h1M44 50h1M51 50h1M58 50h1M72 50h1M79 50h1M93 50h1M107 50h1" />
<path stroke="#0e8631" d="M11 49h1M49 49h1" />
<path stroke="#0e8731" d="M15 49h1M19 49h1M21 49h1M29 49h1M31 49h1M41 49h1M45 49h2M53 49h2M61 49h1M68 49h1M78 49h1M84 49h1M92 49h1M95 49h1" />
<path stroke="#0d8631" d="M22 49h1M28 49h1M38 49h1M40 49h1M59 49h1M96 49h2M104 49h1" />
<path stroke="#0d8630" d="M33 49h1M66 49h1M94 49h1M50 50h1M59 50h1M103 50h1" />
<path stroke="#1cff60" d="M51 49h1M65 50h1M86 50h1M100 50h1" />
<path stroke="#0e8730" d="M98 49h1" />
<path stroke="#0e8530" d="M7 50h1M13 50h1M20 50h1M28 50h1M46 50h1M48 50h1M64 50h1M70 50h1M76 50h1M90 50h1" />
<path stroke="#0d8530" d="M8 50h1M10 50h3M14 50h2M18 50h2M21 50h2M24 50h2M27 50h1M29 50h1M31 50h6M39 50h1M41 50h3M45 50h1M47 50h1M49 50h1M52 50h1M54 50h4M60 50h4M66 50h4M71 50h1M73 50h3M77 50h2M80 50h3M84 50h2M87 50h3M91 50h2M94 50h2M97 50h3M101 50h2M104 50h1M106 50h1M109 50h1" />
<path stroke="#0e8630" d="M17 50h1" />
<path stroke="#0d8531" d="M26 50h1M38 50h1M40 50h1M53 50h1M83 50h1M96 50h1M105 50h1M108 50h1" />
<path stroke="#0d832f" d="M7 51h2M10 51h1M12 51h3M17 51h5M24 51h1M26 51h4M31 51h1M34 51h3M39 51h5M46 51h4M52 51h5M59 51h6M67 51h5M75 51h1M77 51h1M81 51h2M84 51h2M87 51h6M94 51h2M97 51h1M99 51h1M101 51h4M106 51h1M108 51h2" />
<path stroke="#1aff5e" d="M9 51h1M16 51h1M44 51h1M51 51h1M58 51h1M65 51h1M72 51h1M79 51h1M86 51h1M93 51h1M100 51h1M107 51h1" />
<path stroke="#0c8330" d="M11 51h1M96 51h1" />
<path stroke="#0c832f" d="M15 51h1M22 51h1M25 51h1M45 51h1M50 51h1M57 51h1M66 51h1M73 51h2M76 51h1M78 51h1M98 51h1M105 51h1" />
<path stroke="#18ff5e" d="M23 51h1M30 51h1M37 51h1" />
<path stroke="#0d822f" d="M32 51h1" />
<path stroke="#0d8330" d="M33 51h1M38 51h1M80 51h1M83 51h1" />
<path stroke="#0c812e" d="M7 52h1M19 52h1M21 52h1M29 52h1M33 52h1M35 52h1M40 52h1M47 52h1M52 52h1M57 52h1M59 52h1M61 52h4M70 52h2M73 52h2M77 52h2M101 52h1M105 52h1M109 52h1" />
<path stroke="#0d802e" d="M8 52h1M17 52h1M20 52h1M24 52h2M27 52h1M31 52h2M36 52h1M42 52h1M48 52h1M60 52h1M68 52h1M76 52h1M83 52h1M98 52h2M102 52h1M104 52h1M108 52h1" />
<path stroke="#1aff5c" d="M9 52h1M37 52h1M58 52h1M72 52h1M79 52h1M86 52h1M100 52h1" />
<path stroke="#0d812e" d="M10 52h1M15 52h1M18 52h1M22 52h1M26 52h1M34 52h1M41 52h1M45 52h1M50 52h1M56 52h1M69 52h1M75 52h1M80 52h1M82 52h1M84 52h1M87 52h1M92 52h1M94 52h2M97 52h1" />
<path stroke="#0d802d" d="M11 52h1" />
<path stroke="#0c802e" d="M12 52h3M28 52h1M38 52h2M43 52h1M46 52h1M49 52h1M53 52h3M66 52h2M81 52h1M85 52h1M88 52h3M96 52h1M103 52h1M106 52h1" />
<path stroke="#18ff5c" d="M16 52h1M23 52h1M30 52h1M44 52h1M51 52h1M65 52h1M93 52h1M107 52h1" />
<path stroke="#0c812d" d="M91 52h1" />
<path stroke="#18fe5a" d="M7 53h1M10 53h1M13 53h1M16 53h1M21 53h1M23 53h1M29 53h2M35 53h1M38 53h1M41 53h2M44 53h4M49 53h2M52 53h1M54 53h2M60 53h1M63 53h1M66 53h1M73 53h1M76 53h1M81 53h1M87 53h1M90 53h2M93 53h1M99 53h1M109 53h1" />
<path stroke="#1afc5a" d="M8 53h1M12 53h1M15 53h1M20 53h1M26 53h1M32 53h1M53 53h1M56 53h1M62 53h1M71 53h1M83 53h1M95 53h1" />
<path stroke="#18fc5a" d="M9 53h1M11 53h1M14 53h1M17 53h3M22 53h1M24 53h2M31 53h1M34 53h1M36 53h2M39 53h1M43 53h1M48 53h1M51 53h1M57 53h3M61 53h1M65 53h1M67 53h4M72 53h1M74 53h1M77 53h4M82 53h1M84 53h1M88 53h2M92 53h1M94 53h1M97 53h1M100 53h1M104 53h5" />
<path stroke="#1afe5a" d="M27 53h1M33 53h1M64 53h1M75 53h1M85 53h2M96 53h1M98 53h1M101 53h1" />
<path stroke="#18fe58" d="M28 53h1M40 53h1M102 53h1" />
<path stroke="#18fc58" d="M103 53h1" />
<path stroke="#0c7d2d" d="M7 54h1M18 54h1M22 54h1M24 54h1M27 54h1M43 54h1M75 54h1M78 54h1M85 54h1M88 54h1M90 54h1M92 54h1M108 54h2" />
<path stroke="#0c7c2c" d="M8 54h1M21 54h1M25 54h2M28 54h1M33 54h4M46 54h1M53 54h1M57 54h1M61 54h1M68 54h1M74 54h1M76 54h1M81 54h1M83 54h2" />
<path stroke="#18fa58" d="M9 54h1M23 54h1M30 54h1M58 54h1M65 54h1M86 54h1M93 54h1M100 54h1M107 54h1" />
<path stroke="#0c7d2c" d="M10 54h6M17 54h1M19 54h2M29 54h1M31 54h2M38 54h5M47 54h4M52 54h1M54 54h2M59 54h1M62 54h3M66 54h1M69 54h3M73 54h1M77 54h1M80 54h1M87 54h1M89 54h1M91 54h1M94 54h1M96 54h4M101 54h3M105 54h2" />
<path stroke="#18f858" d="M16 54h1M37 54h1M79 54h1" />
<path stroke="#18f85a" d="M44 54h1M72 54h1" />
<path stroke="#0c7c2d" d="M45 54h1M56 54h1M60 54h1M67 54h1M82 54h1M95 54h1M104 54h1" />
<path stroke="#18fa5a" d="M51 54h1" />
<path stroke="#0c7a2b" d="M7 55h1M15 55h1M19 55h1M21 55h1M24 55h1M34 55h1M40 55h2M49 55h2M59 55h1M66 55h3M70 55h1M76 55h1M78 55h1M80 55h2M88 55h2M103 55h1M105 55h1M108 55h2" />
<path stroke="#0c7b2c" d="M8 55h1M71 55h1M104 55h1" />
<path stroke="#18f456" d="M9 55h1M16 55h1M86 55h1M93 55h1M107 55h1" />
<path stroke="#0c7b2b" d="M10 55h2M13 55h1M27 55h1M29 55h1M32 55h2M38 55h2M45 55h2M53 55h2M57 55h1M61 55h3M69 55h1M74 55h2M77 55h1M84 55h2M95 55h1M98 55h1" />
<path stroke="#0c7a2c" d="M12 55h1M22 55h1M28 55h1M83 55h1" />
<path stroke="#0b7b2b" d="M14 55h1M36 55h1M43 55h1M47 55h1M60 55h1M82 55h1M90 55h1M92 55h1M106 55h1" />
<path stroke="#0b7a2b" d="M17 55h1M20 55h1M35 55h1M42 55h1M48 55h1M55 55h2M87 55h1M91 55h1M94 55h1M96 55h1M101 55h1" />
<path stroke="#0b7a2c" d="M18 55h1M31 55h1M52 55h1M64 55h1M99 55h1M102 55h1" />
<path stroke="#18f656" d="M23 55h1M30 55h1M37 55h1M58 55h1M65 55h1" />
<path stroke="#0b7b2c" d="M25 55h2M73 55h1M97 55h1" />
<path stroke="#16f658" d="M44 55h1" />
<path stroke="#16f456" d="M51 55h1M72 55h1" />
<path stroke="#16f656" d="M79 55h1M100 55h1" />
<path stroke="#0b782a" d="M7 56h1M10 56h1M12 56h3M17 56h2M21 56h1M25 56h1M27 56h2M31 56h2M34 56h1M36 56h1M39 56h1M41 56h1M43 56h1M45 56h6M52 56h3M56 56h2M60 56h2M64 56h1M66 56h1M68 56h1M70 56h2M74 56h2M81 56h1M84 56h1M90 56h2M94 56h2M97 56h1M99 56h1M101 56h1M103 56h4M108 56h2" />
<path stroke="#0c782a" d="M8 56h1M11 56h1M15 56h1M19 56h2M22 56h1M24 56h1M26 56h1M33 56h1M35 56h1M38 56h1M42 56h1M55 56h1M59 56h1M62 56h2M67 56h1M73 56h1M76 56h3M80 56h1M82 56h2M87 56h3M92 56h1M96 56h1M98 56h1M102 56h1" />
<path stroke="#16f054" d="M9 56h1M16 56h1M23 56h1M30 56h1M37 56h1M51 56h1M58 56h1M65 56h1M72 56h1M79 56h1M93 56h1M100 56h1" />
<path stroke="#0b782b" d="M29 56h1M69 56h1" />
<path stroke="#0c782b" d="M40 56h1M85 56h1" />
<path stroke="#18f054" d="M44 56h1M86 56h1M107 56h1" />
<path stroke="#0b7628" d="M7 57h1M10 57h1M22 57h1M46 57h1M66 57h1M70 57h1M75 57h1M109 57h1" />
<path stroke="#0b7629" d="M8 57h1M12 57h1M15 57h1M17 57h2M20 57h2M24 57h3M28 57h2M31 57h3M36 57h1M38 57h6M47 57h4M53 57h2M56 57h2M59 57h5M68 57h2M71 57h1M73 57h1M76 57h3M82 57h4M87 57h6M94 57h2M97 57h2M101 57h1M103 57h4M108 57h1" />
<path stroke="#16ec52" d="M9 57h1M30 57h1M37 57h1M44 57h1M51 57h1M65 57h1M72 57h1M79 57h1M86 57h1M93 57h1M100 57h1M107 57h1" />
<path stroke="#0a7629" d="M11 57h1M14 57h1M35 57h1M80 57h1" />
<path stroke="#0b7529" d="M13 57h1M27 57h1M34 57h1M45 57h1M52 57h1M55 57h1M64 57h1M67 57h1M74 57h1M81 57h1M96 57h1M99 57h1M102 57h1" />
<path stroke="#16ec50" d="M16 57h1M23 57h1" />
<path stroke="#0b7528" d="M19 57h1" />
<path stroke="#16ea52" d="M58 57h1" />
<path stroke="#0b7429" d="M7 58h2M10 58h1M19 58h1M22 58h1M32 58h1M35 58h2M48 58h1M50 58h1M62 58h1M68 58h1M70 58h1M80 58h2M88 58h3M95 58h1M98 58h2M105 58h1" />
<path stroke="#16e850" d="M9 58h1M16 58h1M30 58h1M37 58h1M51 58h1M58 58h1M65 58h1M100 58h1M107 58h1" />
<path stroke="#0a7428" d="M11 58h1M13 58h1M24 58h1M28 58h1M31 58h1M40 58h1M53 58h1M56 58h1M63 58h1M67 58h1M82 58h2M85 58h1M87 58h1M109 58h1" />
<path stroke="#0b7428" d="M12 58h1M14 58h2M17 58h2M20 58h2M25 58h1M27 58h1M29 58h1M33 58h2M38 58h2M41 58h3M45 58h3M49 58h1M55 58h1M57 58h1M59 58h3M64 58h1M66 58h1M69 58h1M73 58h3M77 58h2M91 58h2M94 58h1M97 58h1M101 58h4M106 58h1M108 58h1" />
<path stroke="#16e852" d="M23 58h1M72 58h1M79 58h1M93 58h1" />
<path stroke="#0b7329" d="M26 58h1" />
<path stroke="#14e850" d="M44 58h1M86 58h1" />
<path stroke="#0a7429" d="M52 58h1M54 58h1M71 58h1M76 58h1M84 58h1M96 58h1" />
<path stroke="#0a7227" d="M7 59h1M10 59h1M13 59h1M18 59h1M21 59h2M24 59h1M26 59h2M29 59h1M32 59h2M38 59h4M45 59h1M47 59h1M50 59h1M53 59h2M60 59h1M63 59h2M66 59h1M71 59h1M89 59h1M92 59h1M94 59h1M97 59h2M102 59h3M109 59h1" />
<path stroke="#0a7127" d="M8 59h1M14 59h1M25 59h1M34 59h1M48 59h2M55 59h1M61 59h2M70 59h1M75 59h1M78 59h1M80 59h1M83 59h2M90 59h1M106 59h1" />
<path stroke="#16e24e" d="M9 59h1M23 59h1M58 59h1" />
<path stroke="#0b7227" d="M11 59h1M19 59h1M28 59h1M36 59h1M42 59h2M46 59h1M52 59h1M57 59h1M59 59h1M69 59h1M73 59h1M76 59h1M95 59h2M101 59h1" />
<path stroke="#0a7128" d="M12 59h1M31 59h1M56 59h1M74 59h1M99 59h1" />
<path stroke="#0b7228" d="M15 59h1M17 59h1M20 59h1M77 59h1M87 59h1M105 59h1" />
<path stroke="#14e24e" d="M16 59h1" />
<path stroke="#16e250" d="M30 59h1M44 59h1" />
<path stroke="#0a7228" d="M35 59h1M85 59h1M88 59h1" />
<path stroke="#14e44e" d="M37 59h1M51 59h1M65 59h1M72 59h1M79 59h1M86 59h1M100 59h1" />
<path stroke="#0b7127" d="M67 59h2M81 59h1M91 59h1" />
<path stroke="#0b7128" d="M82 59h1M108 59h1" />
<path stroke="#16e44e" d="M93 59h1" />
<path stroke="#14e450" d="M107 59h1" />
<path stroke="#14de4c" d="M7 60h4M13 60h8M22 60h2M25 60h1M28 60h1M30 60h2M33 60h2M36 60h2M39 60h3M43 60h7M51 60h6M58 60h5M64 60h13M78 60h3M82 60h3M88 60h6M97 60h3M101 60h9" />
<path stroke="#14e04c" d="M11 60h1M21 60h1M24 60h1M27 60h1M29 60h1M42 60h1M50 60h1M57 60h1M63 60h1M77 60h1M85 60h3M96 60h1" />
<path stroke="#16de4c" d="M12 60h1M32 60h1M35 60h1M38 60h1M94 60h1M100 60h1" />
<path stroke="#16e04c" d="M26 60h1M81 60h1M95 60h1" />
<path stroke="#0a6c25" d="M7 61h1M56 61h1M73 61h1M82 61h1" />
<path stroke="#0a6c24" d="M8 61h1M83 62h1" />
<path stroke="#12da4a" d="M9 61h1M51 61h1M58 61h1M72 61h1M79 61h1M107 61h1" />
<path stroke="#0a6d24" d="M10 61h1M62 61h1M80 61h1M106 61h1" />
<path stroke="#0a6d25" d="M11 61h3M18 61h3M22 61h1M24 61h4M29 61h1M31 61h1M36 61h1M38 61h1M41 61h3M46 61h5M52 61h1M54 61h2M57 61h1M59 61h3M63 61h2M66 61h2M71 61h1M75 61h1M81 61h1M83 61h3M87 61h3M91 61h2M94 61h1M96 61h3M101 61h2M104 61h1M109 61h1" />
<path stroke="#096d25" d="M14 61h2M17 61h1M21 61h1M28 61h1M32 61h1M34 61h2M39 61h2M45 61h1M53 61h1M68 61h2M74 61h1M76 61h3M90 61h1M95 61h1M99 61h1M103 61h1M105 61h1M108 61h1" />
<path stroke="#14da4a" d="M16 61h1M23 61h1M30 61h1M37 61h1M44 61h1M65 61h1M93 61h1" />
<path stroke="#096d24" d="M33 61h1M70 61h1" />
<path stroke="#12da48" d="M86 61h1M100 61h1" />
<path stroke="#096b24" d="M7 62h1M10 62h1M14 62h1M21 62h1M24 62h2M28 62h1M35 62h1M38 62h2M46 62h1M48 62h2M52 62h1M62 62h1M66 62h1M68 62h3M73 62h2M76 62h1M82 62h1M85 62h1M88 62h1M91 62h2M94 62h1M96 62h2M102 62h1M106 62h1M108 62h2" />
<path stroke="#096b25" d="M8 62h1M11 62h1M15 62h1M17 62h1M19 62h1M56 62h1M80 62h2M87 62h1M90 62h1M101 62h1" />
<path stroke="#14d648" d="M9 62h1M51 62h1M65 62h1M72 62h1M86 62h1M93 62h1M100 62h1" />
<path stroke="#0a6b24" d="M12 62h2M18 62h1M20 62h1M22 62h1M26 62h2M29 62h1M31 62h4M40 62h3M45 62h1M47 62h1M50 62h1M53 62h3M57 62h1M59 62h2M63 62h2M71 62h1M75 62h1M77 62h1M84 62h1M89 62h1M95 62h1M98 62h2M104 62h2" />
<path stroke="#12d64a" d="M16 62h1M30 62h1" />
<path stroke="#12d648" d="M23 62h1M37 62h1M58 62h1M79 62h1" />
<path stroke="#0a6b25" d="M36 62h1M43 62h1M61 62h1M67 62h1M78 62h1M103 62h1" />
<path stroke="#14d64a" d="M44 62h1M107 62h1" />
<path stroke="#096824" d="M7 63h1M89 63h1" />
<path stroke="#096923" d="M8 63h1M10 63h1M12 63h1M14 63h2M19 63h1M21 63h2M24 63h4M31 63h2M34 63h3M39 63h4M46 63h1M48 63h1M50 63h1M52 63h4M59 63h2M63 63h2M66 63h2M71 63h1M73 63h1M76 63h3M80 63h2M83 63h3M87 63h1M90 63h3M95 63h5M101 63h1M105 63h2M108 63h1" />
<path stroke="#12d246" d="M9 63h1M16 63h1M23 63h1M30 63h1M37 63h1M44 63h1M51 63h1M58 63h1M65 63h1M72 63h1M86 63h1M93 63h1M100 63h1M107 63h1" />
<path stroke="#0a6924" d="M11 63h1M29 63h1M57 63h1M70 63h1M104 63h1" />
<path stroke="#096924" d="M13 63h1M43 63h1M45 63h1M74 63h1M94 63h1M109 63h1" />
<path stroke="#096823" d="M17 63h1M28 63h1M49 63h1M56 63h1M61 63h1M68 63h2M82 63h1M102 63h2" />
<path stroke="#0a6923" d="M18 63h1M20 63h1M38 63h1M47 63h1M62 63h1M88 63h1" />
<path stroke="#0a6823" d="M33 63h1M75 63h1" />
<path stroke="#14d246" d="M79 63h1" />
<path stroke="#096722" d="M7 64h2M21 64h1M28 64h1M31 64h1M54 64h1M68 64h1M74 64h1M83 64h1M88 64h1M91 64h1M96 64h1M101 64h1M105 64h1M108 64h1" />
<path stroke="#12ce44" d="M9 64h1M44 64h1M100 64h1" />
<path stroke="#096622" d="M10 64h6M17 64h4M24 64h1M29 64h1M32 64h3M36 64h1M38 64h1M40 64h1M42 64h1M46 64h2M50 64h1M53 64h1M55 64h3M60 64h1M63 64h1M66 64h2M71 64h1M73 64h1M76 64h3M81 64h2M87 64h1M89 64h2M92 64h1M94 64h1M97 64h3M103 64h1M109 64h1" />
<path stroke="#12cc44" d="M16 64h1M37 64h1M58 64h1M72 64h1M79 64h1M86 64h1" />
<path stroke="#086722" d="M22 64h1" />
<path stroke="#10ce44" d="M23 64h1M107 64h1" />
<path stroke="#096621" d="M25 64h1M49 64h1M62 64h1M64 64h1M102 64h1" />
<path stroke="#086622" d="M26 64h1M35 64h1M39 64h1M41 64h1M43 64h1M45 64h1M48 64h1M59 64h1M61 64h1M69 64h2M75 64h1M80 64h1M85 64h1M95 64h1M104 64h1M106 64h1" />
<path stroke="#086621" d="M27 64h1M52 64h1" />
<path stroke="#12cc42" d="M30 64h1M93 64h1" />
<path stroke="#10cc44" d="M51 64h1M65 64h1" />
<path stroke="#096721" d="M84 64h1" />
<path stroke="#086321" d="M7 65h1M13 65h1M15 65h1M26 65h2M34 65h1M48 65h1M54 65h3M59 65h1M61 65h1M70 65h1M81 65h1M89 65h1M92 65h1M98 65h1M103 65h1" />
<path stroke="#096420" d="M8 65h1M17 65h1M28 65h1M64 65h1" />
<path stroke="#10c842" d="M9 65h1M16 65h1M79 65h1" />
<path stroke="#096421" d="M10 65h1M20 65h3M31 65h2M38 65h1M41 65h1M46 65h1M53 65h1M60 65h1M68 65h2M74 65h2M77 65h2M83 65h1M104 65h1" />
<path stroke="#086421" d="M11 65h2M14 65h1M19 65h1M35 65h2M39 65h1M42 65h1M45 65h1M47 65h1M49 65h1M62 65h2M80 65h1M82 65h1M84 65h1M87 65h1M94 65h1M102 65h1M106 65h1M108 65h2" />
<path stroke="#086420" d="M18 65h1M24 65h2M43 65h1M50 65h1M52 65h1M88 65h1" />
<path stroke="#12c842" d="M23 65h1M58 65h1M65 65h1M72 65h1M93 65h1" />
<path stroke="#086320" d="M29 65h1M67 65h1M76 65h1M101 65h1M105 65h1" />
<path stroke="#12c640" d="M30 65h1" />
<path stroke="#096321" d="M33 65h1M40 65h1M57 65h1M66 65h1M71 65h1M73 65h1M91 65h1M95 65h3" />
<path stroke="#12c840" d="M37 65h1" />
<path stroke="#10c640" d="M44 65h1M51 65h1" />
<path stroke="#096320" d="M85 65h1M90 65h1M99 65h1" />
<path stroke="#10c642" d="M86 65h1M100 65h1" />
<path stroke="#12c642" d="M107 65h1" />
<path stroke="#086120" d="M7 66h1M13 66h2M17 66h1M22 66h1M34 66h1M36 66h1M39 66h1M41 66h1M50 66h1M53 66h2M64 66h1M67 66h1M71 66h1M78 66h1M82 66h1M91 66h2M96 66h3M102 66h1" />
<path stroke="#08621f" d="M8 66h1M10 66h3M18 66h1M21 66h1M25 66h1M28 66h1M33 66h1M42 66h2M57 66h1M60 66h3M85 66h1" />
<path stroke="#10c240" d="M9 66h1M51 66h1M65 66h1M93 66h1M100 66h1" />
<path stroke="#08611f" d="M15 66h1M20 66h1M29 66h1M31 66h2M45 66h1M47 66h2M55 66h2M66 66h1M68 66h1M74 66h2M89 66h2M94 66h1M103 66h1M106 66h1M108 66h1" />
<path stroke="#10c440" d="M16 66h1M23 66h1M37 66h1" />
<path stroke="#086220" d="M19 66h1M24 66h1M26 66h2M38 66h1M40 66h1M46 66h1M49 66h1M59 66h1M69 66h2M73 66h1M76 66h2M80 66h2M83 66h2M87 66h2M95 66h1M99 66h1M101 66h1M105 66h1M109 66h1" />
<path stroke="#12c23e" d="M30 66h1" />
<path stroke="#096220" d="M35 66h1" />
<path stroke="#10c23e" d="M44 66h1M58 66h1M79 66h1M107 66h1" />
<path stroke="#096120" d="M52 66h1M63 66h1M104 66h1" />
<path stroke="#10c43e" d="M72 66h1M86 66h1" />
<path stroke="#10be3e" d="M7 67h5M14 67h5M21 67h1M25 67h3M33 67h1M39 67h2M45 67h4M50 67h1M52 67h1M54 67h4M60 67h2M63 67h1M67 67h3M71 67h2M74 67h1M76 67h6M83 67h1M85 67h3M89 67h3M93 67h2M96 67h1M100 67h2M104 67h1M108 67h2" />
<path stroke="#10c03e" d="M12 67h2M19 67h2M22 67h1M24 67h1M29 67h4M34 67h1M36 67h3M41 67h3M49 67h1M51 67h1M53 67h1M58 67h1M62 67h1M64 67h1M66 67h1M70 67h1M73 67h1M75 67h1M82 67h1M84 67h1M88 67h1M98 67h2M103 67h1M106 67h1" />
<path stroke="#0ebe3e" d="M23 67h1M28 67h1M35 67h1M65 67h1M92 67h1M102 67h1M107 67h1" />
<path stroke="#0ec03e" d="M44 67h1M59 67h1M95 67h1M97 67h1" />
<path stroke="#10be3c" d="M105 67h1" />
<path stroke="#085d1e" d="M7 68h1M11 68h2M24 68h2M28 68h2M31 68h2M34 68h1M36 68h1M38 68h2M46 68h3M50 68h1M52 68h1M56 68h2M59 68h1M61 68h1M63 68h2M76 68h1M83 68h1M85 68h1M90 68h1M92 68h1M98 68h1M101 68h4M106 68h1M108 68h1" />
<path stroke="#085e1d" d="M8 68h1M19 68h1M88 68h1M105 68h1M109 68h1" />
<path stroke="#10ba3c" d="M9 68h1M30 68h1M51 68h1M93 68h1M100 68h1" />
<path stroke="#075d1d" d="M10 68h1M21 68h1M45 68h1M67 68h1M70 68h2M73 68h1" />
<path stroke="#075d1e" d="M13 68h1M15 68h1M33 68h1M35 68h1M43 68h1M49 68h1M54 68h1M60 68h1M66 68h1M69 68h1M74 68h2M78 68h1M81 68h2M84 68h1M89 68h1M91 68h1M97 68h1M99 68h1" />
<path stroke="#075e1e" d="M14 68h1M22 68h1M77 68h1M94 68h1M96 68h1" />
<path stroke="#0eba3a" d="M16 68h1" />
<path stroke="#085d1d" d="M17 68h1M40 68h1M42 68h1M95 68h1" />
<path stroke="#085e1e" d="M18 68h1M20 68h1M26 68h2M41 68h1M53 68h1M55 68h1M62 68h1M87 68h1" />
<path stroke="#10bc3c" d="M23 68h1M58 68h1" />
<path stroke="#0ebc3c" d="M37 68h1M65 68h1M72 68h1M86 68h1" />
<path stroke="#10ba3a" d="M44 68h1M107 68h1" />
<path stroke="#075e1d" d="M68 68h1M80 68h1" />
<path stroke="#0eba3c" d="M79 68h1" />
<path stroke="#075a1d" d="M7 69h2M17 69h1M41 69h1M48 69h1M50 69h1M54 69h1M64 69h1M69 69h1M77 69h1M81 69h1M91 69h2" />
<path stroke="#10b438" d="M9 69h1" />
<path stroke="#075b1d" d="M10 69h2M13 69h2M18 69h1M21 69h2M24 69h1M27 69h3M32 69h1M39 69h2M46 69h2M49 69h1M52 69h1M55 69h1M59 69h1M62 69h2M66 69h1M68 69h1M70 69h1M75 69h1M80 69h1M85 69h1M90 69h1M94 69h1M96 69h1M98 69h2M101 69h2M108 69h2" />
<path stroke="#085a1c" d="M12 69h1M19 69h1M57 69h1" />
<path stroke="#075a1c" d="M15 69h1M36 69h1M45 69h1M74 69h1M88 69h1" />
<path stroke="#0eb63a" d="M16 69h1M23 69h1M65 69h1M79 69h1M86 69h1" />
<path stroke="#075b1c" d="M20 69h1M25 69h1M43 69h1M60 69h1M71 69h1M73 69h1M76 69h1M83 69h1M87 69h1M95 69h1M97 69h1" />
<path stroke="#085b1d" d="M26 69h1M31 69h1M33 69h1M35 69h1M61 69h1M82 69h1M89 69h1M103 69h1M105 69h2" />
<path stroke="#0eb43a" d="M30 69h1M51 69h1M93 69h1M100 69h1" />
<path stroke="#085b1c" d="M34 69h1M53 69h1M56 69h1M78 69h1M84 69h1M104 69h1" />
<path stroke="#0eb438" d="M37 69h1" />
<path stroke="#085a1d" d="M38 69h1M42 69h1M67 69h1" />
<path stroke="#10b63a" d="M44 69h1" />
<path stroke="#0eb638" d="M58 69h1M107 69h1" />
<path stroke="#10b638" d="M72 69h1" />
<path stroke="#06591c" d="M7 70h1M10 70h1M55 70h1M70 70h1M94 70h1M99 70h1" />
<path stroke="#07581b" d="M8 70h1M14 70h2M31 70h3M35 70h1M57 70h1M80 70h1M85 70h1M91 70h1M102 70h1" />
<path stroke="#0eb236" d="M9 70h1M16 70h1M30 70h1M44 70h1M51 70h1M58 70h1M65 70h1M107 70h1" />
<path stroke="#06581c" d="M11 70h1M69 70h1" />
<path stroke="#07591c" d="M12 70h1M17 70h1M21 70h1M24 70h1M27 70h1M29 70h1M39 70h1M41 70h1M43 70h1M52 70h1M54 70h1M59 70h1M61 70h1M63 70h2M68 70h1M73 70h1M81 70h2M84 70h1M89 70h1M92 70h1M101 70h1M105 70h1M108 70h1" />
<path stroke="#07581c" d="M13 70h1M19 70h1M22 70h1M28 70h1M38 70h1M50 70h1M53 70h1M66 70h2M76 70h1M95 70h2M104 70h1M109 70h1" />
<path stroke="#07591b" d="M18 70h1M20 70h1M25 70h2M34 70h1M36 70h1M42 70h1M45 70h5M56 70h1M60 70h1M74 70h2M77 70h2M83 70h1M88 70h1M90 70h1M98 70h1M103 70h1" />
<path stroke="#0cb236" d="M23 70h1M72 70h1" />
<path stroke="#0eb036" d="M37 70h1" />
<path stroke="#06581b" d="M40 70h1" />
<path stroke="#06591b" d="M62 70h1M71 70h1M87 70h1M97 70h1M106 70h1" />
<path stroke="#0eb238" d="M79 70h1M86 70h1M93 70h1M100 70h1" />
<path stroke="#07571b" d="M7 71h2M10 71h1M17 71h5M26 71h1M28 71h1M31 71h1M33 71h3M39 71h2M43 71h1M46 71h1M50 71h1M59 71h3M67 71h1M69 71h1M71 71h1M73 71h3M80 71h3M89 71h4M95 71h2M99 71h1M101 71h2M104 71h2M108 71h2" />
<path stroke="#0eae36" d="M9 71h1M16 71h1M30 71h1M37 71h1M44 71h1M51 71h1M58 71h1M93 71h1M100 71h1M107 71h1" />
<path stroke="#07571a" d="M11 71h1M24 71h1M106 71h1" />
<path stroke="#07561b" d="M12 71h1M14 71h2M29 71h1M32 71h1M41 71h1M45 71h1M53 71h3M57 71h1M64 71h1M68 71h1M77 71h1M83 71h3M87 71h1M94 71h1M97 71h1" />
<path stroke="#06571b" d="M13 71h1M22 71h1M27 71h1M38 71h1M42 71h1M47 71h2M52 71h1M56 71h1M62 71h2M66 71h1M76 71h1M78 71h1M98 71h1M103 71h1" />
<path stroke="#0cac34" d="M23 71h1" />
<path stroke="#06561b" d="M25 71h1M36 71h1M70 71h1M88 71h1" />
<path stroke="#06561a" d="M49 71h1" />
<path stroke="#0eae34" d="M65 71h1" />
<path stroke="#0cac36" d="M72 71h1" />
<path stroke="#0cae36" d="M79 71h1" />
<path stroke="#0eac36" d="M86 71h1" />
<path stroke="#06551a" d="M7 72h2M11 72h4M21 72h2M26 72h1M35 72h1M39 72h1M42 72h2M50 72h1M53 72h1M57 72h1M62 72h2M70 72h1M73 72h1M80 72h2M85 72h1M89 72h1M94 72h3M101 72h1M109 72h1" />
<path stroke="#0caa34" d="M9 72h1M16 72h1M23 72h1M44 72h1M51 72h1M65 72h1M86 72h1M107 72h1" />
<path stroke="#065519" d="M10 72h1M47 72h1M91 72h1M102 72h1M104 72h2" />
<path stroke="#075519" d="M15 72h1M20 72h1M82 72h1M90 72h1M92 72h1" />
<path stroke="#06541a" d="M17 72h1M24 72h1M27 72h1M31 72h2M36 72h1M40 72h2M45 72h1M55 72h1M66 72h2M69 72h1M71 72h1M74 72h2M78 72h1M83 72h1M87 72h2M97 72h2M103 72h1M106 72h1" />
<path stroke="#075419" d="M18 72h1M68 72h1" />
<path stroke="#07551a" d="M19 72h1M34 72h1M46 72h1M48 72h1M52 72h1M60 72h1M64 72h1M76 72h2M84 72h1" />
<path stroke="#07541a" d="M25 72h1M29 72h1M33 72h1M38 72h1M49 72h1M59 72h1M61 72h1M108 72h1" />
<path stroke="#065419" d="M28 72h1M54 72h1M56 72h1M99 72h1" />
<path stroke="#0ea832" d="M30 72h1" />
<path stroke="#0eaa34" d="M37 72h1M93 72h1M100 72h1" />
<path stroke="#0ca834" d="M58 72h1M72 72h1M79 72h1" />
<path stroke="#065219" d="M7 73h1M10 73h1M12 73h4M17 73h2M20 73h3M24 73h4M31 73h3M35 73h2M41 73h3M45 73h2M48 73h3M52 73h6M59 73h1M61 73h2M64 73h1M66 73h1M68 73h3M76 73h1M78 73h1M80 73h2M83 73h3M88 73h4M96 73h2M99 73h1M101 73h1M103 73h4M108 73h1" />
<path stroke="#065218" d="M8 73h1M11 73h1M28 73h2M34 73h1M38 73h2M47 73h1M71 73h1M73 73h3M82 73h1M94 73h2M98 73h1M102 73h1M109 73h1" />
<path stroke="#0ca432" d="M9 73h1M16 73h1M23 73h1M37 73h1M44 73h1M58 73h1M65 73h1M79 73h1M86 73h1M100 73h1M107 73h1" />
<path stroke="#065319" d="M19 73h1M40 73h1M63 73h1M67 73h1M77 73h1M87 73h1" />
<path stroke="#0ca632" d="M30 73h1" />
<path stroke="#0ca430" d="M51 73h1M72 73h1M93 73h1" />
<path stroke="#075219" d="M60 73h1" />
<path stroke="#065318" d="M92 73h1" />
<path stroke="#0ca030" d="M7 74h3M16 74h1M19 74h2M24 74h1M32 74h1M35 74h1M37 74h1M39 74h3M50 74h1M52 74h3M56 74h1M58 74h1M60 74h3M64 74h1M66 74h1M68 74h2M73 74h1M75 74h1M77 74h1M79 74h2M82 74h2M90 74h4M96 74h2M99 74h2M104 74h1M107 74h2" />
<path stroke="#0ca02e" d="M10 74h2M14 74h1M27 74h2M30 74h1M36 74h1M43 74h1M46 74h2M51 74h1M55 74h1M65 74h1M71 74h2M74 74h1M76 74h1M85 74h1M87 74h1M95 74h1M98 74h1M101 74h2M109 74h1" />
<path stroke="#0aa030" d="M12 74h2M15 74h1M17 74h2M22 74h1M26 74h1M29 74h1M34 74h1M38 74h1M42 74h1M44 74h1M48 74h1M57 74h1M78 74h1M84 74h1M88 74h2M105 74h1" />
<path stroke="#0aa02e" d="M21 74h1M23 74h1M25 74h1M31 74h1M33 74h1M49 74h1M59 74h1M67 74h1M70 74h1M81 74h1M94 74h1M103 74h1M106 74h1" />
<path stroke="#0c9e30" d="M45 74h1" />
<path stroke="#0a9e2e" d="M63 74h1" />
<path stroke="#0c9e2e" d="M86 74h1M23 75h1" />
<path stroke="#064e17" d="M7 75h1M12 75h1M18 75h2M22 75h1M26 75h2M29 75h1M33 75h1M35 75h2M38 75h3M42 75h1M45 75h5M52 75h2M55 75h1M59 75h1M61 75h1M64 75h1M66 75h1M69 75h2M73 75h2M80 75h1M82 75h1M90 75h2M94 75h1M99 75h1M102 75h2M105 75h1M109 75h1" />
<path stroke="#054e17" d="M8 75h1M10 75h2M13 75h3M17 75h1M20 75h1M24 75h2M31 75h2M34 75h1M41 75h1M50 75h1M54 75h1M57 75h1M60 75h1M62 75h2M67 75h1M71 75h1M75 75h1M77 75h2M81 75h1M83 75h1M85 75h1M87 75h3M92 75h1M95 75h4M101 75h1M104 75h1M108 75h1" />
<path stroke="#0a9c2e" d="M9 75h1M30 75h1M44 75h1M51 75h1M79 75h1M86 75h1M93 75h1M100 75h1M107 75h1" />
<path stroke="#0c9c2e" d="M16 75h1M37 75h1M58 75h1M65 75h1M72 75h1" />
<path stroke="#054f17" d="M21 75h1M56 75h1M68 75h1M76 75h1" />
<path stroke="#054e18" d="M28 75h1" />
<path stroke="#064f17" d="M43 75h1M84 75h1" />
<path stroke="#064e18" d="M106 75h1" />
<path stroke="#064c16" d="M7 76h1M41 76h1M46 76h1M60 76h1M63 76h1M67 76h1M77 76h1M83 76h1M90 76h1M94 76h1M96 76h1M99 76h1" />
<path stroke="#054c16" d="M8 76h1M10 76h6M18 76h1M20 76h3M24 76h6M31 76h4M36 76h1M38 76h3M42 76h2M45 76h1M48 76h3M52 76h3M56 76h2M61 76h1M64 76h1M68 76h1M70 76h2M74 76h3M81 76h2M84 76h2M87 76h3M91 76h2M95 76h1M98 76h1M101 76h6M108 76h2" />
<path stroke="#0a982c" d="M9 76h1M23 76h1M30 76h1M37 76h1M44 76h1M51 76h1M65 76h1M72 76h1M79 76h1M86 76h1M93 76h1M107 76h1" />
<path stroke="#0c982c" d="M16 76h1M58 76h1M100 76h1" />
<path stroke="#054c15" d="M17 76h1M19 76h1M35 76h1M47 76h1M59 76h1M69 76h1M80 76h1M97 76h1" />
<path stroke="#064c15" d="M55 76h1M66 76h1" />
<path stroke="#054d16" d="M62 76h1" />
<path stroke="#054d15" d="M73 76h1" />
<path stroke="#064d16" d="M78 76h1" />
<path stroke="#054a15" d="M7 77h2M10 77h2M14 77h2M18 77h2M21 77h2M25 77h1M28 77h1M31 77h1M33 77h4M38 77h1M42 77h1M48 77h1M50 77h1M54 77h1M57 77h1M61 77h1M63 77h2M66 77h3M70 77h2M73 77h4M78 77h1M80 77h2M83 77h1M85 77h1M88 77h1M90 77h3M94 77h1M96 77h1M98 77h1M102 77h2M105 77h1M108 77h1" />
<path stroke="#0a942a" d="M9 77h1M30 77h1M37 77h1M51 77h1M58 77h1M65 77h1M86 77h1M93 77h1" />
<path stroke="#054915" d="M12 77h1M24 77h1M29 77h1M32 77h1M45 77h2M49 77h1M52 77h2M62 77h1M69 77h1M82 77h1M95 77h1M101 77h1M104 77h1M109 77h1" />
<path stroke="#044915" d="M13 77h1M40 77h1M87 77h1M97 77h1M99 77h1" />
<path stroke="#089228" d="M16 77h1" />
<path stroke="#044a14" d="M17 77h1" />
<path stroke="#044a15" d="M20 77h1M26 77h2M41 77h1M47 77h1M55 77h2M59 77h2M84 77h1M89 77h1" />
<path stroke="#08922a" d="M23 77h1" />
<path stroke="#054a14" d="M39 77h1M43 77h1M77 77h1M106 77h1" />
<path stroke="#0a922a" d="M44 77h1M107 77h1" />
<path stroke="#08942a" d="M72 77h1M79 77h1" />
<path stroke="#0a9428" d="M100 77h1" />
<path stroke="#054714" d="M7 78h2M21 78h1M62 78h1M78 78h1M94 78h1" />
<path stroke="#0a9028" d="M9 78h1M37 78h1M65 78h1M93 78h1M100 78h1" />
<path stroke="#054813" d="M10 78h1M49 78h1M64 78h1M70 78h1M82 78h1M90 78h1" />
<path stroke="#044814" d="M11 78h1M13 78h1M15 78h1M17 78h1M19 78h1M24 78h2M31 78h1M36 78h1M39 78h1M45 78h2M48 78h1M54 78h1M60 78h2M69 78h1M74 78h1M77 78h1M80 78h1M83 78h1M85 78h1M87 78h1M97 78h1M99 78h1M101 78h3" />
<path stroke="#044813" d="M12 78h1M38 78h1M81 78h1" />
<path stroke="#054814" d="M14 78h1M20 78h1M22 78h1M26 78h4M32 78h4M41 78h1M43 78h1M47 78h1M52 78h2M55 78h2M63 78h1M67 78h2M71 78h1M73 78h1M75 78h2M84 78h1M88 78h2M91 78h1M95 78h2M105 78h2M109 78h1" />
<path stroke="#0a8e28" d="M16 78h1M30 78h1M44 78h1M58 78h1M79 78h1M86 78h1" />
<path stroke="#044714" d="M18 78h1M42 78h1M50 78h1M59 78h1M66 78h1M92 78h1M98 78h1M108 78h1" />
<path stroke="#089028" d="M23 78h1M51 78h1M72 78h1M107 78h1" />
<path stroke="#044713" d="M40 78h1M57 78h1M104 78h1" />
<path stroke="#044613" d="M7 79h2M10 79h4M17 79h1M19 79h1M21 79h1M25 79h1M27 79h1M29 79h1M31 79h3M35 79h1M38 79h3M46 79h1M49 79h1M52 79h2M55 79h2M61 79h1M64 79h1M69 79h1M71 79h1M73 79h5M81 79h3M87 79h2M92 79h1M94 79h1M96 79h4M105 79h2M109 79h1" />
<path stroke="#088c26" d="M9 79h1M23 79h1M30 79h1M37 79h1M51 79h1M65 79h1M72 79h1M79 79h1" />
<path stroke="#044614" d="M14 79h1M18 79h1M22 79h1M41 79h1M47 79h2M62 79h1M66 79h1M68 79h1M80 79h1M91 79h1" />
<path stroke="#054613" d="M15 79h1M24 79h1M26 79h1M28 79h1M34 79h1M42 79h2M50 79h1M54 79h1M57 79h1M59 79h2M67 79h1M78 79h1M84 79h2M89 79h2M95 79h1M101 79h4M108 79h1" />
<path stroke="#0a8c26" d="M16 79h1M58 79h1M93 79h1M100 79h1" />
<path stroke="#054614" d="M20 79h1M36 79h1M45 79h1M63 79h1M70 79h1" />
<path stroke="#0a8c28" d="M44 79h1M107 79h1" />
<path stroke="#088c28" d="M86 79h1" />
<path stroke="#044412" d="M7 80h1M10 80h1M13 80h3M17 80h2M20 80h2M25 80h2M28 80h1M32 80h5M38 80h6M45 80h4M52 80h2M55 80h2M59 80h2M62 80h3M67 80h1M69 80h1M71 80h1M73 80h3M77 80h1M80 80h1M82 80h4M87 80h1M89 80h2M92 80h1M94 80h3M98 80h2M101 80h6M109 80h1" />
<path stroke="#044413" d="M8 80h1M11 80h2M19 80h1M24 80h1M27 80h1M29 80h1M49 80h2M57 80h1M66 80h1M68 80h1M76 80h1M81 80h1M88 80h1M91 80h1" />
<path stroke="#088824" d="M9 80h1M16 80h1M23 80h1M37 80h1M51 80h1M58 80h1M72 80h1M79 80h1M86 80h1M100 80h1M107 80h1" />
<path stroke="#044312" d="M22 80h1M54 80h1M78 80h1" />
<path stroke="#0a8826" d="M30 80h1" />
<path stroke="#044313" d="M31 80h1M61 80h1" />
<path stroke="#088626" d="M44 80h1" />
<path stroke="#088826" d="M65 80h1M93 80h1" />
<path stroke="#054412" d="M70 80h1M97 80h1" />
<path stroke="#054413" d="M108 80h1" />
<path stroke="#088222" d="M7 81h1M12 81h1M27 81h1M34 81h2M47 81h1M58 81h1M65 81h1M70 81h1M80 81h1M92 81h2M97 81h1M102 81h1M108 81h2" />
<path stroke="#088422" d="M8 81h4M14 81h1M16 81h2M19 81h1M22 81h4M29 81h5M37 81h1M40 81h1M46 81h1M52 81h3M60 81h1M64 81h1M68 81h2M71 81h5M79 81h1M82 81h1M85 81h1M87 81h1M91 81h1M96 81h1M98 81h2M101 81h1" />
<path stroke="#068424" d="M13 81h1M39 81h1M104 81h2" />
<path stroke="#068422" d="M15 81h1M18 81h1M21 81h1M41 81h1M44 81h2M50 81h1M57 81h1M63 81h1M66 81h1M78 81h1M83 81h2M86 81h1M88 81h1M100 81h1M103 81h1M106 81h1" />
<path stroke="#068222" d="M20 81h1M55 81h2M59 81h1M67 81h1" />
<path stroke="#068224" d="M26 81h1M36 81h1M94 81h2" />
<path stroke="#088424" d="M28 81h1M38 81h1M43 81h1M49 81h1M51 81h1M61 81h2M76 81h2M81 81h1M89 81h1M107 81h1" />
<path stroke="#088224" d="M42 81h1M48 81h1M90 81h1" />
<path stroke="#034010" d="M7 82h1M10 82h1M18 82h1M20 82h1M26 82h3M33 82h1M38 82h2M41 82h1M43 82h1M45 82h5M52 82h1M56 82h2M61 82h3M67 82h1M70 82h1M74 82h1M77 82h2M81 82h1M84 82h2M89 82h4M94 82h1M96 82h1M99 82h1M101 82h2M108 82h2" />
<path stroke="#044010" d="M8 82h1M12 82h1M14 82h1M17 82h1M21 82h1M24 82h2M29 82h1M32 82h1M34 82h2M40 82h1M50 82h1M55 82h1M59 82h1M64 82h1M66 82h1M71 82h1M73 82h1M80 82h1M88 82h1M95 82h1M97 82h2M103 82h1M106 82h1" />
<path stroke="#088022" d="M9 82h1" />
<path stroke="#044011" d="M11 82h1M13 82h1M22 82h1M54 82h1M82 82h2M104 82h2" />
<path stroke="#043f10" d="M15 82h1M68 82h1M73 83h1" />
<path stroke="#068022" d="M16 82h1M58 82h1" />
<path stroke="#034011" d="M19 82h1M31 82h1M42 82h1M53 82h1M60 82h1M69 82h1M75 82h2" />
<path stroke="#068020" d="M23 82h1M30 82h1M37 82h1M86 82h1M100 82h1M107 82h1" />
<path stroke="#033f10" d="M36 82h1M10 83h1M13 83h1M20 83h1M32 83h1M36 83h1M63 83h1M67 83h1M75 83h1M80 83h1M94 83h1" />
<path stroke="#067e20" d="M44 82h1M9 83h1M23 83h1M37 83h1M79 83h1M93 83h1" />
<path stroke="#088020" d="M51 82h1M65 82h1M79 82h1M93 82h1" />
<path stroke="#087e22" d="M72 82h1" />
<path stroke="#043f11" d="M87 82h1" />
<path stroke="#033e10" d="M7 83h1M14 83h1M19 83h1M24 83h1M28 83h2M31 83h1M33 83h2M38 83h3M42 83h2M48 83h1M55 83h1M57 83h1M59 83h4M68 83h1M70 83h1M76 83h3M81 83h3M88 83h2M103 83h2M106 83h1M109 83h1" />
<path stroke="#033e0f" d="M8 83h1M15 83h1M22 83h1M41 83h1M50 83h1M52 83h1M56 83h1M64 83h1M91 83h1M97 83h1M101 83h2M105 83h1M108 83h1" />
<path stroke="#043e10" d="M11 83h2M17 83h2M21 83h1M26 83h1M35 83h1M45 83h2M49 83h1M53 83h2M96 83h1M98 83h2" />
<path stroke="#067c20" d="M16 83h1M44 83h1M51 83h1M58 83h1M72 83h1" />
<path stroke="#043e0f" d="M25 83h1M66 83h1M69 83h1M87 83h1M90 83h1M92 83h1M95 83h1" />
<path stroke="#033f0f" d="M27 83h1M47 83h1M74 83h1" />
<path stroke="#087c20" d="M30 83h1M100 83h1" />
<path stroke="#087e20" d="M65 83h1M86 83h1M107 83h1" />
<path stroke="#043f0f" d="M71 83h1M84 83h2" />
<path stroke="#033c0f" d="M7 84h2M10 84h1M12 84h1M15 84h1M20 84h3M24 84h1M26 84h1M28 84h2M32 84h2M38 84h1M41 84h2M45 84h2M48 84h1M52 84h1M55 84h2M61 84h3M68 84h4M74 84h2M78 84h1M82 84h2M85 84h1M87 84h2M90 84h1M98 84h2M101 84h1M106 84h1M109 84h1" />
<path stroke="#06781e" d="M9 84h1M37 84h1M51 84h1M58 84h1M65 84h1M72 84h1M79 84h1M86 84h1M100 84h1" />
<path stroke="#033c0e" d="M11 84h1M39 84h2M59 84h1M73 84h1M80 84h1M94 84h2" />
<path stroke="#033d0f" d="M13 84h1M17 84h3M25 84h1M31 84h1M34 84h3M43 84h1M47 84h1M49 84h2M53 84h1M60 84h1M66 84h2M76 84h1M81 84h1M84 84h1M91 84h1M96 84h2M102 84h4M108 84h1" />
<path stroke="#033d0e" d="M14 84h1M27 84h1M54 84h1M57 84h1M77 84h1M89 84h1M92 84h1" />
<path stroke="#06781c" d="M16 84h1M107 84h1" />
<path stroke="#067a1e" d="M23 84h1M30 84h1M44 84h1M93 84h1" />
<path stroke="#023c0e" d="M64 84h1" />
<path stroke="#023a0e" d="M7 85h1M26 85h1M28 85h1M43 85h1M46 85h2M50 85h1M54 85h2M60 85h1M73 85h1M75 85h1M78 85h1M81 85h1M85 85h1M101 85h1M103 85h1" />
<path stroke="#033b0e" d="M8 85h1M10 85h1M13 85h1M15 85h1M24 85h2M31 85h1M36 85h1M45 85h1M49 85h1M66 85h1M74 85h1M77 85h1M83 85h2M89 85h1M96 85h1M106 85h1M109 85h1" />
<path stroke="#06761c" d="M9 85h1M51 85h1M65 85h1" />
<path stroke="#033a0e" d="M11 85h2M14 85h1M17 85h2M21 85h1M27 85h1M29 85h1M32 85h3M38 85h5M48 85h1M52 85h2M57 85h1M61 85h2M64 85h1M68 85h1M70 85h2M82 85h1M87 85h2M90 85h1M92 85h1M94 85h2M97 85h3M102 85h1M105 85h1M108 85h1" />
<path stroke="#04741c" d="M16 85h1M30 85h1" />
<path stroke="#033a0d" d="M19 85h1M35 85h1M80 85h1" />
<path stroke="#023a0d" d="M20 85h1M91 85h1" />
<path stroke="#023b0e" d="M22 85h1M56 85h1M59 85h1M63 85h1M67 85h1M69 85h1M76 85h1M104 85h1" />
<path stroke="#06741c" d="M23 85h1M44 85h1M58 85h1M79 85h1M86 85h1M93 85h1M100 85h1" />
<path stroke="#06761a" d="M37 85h1" />
<path stroke="#04761c" d="M72 85h1M107 85h1" />
<path stroke="#02390d" d="M7 86h2M10 86h1M14 86h1M17 86h2M20 86h2M29 86h1M31 86h1M36 86h1M38 86h1M41 86h1M46 86h2M50 86h1M52 86h1M55 86h1M57 86h1M60 86h1M62 86h1M64 86h1M67 86h1M69 86h3M76 86h3M80 86h1M87 86h1M95 86h1M103 86h1M106 86h1M109 86h1" />
<path stroke="#06721a" d="M9 86h1M16 86h1M30 86h1M58 86h1M93 86h1" />
<path stroke="#03380d" d="M11 86h1M22 86h1M32 86h1M43 86h1M48 86h1M54 86h1M88 86h2M92 86h1M96 86h1M102 86h1M15 87h1M49 87h1M66 87h1M81 87h1M92 87h1" />
<path stroke="#03390d" d="M12 86h1M15 86h1M19 86h1M25 86h2M28 86h1M34 86h2M39 86h1M49 86h1M53 86h1M61 86h1M63 86h1M66 86h1M73 86h1M81 86h1M83 86h3M90 86h2M94 86h1M98 86h1M101 86h1M104 86h2M108 86h1" />
<path stroke="#02380d" d="M13 86h1M24 86h1M27 86h1M33 86h1M40 86h1M42 86h1M45 86h1M56 86h1M59 86h1M68 86h1M74 86h2M82 86h1M97 86h1M99 86h1M29 87h1M38 87h1M53 87h1M56 87h1M62 87h1M88 87h1M98 87h1M108 87h1" />
<path stroke="#04701a" d="M23 86h1M51 86h1M86 86h1M72 87h1M93 87h1M100 87h1" />
<path stroke="#04721a" d="M37 86h1M65 86h1M79 86h1" />
<path stroke="#06701a" d="M44 86h1M72 86h1M100 86h1M107 86h1" />
<path stroke="#02370d" d="M7 87h2M11 87h1M14 87h1M18 87h1M21 87h1M24 87h1M31 87h1M34 87h1M39 87h1M42 87h2M48 87h1M50 87h1M59 87h2M73 87h2M76 87h1M82 87h2M90 87h2M95 87h2" />
<path stroke="#046e18" d="M9 87h1M30 87h1M65 87h1M79 87h1M107 87h1" />
<path stroke="#03370d" d="M10 87h1M25 87h1M28 87h1M67 87h1M84 87h1M102 87h1" />
<path stroke="#02370c" d="M12 87h1M20 87h1M22 87h1M26 87h1M32 87h2M41 87h1M46 87h2M55 87h1M57 87h1M61 87h1M63 87h2M68 87h1M70 87h2M75 87h1M78 87h1M80 87h1M85 87h1M87 87h1M97 87h1M99 87h1M101 87h1M105 87h1" />
<path stroke="#02380c" d="M13 87h1M52 87h1M69 87h1M94 87h1M104 87h1" />
<path stroke="#046e1a" d="M16 87h1M23 87h1M37 87h1M86 87h1" />
<path stroke="#03370c" d="M17 87h1M19 87h1M35 87h2M40 87h1M45 87h1M54 87h1M77 87h1M89 87h1M109 87h1" />
<path stroke="#03380c" d="M27 87h1M103 87h1M106 87h1" />
<path stroke="#066e18" d="M44 87h1M58 87h1" />
<path stroke="#066e1a" d="M51 87h1" />
<path stroke="#046c16" d="M7 88h2M20 88h1M29 88h1M38 88h1M41 88h1M44 88h1M52 88h2M59 88h1M61 88h1M69 88h2M75 88h1M77 88h1M80 88h1M92 88h1M94 88h1M100 88h1M102 88h1" />
<path stroke="#046a18" d="M9 88h1M13 88h1M21 88h2M25 88h2M30 88h1M32 88h3M39 88h1M42 88h2M45 88h2M49 88h1M51 88h1M54 88h2M57 88h2M60 88h1M64 88h1M71 88h2M76 88h1M78 88h1M82 88h1M84 88h1M89 88h2M93 88h1M95 88h1M97 88h1M99 88h1M101 88h1M104 88h1M106 88h2M109 88h1" />
<path stroke="#046a16" d="M10 88h1M12 88h1M14 88h1M16 88h1M18 88h1M23 88h2M27 88h2M35 88h1M50 88h1M63 88h1M68 88h1M79 88h1M86 88h2M96 88h1M98 88h1" />
<path stroke="#046c18" d="M11 88h1M15 88h1M17 88h1M31 88h1M36 88h2M40 88h1M47 88h2M56 88h1M62 88h1M65 88h3M73 88h2M81 88h1M88 88h1M91 88h1M103 88h1M105 88h1M108 88h1" />
<path stroke="#066a18" d="M19 88h1" />
<path stroke="#066c18" d="M83 88h1" />
<path stroke="#066a16" d="M85 88h1" />
<path stroke="#02340a" d="M7 89h1M29 89h1M69 89h1M75 89h1M103 89h1" />
<path stroke="#01340b" d="M8 89h1M10 89h1M19 89h2M22 89h1M27 89h1M39 89h1M47 89h1M83 89h1M96 89h1M108 89h2" />
<path stroke="#046814" d="M9 89h1" />
<path stroke="#02340b" d="M11 89h4M17 89h2M21 89h1M24 89h3M31 89h1M33 89h3M38 89h1M40 89h1M42 89h2M45 89h1M50 89h1M53 89h5M59 89h1M61 89h1M63 89h2M66 89h3M71 89h1M73 89h2M77 89h1M81 89h2M84 89h1M87 89h3M91 89h2M94 89h1M97 89h3M101 89h1" />
<path stroke="#02330b" d="M15 89h1M28 89h1M41 89h1M48 89h2M52 89h1M60 89h1M70 89h1M76 89h1M78 89h1M90 89h1M95 89h1M102 89h1M105 89h2" />
<path stroke="#046616" d="M16 89h1M79 89h1M100 89h1" />
<path stroke="#046816" d="M23 89h1M30 89h1M37 89h1M51 89h1M65 89h1M72 89h1M86 89h1M107 89h1" />
<path stroke="#01330b" d="M32 89h1M46 89h1M85 89h1" />
<path stroke="#01340a" d="M36 89h1M62 89h1M80 89h1" />
<path stroke="#026616" d="M44 89h1M58 89h1" />
<path stroke="#046614" d="M93 89h1" />
<path stroke="#02330a" d="M104 89h1M12 90h1M19 90h1M25 90h1M42 90h1M90 90h1" />
<path stroke="#01320b" d="M7 90h1M13 90h1M18 90h1M94 90h1M98 90h1" />
<path stroke="#02320a" d="M8 90h1M14 90h2M20 90h2M27 90h2M38 90h1M40 90h2M47 90h2M52 90h1M57 90h1M59 90h4M64 90h1M68 90h4M73 90h2M76 90h2M82 90h4M91 90h2M95 90h2M101 90h1M105 90h1M108 90h2" />
<path stroke="#046414" d="M9 90h1M16 90h1M37 90h1M44 90h1M51 90h1M58 90h1M79 90h1M93 90h1M107 90h1" />
<path stroke="#01320a" d="M10 90h2M17 90h1M22 90h1M24 90h1M26 90h1M29 90h1M31 90h1M33 90h4M43 90h1M45 90h2M49 90h2M53 90h4M63 90h1M66 90h1M75 90h1M78 90h1M80 90h2M87 90h3M97 90h1M99 90h1M102 90h3M106 90h1" />
<path stroke="#026414" d="M23 90h1M30 90h1M65 90h1M72 90h1M86 90h1M100 90h1" />
<path stroke="#01330a" d="M32 90h1M67 90h1" />
<path stroke="#02320b" d="M39 90h1" />
<path stroke="#013109" d="M7 91h2M10 91h2M15 91h1M18 91h1M22 91h1M27 91h1M33 91h1M38 91h1M47 91h1M60 91h1M64 91h1M67 91h3M75 91h1M82 91h1M84 91h2M87 91h1M89 91h1M91 91h1M102 91h1" />
<path stroke="#026012" d="M9 91h1M37 91h1M44 91h1M58 91h1M65 91h1M93 91h1M9 92h1M23 92h1M107 92h1" />
<path stroke="#023109" d="M12 91h1M35 91h2M52 91h1M55 91h1M63 91h1M71 91h1M73 91h1M77 91h1M80 91h1M92 91h1M99 91h1M103 91h3" />
<path stroke="#013009" d="M13 91h1M19 91h1M24 91h1M26 91h1M28 91h1M31 91h2M39 91h1M41 91h1M48 91h2M59 91h1M70 91h1M76 91h1M78 91h1M88 91h1M90 91h1M94 91h2M109 91h1M10 92h2M15 92h1M20 92h3M24 92h1M27 92h2M32 92h4M41 92h2M45 92h1M48 92h3M53 92h2M57 92h1M59 92h1M63 92h2M66 92h1M68 92h2M80 92h1M82 92h1M85 92h1M88 92h4M94 92h4M101 92h1" />
<path stroke="#023009" d="M14 91h1M20 91h2M42 91h1M45 91h1M50 91h1M53 91h1M101 91h1M8 92h1M17 92h1M29 92h1M38 92h1M43 92h1M71 92h1M74 92h1M77 92h1M83 92h2M87 92h1M106 92h1" />
<path stroke="#026212" d="M16 91h1M23 91h1M79 91h1M100 91h1" />
<path stroke="#01300a" d="M17 91h1M25 91h1M34 91h1M54 91h1M61 91h2M66 91h1M106 91h1" />
<path stroke="#02300a" d="M29 91h1M56 91h1M81 91h1" />
<path stroke="#026014" d="M30 91h1M107 91h1" />
<path stroke="#01310a" d="M40 91h1M46 91h1M57 91h1M74 91h1M83 91h1M96 91h1M98 91h1" />
<path stroke="#02310a" d="M43 91h1M97 91h1M108 91h1" />
<path stroke="#046212" d="M51 91h1M86 91h1" />
<path stroke="#026214" d="M72 91h1" />
<path stroke="#012f09" d="M7 92h1M12 92h2M19 92h1M25 92h1M31 92h1M36 92h1M46 92h2M55 92h2M60 92h1M62 92h1M67 92h1M70 92h1M73 92h1M75 92h1M78 92h1M81 92h1M98 92h2M102 92h1M105 92h1M108 92h2" />
<path stroke="#022f09" d="M14 92h1M18 92h1M26 92h1M39 92h2M52 92h1M76 92h1M92 92h1" />
<path stroke="#025e12" d="M16 92h1M30 92h1M37 92h1M51 92h1M65 92h1M72 92h1M86 92h1M93 92h1M100 92h1" />
<path stroke="#046012" d="M44 92h1M79 92h1" />
<path stroke="#045e12" d="M58 92h1" />
<path stroke="#012f08" d="M61 92h1M103 92h2M15 93h1M35 93h1" />
<path stroke="#012e08" d="M7 93h2M10 93h2M13 93h2M17 93h5M24 93h6M31 93h4M36 93h1M38 93h5M45 93h2M48 93h1M50 93h1M52 93h6M59 93h2M62 93h3M66 93h5M73 93h4M78 93h1M81 93h5M87 93h3M91 93h2M94 93h4M102 93h1M106 93h1M108 93h1" />
<path stroke="#025c10" d="M9 93h1M16 93h1M23 93h1M44 93h1M51 93h1M58 93h1M65 93h1M72 93h1M79 93h1M93 93h1M100 93h1M107 93h1" />
<path stroke="#012e09" d="M12 93h1M22 93h1M43 93h1M49 93h1M61 93h1M71 93h1M77 93h1M80 93h1M90 93h1M98 93h2M101 93h1M103 93h3M109 93h1" />
<path stroke="#025e10" d="M30 93h1" />
<path stroke="#025c12" d="M37 93h1M86 93h1" />
<path stroke="#002e08" d="M47 93h1" />
<path stroke="#002d08" d="M7 94h1M24 94h1M29 94h1M48 94h1M76 94h1" />
<path stroke="#012c07" d="M8 94h1M13 94h1M18 94h1M20 94h1M22 94h1M49 94h1M52 94h1M60 94h1M62 94h1M66 94h1M71 94h1M89 94h1M91 94h2M96 94h1M101 94h2M106 94h1M109 94h1" />
<path stroke="#02580e" d="M9 94h1M72 94h1M79 94h1M10 95h1M12 95h1M16 95h1M26 95h1M85 95h1M87 95h1M89 95h2M95 95h1M101 95h1M106 95h1M109 95h1" />
<path stroke="#012d07" d="M10 94h2M19 94h1M36 94h1M39 94h1M46 94h1M57 94h1M67 94h2M80 94h1M87 94h2M90 94h1M103 94h2M108 94h1" />
<path stroke="#012c08" d="M12 94h1M14 94h1M25 94h1M34 94h2M43 94h1M53 94h2M63 94h1M69 94h2M73 94h1M75 94h1M85 94h1" />
<path stroke="#012d08" d="M15 94h1M17 94h1M21 94h1M27 94h1M32 94h1M38 94h1M40 94h2M45 94h1M47 94h1M50 94h1M56 94h1M59 94h1M61 94h1M77 94h1M81 94h1M83 94h2M95 94h1M97 94h1M99 94h1" />
<path stroke="#025a0e" d="M16 94h1M44 94h1M58 94h1" />
<path stroke="#00580e" d="M23 94h1M107 94h1M24 95h1M44 95h1M55 95h1M59 95h1" />
<path stroke="#002c07" d="M26 94h1M31 94h1M55 94h1M74 94h1M82 94h1" />
<path stroke="#002d07" d="M28 94h1M33 94h1M42 94h1M94 94h1M98 94h1M105 94h1" />
<path stroke="#025810" d="M30 94h1M37 94h1M86 94h1" />
<path stroke="#005a10" d="M51 94h1" />
<path stroke="#002c08" d="M64 94h1M78 94h1" />
<path stroke="#005a0e" d="M65 94h1" />
<path stroke="#025a10" d="M93 94h1M100 94h1" />
<path stroke="#02560e" d="M7 95h3M17 95h1M19 95h1M23 95h1M25 95h1M28 95h1M30 95h3M34 95h1M36 95h1M38 95h2M46 95h1M52 95h3M56 95h3M60 95h1M63 95h1M65 95h1M70 95h2M73 95h2M76 95h1M78 95h2M82 95h1M84 95h1M93 95h1M98 95h1M103 95h1M107 95h2M37 96h1M100 96h1" />
<path stroke="#00560e" d="M11 95h1M13 95h3M18 95h1M20 95h3M27 95h1M29 95h1M33 95h1M37 95h1M40 95h1M42 95h1M45 95h1M47 95h5M61 95h2M64 95h1M66 95h4M72 95h1M75 95h1M77 95h1M80 95h2M83 95h1M86 95h1M88 95h1M91 95h2M96 95h2M99 95h2M102 95h1M105 95h1M30 96h1" />
<path stroke="#00560c" d="M35 95h1M41 95h1M43 95h1M104 95h1M58 96h1M65 96h1M93 96h1M107 96h1" />
<path stroke="#02560c" d="M94 95h1" />
<path stroke="#012b06" d="M7 96h1M31 96h1M35 96h1M60 96h1M95 96h1M97 96h1M105 96h1" />
<path stroke="#002a07" d="M8 96h1M20 96h1M26 96h1M42 96h1M50 96h1M67 96h2M73 96h2M80 96h1M91 96h2M102 96h2M109 96h1M27 97h1M92 97h1" />
<path stroke="#00540e" d="M9 96h1M16 96h1M44 96h1" />
<path stroke="#012a07" d="M10 96h1M13 96h1M18 96h1M38 96h1M40 96h1M48 96h1M53 96h1M64 96h1M71 96h1M78 96h1M85 96h1M94 96h1M99 96h1" />
<path stroke="#002a06" d="M11 96h1M15 96h1M25 96h1M39 96h1M47 96h1M55 96h1M57 96h1M77 96h1M81 96h2M87 96h1M89 96h2M101 96h1M7 97h1M14 97h1M31 97h1M36 97h1M40 97h1M48 97h1M70 97h1M73 97h1M84 97h1M98 97h1" />
<path stroke="#012a06" d="M12 96h1M19 96h1M36 96h1M45 96h1M54 96h1M62 96h1M66 96h1M83 96h1M98 96h1M104 96h1M108 96h1M11 97h1M33 97h2M53 97h1M59 97h1M69 97h1M102 97h1M106 97h1" />
<path stroke="#002b07" d="M14 96h1M17 96h1M22 96h1M28 96h1M34 96h1M61 96h1M63 96h1M70 96h1M75 96h1M88 96h1M96 96h1" />
<path stroke="#002b06" d="M21 96h1M24 96h1M29 96h1M33 96h1M41 96h1M43 96h1M49 96h1M52 96h1M56 96h1M59 96h1M69 96h1M106 96h1" />
<path stroke="#02540c" d="M23 96h1M44 97h1" />
<path stroke="#012b07" d="M27 96h1M32 96h1M46 96h1M76 96h1M84 96h1" />
<path stroke="#00540c" d="M51 96h1M30 97h1M107 97h1" />
<path stroke="#02540e" d="M72 96h1M79 96h1M86 96h1" />
<path stroke="#002906" d="M8 97h1M10 97h1M12 97h2M15 97h1M17 97h1M19 97h1M21 97h1M24 97h3M28 97h2M32 97h1M38 97h2M41 97h2M46 97h2M49 97h1M54 97h1M56 97h2M60 97h3M64 97h1M67 97h1M71 97h1M75 97h2M78 97h1M82 97h1M87 97h4M94 97h1M96 97h2M99 97h1M101 97h1M103 97h1M105 97h1M109 97h1M24 98h1M29 98h1M40 98h1" />
<path stroke="#02520c" d="M9 97h1M86 97h1" />
<path stroke="#00520c" d="M16 97h1M23 97h1M37 97h1M51 97h1M58 97h1M65 97h1M72 97h1M79 97h1M93 97h1M100 97h1" />
<path stroke="#012906" d="M18 97h1M20 97h1M22 97h1M35 97h1M43 97h1M45 97h1M50 97h1M52 97h1M55 97h1M63 97h1M66 97h1M68 97h1M74 97h1M77 97h1M80 97h2M83 97h1M85 97h1M91 97h1M95 97h1M104 97h1M108 97h1" />
<path stroke="#002806" d="M7 98h1M10 98h4M15 98h1M18 98h2M21 98h2M34 98h1M41 98h1M47 98h1M49 98h1M52 98h1M55 98h2M59 98h2M62 98h1M64 98h1M67 98h1M69 98h2M73 98h2M78 98h1M82 98h4M88 98h1M90 98h1M94 98h1M96 98h2M99 98h1M101 98h1M103 98h1" />
<path stroke="#002805" d="M8 98h1M20 98h1M25 98h1M27 98h2M32 98h1M36 98h1M38 98h2M42 98h2M45 98h2M48 98h1M53 98h1M57 98h1M63 98h1M68 98h1M75 98h3M80 98h2M89 98h1M91 98h2M95 98h1M98 98h1M102 98h1M104 98h2M108 98h2" />
<path stroke="#00500a" d="M9 98h1M23 98h1M30 98h1M37 98h1M79 98h1M93 98h1" />
<path stroke="#012805" d="M14 98h1M26 98h1M31 98h1M35 98h1M50 98h1M66 98h1M106 98h1" />
<path stroke="#00500c" d="M16 98h1M44 98h1M51 98h1M58 98h1M65 98h1M86 98h1M100 98h1M107 98h1" />
<path stroke="#012806" d="M17 98h1M33 98h1M61 98h1M71 98h1" />
<path stroke="#002905" d="M54 98h1M87 98h1" />
<path stroke="#02500c" d="M72 98h1" />
<path stroke="#111111" d="M23 114h74M23 115h74M23 116h74M23 117h74M23 118h74M23 119h74M23 123h74M23 124h74M23 125h74M23 126h74M23 127h74M23 128h74M23 132h74M23 133h74M23 134h74M23 135h74M23 136h74M23 137h74M23 141h74M23 142h74M23 143h74M23 144h74M23 145h74M23 146h74" />
<path stroke="#f8f8f8" d="M8 115h2M11 115h3M16 115h2M7 116h1M11 116h1M15 116h1M8 117h1M11 117h3M15 117h1M9 118h1M11 118h1M15 118h1M7 119h2M11 119h3M16 119h2M8 124h2M11 124h3M15 124h3M7 125h1M13 125h1M15 125h1M8 126h1M12 126h1M15 126h3M9 127h1M11 127h1M15 127h1M7 128h2M11 128h3M15 128h3M7 133h1M9 133h1M11 133h1M13 133h1M15 133h1M18 133h2M7 134h1M9 134h1M11 134h1M13 134h1M15 134h1M17 134h1M7 135h1M9 135h1M11 135h1M13 135h1M15 135h1M18 135h1M7 136h1M9 136h1M11 136h1M13 136h1M15 136h1M19 136h1M8 137h1M12 137h1M14 137h1M17 137h2M8 142h2M11 142h1M13 142h1M15 142h2M7 143h1M11 143h1M13 143h1M15 143h1M17 143h1M8 144h1M11 144h1M13 144h1M15 144h2M9 145h1M11 145h1M13 145h1M15 145h1M17 145h1M7 146h2M11 146h3M15 146h2M7 151h1M9 151h2M13 151h1M18 151h1M20 151h1M22 151h1M25 151h1M27 151h1M30 151h2M33 151h1M36 151h1M40 151h1M43 151h1M47 151h1M49 151h2M52 151h1M55 151h1M57 151h1M60 151h1M62 151h2M65 151h2M68 151h2M72 151h1M77 151h1M79 151h1M81 151h1M84 151h1M86 151h1M89 151h2M92 151h1M95 151h1M7 152h1M10 152h1M12 152h2M15 152h2M18 152h1M20 152h1M24 152h2M27 152h1M29 152h1M31 152h1M33 152h2M36 152h1M38 152h1M40 152h1M42 152h2M45 152h1M47 152h2M50 152h1M52 152h2M55 152h1M57 152h2M60 152h1M62 152h1M64 152h3M69 152h1M71 152h2M74 152h2M77 152h1M79 152h1M83 152h2M86 152h1M88 152h1M90 152h1M92 152h2M95 152h1M97 152h1M7 154h1M10 154h2M13 154h1M16 154h1M18 154h2M21 154h1M24 154h1M26 154h2M29 154h1M34 154h1M36 154h1M38 154h1M40 154h2M43 154h2M48 154h1M51 154h1M53 154h2M57 154h1M59 154h1M61 154h1M64 154h1M66 154h1M69 154h2M72 154h1M75 154h1M77 154h2M80 154h1M83 154h1M85 154h2M88 154h1M93 154h1M95 154h1M97 154h1M7 155h2M11 155h1M13 155h1M15 155h2M21 155h2M24 155h1M27 155h1M29 155h1M31 155h2M34 155h1M36 155h2M40 155h2M43 155h1M46 155h1M48 155h1M50 155h2M53 155h2M56 155h2M61 155h2M64 155h1M66 155h2M70 155h1M72 155h1M74 155h2M80 155h2M83 155h1M86 155h1M88 155h1M90 155h2M93 155h1M95 155h2" />
<path stroke="#104838" d="M115 123h1M114 124h2M115 125h1M115 126h1M115 127h1M110 128h1M115 128h1M109 129h1M115 129h1M115 130h1M115 131h1M106 132h1M104 134h1M115 134h1M104 135h1M115 135h1M104 136h1M104 138h1M115 138h1M104 139h1M115 139h1M104 140h1M104 142h1M115 142h1M115 143h1M104 144h1M104 145h1M104 146h1M115 146h1M115 147h1M104 148h1M104 149h1M104 150h1M115 150h1M115 151h1M104 153h1M104 154h1M115 154h1M104 155h1M115 155h1M104 156h1M104 158h1M114 158h1M103 159h11" />
<path stroke="#486078" d="M113 125h1M112 126h1M111 127h1M110 129h1M114 129h1M109 130h1M112 130h2M107 131h1M113 131h1M115 132h1M105 133h3M109 133h1M112 133h4M107 136h1M109 136h1M115 136h1M104 137h1M106 137h1M112 137h4M115 140h1M104 141h1M106 141h2M109 141h1M112 141h4M104 143h1M106 143h1M107 144h1M115 144h1M109 145h1M112 145h4M104 147h1M106 147h1M107 148h1M109 148h1M115 148h1M112 149h4M109 152h1M115 152h1M108 153h1M112 153h4M107 154h1M106 155h1M105 156h1M115 156h1M104 157h1M112 157h4" />
<path stroke="#006838" d="M114 125h1M114 126h1M113 127h1M112 128h1M114 128h1M111 129h1M113 129h1M110 130h2M114 130h1M109 131h3M114 131h1M107 132h1M109 132h1M105 134h3M109 134h3M113 134h2M105 135h3M109 135h3M113 135h2M105 136h2M107 137h1M109 137h1M105 138h3M109 138h3M113 138h2M106 139h2M109 139h3M113 139h2M105 140h3M109 140h1M105 142h3M109 142h3M113 142h2M107 143h1M109 143h3M113 143h2M105 144h2M109 144h1M106 145h2M105 146h3M109 146h3M113 146h2M107 147h1M109 147h3M113 147h2M105 148h2M105 149h2M108 149h2M105 150h1M107 150h5M113 150h2M104 151h1M106 151h6M113 151h2M105 152h4M105 153h3M109 153h1M105 154h2M108 154h3M112 154h3M105 155h1M107 155h3M111 155h4M106 156h3M105 157h3M109 157h1M105 158h2M108 158h6" />
<path stroke="#282828" d="M114 127h1M113 128h1M112 129h1M108 130h1M108 131h1M108 132h1M108 133h1M108 134h1M112 134h1M108 135h1M112 135h1M108 136h1M108 137h1M108 138h1M112 138h1M108 139h1M112 139h1M108 140h1M108 141h1M108 142h1M112 142h1M108 143h1M112 143h1M108 144h1M108 145h1M108 146h1M112 146h1M108 147h1M112 147h1M108 148h1M107 149h1M106 150h1M112 150h1M105 151h1M112 151h1M104 152h1M111 154h1M110 155h1M109 156h1M108 157h1M107 158h1" />
<path stroke="#9898b8" d="M110 132h5M110 133h1M110 136h5M110 137h1M110 140h5M110 141h1M110 144h5M110 145h1M110 148h5M110 149h1M110 152h5M110 153h1M110 156h5M110 157h1" />
</svg>